<?xml version="1.0" encoding="UTF-8"?>
<svg width="100px" height="100px" viewBox="0 0 100 100" version="1.1" xmlns="http://www.w3.org/2000/svg" xmlns:xlink="http://www.w3.org/1999/xlink">
    <title>ble galeria</title>
    <g id="Logos" stroke="none" stroke-width="1" fill="none" fill-rule="evenodd">
        <g transform="translate(-100.000000, -300.000000)" id="ble-galeria">
            <g transform="translate(100.000000, 300.000000)">
                <rect id="Area" fill="#FCE059" x="0" y="0" width="100" height="100"></rect>
                <g id="Group-11" transform="translate(36.000000, 18.000000)" fill="#000000">
                    <path d="M13.84924,17.93292 L13.84924,45.53112 C12.57004,44.84812 11.44744,44.39932 10.52784,43.68812 C10.12004,43.37292 9.97564,42.53052 9.96184,41.92192 C9.84784,36.83392 9.79464,31.74472 9.71444,26.65592 C9.70684,26.16992 9.64064,25.68492 9.58024,24.93132 C8.28604,25.58492 7.18644,26.08672 6.14264,26.68572 C5.43444,27.09192 4.86224,27.16912 4.17804,26.62172 C3.32664,25.94132 2.39284,25.36392 1.26004,24.57932 C5.53024,22.32492 9.60304,20.17472 13.84924,17.93292 L13.84924,17.93292 Z M18.63104,20.25032 C21.37344,21.71252 24.02084,23.11112 26.64804,24.54632 C26.89364,24.68052 27.16424,25.04652 27.16624,25.30672 C27.19804,29.69532 27.18884,34.08412 27.18884,38.74672 C26.08784,38.00252 25.14684,37.45832 24.31644,36.77932 C23.46344,36.08192 22.70684,36.07672 21.79384,36.63972 C20.86704,37.21132 19.86744,37.66492 18.63104,38.31092 L18.63104,20.25032 Z M1.05364,39.70492 C5.03624,41.78012 8.98124,43.92772 12.98984,45.94952 C13.55884,46.23652 14.52724,46.21772 15.10224,45.92752 C19.07224,43.92332 22.97624,41.78852 26.92824,39.74732 C27.81964,39.28712 28.10024,38.67172 28.07464,37.71572 C28.02124,35.72332 28.05844,33.72872 28.05944,31.73472 C28.06044,29.65612 28.03824,27.57712 28.07144,25.49892 C28.08464,24.67752 27.77844,24.16592 27.04464,23.78232 C23.02744,21.68292 19.04324,19.51932 15.00304,17.46572 C14.47364,17.19672 13.57004,17.20352 13.03824,17.47332 C9.11164,19.46732 5.24964,21.58852 1.33264,23.60272 C0.36924,24.09792 -0.00836,24.71392 0.00344,25.78912 C0.04884,29.81952 0.03904,33.85072 5.71586921e-05,37.88092 C-0.00816,38.75512 0.27184,39.29752 1.05364,39.70492 L1.05364,39.70492 Z" id="Fill-1"></path>
                    <path d="M16.00158,1.57024 C19.28978,3.55904 22.79538,5.18684 26.17718,7.02584 C26.61678,7.26504 27.14598,7.85884 27.15218,8.29544 C27.21598,12.66024 27.18038,17.02664 27.16518,21.39264 C27.16458,21.54604 27.08598,21.69924 26.99258,22.03804 C22.77538,19.70764 18.65098,17.42824 14.50338,15.13624 C15.70278,13.83164 16.27418,13.69964 17.70758,14.42444 C19.44558,15.30264 21.16438,16.21844 22.89558,17.11004 C23.22238,17.27844 23.56858,17.40984 23.90358,17.55744 C24.79618,15.63244 24.36598,14.23864 22.66998,13.32164 C20.10798,11.93644 17.54738,10.54924 14.91458,9.12424 C15.78998,8.15384 16.55118,7.89744 17.71718,8.59244 C19.77238,9.81764 21.94278,10.84944 24.07798,11.96944 C24.87118,9.88424 24.45898,8.72604 22.71098,7.83544 C18.98198,5.93544 15.25298,4.03544 11.42878,2.08704 C12.93598,0.94244 14.19118,0.47504 16.00158,1.57024 M11.63618,7.62004 L11.63618,5.40104 C12.39918,5.76384 12.94838,6.02464 13.74658,6.40404 C12.96038,6.85704 12.37338,7.19524 11.63618,7.62004 M11.61578,13.68884 L11.61578,10.88844 C12.50738,11.33384 13.27398,11.71684 14.31498,12.23724 C13.34898,12.75684 12.60098,13.15904 11.61578,13.68884 M0.03038,21.76624 C0.03158,22.23864 0.14218,22.71044 0.22238,23.34164 C0.86938,23.02064 1.32718,22.81424 1.76538,22.57244 C5.58498,20.46564 9.38998,18.33184 13.23418,16.27064 C13.64898,16.04824 14.37118,16.05604 14.80038,16.26524 C16.35918,17.02484 17.85198,17.91944 19.37298,18.75684 C22.11198,20.26384 24.85318,21.76624 27.76758,23.36624 C27.88518,22.89104 27.99338,22.65444 27.99478,22.41724 C28.02258,17.62444 28.06738,12.83124 28.01158,8.03904 C28.00578,7.55564 27.48498,6.88344 27.02198,6.63024 C22.97298,4.41464 18.89378,2.25324 14.78858,0.14364 C14.36318,-0.07516 13.61878,-0.03236 13.17858,0.19344 C9.18458,2.24104 5.24058,4.38604 1.24498,6.43004 C0.30338,6.91164 -0.00022,7.52884 0.00762663994,8.53164 C0.04218,12.94284 0.01698,17.35484 0.03038,21.76624" id="Fill-3"></path>
                    <path d="M26.2297,56.82062 C23.4861,58.24142 20.7825,59.74002 18.0195,61.12082 C17.5483,61.35642 16.7573,61.36162 16.2879,61.12622 C12.8093,59.38242 9.3941,57.51222 5.9151,55.76902 C4.8235,55.22222 4.3443,54.56782 4.8185,53.14242 C6.3537,53.92102 7.8219,54.64282 9.2689,55.40502 C11.3155,56.48282 11.9459,56.39802 13.7811,54.61302 C13.4267,54.36862 13.1151,54.11082 12.7667,53.92042 C10.5373,52.70262 8.3419,51.41162 6.0491,50.32622 C4.7397,49.70642 4.4435,48.87282 4.8503,47.40302 C6.0229,48.02322 7.2589,48.48982 8.2727,49.25222 C10.3755,50.83402 12.0755,50.31182 14.1745,49.00362 C18.2621,46.45602 22.5839,44.28362 26.8115,41.96102 C26.8747,41.92642 26.9733,41.95682 27.1397,41.95682 C27.1723,42.28282 27.2321,42.60382 27.2327,42.92502 C27.2389,46.99502 27.2145,51.06522 27.2544589,55.13442 C27.2625,55.97802 26.9537,56.44582 26.2297,56.82062 M28.0805,42.02142 C28.0799,41.57862 28.0141,41.13602 27.9567,40.42422 C27.1493,40.83962 26.6195,41.09502 26.1057,41.37902 C22.5859,43.32462 19.0443,45.23242 15.5677,47.25202 C14.5187,47.86142 13.7173,47.86362 12.6841,47.25602 C9.9113,45.62542 7.0797,44.09502 4.2645,42.53702 C3.0261,41.85162 1.7715,41.19602 0.3757,40.44742 C0.2839,41.00262 0.1863,41.32162 0.1849,41.64082 C0.1667,46.34662 0.1271,51.05302 0.2003,55.75762 C0.2083,56.27442 0.7653,56.98762 1.2599,57.25902 C5.1921,59.41702 9.1785,61.47622 13.1283,63.60242 C13.8433,63.98742 14.4255,63.98322 15.1381,63.59902 C19.0501,61.49002 22.9685,59.39182 26.9219,57.36222 C27.8173,56.90242 28.1111,56.34202 28.1026826,55.37602 C28.0633,50.92482 28.0883,46.47302 28.0805,42.02142" id="Fill-5"></path>
                    <path d="M17.06368,53.82784 L17.06368,49.67364 C15.73988,50.40984 14.62488,51.03004 13.19568,51.82444 C14.66168,52.58384 15.74708,53.14604 17.06368,53.82784" id="Fill-7"></path>
                    <path d="M13.91212,57.93858 C14.90352,58.41778 15.89492,58.89678 17.03892,59.44958 L17.03892,55.51678 C15.84032,56.26318 14.84932,56.88038 13.85812,57.49758 C13.87612,57.64458 13.89412,57.79158 13.91212,57.93858" id="Fill-9"></path>
                </g>
            </g>
        </g>
    </g>
</svg>