<?xml version="1.0" encoding="UTF-8"?>
<svg width="100px" height="100px" viewBox="0 0 100 100" version="1.1" xmlns="http://www.w3.org/2000/svg" xmlns:xlink="http://www.w3.org/1999/xlink">
    <!-- Generator: Sketch 59 (86127) - https://sketch.com -->
    <title>camolese</title>
    <desc>Created with Sketch.</desc>
    <g id="Logos" stroke="none" stroke-width="1" fill="none" fill-rule="evenodd">
        <g transform="translate(-100.000000, 0.000000)" id="camolese">
            <g transform="translate(100.000000, 0.000000)">
                <rect id="Area" fill="#FCE059" x="0" y="0" width="100" height="100"></rect>
                <polygon id="Fill-51" fill="#000000" points="34.8204744 47.7636191 34.8204744 56.3693809 32.4220329 56.3693809 32.4220329 41.6470695 34.6459153 41.6470695 37.6029459 48.8807971 37.836855 48.9052354 40.8672004 41.636596 43.0212592 41.636596 43.0212592 56.351925 40.6961325 56.351925 40.6961325 47.6239718 40.4831704 47.5681129 37.7321196 53.9325364 35.0543835 47.6972867"></polygon>
                <path d="M26.3962889,45.4210365 L26.2322034,45.4035806 C26.1431782,45.552654 26.0726564,45.7118519 26.0227325,45.8783812 C25.8411911,46.817509 25.6736144,47.7601279 25.5060377,48.7027469 C25.2965668,49.9560809 25.3035491,49.9456074 26.6232157,49.9072044 C27.0351751,49.9072044 27.2725754,49.8234161 27.1399105,49.3276683 C27.0386662,48.9401472 27.0037544,48.531679 26.9304396,48.1371755 C26.7558806,47.2294684 26.5743391,46.3252524 26.3962889,45.4210365 L26.3962889,45.4210365 Z M24.5319981,41.6296136 L28.0231794,41.6296136 C28.9762718,46.5661439 29.922382,51.4712536 30.8754745,56.390328 L28.5328918,56.390328 C28.285018,55.0706615 28.0266705,53.7998715 27.8346556,52.518608 C27.7718143,52.1171221 27.5972552,51.9739837 27.22719,51.9809661 C26.7447088,52.0141323 26.2604819,52.0141323 25.7783498,51.9809661 C25.0242546,51.8797218 24.7554337,52.2323311 24.6506982,52.9166027 C24.4831215,54.0582189 24.2561948,55.1928529 24.0467239,56.3833457 L21.7146148,56.3833457 L24.5319981,41.6296136 Z" id="Fill-53" fill="#000000"></path>
                <path d="M50.7646644,50.7904384 C50.6648166,51.5986468 50.4811805,52.394287 50.2165489,53.1644416 C50.0000957,53.8626779 49.5183127,54.3444609 48.7293057,54.3095491 C48.0160574,54.2833652 47.4260477,53.7464215 47.3328332,53.0387591 C47.0360828,51.708619 46.8266119,50.3610231 46.5822292,49.0273918 C46.8266119,47.6623399 46.9872062,46.3496558 47.3049037,45.0753746 C47.5562688,44.0734056 48.079946,43.7242874 48.8584794,43.7382522 C49.4973656,43.7382522 50.0489722,44.2514558 50.3387403,45.1347247 C50.9566793,46.9780684 50.9287499,48.8807622 50.7646644,50.7904384 M53.068844,46.83493 C52.9543333,46.0975925 52.7780286,45.3714268 52.5416756,44.6634152 C51.9062806,42.7223184 50.5935965,41.6644905 48.8410235,41.615614 C47.2595184,41.5702286 45.981746,42.5268123 45.2067038,44.3212794 C44.5713088,45.7945579 44.4351527,47.3516248 44.4421351,48.9226564 C44.4421351,50.668247 44.536397,52.4417671 45.3568246,54.0686576 C46.0760079,55.4965507 47.1827124,56.4286961 48.8026205,56.4042578 C50.2971952,56.4248558 51.6510753,55.5248293 52.2100134,54.1384812 C52.9606174,52.5220643 53.1526324,50.8148766 53.222456,48.9575682 C53.184053,48.3256644 53.184053,47.5715692 53.068844,46.83493" id="Fill-55" fill="#000000"></path>
                <path d="M70.8703075,54.1663757 C71.5196672,53.7264869 72.1341151,53.3110363 72.7799837,52.881621 C73.0662605,53.1574243 73.3211168,53.4367188 73.6073936,53.6811015 C74.6484639,54.4889609 76.0892744,54.5409795 77.1858544,53.8102752 C78.0178029,53.0862042 78.1054316,51.8248405 77.3813606,50.992892 C77.3722835,50.9824184 77.3628573,50.9719449 77.3534311,50.9614713 C76.7676109,50.4276697 76.1245353,49.9591532 75.4367726,49.5649988 C74.4487683,48.9226215 73.3804669,48.3919619 72.458795,47.6692874 C71.41563,46.8897066 70.9764394,45.537223 71.3625641,44.2933151 C71.6669951,43.0392828 72.6728044,42.0771132 73.9390559,41.8285411 C76.3130591,41.2385315 78.2646295,41.8494882 79.776311,43.8883381 L77.8107759,45.2464076 C77.7496802,45.0941921 77.6760163,44.9468642 77.5908315,44.8065187 C76.8925952,43.8220056 75.9150645,43.5880965 74.7769394,43.7975673 C74.0005006,43.9110307 73.4628587,44.6319597 73.575973,45.4087475 C73.6115831,45.6510355 73.7086379,45.8804061 73.8587587,46.0738175 C74.1691247,46.4400425 74.5398882,46.7504085 74.9549896,46.9919982 C76.0826412,47.6902345 77.2661516,48.2872265 78.3693649,49.0203745 C79.6925226,49.9001522 80.4082148,51.1883981 80.1149555,52.7908503 C79.882792,54.4205337 78.6807783,55.7440406 77.081119,56.1319108 C74.6268186,56.8406206 72.5949511,56.1039813 70.8703075,54.1663757" id="Fill-57" fill="#000000"></path>
                <path d="M62.7149779,41.5841584 L68.1367824,41.5841584 C68.286205,41.6085967 68.4153787,41.7014621 68.4859005,41.8355235 C68.7058449,42.4115684 68.8873864,43.0050692 69.1212955,43.7102878 C67.9342939,43.7102878 66.8555189,43.7417084 65.7837262,43.7102878 C65.2181549,43.6858495 65.0261399,43.8324792 65.0366134,44.4085241 C65.0645429,46.3356561 65.0366134,46.3356561 66.9812014,46.2274295 C67.127831,46.2274295 67.2674783,46.1995001 67.5083698,46.1750618 C67.7352966,46.8348951 67.9622233,47.5017107 68.2310443,48.2697706 L65.123893,48.2697706 C65.0924723,48.7725007 65.047087,49.1949336 65.0435958,49.6173665 C65.0435958,50.9684537 65.0435958,52.3195408 65.0261399,53.670628 C65.0261399,54.1419375 65.2111725,54.2466729 65.6266231,54.2396905 L69.5227814,54.2396905 C69.3063281,54.903015 69.1282779,55.4965158 68.9048423,56.0760519 C68.8329239,56.2376936 68.6873417,56.3549973 68.51383,56.3902582 C66.5657508,56.4112053 64.6141805,56.3902582 62.7010132,56.3902582 L62.7149779,41.5841584 Z" id="Fill-59" fill="#000000"></path>
                <path d="M86.189576,46.2029563 C86.3536616,46.6917217 86.5177471,47.1665224 86.6713591,47.6483054 C86.7342003,47.8507939 86.7760945,48.0602648 86.8459181,48.3465416 L84.3357588,48.3465416 C83.8644493,48.3465416 83.6794167,48.5176095 83.6829079,48.9749543 C83.6829079,50.5669329 83.703855,52.1624028 83.6829079,53.7543814 C83.6829079,54.2501292 83.9447465,54.2955145 84.3252852,54.2920233 L88.1655846,54.2920233 C87.9630961,54.9344007 87.8164665,55.5313927 87.5720838,56.1004553 C87.4600169,56.2970088 87.2596231,56.4272298 87.0344419,56.4495734 C85.1526952,56.4775028 83.2709485,56.4495734 81.3857106,56.4495734 L81.3857106,41.6225265 L87.0728449,41.6225265 L87.8025018,43.7172353 C86.6050266,43.7172353 85.5053045,43.7521471 84.4090736,43.7172353 C83.8155728,43.6893058 83.6619608,43.884812 83.6689432,44.4503833 C83.6898902,46.3356212 83.6689432,46.3391124 85.5821105,46.2553241 C85.7776167,46.2378681 85.9626493,46.2204122 86.189576,46.2029563" id="Fill-61" fill="#000000"></path>
                <path d="M18.6074285,52.8502004 L20.4856841,54.1454286 C19.7630095,55.0636093 18.9740026,55.8002486 17.9091923,56.1493667 C15.5596273,56.9174266 13.5906011,56.0306665 12.7108234,53.593822 C11.5740947,50.5774414 11.6065627,47.2451089 12.8015941,44.2514209 C14.1212606,40.9173428 17.6892479,41.0534989 19.6862036,42.9701574 C19.9480422,43.2180313 20.1714778,43.5008169 20.5066312,43.8743733 L18.6597963,45.1661104 C18.4189048,44.9287101 18.2199074,44.7611334 18.0488395,44.562136 C17.0014852,43.3332402 15.2768416,43.3227667 14.7077791,45.4209666 C14.4906276,46.2096245 14.3733239,47.0223715 14.3586609,47.8403553 C14.3586609,49.1600218 14.4459405,50.4831795 14.5297288,51.7993548 C14.5632442,52.1362538 14.6442396,52.4665196 14.7706203,52.7803768 C15.4304536,54.5783351 16.8653291,54.8366825 18.115172,53.3983159 L18.6074285,52.8502004 Z" id="Fill-63" fill="#000000"></path>
                <path d="M61.4023635,54.2572512 C61.1719456,54.9554874 60.9834218,55.5664442 60.756495,56.1669273 C60.6877187,56.3041308 60.558545,56.4011856 60.4073769,56.4287659 L54.6050336,56.4287659 L54.6050336,41.6680515 L56.8882662,41.6680515 L56.8882662,53.7126269 C56.8882662,54.2083746 57.1047194,54.2677247 57.4992229,54.2642335 C58.7560481,54.2502688 60.0303293,54.2572512 61.4023635,54.2572512" id="Fill-65" fill="#000000"></path>
            </g>
        </g>
    </g>
</svg>