<?xml version="1.0" encoding="utf-8"?>
<!-- Generator: Adobe Illustrator 23.0.1, SVG Export Plug-In . SVG Version: 6.00 Build 0)  -->
<svg version="1.1" id="Layer_1" xmlns="http://www.w3.org/2000/svg" xmlns:xlink="http://www.w3.org/1999/xlink" x="0px" y="0px"
	 viewBox="0 0 50.6 50.6" style="enable-background:new 0 0 50.6 50.6;" xml:space="preserve">
<style type="text/css">
	.st0{fill:none;stroke:#4D4D4D;stroke-width:1.5;stroke-linecap:round;stroke-linejoin:round;stroke-miterlimit:10;}
</style>
<path class="st0" d="M18.2,45.7H9.4c-1.9,0-3.5-1.6-3.5-3.5V8.9c0-1.9,1.6-3.5,3.5-3.5h17.5c1.9,0,3.5,1.6,3.5,3.5v15.8"/>
<line class="st0" x1="30.4" y1="12.4" x2="5.9" y2="12.4"/>
<line class="st0" x1="18.2" y1="38.7" x2="5.9" y2="38.7"/>
<line class="st0" x1="14.6" y1="8.9" x2="21.7" y2="8.9"/>
<path class="st0" d="M18.2,43.1c-0.5,0-0.9-0.4-0.9-0.9s0.4-0.9,0.9-0.9"/>
<line class="st0" x1="21.7" y1="33.4" x2="46.2" y2="33.4"/>
<line class="st0" x1="32.2" y1="36.9" x2="25.2" y2="36.9"/>
<line class="st0" x1="42.7" y1="36.9" x2="39.2" y2="36.9"/>
<line class="st0" x1="28.7" y1="40.4" x2="25.2" y2="40.4"/>
<path class="st0" d="M46.2,42.2c0,1.9-1.6,3.5-3.5,3.5H25.2c-1.9,0-3.5-1.6-3.5-3.5V31.7c0-1.9,1.6-3.5,3.5-3.5h17.5
	c1.9,0,3.5,1.6,3.5,3.5V42.2z"/>
<path class="st0" d="M15.7,26.6c0,1.3,1.1,2.4,2.4,2.4s2.4-1.1,2.4-2.4s-1.1-2.4-2.4-2.4s-2.4-1.1-2.4-2.4c0-1.3,1.1-2.4,2.4-2.4
	s2.4,1.1,2.4,2.4"/>
<line class="st0" x1="18.2" y1="29" x2="18.2" y2="30.7"/>
<line class="st0" x1="18.2" y1="17.6" x2="18.2" y2="19.3"/>
</svg>
