<?xml version="1.0" encoding="UTF-8"?>
<svg width="100px" height="100px" viewBox="0 0 100 100" version="1.1" xmlns="http://www.w3.org/2000/svg" xmlns:xlink="http://www.w3.org/1999/xlink">
    <!-- Generator: Sketch 59 (86127) - https://sketch.com -->
    <title>circo-voador</title>
    <desc>Created with Sketch.</desc>
    <g id="Logos" stroke="none" stroke-width="1" fill="none" fill-rule="evenodd">
        <g id="circo-voador">
            <g>
                <rect id="Area" fill="#FCE059" x="1.687539e-14" y="-3.21964677e-15" width="100" height="100"></rect>
                <path d="M10.8371724,43.1840035 C11.7937561,42.8348854 12.7503397,42.4857673 13.7034322,42.1122109 C13.7921082,42.0706658 13.859488,41.9931616 13.8884648,41.8992488 C14.0490592,41.3546245 14.19918,40.8100003 14.3911949,40.1187464 C12.9503844,40.7988285 11.7214886,41.8587511 10.8371724,43.1840035 L10.8371724,43.1840035 Z M7.5380061,46.3749432 C7.01153596,46.9153781 6.51962852,47.4879318 6.0647276,48.0891132 C5.29317654,49.2691325 5.93904508,50.5957814 7.29711459,50.8436552 L7.5380061,46.3749432 Z M31.5294038,42.4438731 L33.5298507,47.680645 C35.0799352,45.5859362 33.997669,42.8139383 31.532895,42.4438731 L31.5294038,42.4438731 Z M17.8823762,61.0169575 C15.7447259,60.7456927 13.7009884,59.9755381 11.9159474,58.7686367 C11.982629,59.588017 12.1550933,60.3955272 12.4291511,61.1705695 C12.7154279,61.9717956 13.504784,62.4801115 14.352792,62.4099388 C15.6934056,62.3785182 16.7966188,61.7326496 17.8858674,61.0169575 L17.8823762,61.0169575 Z M23.8173844,40.2898142 C23.8418227,40.3177437 23.8173844,40.2583936 23.771999,40.2374465 C21.4081202,38.9687512 18.6389152,38.6852673 16.066962,39.4484396 C15.8972905,39.4920793 15.7503118,39.5982112 15.6550026,39.74519 C15.4071287,40.3596379 15.201149,40.9915417 15.009134,41.5326748 L23.8173844,40.2898142 Z M30.3982611,51.4895238 L30.5623466,51.5593474 C31.3059682,50.665605 32.0565722,49.7753538 32.7827379,48.8641555 C32.8637333,48.7122891 32.8752542,48.5328424 32.8141585,48.3718989 C32.0670457,46.3400314 31.3070156,44.3116551 30.5344172,42.2867699 C30.48973,42.1324597 30.380107,42.0053807 30.2341756,41.9376518 C29.3823273,41.7316721 28.5234968,41.5640954 27.6646662,41.382554 L27.584369,41.5222012 C30.0910371,44.4128993 30.9882707,47.7434863 30.4052435,51.4895238 L30.3982611,51.4895238 Z M26.4951204,58.349695 C26.9000975,58.4369745 27.2666715,58.5312364 27.6367367,58.5940777 C29.0925593,58.8384604 30.5483819,59.1107725 32.0251516,58.7791103 C33.2261179,58.5137805 33.9871954,57.7841236 34.1198603,56.5552278 C34.2123766,55.7864697 34.2123766,55.0093327 34.1198603,54.2405746 C33.9487925,52.9697846 33.6660068,51.7164506 33.400677,50.3025221 C32.7024407,51.0601085 32.16829,51.6989947 31.6027186,52.2890043 C30.4645935,53.5074266 29.260136,54.6560252 28.3908319,56.1293037 C27.9055577,56.925293 27.1689184,57.5746527 26.5021028,58.349695 L26.4951204,58.349695 Z M13.4346113,43.1456005 C12.2580832,43.7251366 11.1059934,44.2627785 9.98881536,44.8632617 C9.68787553,45.0441049 9.45675933,45.3209556 9.33247328,45.6487775 C8.0232803,49.3005531 8.54695749,52.6590695 10.8616107,55.7522561 C10.9876423,55.9002822 11.122751,56.0402786 11.2665877,56.1711979 L13.4346113,43.1456005 Z M16.5382714,37.9402492 C16.6430069,37.9402492 16.7407599,37.9402492 16.8315307,37.9123198 C20.1711947,37.2870492 23.6169906,38.1587972 26.2577201,40.2967966 C26.3544258,40.3973426 26.4745225,40.4727521 26.6068382,40.516741 C27.6541926,40.6459147 28.701547,40.7541414 29.8257074,40.8658592 C29.588307,40.4364439 29.4102568,40.0873257 29.2042771,39.7521723 C27.9369783,37.6784106 26.5160675,35.740805 24.3515351,34.5154004 C21.1745602,32.7034773 17.5018375,34.3059295 16.5382714,37.9367581 L16.5382714,37.9402492 Z M29.2810831,49.8102656 C29.2426801,46.2981372 28.0975726,43.6832424 25.7480076,41.6199543 C25.4938496,41.4083887 25.1775486,41.2858483 24.8472829,41.2708362 C21.5756969,41.2216105 18.3156318,41.672322 15.1802019,42.6079586 C14.8038526,42.6847646 14.5147828,42.9864027 14.4540362,43.3655449 C13.3784033,47.6345614 12.5621651,51.9643244 12.0102093,56.3317922 C11.9253736,56.7367692 12.0971397,57.1525689 12.4431158,57.3791466 C15.8086145,59.9172354 19.4708637,60.4723332 23.290216,58.6883396 C27.1095683,56.9043459 29.0820858,53.6680209 29.2810831,49.8102656 L29.2810831,49.8102656 Z M30.5169613,59.7496587 C29.0855769,59.5017848 27.6576838,59.2294727 26.2228083,59.0200018 C25.8632166,58.9885812 25.5015302,59.0535171 25.1754539,59.2085256 C24.4772177,59.5157495 23.7789814,59.9067618 23.0807451,60.25588 C22.2288969,60.6748217 21.3351545,61.0448869 20.5217093,61.5022317 C18.8529246,62.4204124 17.1736664,63.2722606 15.239552,63.4607844 C13.4939614,63.6318523 12.1533477,62.8358629 11.6436353,61.1705695 C11.3783055,60.3047565 11.3573584,59.3726111 11.1897817,58.4753775 C11.1499822,58.210746 11.0361697,57.9628721 10.8616107,57.7596853 C9.51296735,56.4211664 8.48900388,54.7907848 7.86966832,52.9942229 C7.74049462,52.7459999 7.53311845,52.5473517 7.27965869,52.4286515 C6.58142243,52.0446216 5.80987137,51.7897654 5.16749401,51.3359118 C3.80244214,50.3723458 3.59995362,49.0840999 4.5355902,47.6981009 C5.30714127,46.5495023 6.41384573,45.7500218 7.56244437,45.0308384 C8.08961274,44.7131409 8.52042451,44.25824 8.80879609,43.7146631 C10.0691125,41.4174658 12.0681629,39.6128742 14.4819657,38.5931001 C14.7898878,38.4499617 15.0370635,38.2027861 15.1802019,37.8948639 C15.8784382,36.1737115 16.6569716,34.4944533 17.9731469,33.1294014 C19.4289695,31.6247023 21.1361572,31.3279519 23.0597981,32.0820471 C24.5889355,32.6720567 25.7794283,33.7194111 26.8512209,34.9168863 C28.3531271,36.6527016 29.6151891,38.5815792 30.6042408,40.6528971 C30.7805454,41.0020152 31.1006868,41.2568715 31.4805273,41.3511333 C32.3529735,41.6262384 33.1999341,41.976753 34.0116337,42.3984877 C35.6105947,43.2782654 36.1482367,44.580476 35.5931388,46.3295578 C35.2572872,47.2644962 34.828221,48.162428 34.3118753,49.0107851 C34.1058956,49.3187073 34.0458473,49.702039 34.1477898,50.0581395 C34.6609934,51.9643244 35.1218294,53.8809829 35.1043735,55.8744475 C35.1043735,56.1118478 35.1043735,56.3527393 35.0659705,56.5901396 C34.8809379,58.4160274 33.9243542,59.3830846 32.0949752,59.6030291 C31.5817715,59.6623791 31.0476208,59.6693615 30.5448907,59.697291 L30.5169613,59.7496587 Z" id="Fill-273" fill="#000000"></path>
                <path d="M56.4459995,40.6878438 L55.6709573,40.6878438 C55.2240861,40.652932 55.0181064,40.8100352 55.0390535,41.2918182 C55.0669829,42.0459133 55.0565094,42.8034997 55.0390535,43.5575948 C55.0390535,43.906713 55.1437889,44.119675 55.5417836,44.1092015 L57.3292684,44.1092015 C58.226502,44.0568337 58.5197612,43.7251715 58.5302347,42.8314291 C58.554673,40.7925793 58.4499376,40.6843526 56.4459995,40.6878438 M58.9771059,45.505674 L61.3755475,48.9968553 C60.5725758,48.9968553 59.8952866,48.9968553 59.2179974,48.9793993 C59.0888237,48.9793993 58.9491765,48.7594549 58.8479322,48.6302812 C58.2718873,47.8203272 57.7098071,46.9998996 57.1372534,46.1864543 C56.8823972,45.8163891 55.5243277,45.5510593 55.1926654,45.8373362 C55.08793,45.9752379 55.0383552,46.1466549 55.0530182,46.3191192 C55.0355623,47.0173555 55.0250887,47.7539947 55.0530182,48.4696869 C55.0704741,48.9025934 54.9273357,49.0736612 54.4769733,49.0631877 C52.9094329,49.0247847 53.1747627,49.2377468 53.1642891,47.7819242 L53.1642891,39.8918545 C53.1642891,39.0504798 53.1642891,39.0469886 54.0335932,39.0504798 C55.2659802,39.0504798 56.5053496,39.0260415 57.7377366,39.0888828 C59.6858157,39.1901271 60.4294373,40.0140458 60.4329285,41.9691073 L60.4329285,42.9850411 C60.422455,44.2383752 60.1257046,44.7795083 58.9771059,45.505674" id="Fill-275" fill="#000000"></path>
                <path d="M86.5991925,53.5842675 L86.5991925,53.8391237 C86.5991925,55.3158934 86.5991925,55.3158934 88.0619975,55.3158934 C89.9856384,55.3158934 90.093865,55.2041756 90.0833915,53.304973 C90.0833915,52.2576186 89.7761675,51.9538858 88.7427778,51.9259563 L88.2679772,51.9259563 C86.5991925,51.9050093 86.5991925,51.9050093 86.5991925,53.5842675 M90.5023332,56.6844364 L92.9287042,60.2140207 C92.1396972,60.2140207 91.4903375,60.2349678 90.8339954,60.2140207 C90.6768923,60.2140207 90.5058244,60.0045498 90.3941066,59.8649026 C89.8320264,59.0933515 89.2874021,58.3078357 88.7357955,57.5258111 C88.3866774,57.0475193 87.2590258,56.7298218 86.7737516,57.0160986 C86.6547023,57.1351479 86.5901155,57.2981861 86.5957014,57.466461 C86.5747543,58.2205562 86.5747543,58.9770952 86.5957014,59.7357289 C86.5957014,60.1162676 86.47351,60.2803531 86.0790065,60.2733708 C84.431169,60.2349678 84.7069723,60.4549122 84.682534,58.9327572 L84.682534,50.9868286 C84.682534,50.4038013 84.8570931,50.2327334 85.4261556,50.2501893 C86.6620338,50.2955747 87.897912,50.2711364 89.130299,50.2851011 C91.095834,50.3095394 91.9721205,51.1997906 91.9721205,53.1548522 L91.9721205,53.9333856 C92.0314706,55.0924578 91.769632,56.1258474 90.5023332,56.6844364" id="Fill-277" fill="#000000"></path>
                <path d="M69.9567663,55.1972281 L69.9567663,58.0634879 C69.9567663,58.4126061 70.0615018,58.5906563 70.431567,58.5801828 C70.9482618,58.5627269 71.4789213,58.5801828 71.9816515,58.5522533 C72.8020791,58.4824297 73.1930914,58.1123645 73.2105473,57.3024104 C73.2419679,55.9303762 73.2419679,54.5548508 73.2105473,53.1863077 C73.1896002,52.3798448 72.7846231,51.9993061 71.9711779,51.939956 C71.4789213,51.9050442 70.9761912,51.939956 70.4804435,51.9190089 C70.0824488,51.9190089 69.9567663,52.0796032 69.9637487,52.4531596 C69.9637487,53.3503932 69.9567663,54.2650827 69.9567663,55.1797722 L69.9567663,55.1972281 Z M68.0645461,55.1972281 L68.0645461,50.8960928 C68.0645461,50.4282745 68.1727727,50.1978565 68.6964499,50.2292772 C70.0929224,50.2921184 71.5312891,50.2292772 72.9242704,50.379398 C74.4150048,50.5644306 75.1132411,51.517523 75.1237146,53.0361869 C75.1341881,54.5548508 75.1237146,55.9827439 75.1237146,57.4560224 C75.1237146,58.9921422 74.2613928,60.0220406 72.7322554,60.144232 C71.3357829,60.259441 69.9078898,60.2140556 68.4974525,60.2384939 C68.0889843,60.2384939 68.0715284,59.9801465 68.0715284,59.6799049 L68.0715284,55.1972281 L68.0645461,55.1972281 Z" id="Fill-279" fill="#000000"></path>
                <path d="M55.6639051,55.2741039 L55.6639051,55.2741039 C55.6639051,54.5968148 55.681361,53.9195256 55.6639051,53.2422364 C55.6324844,52.3170734 55.199578,51.8771845 54.2674326,51.7933962 C53.9699839,51.7689579 53.6711388,51.7689579 53.3736902,51.7933962 C52.3542652,51.8736934 51.9143764,52.3415117 51.9039028,53.3609366 L51.9039028,57.0022387 C51.9039028,58.1997138 52.329827,58.6326203 53.4923903,58.7164087 C53.8680414,58.7415452 54.2457872,58.7122192 54.6130595,58.6291291 C55.2383301,58.5477846 55.6949766,57.9982727 55.6604139,57.3688127 C55.6778698,56.6670853 55.6778698,55.968849 55.6778698,55.2741039 L55.6639051,55.2741039 Z M57.5665989,55.2531568 C57.5665989,55.9513931 57.587546,56.6880323 57.5665989,57.4037245 C57.51074,58.9293707 56.760136,59.8719897 55.2938399,60.224599 C54.2440417,60.4874849 53.1429231,60.4679343 52.1029002,60.1687401 C50.8628326,59.8873509 49.9942267,58.7691255 50.0291385,57.4979864 C49.9987652,55.9828137 49.9987652,54.4697358 50.0291385,52.9594507 C49.9882917,51.730904 50.816749,50.6427028 52.0121295,50.3550295 C53.2190308,49.966461 54.5194959,49.9825205 55.7162728,50.4004149 C56.810409,50.7219527 57.5606639,51.7281111 57.5561253,52.86868 C57.5910371,53.6646694 57.5561253,54.4641499 57.5561253,55.2601392 L57.5665989,55.2531568 Z" id="Fill-281" fill="#000000"></path>
                <path d="M81.8687117,55.1099486 L81.8687117,55.1099486 L81.8687117,53.4900405 C81.8687117,52.0621473 81.2752109,51.517523 79.8333531,51.6292408 C79.6937058,51.6292408 79.5540586,51.6536791 79.4179025,51.671135 C78.5520895,51.7828528 78.1261654,52.2052858 78.1052183,53.0676075 C78.074845,54.4012388 78.074845,55.73487 78.1052183,57.0685013 C78.1226742,57.9762084 78.5241601,58.4091149 79.4318672,58.5278151 C79.8438266,58.5801828 80.2613719,58.5732004 80.6712366,58.506868 C81.4776994,58.3742031 81.8442735,57.9308231 81.8687117,57.1103955 C81.8826765,56.4575446 81.8617294,55.7802554 81.8617294,55.1029662 L81.8687117,55.1099486 Z M83.760932,55.1099486 C83.760932,55.888482 83.7818791,56.6670154 83.760932,57.4420577 C83.7651214,58.6224261 82.9830968,59.6614016 81.8477647,59.9836376 C80.6646033,60.3784902 79.3864819,60.3847744 78.1994802,60.0010935 C77.002005,59.6170636 76.2828217,58.7791801 76.2409275,57.4944254 C76.1955422,56.0211469 76.1955422,54.5443772 76.2164893,53.0710987 C76.2409275,51.381367 77.0054962,50.438748 78.6603161,50.1001035 C79.7352509,49.8529278 80.8576656,49.9073902 81.9036236,50.2572066 C82.9764636,50.5689691 83.7221799,51.5419613 83.7434761,52.6591393 C83.7888614,53.4760757 83.7434761,54.2930122 83.7434761,55.1029662 L83.760932,55.1099486 Z" id="Fill-283" fill="#000000"></path>
                <path d="M70.9308059,43.9940972 L70.9308059,45.9037734 C70.9308059,46.9301807 71.3602212,47.4014901 72.3796461,47.5027344 C72.6767456,47.534155 72.976289,47.534155 73.2733885,47.5027344 C74.2579016,47.4049813 74.6942993,46.9406542 74.7047728,45.9491587 C74.7222288,44.7132806 74.7047728,43.4808936 74.7047728,42.2485066 C74.7047728,41.1487845 74.2788487,40.677475 73.1896002,40.5832131 C72.8136,40.5538872 72.4351559,40.5776272 72.0654398,40.6530367 C71.2834152,40.8101399 70.9482618,41.2325728 70.9308059,42.0285622 C70.9203323,42.6674483 70.9308059,43.3377551 70.9308059,43.9940972 M76.5830284,44.0429738 L76.5830284,46.3122416 C76.6140999,47.5359006 75.8010038,48.6206106 74.6174933,48.9341187 C73.4531844,49.2965033 72.2068326,49.3027875 71.0390325,48.9515746 C69.8726288,48.6502857 69.0605801,47.5938542 69.0700063,46.3890476 C69.0385856,44.8389631 69.0350945,43.2818962 69.0700063,41.7283206 C69.0609292,40.5025668 69.8991618,39.4328689 71.0914002,39.1483376 C72.2309218,38.8128351 73.4430599,38.8128351 74.5825815,39.1483376 C75.816365,39.447881 76.6650711,40.5790237 76.6074666,41.8470207 C76.5900107,42.5696953 76.5830284,43.3063345 76.5830284,44.0429738" id="Fill-285" fill="#000000"></path>
                <path d="M60.5095949,58.5208327 L64.4930327,58.5208327 L62.6008125,52.093568 L62.4367269,52.093568 C61.7978408,54.2196974 61.1624458,56.3423356 60.5095949,58.5208327 M66.943842,60.1965997 L58.1216269,60.1965997 C58.1530475,59.9955077 58.1952908,59.7961612 58.2473094,59.5996077 C59.1585077,56.6984361 60.0906531,53.7972644 60.9809043,50.8716545 C61.1414987,50.3549597 61.3893725,50.1734183 61.9130497,50.2153124 C62.5414624,50.2746625 63.3095223,50.072174 63.7598846,50.379398 C64.210247,50.6866219 64.2311941,51.4686465 64.4162267,52.055165 C65.2052337,54.540886 65.9883056,57.0266071 66.7657917,59.5123282 C66.8495801,59.7148167 66.8705272,59.9033405 66.943842,60.1965997" id="Fill-287" fill="#000000"></path>
                <path d="M40.965997,50.2432768 C41.4931654,50.2118562 42.0217302,50.2212824 42.5475021,50.2712062 C42.7325347,50.2991357 42.9524791,50.6203244 43.0188116,50.8332864 C43.7170478,53.1235013 44.3524428,55.4206986 45.0157673,57.7144047 C45.0691824,57.9270177 45.1732196,58.1235712 45.3195,58.2869585 C45.3823413,58.0984347 45.4521649,57.9064197 45.5080238,57.7144047 C46.1748395,55.4206986 46.8556198,53.1339749 47.4979972,50.8332864 C47.6236797,50.3899064 47.8087123,50.1909091 48.2765306,50.2293121 C48.68849,50.2642239 49.1039406,50.2293121 49.5996883,50.2293121 C49.5333558,50.5260625 49.498444,50.7355334 49.439094,50.9275483 C48.573281,53.8252288 47.6935033,56.7229092 46.8451463,59.6240809 C46.7159726,60.0569874 46.5379223,60.2594759 46.0596305,60.2245641 C45.5027871,60.1931434 44.9445472,60.1931434 44.3873546,60.2245641 C44.0808289,60.2797247 43.7875697,60.0768871 43.7310126,59.7707105 C42.8138792,56.6799677 41.8936039,53.5902723 40.9694882,50.5016242 C40.9597129,50.4157411 40.9586655,50.329509 40.965997,50.2432768" id="Fill-289" fill="#000000"></path>
                <path d="M47.5365049,47.2791592 C47.8437288,49.14345 48.0147967,48.8711378 46.3529944,49.0247498 C45.3681322,49.1312308 44.3731455,49.0935261 43.3994551,48.913032 C42.1949975,48.6791228 41.5630937,47.8168011 41.5351643,46.5983788 C41.4953648,44.8667529 41.4953648,43.135127 41.5351643,41.4035011 C41.5596025,40.1990435 42.2543476,39.3855983 43.4727699,39.0609184 C44.7959276,38.7118003 46.1225765,38.8619211 47.4352606,39.1272509 C47.593062,39.2040569 47.7016378,39.3548759 47.7250287,39.5287367 C47.7403899,39.8464342 47.6991939,40.16483 47.6028373,40.4678645 C47.5015931,40.6312518 47.3266849,40.7345907 47.135019,40.7436678 C46.5205711,40.7192295 45.9096144,40.6110029 45.2916753,40.5725999 C43.8777469,40.4853204 43.4064374,40.9217181 43.4029463,42.34612 L43.4029463,45.8687219 C43.4029463,47.0417588 43.821888,47.4432447 44.9565219,47.4397535 C45.8013878,47.4572094 46.653236,47.3454916 47.5365049,47.2791592" id="Fill-291" fill="#000000"></path>
                <path d="M67.8480928,47.244387 C68.1972109,49.1645367 68.2844905,48.8782598 66.6610912,49.0493277 C65.6961287,49.1530158 64.7213909,49.1167075 63.7669019,48.9411011 C62.5135678,48.7002096 61.8642081,47.7575906 61.8537346,46.4728359 L61.8537346,41.6340587 C61.8537346,40.1852184 62.5973562,39.1902318 64.0531788,39.0436022 C65.2611275,38.9144285 66.4970057,39.0715316 67.7259015,39.1413552 C67.8446016,39.1413552 67.9458459,39.4171586 68.0540725,39.5672794 L68.0540725,39.6231383 C67.851584,40.946296 68.0924755,40.8380693 66.7693178,40.6984221 C66.099011,40.6261546 65.4234674,40.6170776 64.751415,40.6704926 C64.1889857,40.6886468 63.7470022,41.159258 63.7651563,41.7220364 C63.7658546,41.7335573 63.7662037,41.7447291 63.7669019,41.75625 C63.7459548,43.2295285 63.7284989,44.702807 63.7669019,46.1725943 C63.787849,47.0000043 64.1509319,47.3805431 64.9853242,47.4294196 C65.7198687,47.4357037 66.4540641,47.4018393 67.1847684,47.3281753 C67.3907481,47.3142106 67.6037101,47.2758076 67.8480928,47.244387" id="Fill-293" fill="#000000"></path>
                <path d="M51.3382617,44.0953415 L51.3382617,48.4523357 C51.3382617,48.8922246 51.1951232,49.0423453 50.7552344,49.0318718 C49.2156234,48.9934688 49.4495326,49.2064309 49.4425502,47.7471171 L49.4425502,39.752312 C49.4425502,39.1762671 49.6171093,38.9947256 50.189663,39.0086904 C51.5058384,39.0505845 51.3347705,38.8969726 51.3417528,40.157289 C51.3487352,41.4176054 51.3382617,42.7826573 51.3382617,44.0953415" id="Fill-295" fill="#000000"></path>
            </g>
        </g>
    </g>
</svg>