<?xml version="1.0" encoding="UTF-8"?>
<svg width="100px" height="100px" viewBox="0 0 100 100" version="1.1" xmlns="http://www.w3.org/2000/svg" xmlns:xlink="http://www.w3.org/1999/xlink">
    <!-- Generator: Sketch 59 (86127) - https://sketch.com -->
    <title>comuna</title>
    <desc>Created with Sketch.</desc>
    <g id="Logos" stroke="none" stroke-width="1" fill="none" fill-rule="evenodd">
        <g transform="translate(-200.000000, -100.000000)" id="comuna">
            <g transform="translate(200.000000, 100.000000)">
                <rect id="Area" fill="#FCE059" x="0" y="0" width="100" height="100"></rect>
                <path d="M26.4937368,78.1717731 L26.4937368,77.1244187 C26.4937368,76.9324037 26.5565781,76.8695625 26.7311371,76.8765448 L26.9301345,76.8765448 L75.0839978,76.8765448 C75.3353629,76.8765448 75.4648857,76.9149478 75.4331159,77.225663 C75.4016953,77.5363781 75.4331159,77.861058 75.4331159,78.1822466 L26.4937368,78.1717731 Z" id="Fill-1" fill="#000000"></path>
                <path d="M79.1724155,74.1569146 C78.8232974,74.1569146 78.4741792,74.1394587 78.1564817,74.1569146 C77.912099,74.1743705 77.8733469,74.0696351 77.8768381,73.8601642 L77.8768381,72.3100797 L77.8768381,27.0643704 L77.8768381,26.0763661 C77.8768381,25.842457 77.9152411,25.727248 78.1844112,25.7551774 C78.5122331,25.7865981 78.8407533,25.7551774 79.1724155,25.7551774 L79.1724155,74.1569146 Z" id="Fill-3" fill="#000000"></path>
                <path d="M75.4435895,21.7821782 L75.4435895,22.8923739 C75.4435895,22.9517239 75.3144158,23.0424947 75.2376098,23.0529682 C75.0511807,23.0728679 74.863006,23.0784538 74.6755296,23.0704241 L27.247832,23.0704241 C26.5111927,23.0704241 26.5111927,23.0704241 26.5111927,22.3268025 L26.5111927,21.7821782 L75.4435895,21.7821782 Z" id="Fill-5" fill="#000000"></path>
                <path d="M22.7722772,74.1708794 L22.7722772,73.5459579 L22.7722772,26.0973132 C22.7722772,25.8180187 22.8490832,25.7481951 23.1213954,25.7481951 L23.8510522,25.7481951 C23.9435685,25.7705386 24.0193272,25.8372202 24.0535408,25.9262453 C24.0762334,26.1126744 24.0832158,26.3008491 24.0744878,26.4883255 L24.0744878,73.2841193 L24.0744878,73.9614085 C24.0744878,74.0312321 23.9802259,74.1464411 23.924367,74.1499323 C23.5368459,74.1778617 23.1737631,74.1708794 22.7722772,74.1708794" id="Fill-7" fill="#000000"></path>
                <path d="M53.8088439,60.9149688 L53.8088439,60.3947828 L53.8088439,51.4294293 C53.8140806,51.3630968 53.8140806,51.2967644 53.8088439,51.2304319 C53.7844056,51.0628552 53.8647028,51.0104875 54.0183147,51.0244522 L54.2138209,51.0244522 C54.7863746,51.0419081 54.7898658,51.0244522 54.7898658,51.6284266 L54.7898658,62.8490832 C54.7898658,63.0934659 54.6990951,63.1213954 54.4791507,63.152816 C54.00435,63.2226396 53.7809144,63.0236423 53.5435141,62.6221564 C51.9515354,59.7908084 50.3351185,56.9734251 48.7256839,54.1490595 C48.5476337,53.8383443 48.3765658,53.5206468 48.1740773,53.1505816 C48.1286919,53.2588083 48.0972713,53.2972112 48.0972713,53.3391054 C48.0972713,56.4462568 48.105301,59.5555028 48.1217096,62.6675418 L48.1217096,62.922398 C48.1391655,63.0969571 48.0588683,63.1493248 47.8912916,63.152816 C47.14767,63.1702719 47.14767,63.1737631 47.14767,62.4196679 L47.14767,51.2827996 C47.14767,51.07682 47.2070201,51.038417 47.4164909,51.0069963 C47.957624,50.9301903 48.1915332,51.1885378 48.4394071,51.6319178 C49.7625648,54.0094122 51.1241255,56.3694508 52.4717214,58.7329805 C52.8522602,59.4032873 53.2258166,60.0735941 53.6063553,60.7439009 C53.6499951,60.8098842 53.6978243,60.8727255 53.7494938,60.9324247 L53.8088439,60.9149688 Z" id="Fill-9" fill="#000000"></path>
                <path d="M63.4269785,38.976246 C63.3536636,39.1089109 63.2876803,39.245067 63.2105252,39.3777318 C62.6659009,40.3412979 62.1212767,41.3048639 61.5626877,42.2614476 C61.4820414,42.3920178 61.3584535,42.4904691 61.2135695,42.5407421 C60.9911813,42.6137078 60.750988,42.4981497 60.6692944,42.2789035 C60.0998827,41.2315491 59.4993995,40.2016506 58.9237037,39.1647698 C58.8814604,39.0949462 58.8325839,39.0321049 58.7627603,38.9273695 C58.7212152,39.0181402 58.6824631,39.0635255 58.6824631,39.1089109 L58.6824631,42.153221 L58.6824631,48.664274 C58.6824631,48.8213772 58.6300954,48.894692 58.4764834,48.8877096 L58.4206245,48.8877096 C57.7223882,48.8877096 57.7223882,48.8877096 57.7223882,48.1894734 L57.7223882,37.0491139 C57.7223882,36.7977489 57.7991942,36.7663283 58.0400857,36.7383988 C58.4447137,36.6668296 58.8402645,36.9010879 58.9722311,37.2900054 C59.6285732,38.5119189 60.3268095,39.7128853 61.011081,40.9243252 C61.0365666,40.9578405 61.0644961,40.9896102 61.0948694,41.018587 C61.1385091,40.9836752 61.1786577,40.9438758 61.2135695,40.8998869 C61.9327529,39.6325881 62.6449538,38.3652893 63.3641372,37.1014817 C63.437452,36.9757991 63.5317139,36.7942577 63.6399405,36.7698194 C63.8913056,36.7349076 64.1465109,36.7349076 64.3975268,36.7698194 C64.4289475,36.7698194 64.477824,36.9234314 64.477824,37.0037286 L64.477824,40.7532573 L64.477824,48.6223799 C64.477824,48.7969389 64.4429122,48.8737449 64.2508972,48.8772361 C63.5037844,48.894692 63.5037844,48.8981832 63.5037844,48.1510704 L63.5037844,39.5243615 L63.5037844,39.0006843 L63.4269785,38.976246 Z" id="Fill-11" fill="#000000"></path>
                <path d="M61.1123602,56.5753606 L61.1123602,56.5753606 L63.6190283,56.5753606 C63.8424639,56.5753606 63.9192699,56.5090282 63.9157787,56.2890838 L63.9157787,54.599352 C63.9496432,54.2352218 63.8518901,53.8710916 63.6399754,53.5729447 C63.4409781,53.3006326 63.343225,52.9096203 63.0848776,52.7385524 C62.5053415,52.3440489 61.9397701,51.8343365 61.1333073,51.9704925 C60.878451,52.0123867 60.5673868,51.8971777 60.3547738,52.0019132 C59.6565376,52.3510313 58.8989512,52.6407993 58.6091832,53.4751917 C58.5114301,53.7475038 58.2600651,53.9465011 58.2914857,54.2921281 C58.3263975,54.9554525 58.3124328,55.6222682 58.2914857,56.2890838 C58.2914857,56.5160106 58.354327,56.5788518 58.5777626,56.5753606 C59.433102,56.5683783 60.2779679,56.5753606 61.1123602,56.5753606 L61.1123602,56.5753606 Z M64.882836,58.3942661 L64.882836,62.9013811 C64.882836,63.0794314 64.8374506,63.1562373 64.6489268,63.1597285 C63.9192699,63.1806756 63.9192699,63.1841668 63.9192699,62.4614923 L63.9192699,57.9229566 C63.9192699,57.6541357 63.8389728,57.5738385 63.5701518,57.5738385 C61.9198704,57.5878032 60.2674943,57.5878032 58.6126744,57.5738385 C58.3613093,57.5738385 58.298119,57.6401709 58.298119,57.8880448 L58.298119,62.8210839 C58.298119,63.0899049 58.2286444,63.1702021 57.9490008,63.1702021 C57.3209373,63.1457638 57.3209373,63.1702021 57.3209373,62.5417894 L57.3209373,53.9744306 C57.3247776,53.8344342 57.3635297,53.697929 57.4326551,53.5764359 C57.6889078,53.085925 57.9709953,52.6093787 58.277521,52.1485428 C58.4510327,51.9547822 58.6612018,51.7969808 58.8954601,51.6842157 C59.2072226,51.4887095 59.5249201,51.3071681 59.8485526,51.1395914 C59.9627142,51.079194 60.0894441,51.0456786 60.2182687,51.0418383 L61.9638593,51.0418383 C62.1024592,51.052661 62.2365205,51.0956025 62.3552207,51.1675208 C62.7986007,51.4119035 63.2384896,51.6632686 63.6713961,51.9251072 C63.7750841,51.9875993 63.8623637,52.0734824 63.9262523,52.1764722 C64.1985644,52.6163611 64.4638942,53.0562499 64.7152593,53.5101035 C64.797302,53.6542893 64.8437347,53.815931 64.8514153,53.981413 L64.8514153,58.4082308 L64.882836,58.3942661 Z" id="Fill-13" fill="#000000"></path>
                <path d="M53.7740717,42.809563 L53.7740717,42.809563 C53.7740717,42.0868885 53.7388108,41.3607228 53.7740717,40.6415395 C53.8355165,40.0515298 53.6735257,39.4597746 53.319869,38.9832284 C53.1840621,38.8051781 53.1034158,38.5538131 52.932697,38.4386041 C52.2829882,38.0022064 51.6336285,37.530897 50.7681646,37.6914913 C50.6529556,37.7159296 50.5234328,37.6914913 50.4190465,37.6914913 C50.2818431,37.7106928 50.1477817,37.7480484 50.0210518,37.8032091 C49.2526428,38.1020542 48.6381949,38.6990462 48.3173554,39.458029 C48.3173554,39.4859585 48.2824435,39.5069056 48.2754612,39.5313438 C48.2213479,39.6681981 48.1850396,39.8113366 48.1668854,39.9572679 C48.1668854,41.5806672 48.1983061,43.2075577 48.1668854,44.8449217 C48.112423,45.5557262 48.3128168,46.2623413 48.7328059,46.8383862 C48.8609323,47.0181821 49.0134969,47.1794746 49.1863104,47.3166781 C49.7930777,47.8176626 50.5827829,48.0393526 51.3616654,47.9276348 C51.5795151,47.8972615 51.7938737,47.8434973 52.0005516,47.7670405 C52.7473153,47.4860004 53.3380232,46.8991328 53.6236018,46.1541147 C53.7154198,45.9547683 53.7705805,45.7407588 53.7876873,45.5222109 C53.7810541,44.6284685 53.7810541,43.7242525 53.7810541,42.8235278 L53.7740717,42.809563 Z M47.2106509,42.809563 L47.2106509,39.6674999 C47.2399768,39.4475555 47.3171319,39.236339 47.4375777,39.0495608 C47.6243559,38.68962 47.8306847,38.3401528 48.0555168,38.0022064 C48.1696784,37.8339315 48.3170062,37.6900948 48.4880741,37.5797735 C48.8518552,37.3490064 49.2271572,37.1370917 49.6122345,36.9443785 C49.8018056,36.8497675 50.0084836,36.7949559 50.2197,36.7837842 C50.7154478,36.7593459 51.2150358,36.7593459 51.7142747,36.7837842 C51.9146685,36.8005418 52.1098256,36.8550043 52.2903197,36.9443785 C52.5696142,37.0770434 52.8276125,37.2585848 53.1037649,37.3947409 C53.4916351,37.5679035 53.81038,37.8667486 54.0079808,38.2430979 C54.2031379,38.6166543 54.437047,38.9657725 54.6395355,39.3393289 C54.6936488,39.4479046 54.7198327,39.5676521 54.7163415,39.688447 L54.7163415,45.9725733 C54.7135486,46.1129188 54.6779385,46.2504713 54.6116061,46.3740591 C54.4757991,46.6393889 54.262488,46.8802804 54.1647349,47.1560837 C53.8648424,47.8997053 53.1910444,48.2034381 52.5731053,48.5874681 C52.1827913,48.8032231 51.744648,48.9163373 51.2984751,48.9156391 C50.3788979,48.9826698 49.4635102,48.7365415 48.7013853,48.2174028 C48.2091287,47.9031965 48.003149,47.449343 47.6784692,47.02691 C47.2912972,46.4700666 47.1198802,45.791381 47.1966862,45.1172339 C47.2350892,44.349174 47.1966862,43.5776229 47.1966862,42.8060719 L47.2106509,42.809563 Z" id="Fill-15" fill="#000000"></path>
                <path d="M44.5851778,55.7794411 L44.5851778,60.2341884 C44.5820358,60.3651077 44.5495678,60.4939323 44.4909159,60.611236 C44.2360597,61.0685808 43.9707299,61.5224343 43.6879443,61.9658144 C43.5961262,62.1044142 43.477426,62.2231144 43.3388261,62.3149325 C43.1118993,62.4650533 42.8465696,62.5593152 42.6405899,62.7268919 C42.1273862,63.1423424 41.5408678,63.152816 40.9194375,63.1807454 C40.1597565,63.2153081 39.4081051,63.0128196 38.7688698,62.6012093 C38.2444944,62.2946836 37.8220615,61.8404809 37.5539388,61.2955075 C37.5466073,61.2770043 37.5375302,61.2591993 37.5260093,61.2431398 C37.0896116,60.7089891 37.0512086,60.0875588 37.058191,59.4207432 C37.0791381,56.7988661 37.058191,54.1839713 37.058191,51.558603 C37.058191,51.0349258 37.058191,51.038417 37.5713947,51.0279434 C37.6363306,51.0349258 37.7019648,51.0349258 37.7669008,51.0279434 C37.9519334,50.9895404 38.0043011,51.0838023 38.0043011,51.2443967 L38.0043011,51.6109707 L38.0043011,59.9269645 C38.0612074,60.1961346 38.1586113,60.4551802 38.2940692,60.6950244 C38.5908196,61.5259255 39.3414236,61.843623 40.0396598,62.1752852 C40.2421483,62.2695471 40.524934,62.1752852 40.7623343,62.2067059 C41.5792708,62.3498443 42.1588069,61.8575877 42.8011842,61.5084696 C42.8612325,61.462386 42.9090617,61.4023377 42.9408315,61.3339105 C43.0734963,61.1174573 43.181723,60.8870393 43.3283526,60.6810596 C43.5500426,60.3438115 43.6519851,59.9416274 43.6181206,59.5394434 L43.6181206,51.3351674 C43.6181206,51.0803111 43.6844531,50.9860492 43.9358181,51.0488905 C44.0101803,51.0576185 44.0848916,51.0576185 44.1592537,51.0488905 C44.5677219,51.0488905 44.5677219,51.0488905 44.5677219,51.4608499 L44.5677219,55.8003882 L44.5851778,55.7794411 Z" id="Fill-17" fill="#000000"></path>
                <path d="M43.6284894,44.3073147 C43.878458,44.2947465 44.1291248,44.2947465 44.3790934,44.3073147 C44.4719588,44.3334986 44.5452736,44.4040204 44.5745996,44.4958385 L44.5745996,45.9900641 C44.566919,46.1133028 44.5299124,46.2333994 44.4663729,46.3391822 C44.197552,46.8104917 43.9217487,47.2818012 43.6354718,47.7356547 C43.5701867,47.8365499 43.4815107,47.9203382 43.3771244,47.9800374 C42.9896033,48.2139466 42.6090645,48.4548381 42.2040875,48.6538354 C41.9851904,48.7610147 41.7484883,48.8273471 41.5058512,48.8493416 C41.1567331,48.8807622 40.807615,48.8493416 40.4375497,48.8493416 C40.0049924,48.8901884 39.5720859,48.7763759 39.2156363,48.5281529 C38.9084124,48.318682 38.5662766,48.1511053 38.2450879,47.9555992 C38.1504769,47.8965982 38.0694815,47.8180466 38.0076876,47.7251812 C37.8575668,47.4982544 37.7388666,47.2503805 37.5852546,47.0269449 C37.2001774,46.471498 37.0144465,45.8022385 37.0580863,45.1277423 C37.1034716,43.2948722 37.0580863,41.462002 37.0580863,39.6291318 C37.0591336,39.4989108 37.0916016,39.3707844 37.1523482,39.2555754 C37.4211691,38.7772836 37.6934813,38.3059741 37.9832493,37.8591029 C38.0764639,37.7320239 38.195164,37.625892 38.3323674,37.5483878 C38.7338533,37.3040051 39.1423215,37.0700959 39.5542809,36.8501515 C39.6771705,36.7841682 39.8129774,36.7457652 39.9522756,36.7384337 L41.6734279,36.7384337 C41.8029507,36.7405284 41.930728,36.7715999 42.0469843,36.8292044 C42.3961024,37.0107459 42.7033264,37.2341815 43.0524445,37.398267 C43.4347289,37.5836487 43.7405564,37.8957603 43.9182575,38.2815358 C44.0334665,38.5049714 44.1626402,38.7249159 44.2987962,38.9378779 C44.5065215,39.2304389 44.6063693,39.5858412 44.5815819,39.9433381 C44.5501613,40.2505621 44.5815819,40.5612772 44.5815819,40.8719923 C44.5815819,40.9453072 44.4663729,41.0116396 44.4000405,41.077972 L44.3441816,41.077972 C43.6459453,41.116375 43.5796129,41.1128839 43.6459453,40.4181388 C43.7262425,39.6012024 43.2514419,39.0461045 42.849956,38.4665684 C42.6858705,38.2291681 42.3018406,38.148871 42.0504755,37.9603472 C41.720908,37.744243 41.3302448,37.6416023 40.9367887,37.6670879 C40.3844838,37.6272885 39.8349719,37.770776 39.3727395,38.0755561 C38.4901688,38.5964404 37.9636987,39.5582608 38.0007052,40.5822243 C38.035617,42.2440266 38.0007052,43.9093201 38.0181611,45.5711223 C38.0240961,45.7362552 38.0656412,45.8985951 38.1403525,46.045923 C38.2646385,46.3192825 38.4133628,46.5811211 38.5837325,46.8279476 C38.7415339,47.0199626 38.9209806,47.1934743 39.1178832,47.3446424 C39.229601,47.4389043 39.383213,47.4842897 39.5019132,47.5785516 C40.1093787,48.067317 40.8564915,48.0079669 41.4988689,47.8648284 C42.1450865,47.7461283 42.7141491,47.3676842 43.0733916,46.8174741 C43.2444595,46.5346884 43.4225097,46.2519027 43.5586658,45.9586435 C43.6082406,45.8591448 43.6319806,45.7484744 43.6284894,45.6374548 C43.6319806,45.2324778 43.6284894,44.7925889 43.6284894,44.3073147" id="Fill-19" fill="#000000"></path>
            </g>
        </g>
    </g>
</svg>