<svg width="59" height="66" viewBox="0 0 59 66" fill="none" xmlns="http://www.w3.org/2000/svg">
<path d="M13 48.5V9C13 7.34315 14.3431 6 16 6H44C45.6569 6 47 7.34315 47 9V48.5C47 50.1569 45.6569 51.5 44 51.5H16C14.3431 51.5 13 50.1569 13 48.5Z" stroke="black" stroke-width="1.5"/>
<path d="M16.5 12H43.5" stroke="black"/>
<rect x="17" y="17.5" width="26" height="9" rx="0.5" stroke="black"/>
<rect x="17" y="30.5" width="7" height="3" rx="0.5" stroke="black"/>
<rect x="36" y="30.5" width="7" height="3" rx="0.5" stroke="black"/>
<rect x="17" y="30.5" width="7" height="3" rx="0.5" stroke="black"/>
<rect x="27" y="30.5" width="7" height="3" rx="0.5" stroke="black"/>
<rect x="36" y="36.5" width="7" height="3" rx="0.5" stroke="black"/>
<rect x="17" y="36.5" width="7" height="3" rx="0.5" stroke="black"/>
<rect x="27" y="36.5" width="7" height="3" rx="0.5" stroke="black"/>
<rect x="36" y="42.5" width="7" height="3" rx="0.5" stroke="black"/>
<rect x="17" y="42.5" width="7" height="3" rx="0.5" stroke="black"/>
<rect x="27" y="42.5" width="7" height="3" rx="0.5" stroke="black"/>
<path d="M16.5 62V53C16.5 52.4477 16.9477 52 17.5 52H42.5C43.0523 52 43.5 52.4477 43.5 53V62C43.5 62.5523 43.0523 63 42.5 63H17.5C16.9477 63 16.5 62.5523 16.5 62Z" stroke="black"/>
<rect x="32" y="52.5" width="6" height="10" stroke="black"/>
<path d="M1 64.5L58 1M1 1L58 64.5" stroke="black" stroke-width="2"/>
</svg>
