<?xml version="1.0" encoding="UTF-8"?>
<svg width="100px" height="100px" viewBox="0 0 100 100" version="1.1" xmlns="http://www.w3.org/2000/svg" xmlns:xlink="http://www.w3.org/1999/xlink">
    <!-- Generator: Sketch 59 (86127) - https://sketch.com -->
    <title>fau</title>
    <desc>Created with Sketch.</desc>
    <defs>
        <polygon id="path-1" points="0 0.18645 44.405735 0.18645 44.405735 44.549945 0 44.549945"></polygon>
    </defs>
    <g id="Logos" stroke="none" stroke-width="1" fill="none" fill-rule="evenodd">
        <g transform="translate(-100.000000, -200.000000)" id="fau">
            <g transform="translate(100.000000, 200.000000)">
                <rect id="Area" fill="#FCE059" x="0" y="0" width="100" height="100"></rect>
                <g id="Logo" transform="translate(27.000000, 27.000000)">
                    <g id="Group-3" transform="translate(0.000000, 0.363275)">
                        <mask id="mask-2" fill="white">
                            <use xlink:href="#path-1"></use>
                        </mask>
                        <g id="Clip-2"></g>
                        <path d="M39.576735,23.476695 L39.576735,23.481645 C38.977785,23.481645 38.375535,23.447545 37.781535,23.503095 C37.613785,23.519045 37.336585,23.809445 37.348685,23.954645 C37.365735,24.160345 37.597285,24.510695 37.748535,24.516745 C38.944785,24.564045 40.144335,24.565695 41.340585,24.521145 C41.502835,24.515095 41.777835,24.172445 41.772885,23.992045 C41.767385,23.816045 41.485235,23.521795 41.298785,23.500345 C40.731185,23.435445 40.151485,23.476695 39.576735,23.476695 L39.576735,23.476695 Z M8.875735,18.551445 L8.862535,18.551445 C8.862535,17.160495 8.883435,15.768445 8.852085,14.378045 C8.839985,13.833545 8.952735,13.614095 9.565985,13.638845 C11.076285,13.700445 11.077385,13.666895 11.089485,12.163195 C11.102135,10.508245 11.102135,10.514295 9.474685,10.470295 C9.282185,10.464795 8.999485,10.415295 8.919185,10.286045 C8.547385,9.692595 9.021485,8.858795 9.726035,8.808745 C11.071335,8.711395 11.071335,8.711395 11.073535,7.375445 C11.074085,7.279745 11.074085,7.183495 11.074085,7.087795 C11.075185,5.321195 11.075185,5.321195 9.336085,5.31732647 C6.275335,5.311295 4.774935,6.786395 4.766685,9.842745 C4.766135,10.280545 4.700685,10.556645 4.186435,10.474145 C3.645785,10.387245 3.531935,10.673795 3.549535,11.145695 C3.573185,11.791945 3.564935,12.440945 3.538535,13.087195 C3.522585,13.477145 3.646335,13.722995 4.056085,13.658095 C4.730935,13.551395 4.776035,13.895695 4.771085,14.444045 C4.745235,17.225945 4.770535,20.008395 4.747435,22.790845 C4.743585,23.303445 4.914085,23.470095 5.409635,23.457445 C6.344635,23.433245 7.280735,23.432695 8.215185,23.461845 C8.714585,23.476695 8.893885,23.304545 8.884535,22.796895 C8.858135,21.382295 8.875735,19.966595 8.875735,18.551445 L8.875735,18.551445 Z M18.572235,22.486695 C18.352785,23.423895 18.830735,23.493745 19.489635,23.464045 C20.350935,23.424995 21.216085,23.449745 22.079585,23.461845 C22.475585,23.467345 22.630135,23.308395 22.627421,22.903045 C22.606485,20.049095 22.620235,17.195145 22.583935,14.341195 C22.558635,12.305095 21.434985,10.783795 19.522635,10.194745 C17.886935,9.690945 16.216035,9.651895 14.544035,10.019295 C13.488035,10.251945 12.624535,10.809095 11.917785,11.586795 C12.780185,12.454695 13.599135,13.278595 14.416435,14.101395 C15.686385,13.243945 16.524585,13.078395 17.570135,13.437545 C18.109685,13.622345 18.386335,13.997995 18.480385,14.534795 C18.562885,15.010545 18.482585,15.298745 17.873735,15.287195 C16.820485,15.267395 15.759535,15.269595 14.712885,15.375745 C12.876985,15.561645 11.493735,16.937195 11.306735,18.649895 C11.071335,20.808645 12.103685,22.651145 13.926385,23.271545 C15.571435,23.831995 17.126835,23.741795 18.572235,22.486695 L18.572235,22.486695 Z M32.126985,22.397595 C32.163285,23.451395 32.163285,23.453595 33.158235,23.456895 C33.950235,23.459645 34.742235,23.437645 35.533135,23.461845 C35.985235,23.476145 36.181585,23.344145 36.179935,22.855195 C36.167835,18.752195 36.170035,14.649745 36.1837898,10.546745 C36.184885,10.060545 35.995685,9.934045 35.535335,9.952195 C34.672935,9.984645 33.803385,10.014345 32.945935,9.941745 C32.187485,9.877395 32.020285,10.144695 32.035685,10.867395 C32.086285,13.241745 32.068135,15.617195 32.062085,17.992645 C32.059885,18.926545 31.669935,19.524395 30.971435,19.746045 C29.815335,20.112345 28.855585,19.367095 28.846785,18.048195 C28.830285,15.601245 28.830285,13.153745 28.861085,10.706795 C28.868235,10.157895 28.758785,9.917545 28.155435,9.948345 C27.246285,9.994545 26.331635,9.985745 25.421385,9.951095 C24.896685,9.930745 24.703635,10.078695 24.717385,10.636395 C24.756435,12.147245 24.722335,13.659195 24.738835,15.170595 C24.756435,16.752945 24.705835,18.343545 24.854335,19.914345 C25.056735,22.050545 26.819485,23.550945 28.960085,23.598795 C30.138185,23.625195 31.154035,23.204445 32.126985,22.397595 L32.126985,22.397595 Z M-0.000165,44.549945 L44.405735,44.549945 L44.405735,0.186395 L-0.000165,0.186395 L-0.000165,44.549945 Z" id="Fill-1" fill="#000000" mask="url(#mask-2)"></path>
                    </g>
                    <path d="M17.200755,18.38562 C17.320105,18.38562 17.439455,18.38617 17.558805,18.38562 C18.505905,18.37902 18.780355,18.83552 18.350255,19.70342 C17.933355,20.54547 16.381255,20.91562 15.665705,20.28367 C15.418755,20.06587 15.169055,19.58902 15.247155,19.32832 C15.350555,18.98402 15.730605,18.64522 16.075455,18.47417 C16.391705,18.31742 16.820155,18.38782 17.199105,18.35812 C17.199655,18.36747 17.200205,18.37627 17.200755,18.38562" id="Fill-4" fill="#000000"></path>
                </g>
            </g>
        </g>
    </g>
</svg>