<?xml version="1.0" encoding="UTF-8"?>
<svg width="100px" height="100px" viewBox="0 0 100 100" version="1.1" xmlns="http://www.w3.org/2000/svg" xmlns:xlink="http://www.w3.org/1999/xlink">
    <!-- Generator: Sketch 59 (86127) - https://sketch.com -->
    <title>fosfobox</title>
    <desc>Created with Sketch.</desc>
    <g id="Logos" stroke="none" stroke-width="1" fill="none" fill-rule="evenodd">
        <g transform="translate(-100.000000, -100.000000)" id="fosfobox">
            <g transform="translate(100.000000, 100.000000)">
                <rect id="Area" fill="#FCE059" x="0" y="0" width="100" height="100"></rect>
                <path d="M94.0133573,50.6662121 C93.903385,50.7506986 93.802839,50.8467061 93.7131157,50.9524889 C93.3186122,51.5250426 92.8088997,51.7449871 92.2258724,51.5739192 C91.5995545,51.4283369 91.1617604,50.8624164 91.1785181,50.2193409 C91.1785181,49.6467871 91.1785181,49.0847069 90.7560851,48.6203798 C90.3336522,48.1560527 89.7645896,47.8034434 89.0873005,47.9954584 C88.3489156,48.1424371 87.7934687,48.7544412 87.7187574,49.5036487 C87.690828,49.7550137 87.7187574,50.00987 87.6978103,50.261235 C87.6740703,51.020567 87.0393735,51.6168607 86.2803907,51.5934698 C85.5713318,51.5711262 84.995636,51.0142828 84.9502507,50.3066204 C84.8978829,48.9101479 85.1701951,47.6149196 86.2175495,46.5885123 C86.3844279,46.4736525 86.4266712,46.2453292 86.3118114,46.0787999 C86.2863257,46.0417933 86.254556,46.0100236 86.2175495,45.984538 C85.1701951,44.9755866 84.9048653,43.6978142 84.9432683,42.3153064 C84.9642154,41.5402642 85.5821545,40.9921487 86.4619322,40.978184 C87.1329372,40.9677105 87.6852421,41.5032577 87.6953665,42.1742627 C87.6957156,42.1990501 87.6953665,42.2241866 87.6943191,42.248974 L87.6943191,42.8634219 C87.6649932,43.7962655 88.3956975,44.5768937 89.328192,44.6090125 C90.2861721,44.6627767 91.1079962,43.9327707 91.1680445,42.9751397 L91.1680445,42.3606918 C91.1582692,41.7630016 91.5304291,41.2253596 92.0932076,41.0235694 C92.7052116,40.8427262 93.362252,41.1000262 93.6886774,41.6484908 C93.7784008,41.746593 93.8820888,41.8314287 93.9959014,41.8998559 L93.9959014,43.694323 C93.912113,43.7990585 93.7829393,43.8933204 93.758501,44.0120205 C93.5944155,44.7696069 93.2051488,45.4594643 92.641323,45.9915203 C92.4074139,46.2184471 92.449308,46.4069709 92.6657613,46.6304065 C93.1876929,47.1568766 93.5577581,47.8142661 93.7375539,48.5331003 C93.7689746,48.662274 93.9051306,48.7705006 93.9959014,48.8822184 L94.0133573,50.6662121 Z" id="Fill-21" fill="#000000"></path>
                <path d="M61.2835328,42.2490438 L61.2835328,38.1922912 C61.2388457,37.414456 61.8026715,36.734723 62.5752699,36.6352243 C63.2399908,36.6041528 63.8369828,37.0398522 64.0101454,37.6825787 C64.0433116,37.9444173 64.0433116,38.2097471 64.0101454,38.4715857 L64.0101454,46.1172727 C64.0101454,48.0513871 65.8884009,49.4129478 67.6130444,48.6413967 C68.9152551,48.0971216 69.5300521,46.6004522 68.9857769,45.2978924 C68.7424416,44.7155634 68.2917301,44.2439048 67.7212711,43.9736874 C67.3560935,43.7963354 66.9574006,43.6985823 66.5517253,43.6874105 C65.7927425,43.656339 65.2027329,43.0157072 65.2338044,42.2563753 C65.2603374,41.6157435 65.7257119,41.0781016 66.3562192,40.9607979 C68.072833,40.7977598 69.7486,41.5511567 70.7655811,42.9437889 C72.6078775,45.2479685 72.2332738,48.6092779 69.9294432,50.4512251 C69.4008784,50.873658 68.7976023,51.1917047 68.1506864,51.3889564 C65.4345473,52.2512782 62.2855018,50.5964583 61.5418802,47.8977751 C61.3928068,47.3028778 61.316699,46.6922702 61.3149534,46.0788697 C61.2800416,44.8045885 61.3149534,43.5303074 61.3149534,42.2560262 L61.2835328,42.2490438 Z" id="Fill-23" fill="#000000"></path>
                <path d="M7.92079208,45.6249812 L7.92079208,41.3308282 C7.93824799,39.65157 8.54571353,38.2760446 10.0155008,37.3334257 C11.8197433,36.2330053 14.1434736,36.5147437 15.6328115,38.014206 C16.4001732,38.8786225 16.8515829,39.9776464 16.914075,41.1318309 C16.9762181,41.9403885 16.3718946,42.6466545 15.5629879,42.7098448 C14.7687442,42.7122887 14.1228756,42.0702604 14.1204318,41.2756676 C14.1204318,41.2582117 14.1204318,41.2404066 14.12113,41.2226016 C14.1445209,40.4318491 13.6330629,39.7238375 12.8747783,39.4979581 C12.0327054,39.2549718 11.1438506,39.6917186 10.8219637,40.5069095 C10.743063,40.6936877 10.7004706,40.8940815 10.6962812,41.0969191 L10.6962812,43.8270228 C10.6962812,44.1272644 10.8219637,44.2634205 11.1152229,44.2634205 C12.5326425,44.2634205 13.946571,44.2634205 15.3604994,44.2285087 C16.2123476,44.2075616 16.7569719,44.5496974 17.0048458,45.3421955 C17.1794048,45.8833286 16.5125892,47.0354184 15.5490232,47.0039978 C14.1525507,46.9621036 12.7560781,47.0039978 11.3596056,47.0039978 C10.7591225,47.0039978 10.7242106,47.0493832 10.7381754,47.6463752 L10.7381754,50.1949375 C10.7210686,50.9664886 10.1125557,51.5949012 9.34170286,51.6367954 C8.57050091,51.6367954 7.94523035,51.0118739 7.94488123,50.240672 C7.94488123,50.2312458 7.94523035,50.2218196 7.94523035,50.2123934 L7.94523035,47.9012314 L7.94523035,45.6389459 L7.92079208,45.6249812 Z" id="Fill-25" fill="#000000"></path>
                <path d="M39.2856694,45.5620701 L39.2856694,41.4599321 C39.2856694,39.2639791 40.2876384,37.6196327 42.1763675,36.9423435 C44.4822927,36.0573291 47.0689089,37.2090698 47.9542725,39.514995 C48.1874834,40.1231588 48.2852365,40.7753115 48.2405494,41.4250203 C48.1867852,42.1525825 47.5733846,42.7108224 46.8440769,42.6958103 C46.0836976,42.6807982 45.4751847,42.0597171 45.4755338,41.2993378 C45.4755338,40.5033484 44.9413831,39.6829208 44.2885322,39.511853 C43.4761343,39.2597897 42.6001969,39.6298549 42.2147705,40.3881395 C42.1058456,40.6293801 42.0520814,40.8919169 42.0576673,41.1561993 C42.0402114,41.9242592 42.0576673,42.6958103 42.0576673,43.4673614 C42.0576673,44.1655976 42.1414557,44.249386 42.8466743,44.249386 L46.9034269,44.2284389 C47.556627,44.1900359 48.1400034,44.6355106 48.2754612,45.2757933 C48.4294223,45.8584714 48.1658381,46.4711737 47.636575,46.7595453 C47.3391264,46.8981452 47.0147956,46.9683179 46.6869737,46.965525 C45.3498513,46.9864721 44.0127288,46.965525 42.6756064,46.965525 C42.1205086,46.965525 42.0437026,47.0528045 42.050685,47.5904464 C42.050685,48.4073829 42.050685,49.2278105 42.0681409,50.0342733 C42.118763,50.8445765 41.5029186,51.5421145 40.6926155,51.5927367 C40.6786507,51.593784 40.664686,51.5944822 40.6507213,51.5948314 C39.837276,51.5948314 39.2751959,50.9629276 39.2751959,50.0622028 C39.284622,48.570421 39.2877641,47.0702604 39.2856694,45.5620701" id="Fill-27" fill="#000000"></path>
                <path d="M20.8591099,46.3371822 C20.8706308,47.7563474 22.0304012,48.8972654 23.4495664,48.8857445 C24.8687316,48.8742236 26.0096496,47.7144532 25.9981287,46.295288 C25.9555363,44.8813596 24.8083341,43.7509151 23.3937075,43.7292698 C22.0775322,43.7083227 20.7857951,44.986095 20.8591099,46.3371822 M23.4495664,51.6472689 C20.6398637,51.6989384 18.2899496,49.5232342 18.1255149,46.7177209 C17.9300088,43.2055926 20.5693418,41.1318309 23.0131687,40.9852013 C25.9537907,40.7739848 28.5086372,42.9870446 28.7195045,45.9276666 C28.9303719,48.8682886 26.7176612,51.4227859 23.7770392,51.6336533 C23.6681143,51.641683 23.5588404,51.6462216 23.4495664,51.6472689" id="Fill-29" fill="#000000"></path>
                <path d="M52.2378123,46.3126392 C52.2032496,47.7160941 53.312747,48.8814504 54.7158528,48.9163622 C54.7333087,48.9167113 54.7511137,48.9170604 54.7689187,48.9170604 C56.1444441,48.9554634 57.3873047,47.6497616 57.3768311,46.2777274 C57.3052619,44.8683375 56.1521247,43.7563963 54.7409893,43.7361474 C53.33928,43.7553489 52.2186108,44.9070896 52.2378123,46.3087989 L52.2378123,46.3126392 Z M54.7514628,51.6471642 C51.9361742,51.6817269 49.603716,49.47146 49.4867614,46.6582661 C49.3331495,43.0902789 51.9724825,41.1037967 54.3744152,40.9816054 C57.3167828,40.7979692 59.8510313,43.03442 60.0346674,45.9767875 C60.2183036,48.9191551 57.982202,51.4534036 55.0394853,51.6370397 C54.9403357,51.6433239 54.840837,51.6464659 54.7409893,51.6471642 L54.7514628,51.6471642 Z" id="Fill-31" fill="#000000"></path>
                <path d="M80.9983033,46.3615855 C81.1204946,45.0558837 79.856687,43.7362172 78.4811616,43.7257437 C77.0417475,43.7257437 75.8680124,44.8802773 75.8453197,46.3196914 C75.8966401,47.7137201 76.9981078,48.8406734 78.3903909,48.9241126 C79.8322487,48.9206214 81.0576534,47.6463403 80.9983033,46.3615855 M78.411338,40.9991311 C81.319492,40.8594839 83.7947395,43.442958 83.7493541,46.3371473 C83.8087042,49.271136 81.4783407,51.6978561 78.544352,51.7572062 C75.6103632,51.8165563 73.1836431,49.4861928 73.124293,46.552204 C73.1225474,46.4631789 73.1228966,46.3738047 73.1256895,46.2847796 C73.0830971,43.4083953 75.3799453,41.0420726 78.2563295,40.9991311 C78.307999,40.9984329 78.3596685,40.9984329 78.411338,40.9991311" id="Fill-33" fill="#000000"></path>
                <path d="M36.5520395,40.9852013 C37.3340642,40.9852013 37.7530059,41.2330752 38.0078621,41.8579966 C38.2934408,42.5223684 37.9862168,43.2921739 37.3221941,43.5777525 C37.1895292,43.6346588 37.0484855,43.6692215 36.9046489,43.6803932 C35.9410828,43.8165493 35.3720203,44.3786295 35.3824938,45.1746188 C35.3824938,45.8728551 35.4069321,46.5885472 35.3824938,47.297257 C35.4069321,48.2171833 35.1409041,49.1210501 34.6214163,49.8807312 C33.8781438,50.9675359 32.6384253,51.6074694 31.32225,51.5844276 C30.5681548,51.5917591 29.9512631,50.9863883 29.9438682,50.2326423 C29.9372984,49.5389445 30.4518985,48.9503314 31.1407086,48.8647974 C32.3591308,48.6623089 32.6593724,48.2468583 32.631443,47.0179625 C32.6000223,46.1217763 32.631443,45.2248918 32.7257049,44.3332441 C33.0228044,42.4382309 34.6343337,41.0281428 36.5520395,40.9852013" id="Fill-35" fill="#000000"></path>
                <path d="M84.22405,57.672978 C84.22405,58.5841763 84.1786647,59.4988658 84.241506,60.4030817 C84.2834001,61.0175296 84.7512184,61.3736301 85.3098074,61.583101 C85.7968272,61.7601039 86.3421497,61.6372143 86.7062799,61.2688947 C87.2411289,60.9201257 87.4603751,60.2459786 87.2334483,59.6489866 C87.0267704,59.0530419 86.4954126,58.6288634 85.8683964,58.559738 L85.6833638,58.5248262 C85.2225279,58.4235819 84.8629362,58.0570079 84.8943569,57.7183633 C85.0018852,57.2425153 85.4330461,56.9108531 85.9207641,56.9293564 C87.5703473,57.0117482 88.8746526,58.3572495 88.9057241,60.0085782 C89.0045246,61.5380648 87.9470458,62.901371 86.4409502,63.1855532 C86.2943205,63.2333824 86.1511821,63.2906378 86.0115349,63.3566211 C85.8998171,63.3950241 85.7566786,63.4823036 85.6624167,63.4473918 C84.646483,63.0354324 83.4804284,62.8189792 82.9986454,61.6494334 C82.7689257,61.1383245 82.6285802,60.5916055 82.5831948,60.0330165 C82.5273359,58.4934056 82.5622478,56.9537946 82.5587566,55.4141837 C82.5587566,54.8590859 82.9358042,54.3668293 83.3652195,54.3668293 C83.7946348,54.3668293 84.1996118,54.8067181 84.1961206,55.4141837 L84.1961206,57.6764691 L84.22405,57.672978 Z" id="Fill-37" fill="#000000"></path>
                <path d="M47.3188077,57.87208 L47.3188077,55.4282531 C47.3188077,54.789367 47.6679258,54.3808988 48.1671647,54.3808988 C48.6245095,54.3983547 48.9526805,54.8522082 48.9491893,55.4282531 C48.9491893,56.9538994 48.9317334,58.4795456 48.9491893,60.0051918 C48.9491893,60.933846 49.3995517,61.4749791 50.2583823,61.6495382 C50.9391627,61.7926766 51.6129607,61.3702437 51.9516052,60.6021838 C52.2036685,59.8051471 51.7812356,58.9515533 50.9950216,58.6680694 C50.7576212,58.5912634 50.4992738,58.5703163 50.2618735,58.4900191 C49.8876189,58.4194973 49.627875,58.0766633 49.6613903,57.697521 C49.7553031,57.2712477 50.1166404,56.9566923 50.5516416,56.9224787 C52.7545769,56.9224787 54.2941879,59.3663056 53.3794984,61.3807172 C52.9846458,62.3264782 52.1415255,63.0110989 51.1346688,63.2031138 C51.0040986,63.2471027 50.8766705,63.3005178 50.7541301,63.3637082 C50.6389211,63.4056024 50.502765,63.4893907 50.4050119,63.4544789 C49.2459398,63.0564842 48.0519558,62.6794367 47.5841375,61.3597701 C47.443792,60.9464143 47.3638439,60.5145551 47.3467371,60.0785066 C47.3083341,59.3418674 47.3467371,58.6017369 47.3467371,57.8616065 L47.3188077,57.87208 Z" id="Fill-39" fill="#000000"></path>
                <path d="M59.901025,63.4300057 C59.073615,63.1192906 59.0456856,62.4769132 59.073615,61.7821682 C59.1102725,61.1701641 59.1032901,60.5567635 59.052668,59.9458068 C58.9797023,59.2287182 58.4061012,58.6652415 57.6876161,58.6051932 C56.9551663,58.542701 56.2757824,58.9923652 56.0467609,59.6909506 C55.7974905,60.507887 56.2572791,61.3723035 57.0742155,61.6215738 C57.2009454,61.6603259 57.3318647,61.6826695 57.4641805,61.6879063 C57.8859152,61.6879063 58.2472524,61.9888461 58.3230111,62.4035984 C58.3718876,62.6200517 58.1205226,62.9482227 57.9389811,63.1716583 C57.7399838,63.4837699 57.3252315,63.5752389 57.013469,63.3758924 C56.969131,63.3476138 56.927935,63.3140985 56.8916268,63.2763937 C56.6821559,63.1123082 56.3539848,63.1123082 56.106111,62.9831345 C54.7361714,62.3040998 54.0536455,60.7376067 54.489694,59.2720088 C54.8555698,57.839228 56.1996746,56.8784549 57.6736514,56.9957586 C59.3773478,57.0585999 60.6097348,58.3538281 60.6655937,60.1762248 C60.6865408,60.8988993 60.6655937,61.625065 60.6655937,62.3477395 C60.7144702,62.9482227 60.2815638,63.1786407 59.901025,63.4300057" id="Fill-41" fill="#000000"></path>
                <path d="M81.9198355,59.4185686 C81.8667695,60.1628885 81.761685,60.9023206 81.6056292,61.6319775 C81.3650868,62.419588 80.7171235,63.0151836 79.9124063,63.1890444 C79.7518119,63.2344297 79.6051823,63.3496387 79.444588,63.3775682 C79.2623483,63.4016573 79.0769666,63.3957223 78.8964725,63.3601123 C78.7777723,63.3601123 78.6765281,63.2483945 78.5473544,63.220465 C77.3188077,62.9855085 76.4575333,61.8714726 76.5399251,60.6230261 L76.5399251,57.9802019 C76.5399251,57.3622628 76.7982726,57.0271094 77.269582,57.0166359 C77.7478739,57.0100026 78.1406318,57.392287 78.1476141,57.8702297 C78.1479632,57.9058398 78.1462177,57.9414498 78.1423774,57.9767107 C78.1423774,58.8076119 78.1298091,59.6409569 78.1039744,60.4763965 C78.0722046,61.1002706 78.5305967,61.6414037 79.1513287,61.7122747 C79.6680236,61.7297306 80.216139,61.1292474 80.1986831,60.5497113 C80.1986831,59.6838984 80.1812272,58.8041207 80.1742449,57.9522725 C80.1222263,57.480963 80.4619182,57.0564354 80.9335768,57.0040676 C80.9712815,57.0002273 81.0093354,56.9984817 81.0470402,56.99918 C81.5127638,57.0655124 81.8517575,57.4753771 81.8290648,57.9452901 L81.8290648,59.4080951 L81.9198355,59.4185686 Z" id="Fill-43" fill="#000000"></path>
                <path d="M69.4774051,60.1447343 C69.3517225,58.8320501 70.3117974,57.5856984 71.5511668,57.0969331 C71.9090128,56.9761382 72.2888534,56.9331967 72.6648536,56.9712505 C73.0932215,57.0086062 73.4102208,57.386352 73.3728651,57.8147199 C73.3417936,58.1673292 73.076813,58.4550026 72.7276948,58.5143527 C72.0748439,58.6155969 71.5197461,58.8355413 71.1950663,59.4674451 C70.8145275,60.1559061 71.0637978,61.0227664 71.7526079,61.4033052 C71.7711112,61.4134296 71.7903127,61.423554 71.8095142,61.4329802 C72.0769387,61.5642486 72.3632155,61.6536229 72.6578712,61.69831 C73.0153682,61.7356656 73.3023433,62.0097233 73.3561075,62.3651256 C73.4468782,62.7142437 73.2374073,62.930697 73.0069893,63.1785708 C72.615977,63.604495 72.2843148,63.3042534 71.8898113,63.2134827 C71.1308285,63.0473024 70.4626164,62.6011295 70.0185382,61.9636398 C69.6177506,61.4458976 69.4250374,60.7972361 69.4774051,60.1447343" id="Fill-45" fill="#000000"></path>
                <path d="M75.7509531,58.849541 C75.7509531,60.0086132 75.7230236,61.1711765 75.7509531,62.3407222 C75.7719002,62.9237495 75.3459761,63.1436939 75.0143138,63.4544091 C74.9448393,63.4826876 74.8659386,63.4732614 74.804843,63.4299708 C74.4557248,63.1017998 74.1066067,62.8120317 74.1066067,62.2290044 C74.1450097,59.966719 74.1240626,57.7079247 74.1240626,55.4456392 C74.1205714,55.382798 74.1205714,55.3199567 74.1240626,55.2571154 C74.1160329,54.8078004 74.473879,54.4373861 74.9228449,54.4293564 C74.9371587,54.4290072 74.9511235,54.4293564 74.9654373,54.4297055 C75.4437291,54.4471614 75.7020766,54.7264559 75.7125501,55.2780625 L75.7125501,57.6765041 L75.7125501,58.8565233 L75.7509531,58.849541 Z" id="Fill-47" fill="#000000"></path>
                <path d="M61.4336885,60.954828 L61.4336885,59.6351615 C61.4720915,58.1549006 62.6905138,56.9364784 64.062548,56.9958284 C64.4919633,56.9783725 64.8616794,57.2950227 64.9109051,57.7219942 C64.9482607,58.1000891 64.6906115,58.4439704 64.3174042,58.5144923 C64.1533187,58.5703512 63.985742,58.6087542 63.8216565,58.6611219 C63.326607,58.7805203 62.9893589,59.2385633 63.022176,59.7468793 C63.022176,60.6092011 62.983773,61.475014 63.0431231,62.3338446 C63.0850172,62.9098895 62.6486196,63.1088869 62.3693251,63.4405491 C62.3033418,63.478603 62.2223464,63.478603 62.156363,63.4405491 C61.7828066,63.1193604 61.3429178,62.8470483 61.423215,62.2291092 C61.45289,61.8049307 61.4563812,61.3793557 61.4336885,60.954828" id="Fill-49" fill="#000000"></path>
            </g>
        </g>
    </g>
</svg>