<?xml version="1.0" encoding="UTF-8"?>
<svg width="100px" height="100px" viewBox="0 0 100 100" version="1.1" xmlns="http://www.w3.org/2000/svg" xmlns:xlink="http://www.w3.org/1999/xlink">
    <!-- Generator: Sketch 59 (86127) - https://sketch.com -->
    <title>fundicao</title>
    <desc>Created with Sketch.</desc>
    <g id="Logos" stroke="none" stroke-width="1" fill="none" fill-rule="evenodd">
        <g transform="translate(-300.000000, 0.000000)" id="fundicao">
            <g transform="translate(300.000000, 0.000000)">
                <rect id="Area" fill="#FCE059" x="0" y="0" width="100" height="100"></rect>
                <path d="M67.1081847,27.7227723 C67.2027957,27.8659107 67.2900753,28.0125403 67.3944616,28.1486964 C67.4513678,28.2286444 67.5302685,28.2904384 67.6217375,28.3267466 C68.2393275,28.5117792 68.8611068,28.6758648 69.482188,28.8608974 C69.6427823,28.898253 69.8065187,28.9181527 69.9709534,28.9202475 L70.7812565,28.9202475 C70.6726808,29.335698 70.5784189,29.6987809 70.4740326,30.0897932 L71.4616878,30.3690877 C72.8400061,30.8149115 74.13698,31.4810289 75.3019872,32.3416051 C75.6329512,32.5154659 76.0117443,32.5765616 76.3811113,32.5161642 C76.4261476,32.5161642 76.5134271,32.4498317 76.5099359,32.4253935 C76.4610594,32.1914843 76.6740214,31.9191722 76.3563239,31.7062101 C76.2585709,31.6398777 76.2969738,31.357092 76.3074474,31.1546035 C76.3074474,31.1196917 76.4854976,31.0743063 76.5797595,31.0708151 L77.4804843,31.0708151 C77.417643,31.3396361 77.6271139,31.5944923 77.3024341,31.8249103 C77.1942074,31.8982251 77.2465752,32.2333785 77.2745046,32.4393582 C77.2745046,32.4882347 77.4874667,32.5371113 77.6030248,32.5371113 L84.3057437,32.5371113 C84.5221969,32.5371113 84.6269324,32.47427 84.5990029,32.2508344 C84.5710735,32.0273988 84.6688265,31.8458574 84.4139703,31.6782807 C84.3127261,31.6119482 84.3682358,31.2977419 84.351129,31.0743063 L85.5136924,31.0743063 C85.4648159,31.3291625 85.6533397,31.5840188 85.3422754,31.8179279 C85.2343979,31.8982251 85.2867656,32.2263961 85.3181863,32.435867 C85.3181863,32.4847435 85.5486042,32.5231465 85.6673044,32.5301289 C85.9123853,32.5458392 86.1585136,32.5458392 86.4039436,32.5301289 C86.6514684,32.5091818 86.7841333,32.5824966 86.7530618,32.8548088 C86.7467776,32.9162535 86.7467776,32.9783966 86.7530618,33.0398414 L87.0498122,33.0922091 L87.0498122,33.1759974 C86.7216411,33.5984304 86.7387479,34.0871957 86.7387479,34.5724699 L86.7387479,57.5549163 L86.7387479,57.8167549 L86.679747,57.8167549 C85.7301457,55.9734112 84.2359201,54.6746917 82.4903294,53.6098814 C80.5548185,52.4525548 78.4663939,51.572428 76.2865003,50.9949867 C74.116382,50.3721599 71.8973872,49.9354131 69.6532559,49.6892849 C67.8343504,49.4937787 66.015445,49.3401667 64.1926992,49.2179754 C62.6429639,49.1237135 61.085897,49.095784 59.5323214,49.095784 L20.27713,49.095784 C19.8857685,49.0947367 19.4951054,49.0549372 19.1114245,48.9770839 C18.2180313,48.8039213 17.4897708,48.1573545 17.2122219,47.2908433 C17.1724225,47.1693502 17.1560139,47.0412239 17.1629963,46.9137958 C17.1423983,42.7662724 17.1144689,38.6152579 17.1109777,34.4642433 C17.120753,34.0854502 17.0240473,33.7115446 16.8316832,33.3854683 C16.9538745,33.2667681 17.0935218,33.1899622 17.1322739,33.0782444 C17.1556648,32.90578 17.1556648,32.7305227 17.1322739,32.5580583 L18.0885084,32.5580583 C18.2979793,32.5580583 18.4135374,32.5161642 18.3821168,32.282255 C18.350347,32.0483459 18.4620648,31.8528397 18.1862615,31.6922454 C18.0923487,31.6363865 18.1478585,31.3431273 18.1304026,31.0777975 L19.2095267,31.0777975 C19.2549121,31.0777975 19.3383513,31.1685682 19.331369,31.1999888 C19.292966,31.3989862 19.4500691,31.6154394 19.1742658,31.8074544 C19.0485833,31.8947339 19.1079334,32.2578168 19.080353,32.5266377 C19.2231423,32.5266377 19.3174042,32.5475848 19.4116661,32.5475848 L25.1721152,32.5475848 C25.3086204,32.5475848 25.5631275,32.4568141 25.5596364,32.4219023 C25.5596364,32.1984667 25.7027748,31.9645575 25.4479186,31.7446131 C25.3225851,31.6363865 25.3571478,31.3431273 25.3117625,31.088271 L26.3591169,31.088271 C26.4149758,31.088271 26.51622,31.1685682 26.51622,31.2104624 C26.51622,31.3920038 26.5444986,31.6503512 26.4463964,31.7341396 C26.1814157,31.954084 26.3245542,32.2019579 26.3172227,32.4323758 C26.3172227,32.4568141 26.3660992,32.5091818 26.3905375,32.5091818 C26.6977615,32.4882347 27.0887738,32.5790054 27.3017358,32.4219023 C28.750576,31.3155469 30.4155204,30.5268891 32.1893896,30.1072491 C32.2134788,30.0964264 32.2358223,30.0824617 32.255722,30.0653549 L31.8647097,28.9726152 C31.9299948,28.9495734 31.998422,28.9342122 32.0671983,28.9272298 C32.7347121,28.9823905 33.405368,28.8619447 34.0117862,28.5781117 C34.3486852,28.4765183 34.6911701,28.395872 35.0385426,28.3372202 C35.1296625,28.3033557 35.2089123,28.2426092 35.2651203,28.1626611 C35.373696,28.026505 35.4571353,27.8763843 35.5513972,27.7332458 L35.6700973,27.7332458 C35.7427139,27.8770825 35.8233602,28.0170789 35.911338,28.1521876 C35.9654513,28.2338812 36.0436537,28.2974207 36.1344244,28.333729 C36.7139605,28.5117792 37.2969878,28.6828471 37.8800151,28.8434415 C38.0182659,28.8895251 38.1610552,28.918851 38.3059392,28.930721 L39.3532936,28.930721 C39.2625229,29.3671187 39.1825748,29.7476574 39.1019285,30.1456521 L39.4510467,30.2434052 C40.9662193,30.5974109 42.3920178,31.2593389 43.6404642,32.1879931 C43.8925275,32.4051446 44.2196512,32.5144186 44.5520116,32.4917259 C44.9671131,32.4672876 44.9775866,32.4917259 44.9671131,32.069293 C44.9671131,31.8528397 45.0442682,31.6189306 44.7684649,31.4513539 C44.6878186,31.4024773 44.715748,31.1022358 44.7684649,30.9486238 C44.7684649,30.8892737 44.9775866,30.8543619 45.0927956,30.8473795 C45.3092488,30.8299236 45.5264003,30.8299236 45.7425044,30.8473795 C45.8084878,30.8473795 45.9306791,30.9381502 45.9271879,30.9695709 C45.8957673,31.1685682 46.0842911,31.433898 45.7631024,31.5595805 C45.7246994,31.5595805 45.7107347,31.6782807 45.7072435,31.7411219 L45.7072435,32.1565725 C45.6726808,32.4253935 45.7878898,32.5056906 46.0563616,32.4882347 L49.8058903,32.4882347 L56.5333966,32.4882347 C56.6451144,32.4934715 56.7568322,32.4767138 56.8615677,32.4393582 C56.8825148,32.1530813 56.9875993,31.7411219 56.8444609,31.6014747 C56.617185,31.3640743 56.6978313,31.1546035 56.7219204,30.9346591 C56.7219204,30.8927649 57.0081973,30.8683266 57.1656496,30.8473795 C57.2812077,30.8302727 57.3985114,30.8302727 57.5147677,30.8473795 C57.6264855,30.8683266 57.8216425,30.9206943 57.8216425,30.9660797 C57.8446843,31.1521596 57.8181513,31.3413817 57.7451857,31.5141951 C57.6683797,31.6608248 57.5353657,32.2857462 57.6404502,32.4184111 C57.6404502,32.4393582 57.6858356,32.4672876 57.7099247,32.4672876 C58.0590429,32.4672876 58.4713514,32.6208996 58.79254,32.3625522 C60.0647265,31.3832758 61.529277,30.6829449 63.0898351,30.3062464 L63.7147565,30.1281962 C63.5855828,29.7302015 63.4668827,29.3636275 63.3342178,28.9481769 L64.1721013,28.9481769 C64.384016,28.9401472 64.5948833,28.9108213 64.800863,28.8608974 C65.3870324,28.7037942 65.9665684,28.5117792 66.5464537,28.3511849 C66.6375735,28.3169713 66.7161251,28.2544792 66.7695401,28.1731347 C66.8575179,28.0373277 66.9371168,27.896284 67.0072896,27.7507017 L67.1081847,27.7227723 Z M42.5337597,45.7721795 C42.7222835,45.1437668 42.6384952,45.0180843 42.0554679,45.0180843 L29.7144912,45.0180843 L29.7144912,45.7547236 L30.0388219,45.7896354 C30.2343281,45.9676856 29.8921923,46.3936097 30.3879401,46.3691715 C30.6218492,46.391515 30.8582022,46.37371 31.0861763,46.3168038 C31.176947,46.2784008 31.1594911,45.9676856 31.1944029,45.7896354 L40.8649751,45.7896354 C41.0747951,45.9537209 40.7323102,46.3621891 41.1760393,46.3656803 C41.4186764,46.3971009 41.6651538,46.3817397 41.902205,46.3202949 C41.9961178,46.2818919 41.979011,45.9711768 42.0135737,45.7721795 L42.5337597,45.7721795 Z M73.1688754,45.7721795 L73.5913084,45.7721795 C73.6541496,45.7721795 73.7588851,45.7267941 73.7627254,45.6953735 C73.7924004,45.5023112 73.7924004,45.3054085 73.7627254,45.1123462 C73.7627254,45.0564873 73.5288162,45.0215755 73.4136072,45.0215755 L60.9186694,45.0215755 L60.9186694,45.7617059 L61.2677876,45.7966177 C61.4035945,45.9991063 61.1243,46.4389951 61.6409948,46.3761538 C61.8539569,46.3517156 62.1018308,46.418048 62.2728987,46.3272773 C62.3741429,46.2749096 62.3497046,45.9781592 62.3881076,45.7791618 L71.562932,45.7791618 C72.0761357,45.7791618 72.0729936,45.7791618 72.1602732,46.2679272 C72.1690011,46.2976023 72.1819185,46.3255317 72.198327,46.3517156 L73.140946,46.3517156 C73.140946,46.1597006 73.1653842,45.9851415 73.1796981,45.7791618 L73.1688754,45.7721795 Z M33.1878674,40.0256951 L33.1878674,43.1363376 C33.1878674,43.2340907 33.2227793,43.4156321 33.2615314,43.4226145 C33.4528481,43.4592719 33.6494016,43.4592719 33.8407183,43.4226145 C33.889944,43.4226145 33.9178735,43.2026701 33.9178735,43.0734963 C33.9178735,41.1847673 33.8965772,39.2995294 33.9178735,37.4142915 C33.9377732,36.9300647 34.0564733,36.4545658 34.2669916,36.017819 C34.7906688,34.9250792 35.9074977,34.6737142 36.7383988,35.420827 C37.1629264,35.8135849 37.4237177,36.3522742 37.4684048,36.9290173 C37.4994763,37.2257677 37.6984737,37.1629264 37.876873,37.1768912 C38.0545741,37.1908559 38.107291,37.0616822 38.107291,36.8941055 C38.1107822,36.3096817 37.9407616,35.7374771 37.6181765,35.2497591 C36.7209429,33.8532866 34.9823346,33.7136393 33.9140332,34.9460263 C33.4217766,35.5318466 33.1578433,36.2758173 33.1704115,37.0407351 L33.1704115,40.0326775 L33.1878674,40.0256951 Z M64.5002723,43.4365792 L64.6887961,43.4575263 C65.1779106,43.4575263 65.1779106,43.4575263 65.1779106,42.9966904 L65.1779106,37.4561857 C65.1726738,36.8612884 65.3440908,36.277912 65.6701672,35.7804187 C66.3684034,34.7330643 67.6004413,34.7051348 68.2951864,35.7524892 C68.5036099,36.1169685 68.6544289,36.511472 68.7424067,36.9220349 C68.8223547,37.2327501 69.0283344,37.1629264 69.2206985,37.1594353 C69.4127135,37.1559441 69.443785,36.9744027 69.4092223,36.8382466 C69.3201972,36.3484339 69.1788043,35.8694438 68.9867894,35.4103534 C68.4763787,34.288986 67.1535701,33.7932383 66.0322027,34.303649 C65.9117569,34.3584605 65.7961988,34.4237456 65.6876231,34.4991551 C64.9059476,35.0333059 64.4531414,35.9305395 64.4863076,36.8766496 L64.4863076,43.1607759 L64.4863076,43.4645087 L64.5002723,43.4365792 Z M39.4824673,43.4365792 L39.4824673,37.3898532 C39.4681534,37.0012848 39.5920904,36.6203969 39.8315854,36.3145694 C40.0965661,35.923208 40.628273,35.8209164 41.0192853,36.0855479 C41.0905054,36.1333771 41.1536958,36.1920289 41.20746,36.2587105 C41.3533913,36.4961108 41.4808195,36.7446829 41.5876496,37.0023321 C41.6560768,37.0924046 41.7555754,37.1538494 41.8669441,37.1734 C41.9018559,37.1734 42.0209052,37.058191 42.0209052,36.9953497 C42.0209052,36.0143278 41.1268137,35.1310589 40.1178623,35.4347917 C39.393093,35.6847603 38.9270203,36.3913754 38.9832284,37.1559441 L38.9832284,43.0909523 C38.9832284,43.5238587 38.9832284,43.5308411 39.4929408,43.4400704 L39.4824673,43.4365792 Z M60.9567233,43.4365792 C61.4350152,43.509894 61.4489799,43.5029116 61.4489799,43.0874611 L61.4489799,37.3374855 C61.4556131,37.0250248 61.5369576,36.7184991 61.6867293,36.4437431 C61.9070229,36.0021087 62.4436174,35.822662 62.8852519,36.0433046 C63.0406094,36.1204597 63.1697831,36.2416037 63.2577609,36.3913754 C63.3796031,36.5816448 63.4672318,36.792163 63.5157592,37.0128057 C63.5649848,37.2187853 63.6973006,37.2257677 63.819492,37.1768912 C63.9420324,37.1280146 63.9420324,37.0093145 63.9626304,36.9150526 C63.9657725,36.8260275 63.9514586,36.7370023 63.9207362,36.653214 C63.7814381,35.8338337 63.0043011,35.2829253 62.1849209,35.4222235 C61.425589,35.5517463 60.8865506,36.233574 60.9357762,37.0023321 L60.9357762,43.1956877 L60.9357762,43.471491 L60.9567233,43.4365792 Z M29.7036685,43.4365792 C30.1508889,43.5168764 30.1819604,43.4959293 30.1819604,43.0874611 L30.1819604,37.5190269 C30.1798657,37.3416749 30.1878954,37.164672 30.2063986,36.9883674 C30.2510858,36.4723708 30.6284825,36.0467958 31.1350529,35.941013 C31.6594283,35.9273974 32.1174713,36.292575 32.2208102,36.806826 C32.2417573,36.8801408 32.2208102,36.9848762 32.2735271,37.0302616 C32.3503331,37.1021799 32.4480861,37.1486126 32.5528216,37.1629264 C32.5908754,37.1629264 32.6851373,37.0372439 32.6851373,36.9674203 C32.6893268,36.2883855 32.2721306,35.6777779 31.637783,35.4347917 C30.8288763,35.1994861 29.9822648,35.6648606 29.7469592,36.4737673 C29.7064615,36.6127163 29.6862126,36.7565529 29.6865573,36.9010879 L29.6865573,43.241073 L29.6865573,43.433088 L29.7036685,43.4365792 Z M70.7358712,43.4365792 L70.7358712,43.0874611 L70.7358712,37.4596769 C70.7365694,37.1168429 70.8165175,36.7785474 70.9697803,36.4716726 C71.1719197,36.0108366 71.7092125,35.8013658 72.1700485,36.0035051 C72.3795193,36.0953232 72.5463978,36.2622017 72.6382159,36.4716726 C72.7254954,36.6217933 72.7433004,36.8207907 72.8270888,36.9604379 C72.8759653,37.0512086 72.9978075,37.1000852 73.0889274,37.1664176 C73.1444372,37.0896116 73.2491726,37.0128057 73.2530129,36.9290173 C73.26209,36.7712159 73.2393973,36.6134145 73.1863313,36.4646902 C73.0306246,35.8984206 72.5610608,35.4738929 71.9822229,35.3754416 C71.4400425,35.2808306 70.8936726,35.5133433 70.5857504,35.9689425 C70.3253083,36.3431971 70.2020696,36.7956542 70.2366323,37.250206 L70.2366323,43.0839699 C70.2366323,43.4854557 70.2680529,43.509894 70.7285397,43.433088 L70.7358712,43.4365792 Z" id="Fill-313" fill="#000000"></path>
                <path d="M70.557402,65.3402505 C69.3707495,67.3302239 66.5355612,67.0195087 65.6456591,65.4240389 C64.7634376,66.0014803 63.7803209,66.4068064 62.7476295,66.6180229 C62.5873843,66.6529347 62.4194584,66.6843553 62.255722,66.7053024 C61.8259576,66.7576701 61.8259576,66.7576701 61.7805723,67.2289796 L61.9725872,67.2848385 C62.4885838,67.3836389 62.8677261,67.8249242 62.8872767,68.3496488 C62.956053,68.9204569 62.6303258,69.4657794 62.0951277,69.6762977 C61.4977866,69.8787862 60.8519181,69.889958 60.2482928,69.7077183 L60.2482928,68.6778198 C60.5380609,68.6987669 60.8204974,68.7371699 61.1036322,68.7301875 C61.3860688,68.7232052 61.5920485,68.5486461 61.5920485,68.3182282 C61.5920485,68.0214777 61.3721041,67.9411806 61.138544,67.9062688 C60.9353573,67.8828779 60.7314723,67.8724043 60.5275873,67.8748481 L60.8484269,66.6494435 C59.4069181,66.3352372 58.3208116,65.5671773 57.7730453,64.1776872 C57.2423857,62.8681451 57.361435,61.3847421 58.094234,60.1767934 L56.5333268,60.1767934 C56.2927844,60.1767934 56.2714882,60.4037202 56.2714882,60.6027175 L56.2714882,64.2579843 L56.2714882,65.5357567 C56.2714882,66.1990811 55.9541398,66.5167786 55.2834839,66.523761 L52.1414208,66.523761 C51.2476784,66.523761 51.0940664,66.3771314 50.9652418,65.4973537 L50.912525,65.4973537 C50.046712,66.6634082 48.8666927,66.8693879 47.5334106,66.6040581 C47.30404,66.5523887 47.0701308,66.5230627 46.8351743,66.5167786 L42.785055,66.5167786 C41.9475206,66.5167786 41.6717172,66.2374841 41.6678769,65.3891271 L41.6678769,61.7652809 C41.6661314,61.4894776 41.635409,61.2143725 41.5771062,60.9448533 C41.4968091,60.4431706 41.0551746,60.0793895 40.5472078,60.0964963 C39.3085366,60.0109623 38.2349984,60.9459007 38.1494645,62.1842227 C38.1491153,62.1866665 38.1491153,62.1891103 38.1491153,62.191205 C38.0967476,62.7225628 38.0754514,63.2563644 38.085925,63.790166 L38.085925,66.523761 L36.4729992,66.523761 L33.0764289,66.523761 C32.9085031,66.5265539 32.7412755,66.5104945 32.5768409,66.4748844 C32.1865268,66.4176291 31.9037411,66.0730495 31.9243391,65.6788951 L31.9243391,65.060956 C31.847184,65.1656915 31.8091301,65.2180592 31.7738692,65.2704269 C30.8176347,66.8414585 28.8102054,67.0160175 27.5844517,66.3806225 C26.7256211,65.9302602 26.4152551,65.1133237 26.3730118,64.2056166 C26.3206441,63.1093857 26.3450823,62.0096636 26.3384491,60.9099415 C26.3384491,60.1698111 26.3384491,60.1733022 25.6122834,60.1663199 L22.8193384,60.1244257 L22.4702202,60.1244257 L22.4702202,66.5516904 L20.4100742,66.5516904 L20.4100742,55.8337639 C19.865799,55.7290285 19.3627198,55.662696 18.8498652,55.5195576 C18.3946152,55.3676912 17.9494896,55.1878954 17.5158849,54.9819157 C17.439428,54.9470039 17.3381837,54.8492508 17.3346926,54.775936 L17.3346926,52.6079124 C17.5473055,52.7824715 17.7117401,52.9360835 17.8897904,53.0687483 C18.7266265,53.6573615 19.7331341,53.9565557 20.7560502,53.9205966 C23.0913014,53.9205966 25.4269016,53.9205966 27.7590107,53.9415437 L28.2481252,53.9415437 L28.2481252,55.8686757 L22.4593976,55.8686757 L22.4593976,58.4067645 C22.5609909,58.4067645 22.6653773,58.4242204 22.7666215,58.4242204 L27.2287003,58.4451675 C28.0002514,58.4451675 28.3001438,58.7523915 28.3039841,59.5274337 L28.3039841,63.1512799 C28.3001438,63.3300283 28.3106174,63.5084277 28.3354048,63.6854306 C28.4747029,64.6594702 29.0053625,65.0400089 29.9724197,64.8340292 C30.998827,64.617576 31.4980659,63.8879191 31.7180103,62.9278443 C31.7752657,62.6464551 31.8011004,62.35948 31.7951654,62.0725049 L31.7951654,58.8047592 L31.7951654,58.4556411 L33.7952632,58.4556411 L33.7952632,58.8047592 C33.7952632,60.6666062 33.8050385,62.5183287 33.8231926,64.3592286 C33.8231926,64.7676968 33.8759095,64.8165733 34.2910109,64.8165733 L36.0578978,64.8165733 L36.0578978,64.4674552 L36.0578978,60.707453 C36.0578978,60.2186876 35.9985477,60.1628287 35.5129244,60.1628287 L35.0943317,60.1628287 L35.0943317,58.4800793 C35.792568,58.4800793 36.4908042,58.4416763 37.1890405,58.4800793 C37.740298,58.5184823 37.9605915,58.8291974 37.9640827,59.4052424 L37.9640827,59.918446 L38.1173456,59.7019928 C39.1228058,58.1414347 40.9909369,58.0332081 42.1740982,58.5359382 C43.1554693,58.95488 43.5220433,59.8102194 43.5705707,60.8017149 C43.6232876,61.9572959 43.5985002,63.1198592 43.6058317,64.2754402 C43.6058317,64.7956262 43.6651818,64.8549763 44.1850186,64.8549763 L45.232373,64.8549763 C45.0759681,64.280677 44.9520312,63.6976497 44.8623078,63.1093857 C44.6605175,61.8298678 44.9981148,60.524166 45.7944532,59.5029954 C46.8334288,58.3023782 48.5392199,57.9298692 49.9838707,58.5883059 C50.1343407,58.6626681 50.2767809,58.7513441 50.4097949,58.8536357 C50.5424597,58.95488 50.6576687,59.0805625 50.8221034,59.2306833 L50.8221034,57.5374604 C50.8221034,57.0591685 50.7763689,57.0172744 50.2910947,57.0172744 L49.8826265,57.0172744 L49.8826265,55.3170691 C50.5808627,55.3170691 51.3038864,55.2891396 52.0052647,55.3170691 C52.4528341,55.3149744 52.8169643,55.6759625 52.8187099,56.123532 C52.8190591,56.1500649 52.8176626,56.176947 52.8155679,56.2038291 L52.8155679,57.6561605 L52.8155679,64.3103521 C52.8155679,64.7886439 52.8955159,64.8584675 53.3706657,64.8165733 L53.8136966,64.8165733 C54.1628147,64.8165733 54.2574257,64.7397673 54.2605678,64.387158 L54.2605678,63.0814562 L54.2605678,59.590275 C54.2605678,58.7349356 54.5503359,58.4556411 55.4060244,58.4556411 C56.6171152,58.4556411 57.8285551,58.473097 59.0403441,58.4556411 C59.7385803,58.4556411 60.4713793,58.3893086 61.1835803,58.319485 C61.9100951,58.2343002 62.6467343,58.3093606 63.3411303,58.5394294 C64.3884847,58.8885475 64.7376028,59.4017512 64.7376028,60.4979821 L64.7376028,61.0286417 L62.9920122,61.0286417 C62.9920122,60.9727828 62.9714142,60.9099415 62.967923,60.843609 C62.967923,60.3443701 62.8352581,60.187267 62.3496348,60.0511109 C61.1078216,59.7327152 59.8429667,60.4819227 59.5245709,61.724085 C59.5081624,61.7883227 59.4945468,61.8532587 59.483375,61.9188929 C59.1342569,63.9263221 60.6459384,65.3751623 62.6254381,64.886397 C63.8372272,64.5697468 64.9201916,63.8826823 65.7221159,62.9208619 C66.3358656,62.2428745 67.1695597,61.804033 68.0755212,61.6814925 C68.7144074,61.5697747 69.3672583,61.5453365 70.0127777,61.4894776 L70.3273332,61.4894776 C70.4914187,60.5712969 70.0340739,59.9289195 69.1508051,59.8486224 C68.8757,59.82977 68.5995475,59.8496697 68.3300283,59.9079725 C67.9215601,59.9917608 67.820665,60.1453728 67.8136826,60.5712969 L67.8136826,60.7737854 L65.9420604,60.7737854 C65.9438059,60.3688084 65.970688,59.9641805 66.0227066,59.5623455 C66.1277912,59.1723806 66.4095295,58.8546831 66.783435,58.7035149 C67.3392311,58.4469131 67.941809,58.3069167 68.5538131,58.2915555 L68.9029312,58.2706084 C68.7144074,58.0401905 68.5538131,57.8342108 68.3897275,57.6526694 C68.1935232,57.382801 67.8157773,57.3227527 67.545909,57.5189571 C67.4376824,57.5971596 67.3587817,57.7095756 67.321077,57.837702 C67.262076,57.9633845 67.2233239,58.0960494 67.1639738,58.2601349 L65.9979193,58.0681199 C65.9930316,57.3154212 66.422796,56.6273094 67.1014817,56.3015822 C67.8300912,56.0470751 68.6403944,56.2876175 69.112053,56.8985742 C69.2380846,57.0521862 69.3532936,57.2162717 69.4891005,57.3559189 C69.883604,57.760896 70.3339664,57.6805988 70.5786982,57.163904 C70.6345571,57.0417126 70.6729601,56.9090477 70.728819,56.7554358 L71.3327934,56.85668 L71.9297854,56.9649066 C71.8037537,57.6631429 71.5806672,58.2671173 70.9801841,58.6511472 L70.9801841,58.7000237 C72.0275384,59.2725775 72.3487271,60.2361435 72.3766566,61.3393568 C72.4007457,62.3483082 72.3766566,63.3607507 72.3766566,64.3697021 C72.3766566,64.7746792 72.4566046,64.8584675 72.8549484,64.8619587 C73.2529431,64.8654499 73.6998143,64.8619587 74.1603011,64.8619587 C74.1184069,64.7676968 74.0943178,64.7048555 74.0628971,64.6489966 C72.8902093,62.625508 73.5797176,60.0343532 75.6035554,58.8616654 C76.2277786,58.4999791 76.9340446,58.3037747 77.6553227,58.2915555 C79.6135262,58.2182407 81.2578726,59.1818068 81.9700736,60.8191708 C82.9119943,62.9327319 81.9620439,65.4093759 79.8484827,66.3509475 C79.5108855,66.5014174 79.1551341,66.6061529 78.7899566,66.6634082 C78.1175551,66.775126 77.4304906,66.7576701 76.7647223,66.6110405 C76.5730565,66.5701937 76.3778994,66.550294 76.181695,66.5516904 L71.5698446,66.5516904 C70.8370456,66.5516904 70.5472776,66.2584312 70.5399461,65.5322655 L70.5399461,65.3542153 M80.3327096,62.5193761 C80.2709157,61.1979639 79.1498974,60.1767934 77.8288344,60.2385873 C76.5074223,60.3003812 75.4862517,61.4213995 75.5480456,62.7428117 C75.6077448,64.0167437 76.6554483,65.0208074 77.9307769,65.0260442 C79.2633608,65.0211566 80.3396919,63.9371448 80.3348209,62.60491 C80.3344552,62.5762823 80.334106,62.5476546 80.3327096,62.5193761 M50.9788574,62.5123937 C50.8929743,62.0536525 50.7760198,61.6011954 50.6297393,61.1578154 C50.3755813,60.4442179 49.6902624,59.9760505 48.9333743,59.9987432 C48.1656635,59.9694173 47.4646343,60.4309514 47.1877837,61.1473418 C46.7758243,62.0341019 46.7821084,63.0587636 47.2048904,63.9402868 C47.6266251,64.8797637 48.7298384,65.2994037 49.6693153,64.877669 C50.1015236,64.6839084 50.4440084,64.3323465 50.6262481,63.8949015 C50.7739251,63.4448882 50.8905305,62.9850996 50.9753662,62.5193761 M70.4212459,62.8230943 C70.0152216,62.8224106 69.6095463,62.8468489 69.2063148,62.8964236 C68.7514139,62.9554246 68.3087321,63.0849474 67.8936307,63.2804536 C67.4289545,63.5192504 67.2460166,64.0897094 67.4848134,64.5543856 C67.5801226,64.7394182 67.7333855,64.8881426 67.9215601,64.9771677 C68.2228491,65.114022 68.5576534,65.161502 68.8851262,65.1133237 C69.8102892,64.9597118 70.5155078,63.9018838 70.4212459,62.8230943" id="Fill-315" fill="#000000"></path>
                <path d="M58.4153528,70.8109316 C58.4055775,71.8558421 57.5502381,72.6951221 56.5053275,72.6856959 C55.460417,72.6759206 54.6214861,71.8209303 54.6309123,70.7760198 C54.6403385,69.7325057 55.4932341,68.8935748 56.5370973,68.9012554 C57.5704869,68.8974151 58.4115125,69.7318075 58.4157019,70.7651971 C58.4157019,70.7805583 58.4157019,70.7955704 58.4153528,70.8109316 M57.5041545,70.7934757 C57.5254507,70.2366323 57.091846,69.7677666 56.5350026,69.7461213 L56.533257,69.7461213 C55.9704786,69.7593878 55.525353,70.2265078 55.5386194,70.7892863 L55.5386194,70.7934757 C55.5127847,71.3632365 55.9470877,71.8488598 56.5161502,71.8862154 C57.0806742,71.8677122 57.523356,71.3950062 57.5048527,70.8304822 C57.5048527,70.823849 57.5045036,70.8175648 57.5041545,70.8109316" id="Fill-317" fill="#000000"></path>
                <path d="M32.1022497,70.8109316 C32.0945691,71.8579369 31.2392297,72.7003589 30.1922244,72.6926783 C29.1455683,72.6849977 28.3031463,71.8296583 28.3108269,70.7830021 C28.3185075,69.7359969 29.1734977,68.8935748 30.2201539,68.9012554 C31.2556383,68.8974151 32.0984094,69.7332039 32.1025988,70.7686883 C32.1025988,70.782653 32.1022497,70.7966177 32.1022497,70.8109316 M31.1910514,70.7934757 C31.2123476,70.2366323 30.7787429,69.7677666 30.2218995,69.7461213 L30.2201539,69.7461213 C29.6556299,69.7593878 29.2087587,70.2282534 29.2220252,70.7927774 L29.2220252,70.7934757 C29.1961904,71.3642838 29.6325881,71.8506054 30.2030471,71.8862154 C30.7696658,71.8656175 31.2119985,71.3897694 31.1917496,70.8231507 C31.1914005,70.8189613 31.1914005,70.815121 31.1910514,70.8109316" id="Fill-319" fill="#000000"></path>
                <path d="M36.1518804,71.4392744 C36.0691394,71.4239132 35.9846528,71.414487 35.9005153,71.4113449 C35.6526414,71.4113449 35.5513972,71.3135919 35.5723443,71.0622268 C35.5723443,70.5804438 35.5723443,70.5769526 36.0471449,70.5769526 L36.6654331,70.5769526 C36.8326607,70.5769526 36.916449,70.6642321 36.916449,70.8422824 L36.916449,72.3888757 C36.916449,72.5773995 36.8256783,72.6786437 36.6511193,72.664679 C36.4765602,72.6507143 36.3020011,72.5983466 36.1344244,72.5739083 C36.0778673,72.5672751 36.0209611,72.5735592 35.9671969,72.5913642 C35.264073,72.8769428 34.457261,72.6636317 33.987348,72.067687 C33.5080088,71.42915 33.4336466,70.5734614 33.795333,69.8612605 C34.1395635,69.1717522 34.891913,68.7856275 35.6526414,68.908168 C35.985351,68.9867195 36.3058414,69.1103074 36.6057339,69.274742 C36.7841333,69.3585304 36.8082224,69.5226159 36.6790487,69.6936838 C36.6368054,69.75059 36.5980533,69.8099401 36.5641889,69.871734 C36.4521219,70.0742225 36.3229482,70.1126255 36.1239509,69.9729783 C35.8526861,69.7663003 35.5018224,69.6940329 35.1708584,69.7774721 C34.7829882,69.8696393 34.5002025,70.2033962 34.4726222,70.6013909 C34.3769638,71.00951 34.5333687,71.435085 34.8706168,71.6836571 C35.1893617,71.9105839 35.6170314,71.9105839 35.9354271,71.6836571 C36.0164225,71.6082476 36.0900864,71.5255066 36.1553715,71.4357832" id="Fill-321" fill="#000000"></path>
                <path d="M25.4025332,71.3695555 L25.4025332,72.3296304 C25.4025332,72.5670307 25.3152537,72.6787485 25.0534151,72.6787485 C24.9626444,72.6735117 24.8715245,72.6735117 24.7811029,72.6787485 C24.5510341,72.6787485 24.4599143,72.574013 24.4637546,72.3296304 L24.4637546,69.1701113 C24.4637546,68.932711 24.5649988,68.8454314 24.7915765,68.8524138 L25.744669,68.8524138 C26.3105895,68.8524138 26.7920233,68.9780963 27.0329149,69.5506501 C27.2738064,70.1232038 27.1240347,70.5980044 26.6349202,71.0728051 L27.2493681,72.2039478 C27.4172939,72.5181541 27.3300144,72.6263808 26.9700736,72.6612926 C26.631429,72.7429862 26.2896424,72.5377048 26.2020137,72.2004566 C26.1182254,71.9735299 25.9646134,71.7710413 25.8528956,71.5476057 C25.7893561,71.3657152 25.5903588,71.2693586 25.4084682,71.3332472 C25.3955508,71.3377858 25.3829826,71.3426734 25.3711126,71.3486084 M25.4199891,69.6623679 L25.4199891,70.4758131 C25.6748453,70.4583572 25.957631,70.5805485 26.1182254,70.339657 C26.1953805,70.2384128 26.2055049,69.93468 26.1461548,69.9032594 C25.9077071,69.7960801 25.6584368,69.7150847 25.4025332,69.6623679" id="Fill-323" fill="#000000"></path>
                <path d="M40.9836403,71.0623665 C41.207425,71.4743259 41.420038,71.8548646 41.6225265,72.2388946 C41.7764876,72.5251714 41.6923501,72.6473628 41.3781438,72.6822746 C41.0223924,72.7772347 40.6568658,72.5656691 40.5619056,72.2099177 C40.5619056,72.2092195 40.5615565,72.2081722 40.5612074,72.2074739 C40.4844014,71.9875295 40.3346297,71.7955145 40.2400187,71.5790613 C40.1855563,71.3940287 39.9914466,71.2882459 39.8067631,71.3427083 C39.7889581,71.3479451 39.7715022,71.3545783 39.7547445,71.3626081 L39.7547445,72.2912623 C39.7547445,72.6054686 39.7023768,72.671801 39.3811881,72.6752922 L39.1647349,72.6752922 C38.9412993,72.6752922 38.8156168,72.594995 38.8156168,72.3575947 L38.8156168,69.1945845 C38.8156168,68.9676577 38.8994051,68.8454664 39.1333142,68.8664134 L40.2504923,68.8664134 C40.7479856,68.823821 41.2133601,69.1156838 41.3921085,69.5821056 C41.5970409,70.0747113 41.4682163,70.6430756 41.0709199,70.9995252 C41.038801,71.0218688 41.0052856,71.0417685 40.9696756,71.0588753 L40.9836403,71.0623665 Z M39.7690584,70.475848 C40.034039,70.4549009 40.3272982,70.5875658 40.4983661,70.3152537 C40.5716809,70.1742099 40.5716809,70.005935 40.4983661,69.8648913 C40.3098423,69.6205086 40.0235655,69.7601558 39.7795319,69.7392088 L39.7690584,70.475848 Z" id="Fill-325" fill="#000000"></path>
                <path d="M43.7418132,71.1949964 L43.7418132,71.8234091 L45.1033739,71.8234091 C45.3966331,71.8234091 45.5223156,71.9037062 45.5223156,72.1725272 C45.5223156,72.6717661 45.5223156,72.6962044 44.9288148,72.6962044 L43.0715064,72.6962044 C42.7817383,72.6962044 42.6525646,72.6089249 42.6560558,72.3470863 L42.6560558,69.2050231 C42.6560558,68.9746051 42.7573001,68.8733609 43.026121,68.8768521 L45.0754444,68.8768521 C45.3303007,68.8768521 45.4420185,68.9746051 45.4245626,69.1910584 L45.4245626,69.4389323 C45.4245626,69.6623679 45.29888,69.7461562 45.0754444,69.7461562 L43.7487955,69.7461562 L43.7487955,70.3466394 L44.7228351,70.3466394 C45.047515,70.3466394 45.1169895,70.4374101 45.1169895,70.6957575 C45.1169895,71.1984876 45.1169895,71.2194347 44.5238378,71.2194347 L43.7418132,71.2194347" id="Fill-327" fill="#000000"></path>
                <path d="M21.1643788,71.4392744 L21.1643788,72.3853845 C21.1643788,72.587873 21.0697678,72.6926085 20.8533145,72.6891173 L20.6546663,72.6891173 C20.2287422,72.6891173 20.1938304,72.6542055 20.1938304,72.2562108 L20.1938304,69.2468126 C20.1938304,68.8976944 20.2357246,68.8662738 20.5848427,68.8662738 L21.7613708,68.8662738 C22.4491335,68.8352023 23.0318116,69.3676074 23.062534,70.055021 C23.0639305,70.0846961 23.0642796,70.1143711 23.0632323,70.1440461 C23.0789426,70.8419333 22.5259395,71.420422 21.8284015,71.4361323 C21.8074544,71.4364814 21.785809,71.4364814 21.764862,71.4357832 L21.1643788,71.4392744 Z M21.1643788,70.5874262 C21.457638,70.5210937 21.7997738,70.7061263 21.9879484,70.4023936 C22.0703403,70.2435448 22.0703403,70.055021 21.9879484,69.8961723 C21.7927914,69.6098954 21.457638,69.7704897 21.16787,69.7390691 L21.1643788,70.5874262 Z" id="Fill-329" fill="#000000"></path>
                <path d="M47.8333729,72.6927132 C47.4084961,72.6745591 46.9982823,72.5328171 46.6533536,72.284245 C46.468321,72.1515801 46.4128112,72.0119329 46.5800388,71.8338826 C46.6442766,71.7661537 46.7050231,71.6949336 46.7619294,71.6209206 C46.8945943,71.4463615 47.0304012,71.4463615 47.2363809,71.5615705 C47.4538815,71.6816671 47.6898853,71.7644081 47.9346172,71.8059532 C48.046335,71.8059532 48.1859822,71.687253 48.3116647,71.6244117 C48.2418411,71.5196763 48.1964558,71.380029 48.0917203,71.3171878 C47.8955159,71.2121032 47.6912818,71.1220308 47.4807636,71.0483668 C46.7200352,70.7271781 46.4334092,70.301254 46.5940035,69.7217179 C46.7545979,69.1421818 47.3690458,68.8000461 48.1196498,68.8733609 C48.4534067,68.9309654 48.7777374,69.0343043 49.0832158,69.1805848 C49.2123895,69.2123546 49.2912902,69.3429248 49.2595205,69.4720985 C49.249396,69.5136435 49.2280998,69.5513483 49.1984248,69.5820707 C49.1390747,69.6623679 49.0905473,69.7496474 49.0378304,69.8369269 C48.9261126,70.0254507 48.7934478,70.0324331 48.5769945,69.9381712 C48.3388959,69.843211 48.0885783,69.7835118 47.8333729,69.7601209 C47.7268919,69.7800207 47.6375176,69.8522881 47.5959726,69.9521359 C47.5959726,70.0219595 47.68011,70.1476421 47.7673896,70.1895362 C48.0253879,70.3187099 48.3050315,70.4094807 48.5700121,70.5386544 C49.2682484,70.8633342 49.5196135,71.4428703 49.2263542,72.0224064 C49.009901,72.4483305 48.528118,72.6996956 47.8298817,72.6996956" id="Fill-331" fill="#000000"></path>
                <path d="M51.8795822,68.3880518 C52.2287003,68.5172255 52.5778184,68.6324345 52.8888827,68.7825553 C53.0512226,68.8303844 53.1444372,69.0011032 53.096608,69.1641414 C53.0822941,69.2123197 53.0564594,69.2563086 53.0215476,69.2922677 C52.9761622,69.355109 52.9447416,69.4284238 52.9028474,69.4982474 C52.7422531,69.7740507 52.6790627,69.7670684 52.3823123,69.62393 C52.162717,69.5233839 51.9256658,69.4654303 51.684076,69.4528621 C51.6002877,69.4528621 51.4571492,69.5820358 51.4257286,69.6762977 C51.394308,69.7705596 51.5203396,69.8857685 51.6107612,69.9346451 C51.8694577,70.0742923 52.1518943,70.1790278 52.4172241,70.3116927 C52.8319764,70.4747308 53.1220936,70.853524 53.1713192,71.2962058 C53.2428885,71.9923473 52.7363181,72.614825 52.0401765,72.6863942 C51.9881579,72.6916309 51.9354411,72.6937256 51.8834225,72.6926783 C51.3803433,72.7240989 50.883199,72.5701378 50.48695,72.2597718 C50.2666564,72.0921951 50.2390761,71.9106537 50.4275999,71.7186387 C50.4796185,71.6592886 50.5250038,71.5929562 50.5703892,71.5301149 C50.7100364,71.3241352 50.853524,71.3171529 51.0699772,71.4568001 C51.2759569,71.5884177 51.5060258,71.6774428 51.7469173,71.7186387 C51.8656175,71.7395858 52.0122471,71.6034297 52.1452611,71.5370973 C52.068106,71.4114148 52.0227206,71.2473292 51.9148431,71.1879792 C51.698739,71.0654387 51.4749543,70.9582594 51.2445363,70.8667905 C50.5463,70.5176724 50.2704967,70.0708012 50.4136352,69.4493709 C50.6025081,68.8293371 51.1991509,68.4261057 51.8446704,68.4823137 L51.876091,68.4089989" id="Fill-333" fill="#000000"></path>
                <polygon id="Fill-335" fill="#000000" points="54.1315337 57.8656314 56.0447011 57.8656314 56.0447011 55.9524641 54.1315337 55.9524641"></polygon>
            </g>
        </g>
    </g>
</svg>