<?xml version="1.0" encoding="UTF-8"?>
<svg width="100px" height="100px" viewBox="0 0 100 100" version="1.1" xmlns="http://www.w3.org/2000/svg" xmlns:xlink="http://www.w3.org/1999/xlink">
    <title>hoba</title>
    <g id="Logos" stroke="none" stroke-width="1" fill="none" fill-rule="evenodd">
        <g transform="translate(0.000000, -400.000000)" id="hoba">
            <g transform="translate(0.000000, 400.000000)">
                <rect id="Area" fill="#FCE059" x="0" y="0" width="100" height="100"></rect>
                <g id="Group-139" transform="translate(14.000000, 14.000000)" fill="#000000">
                    <path d="M36.76542,73.73012 C36.36962,73.56752 36.25322,73.26872 36.26322,72.85172 C36.28622,71.87572 36.26602,70.89872 36.27322,69.92212 C36.27682,69.44232 36.48642,69.18752 36.85822,69.21352 C37.30642,69.24492 37.43342,69.54392 37.43122,69.94592 C37.42662,70.90652 37.41202,71.86752 37.43802,72.82752 C37.44942,73.24332 37.32042,73.53672 36.95802,73.73012 L36.76542,73.73012 Z" id="Fill-1"></path>
                    <path d="M49.62246,37.84536 C49.63486,38.01616 49.63766,38.33896 49.68526,38.65536 C49.80206,39.43036 50.04746,40.15356 50.64586,40.70336 C51.14846,41.16516 51.37726,41.18116 51.88626,40.73316 C52.17246,40.48156 52.44406,40.19676 52.65906,39.88316 C53.63506,38.45836 54.02826,36.85796 53.97306,35.14816 C53.94426,34.26216 53.81286,33.38796 53.27586,32.63656 C52.75366,31.90656 52.49346,31.86316 51.82586,32.43996 C51.54886,32.67896 51.28546,32.94796 51.07226,33.24376 C50.11626,34.57016 49.63986,36.05996 49.62246,37.84536 M18.07026,31.44936 C19.17146,30.89376 20.27626,30.58716 21.45666,30.66256 C21.91846,30.69196 22.38586,30.74816 22.83286,30.86256 C24.33886,31.24796 25.10086,32.46556 24.96266,34.00836 C24.82406,35.55596 24.67546,37.11736 24.73586,38.66496 C24.87846,42.31296 25.99346,45.61936 28.73506,48.17096 C31.21566,50.47916 34.20186,51.52896 37.59346,51.31756 C41.96166,51.04576 45.76726,49.27876 49.28746,46.80416 C51.38086,45.33256 53.85406,43.04096 54.86806,41.68696 C54.53866,41.44636 54.27346,41.32856 53.82846,41.57356 C52.48986,42.31056 51.03866,42.51136 49.54026,42.18176 C47.78126,41.79476 46.78326,40.62456 46.62346,38.70076 C46.43866,36.47816 46.99526,34.43496 48.48006,32.75376 C50.07706,30.94536 52.15706,30.44996 54.47546,30.93936 C54.94606,31.03876 55.37686,31.32636 55.88226,31.55216 C56.58406,31.07616 57.43486,31.12796 58.28686,31.35716 C58.89566,31.52076 58.97206,31.73716 58.69726,32.30136 C57.75006,34.24456 57.04886,36.26616 56.74906,38.41516 C56.71166,38.68276 56.70786,38.95536 56.79846,39.28796 C57.04366,38.93496 57.29206,38.58396 57.53406,38.22876 C58.05546,37.46336 59.80166,37.17596 60.53966,37.73336 C60.82586,37.94956 60.67786,38.15996 60.52586,38.35016 C59.20406,40.00256 57.97806,41.74596 56.53186,43.28156 C52.61986,47.43456 47.92526,50.35976 42.36646,51.79216 C38.66646,52.74556 34.93866,52.93696 31.25046,51.76936 C25.99406,50.10556 22.97546,46.43616 21.93986,41.07996 C21.50266,38.81896 21.56946,36.54676 21.89986,34.27516 C22.00866,33.52736 21.96766,32.79756 21.42006,32.19076 C21.17666,31.92076 20.90306,31.78936 20.58006,32.03276 C19.98106,32.48416 19.32326,32.88536 18.81766,33.42656 C17.81406,34.50096 17.07106,35.73516 16.69106,37.19636 C16.31646,38.63636 15.82066,40.04656 15.33446,41.45456 C15.24966,41.69996 14.97106,42.00896 14.74106,42.04856 C14.12086,42.15496 13.47186,42.19996 12.84706,42.13876 C12.30266,42.08536 12.18526,41.85616 12.32466,41.33476 C12.69686,39.94296 12.98726,38.51396 13.52466,37.18636 C14.12686,35.69856 14.48506,34.16696 14.79666,32.61376 C15.43546,29.42716 15.69526,26.19696 15.83166,22.95656 C15.85246,22.45636 16.06886,22.17436 16.51126,22.13056 C17.10966,22.07116 17.72006,22.06316 18.31906,22.11056 C18.73666,22.14376 18.92706,22.41456 18.87826,22.88936 C18.59366,25.64856 18.33646,28.41036 18.07106,31.17156 C18.06506,31.23376 18.07026,31.29736 18.07026,31.44936" id="Fill-3"></path>
                    <path d="M38.96524,37.79008 C39.00644,38.17188 39.02584,38.57448 39.09784,38.96748 C39.23024,39.68948 39.48764,40.35768 40.06224,40.85868 C40.58264,41.31228 40.85944,41.33188 41.34464,40.85908 C41.66344,40.54868 41.96524,40.20288 42.19864,39.82628 C43.05844,38.43908 43.43144,36.90728 43.39084,35.28528 C43.36924,34.41748 43.24884,33.55308 42.76364,32.79588 C42.17364,31.87508 41.81324,31.82068 41.04924,32.57568 C39.60544,34.00228 39.13504,35.82488 38.96524,37.79008 M37.41224,41.81328 C37.22544,42.43228 36.74104,42.58528 36.23164,42.5858816 C35.69524,42.58628 35.15244,42.51188 34.62464,42.40768 C34.28544,42.34068 34.18144,42.09168 34.34504,41.74288 C35.86944,38.49168 36.52264,35.00628 36.94844,31.48568 C37.29464,28.62208 37.45184,25.73568 37.66784,22.85728 C37.70184,22.40608 37.88824,22.12368 38.30464,22.10808 C38.95104,22.08388 39.60364,22.11748 40.24764,22.18508 C40.58184,22.22008 40.75424,22.46728 40.72564,22.84388 C40.53544,25.33828 40.35704,27.83388 40.17264,30.32888 C40.15284,30.59648 40.11924,30.86288 40.09444,31.10708 C40.87424,30.98308 41.60924,30.83988 42.35124,30.75888 C42.74504,30.71568 43.15764,30.73908 43.55004,30.80388 C44.99964,31.04388 45.95424,31.98188 46.25184,33.61628 C46.67044,35.91628 46.26384,38.08508 44.95284,40.05028 C43.32604,42.48928 39.73724,43.19708 37.41224,41.81328" id="Fill-5"></path>
                    <path d="M32.6459,35.2436 C32.6009,34.9466 32.5961,34.3318 32.4007,33.7854 C32.2025,33.2306 31.8429,32.7244 31.5017,32.2332 C31.3131,31.9616 31.0013,31.9652 30.7461,32.1986 C30.4159,32.5008 30.0465,32.7796 29.7857,33.1356 C28.5693,34.7972 28.0663,36.6686 28.2989,38.7162 C28.3927,39.5422 28.6619,40.3158 29.3281,40.8812 C29.8373,41.3138 30.0945,41.3196 30.5751,40.8696 C30.8423,40.6192 31.0993,40.344 31.3019,40.0406 C32.2109,38.6816 32.6065,37.164 32.6459,35.2436 M35.6481139,35.246 C35.5801,37.1544 35.1499,38.9962 33.8285,40.5044 C32.2675,42.2864 30.2583,42.8126 27.9893,42.3532 C26.4149,42.0344 25.5661,40.9284 25.3353,39.4112 C24.9335,36.7678 25.6125,34.396 27.4987,32.4714 C29.0465,30.8922 31.0035,30.4862 33.1321,30.8742 C34.0631,31.044 34.6839,31.6706 35.1081,32.4934 C35.5459,33.3432 35.6495,34.2628 35.6481139,35.246" id="Fill-7"></path>
                    <path d="M44.18144,57.85942 C44.33884,57.75462 44.48324,57.65802 44.67964,57.52682 C45.12204,58.02502 45.56364,58.52202 46.00504,59.01922 C46.03304,59.00462 46.06104,58.98962 46.08904,58.97502 C45.87784,58.49282 45.68124,58.00382 45.45044,57.53122 C45.31424,57.25262 45.33144,57.08782 45.61884,56.91122 C46.07804,56.62922 46.50404,56.29302 46.97164,55.96022 C47.07364,56.09062 47.16804,56.21142 47.27244,56.34522 C47.06744,56.51862 46.88544,56.67242 46.66064,56.86222 C46.80864,57.05062 46.95064,57.23162 47.09724,57.41882 C47.29864,57.28242 47.46784,57.16802 47.65704,57.03982 C47.76204,57.16022 47.85324,57.26502 47.96924,57.39822 C47.79484,57.55962 47.63524,57.70742 47.45324,57.87562 C47.59624,58.05982 47.73104,58.23342 47.90044,58.45162 C48.11524,58.29702 48.31564,58.15262 48.54524,57.98762 C48.65664,58.11622 48.75584,58.23082 48.88364,58.37842 C48.50744,58.67242 48.15744,58.94622 47.77124,59.24802 C47.18584,58.50602 46.61404,57.78102 46.04204,57.05622 C46.01184,57.07042 45.98184,57.08462 45.95184,57.09882 C46.22404,57.84882 46.49824,58.59802 46.76644,59.34942 C46.81384,59.48262 46.88084,59.63262 46.85904,59.76162 C46.82004,59.99122 46.38024,60.10022 46.20684,59.92602 C45.54084,59.25682 44.88444,58.57822 44.18144,57.85942" id="Fill-9"></path>
                    <path d="M37.41698,2.22212 C37.41698,2.73592 37.42158,3.25012 37.41558,3.76392 C37.41098,4.14452 37.26838,4.43472 36.83898,4.44592 C36.40498,4.45752 36.24558,4.17192 36.24218,3.78992 C36.23358,2.74592 36.23418,1.70192 36.24178,0.65832 C36.24478,0.27452 36.40538,-0.00948 36.83758,0.00032 C37.26558,0.00972 37.41158,0.29812 37.41558,0.68052 C37.42118,1.19432 37.41698,1.70832 37.41698,2.22212" id="Fill-11"></path>
                    <path d="M22.95918,58.78676 C22.80218,58.64256 22.67458,58.52556 22.52818,58.39116 C22.83318,58.03136 23.12038,57.69276 23.40718,57.35436 C23.39218,57.32976 23.37718,57.30496 23.36198,57.28036 C23.22258,57.35996 23.08998,57.45656 22.94218,57.51436 C22.79678,57.57136 22.63578,57.58916 22.48158,57.62416 C22.50178,57.46256 22.50858,57.29796 22.54598,57.14056 C22.57798,57.00536 22.64478,56.87836 22.62998,56.70136 C22.34058,57.02256 22.05118,57.34356 21.73138,57.69836 C21.58958,57.58336 21.46018,57.47836 21.27998,57.33216 C21.95838,56.54916 22.61398,55.79236 23.27038,55.03496 C23.78678,55.18356 23.65978,55.50016 23.52998,55.82556 C23.40818,56.13136 23.29818,56.44156 23.13358,56.88256 C23.57298,56.64516 23.90378,56.49396 24.20418,56.29656 C24.51738,56.09076 24.75658,56.09876 24.97058,56.46456 C24.31058,57.22636 23.64138,57.99896 22.95918,58.78676" id="Fill-13"></path>
                    <path d="M49.32188,6.85200888 C48.80528,6.854 48.50228,6.518 48.64268,6.1384 C49.04188,5.059 49.47908,3.9932 49.93048,2.9344 C50.05788,2.6358 50.35208,2.5372 50.66228,2.679 C50.96368,2.8168 51.09968,3.0808 50.97808,3.393 C50.57268,4.4364 50.15648,5.4762 49.71248,6.5038 C49.63808,6.6762 49.40568,6.7806 49.32188,6.85200888" id="Fill-15"></path>
                    <path d="M23.36914,71.03676 C22.85074,71.02036 22.57254,70.68676 22.71794,70.29596 C23.11974,69.21756 23.54934,68.14816 24.02534,67.10116 C24.09694,66.94376 24.49454,66.82636 24.70714,66.86736 C25.01274,66.92636 25.17494,67.23376 25.05274,67.54996 C24.64354,68.60876 24.21914,69.66216 23.76754,70.70356 C23.69434,70.87256 23.45414,70.96896 23.36914,71.03676" id="Fill-17"></path>
                    <path d="M51.62676,70.34554 C51.50356,70.46094 51.35776,70.68434 51.15476,70.76754 C50.84116,70.89594 50.59716,70.70614 50.46676,70.41154 C50.20176,69.81154 49.94916,69.20614 49.69416,68.60174 C49.52016,68.18914 49.34076,67.77814 49.18236,67.35954 C49.06056,67.03794 49.18716,66.77554 49.48576,66.64534 C49.78076,66.51654 50.08656,66.58394 50.22456,66.89414 C50.68636,67.93194 51.12156,68.98154 51.56436,70.02754 C51.58856,70.08474 51.58976,70.15174 51.62676,70.34554" id="Fill-19"></path>
                    <path d="M3.39356,51.65922 C3.22936,51.49442 2.96356,51.34842 2.92856,51.15962 C2.89216,50.96402 3.02136,50.60242 3.17896,50.52842 C4.21936,50.04042 5.27856,49.58842 6.35416,49.18462 C6.52336,49.12102 6.92216,49.30502 7.00476,49.47602 C7.08716,49.64662 6.97576,50.09342 6.82856,50.16302 C5.76116,50.66682 4.66316,51.10602 3.57396,51.56422 C3.54596,51.57602 3.51096,51.57162 3.47916,51.57462 C3.45056,51.60282 3.42216,51.63082 3.39356,51.65922" id="Fill-21"></path>
                    <path d="M67.04844,24.55864 C66.94624,24.45484 66.69064,24.31344 66.66044,24.13404 C66.62604,23.92944 66.73064,23.55964 66.88164,23.48844 C67.93604,22.99244 69.01104,22.53544 70.10004,22.12084 C70.25824,22.06044 70.65144,22.24444 70.71464,22.40344 C70.79104,22.59524 70.70404,23.03404 70.56204,23.10164 C69.48124,23.61484 68.36964,24.06364 67.26724,24.53124 C67.23904,24.54344 67.20424,24.54004 67.04844,24.55864" id="Fill-23"></path>
                    <path d="M22.79532,2.88324 C22.88312,2.96724 23.12072,3.09884 23.21092,3.29744 C23.64732,4.25724 24.04652,5.23404 24.45312,6.20724 C24.60392,6.56824 24.54612,6.88544 24.15692,7.03944 C23.79552,7.18244 23.53332,7.01324 23.38692,6.67264 C22.96992,5.70384 22.54972,4.73624 22.15152,3.75984 C21.95932,3.28844 22.19112,2.90104 22.79532,2.88324" id="Fill-25"></path>
                    <path d="M71.06152,50.30804 C71.04172,50.83624 70.66972,51.10984 70.26332,50.95544 C69.21672,50.55824 68.18012,50.13364 67.15012,49.69504 C66.81932,49.55384 66.73792,49.23984 66.88592,48.92424 C67.02472,48.62884 67.29552,48.51304 67.61172,48.63804 C68.63812,49.04404 69.66572,49.44804 70.67772,49.88784 C70.86372,49.96864 70.97852,50.21284 71.06152,50.30804" id="Fill-27"></path>
                    <path d="M6.41484,25.12114 C6.16564,25.04394 6.02604,25.01114 5.89424,24.95854 C4.98824,24.59594 4.08264,24.23274 3.17964,23.86274 C2.70784,23.66954 2.54384,23.38354 2.68024,23.02654 C2.80984,22.68734 3.15324,22.59134 3.61804,22.77754 C4.56844,23.15834 5.51764,23.54174 6.46444,23.93094 C6.76324,24.05374 6.95984,24.29354 6.84784,24.60894 C6.77524,24.81374 6.55284,24.96534 6.41484,25.12114" id="Fill-29"></path>
                    <path d="M2.21504,37.40648 C1.68684,37.40688 1.15884,37.40488 0.63064,37.40748 C0.24484,37.40948 0.00264,37.21328 1.57233513e-05,36.83928 C-0.00276,36.46728 0.23684,36.25608 0.61924,36.25448 C1.69164,36.25068 2.76384,36.25028 3.83584,36.25468 C4.21084,36.25628 4.46064,36.44228 4.46408462,36.82748 C4.46784,37.21248 4.22864,37.40328 3.84724,37.40528 C3.30324,37.40828 2.75924,37.40608 2.21504,37.40648" id="Fill-31"></path>
                    <path d="M63.1418,11.13598 C63.0278,11.34238 62.9734,11.51818 62.8592,11.63538 C62.1188,12.39338 61.3662,13.13978 60.6154,13.88778 C60.3504,14.15198 60.037,14.21098 59.7604,13.94998 C59.4626,13.66918 59.5174,13.34298 59.7964,13.06178 C60.5432,12.30978 61.28,11.54698 62.0554,10.82558 C62.2056,10.68578 62.5264,10.64758 62.7438,10.68978 C62.8936,10.71878 63.0006,10.96738 63.1418,11.13598" id="Fill-33"></path>
                    <path d="M14.20586,60.10532 C14.07026,60.32012 13.99546,60.49952 13.86906,60.62832 C13.15086,61.36292 12.41986,62.08492 11.69366,62.81192 C11.41726,63.08892 11.09686,63.17352 10.80306,62.88872 C10.50946,62.60352 10.57866,62.27872 10.85686,61.99972 C11.59326,61.26032 12.31826,60.50872 13.08066,59.79712 C13.23586,59.65212 13.55046,59.58432 13.76366,59.62512 C13.92526,59.65612 14.04286,59.91692 14.20586,60.10532" id="Fill-35"></path>
                    <path d="M71.4543,37.40668 C70.9247,37.40668 70.3949,37.40728 69.8653,37.40648 C69.4881,37.40588 69.2401,37.24068 69.2353,36.84248 C69.2307,36.44848 69.4669,36.25748 69.8455,36.25528 C70.9209,36.24948 71.9965,36.24888 73.0719,36.25568 C73.4509,36.25808 73.6845,36.45388 73.6775,36.84688 C73.6705,37.24588 73.4195,37.40668 73.0433,37.40668 C72.5137,37.40688 71.9839,37.40688 71.4543,37.40668" id="Fill-37"></path>
                    <path d="M14.17636,13.60394 C14.05236,13.75174 13.95196,13.98014 13.79376,14.03174 C13.61036,14.09154 13.30276,14.07454 13.17616,13.95554 C12.35756,13.18674 11.56476,12.38954 10.78396,11.58214 C10.54156,11.33154 10.55136,11.01334 10.81316,10.76534 C11.05876,10.53234 11.36116,10.54154 11.59496,10.76894 C12.40056,11.55194 13.19116,12.35034 13.97676,13.15374 C14.06836,13.24754 14.09236,13.40734 14.17636,13.60394" id="Fill-39"></path>
                    <path d="M60.14492,59.477 C60.35712,59.619 60.53132,59.701 60.66112,59.8284 C61.38312,60.5364 62.09832,61.2518 62.80812,61.9722 C63.12992,62.2982 63.16232,62.6642 62.88692,62.8954 C62.57112,63.1606 62.26632,63.0836 61.99132,62.8086 C61.26532,62.0818 60.52232,61.3706 59.82552,60.6164 C59.67372,60.452 59.61332,60.122 59.65132,59.8912 C59.67652,59.7392 59.95312,59.6284 60.14492,59.477" id="Fill-41"></path>
                    <path d="M29.53808,61.56274 C29.59908,61.58054 29.65968,61.59834 29.72048,61.61614 C30.43788,61.31734 30.41108,60.62854 30.53528,60.02874 C30.55668,59.92634 30.45468,59.76754 30.36348,59.68814 C30.32788,59.65734 30.09568,59.75054 30.07008,59.82674 C29.87628,60.39994 29.71168,60.98294 29.53808,61.56274 M28.96888,61.27334 C29.14848,60.71734 29.29408,60.14214 29.52108,59.60114 C29.71048,59.14934 30.11748,59.01874 30.55768,59.17194 C30.99108,59.32274 31.22868,59.68074 31.13128,60.14954 C31.02748,60.64874 30.86348,61.13534 30.72268,61.62674 C30.70528,61.68754 30.68208,61.75614 30.63908,61.79834 C30.46368,61.96974 30.88628,62.45374 30.39688,62.39394 C29.98788,62.34414 29.57928,62.13314 29.21968,61.91314 C29.07448,61.82454 29.05928,61.52254 28.96888,61.27334" id="Fill-43"></path>
                    <path d="M41.8916,59.46332 C42.0626,59.97712 42.2158,60.47912 42.4022,60.96852 C42.4524,61.10012 42.6036,61.19312 42.7082,61.30392 C42.7856,61.13712 42.9528,60.95152 42.9228,60.80692 C42.8392,60.40272 42.686,60.01112 42.537,59.62372 C42.4326,59.35252 42.2326,59.26792 41.8916,59.46332 M42.1364,62.05712 C41.8022,61.06532 41.4822,60.11612 41.1476,59.12332 C41.4914,59.00872 41.7854,58.88272 42.0922,58.81532 C42.5232,58.72052 42.8598,58.90372 43.028,59.30372 C43.213,59.74372 43.3852,60.19552 43.4984,60.65812 C43.6546,61.29652 43.4548,61.60992 42.8326,61.83272 C42.6236,61.90752 42.41,61.96932 42.1364,62.05712" id="Fill-45"></path>
                    <path d="M39.25898,59.6102 C39.46778,59.5548 39.61958,59.5144 39.82058,59.461 C39.98798,60.1662 40.13458,60.853 40.32378,61.5276 C40.36798,61.6846 40.55778,61.8004 40.68038,61.9352 C40.73658,61.7638 40.86378,61.5794 40.83598,61.4228 C40.71278,60.7342 40.54458,60.0536 40.38618,59.3398 C40.59618,59.2946 40.74678,59.262 40.95098,59.2178 C41.12898,59.9986 41.32418,60.7546 41.46738,61.5202 C41.55438,61.9838 41.26738,62.3516 40.82978,62.4488 C40.31978,62.5624 39.91038,62.3508 39.78098,61.8554 C39.59158,61.1274 39.43818,60.39 39.25898,59.6102" id="Fill-47"></path>
                    <path d="M32.61778,59.69086 C32.81758,59.72986 32.97098,59.75986 33.17298,59.79946 C33.03158,60.58026 32.91438,61.35006 32.74698,62.10886 C32.64098,62.58906 32.23598,62.81206 31.75918,62.72786 C31.30858,62.64826 31.01198,62.31246 31.07138,61.83786 C31.16838,61.06346 31.32098,60.29606 31.45598,59.48866 C31.67058,59.52986 31.83418,59.56126 32.03718,59.60006 C31.92458,60.25006 31.81658,60.87586 31.70758,61.50146 C31.69938,61.54866 31.66398,61.60146 31.67658,61.64026 C31.73638,61.82506 31.80818,62.00586 31.87578,62.18806 C31.99598,62.03086 32.18318,61.88926 32.22398,61.71346 C32.35818,61.13786 32.43818,60.54986 32.54138,59.96706 C32.55498,59.89026 32.58258,59.81626 32.61778,59.69086" id="Fill-49"></path>
                    <path d="M44.6707,59.88402 C44.4399,59.59682 44.2395,59.34742 44.0389,59.09802 C44.0081,59.12002 43.9769,59.14182 43.9459,59.16362 C44.0317,59.46322 44.1171,59.76242 44.2149,60.10362 C44.3749,60.02662 44.4943,59.96902 44.6707,59.88402 M43.9275,61.36422 C43.6959,60.33982 43.4701,59.34242 43.2347,58.30162 C43.4003,58.21142 43.5631,58.12262 43.7565,58.01742 C44.4529,58.80302 45.1417,59.57982 45.8693,60.40062 C45.6957,60.50242 45.5509,60.58722 45.3841,60.68522 C45.2625,60.57542 45.1475,60.47162 44.9965,60.33542 C44.8051,60.43282 44.5981,60.53862 44.3653,60.65742 C44.5511,61.08302 44.3863,61.29902 43.9275,61.36422" id="Fill-51"></path>
                    <path d="M25.25606,57.75786 C24.91626,58.06346 24.67466,58.28066 24.39806,58.52926 C24.58646,58.63886 24.70406,58.70726 24.86226,58.79906 C24.98866,58.46486 25.10166,58.16666 25.25606,57.75786 M25.48006,56.79186 C25.92286,56.92486 26.01846,57.14706 25.86606,57.55646 C25.55466,58.39146 25.29346,59.24506 25.00766,60.10226 C24.70786,59.95446 24.41646,59.87626 24.58746,59.45626 C24.61726,59.38346 24.36926,59.12606 24.20846,59.06786 C24.06266,59.01526 23.86066,59.11866 23.68366,59.15326 C23.68206,59.19406 23.68046,59.23466 23.67906,59.27546 C23.52146,59.17686 23.36366,59.07826 23.16346,58.95306 C23.95206,58.21726 24.70926,57.51106 25.48006,56.79186" id="Fill-53"></path>
                    <path d="M38.4123,60.84008 L38.3081,60.84128 C38.2847,61.16288 38.2615,61.48468 38.2345,61.85508 C38.4309,61.81748 38.5619,61.79228 38.7325,61.75948 C38.6165,61.42728 38.5145,61.13368 38.4123,60.84008 M37.9247,59.84028 C38.3749,59.65068 38.5703,59.79008 38.7125,60.19628 C39.0021,61.02308 39.3495,61.82928 39.6847,62.67388 C39.3459,62.76088 39.0945,62.84448 38.9411,62.44768 C38.9093,62.36608 38.5699,62.31928 38.4329,62.38428 C38.2675,62.46248 38.1669,62.67728 37.9711,62.91408 C37.9365,62.91748 37.7803,62.93268 37.5361,62.95648 C37.6701,61.88228 37.7991,60.84788 37.9247,59.84028" id="Fill-55"></path>
                    <path d="M33.23184,12.45278 C33.40204,12.36438 33.60644,12.32318 33.63584,12.22778 C33.68104,12.08038 33.65204,11.86638 33.56744,11.73798 C33.51344,11.65578 33.30284,11.67658 33.11104,11.64178 C33.15504,11.93758 33.18724,12.15318 33.23184,12.45278 M33.39084,14.06438 L32.87644,14.06438 C32.75704,13.12338 32.63964,12.19718 32.51924,11.24718 C32.76864,11.21158 32.95624,11.18658 33.14344,11.15778 C33.92424,11.03738 34.46384,11.54318 34.18144,12.27078 C33.97904,12.79158 34.19424,13.11538 34.36044,13.51018 C34.40804,13.62358 34.45984,13.73518 34.51164,13.85238 C34.18444,14.03458 33.96384,14.01338 33.82884,13.63838 C33.73584,13.37958 33.58804,13.14038 33.46484,12.89258 C33.41484,12.90458 33.36484,12.91618 33.31464,12.92818 C33.33884,13.28738 33.36284,13.64678 33.39084,14.06438" id="Fill-57"></path>
                    <path d="M37.23476,60.89144 C36.97996,60.77764 36.80896,60.69204 36.63076,60.62504 C36.50696,60.57844 36.37336,60.55724 36.24416,60.52484 C36.25516,60.69884 36.21316,60.90464 36.29296,61.03704 C36.36036,61.14844 36.56816,61.17704 36.71556,61.23724 C37.23836,61.45144 37.46576,62.01064 37.26236,62.58624 C37.11936,62.99104 36.64816,63.18004 36.13016,63.03924 C35.72416,62.92904 35.55836,62.66964 35.64236,62.17444 C35.82876,62.21664 36.00536,62.23524 36.16396,62.29884 C36.29316,62.35064 36.40076,62.45584 36.51796,62.53744 C36.58116,62.43624 36.70956,62.32244 36.69356,62.23604 C36.66216,62.06804 36.57696,61.89004 36.46156,61.76444 C36.37296,61.66844 36.20296,61.64864 36.07076,61.59104 C35.63336,61.40044 35.47576,61.03964 35.60336,60.52464 C35.70716,60.10384 36.02796,59.89404 36.51416,59.92804 C36.98516,59.96064 37.16696,60.16364 37.23476,60.89144" id="Fill-59"></path>
                    <path d="M26.57246,59.98128 C26.74706,60.14068 26.89326,60.25828 27.01906,60.39448 C27.10626,60.48908 27.14406,60.64948 27.24506,60.70248 C27.30066,60.73188 27.49826,60.62148 27.53006,60.53608 C27.58566,60.38728 27.61286,60.19008 27.55946,60.04808 C27.50126,59.89408 27.33286,59.78408 27.22026,59.64808 C26.93566,59.30328 26.97406,58.84388 27.31326,58.47568 C27.59526,58.16928 28.01626,58.13408 28.40846,58.38328 C28.79666,58.62988 28.86146,58.92368 28.58786,59.51788 C28.43446,59.33708 28.31666,59.18248 28.18146,59.04488 C28.08726,58.94928 27.96946,58.87708 27.86226,58.79408 C27.79846,58.95528 27.67326,59.12288 27.68986,59.27528 C27.70406,59.40608 27.87846,59.52088 27.98486,59.64048 C28.37006,60.07248 28.34846,60.57048 27.92146,61.05828 C27.65206,61.36568 27.16046,61.37188 26.74286,61.06928 C26.39006,60.81368 26.31826,60.48968 26.57246,59.98128" id="Fill-61"></path>
                    <path d="M31.8502,13.58168 C31.7522,13.09508 31.6852,12.66808 31.5708,12.25388 C31.539,12.13948 31.3666,12.06408 31.2586,11.97068 C31.196,12.08608 31.0696,12.20888 31.0816,12.31568 C31.1322,12.75848 31.2092,13.19988 31.3124,13.63348 C31.3374,13.73828 31.4988,13.81068 31.5974,13.89788 C31.6864,13.78668 31.775,13.67568 31.8502,13.58168 M32.3382,13.25808 C32.3508,14.01788 32.149,14.30568 31.7002,14.38768 C31.2332,14.47308 30.9078,14.26128 30.7652,13.71388 C30.6528,13.28228 30.5714,12.83768 30.5292,12.39388 C30.4806,11.88568 30.7468,11.54708 31.1772,11.48008 C31.6468,11.40708 31.9708,11.60208 32.1058,12.10388 C32.2258,12.54988 32.2898,13.01068 32.3382,13.25808" id="Fill-63"></path>
                    <path d="M33.3502,59.84028 C33.815,59.86488 34.24,59.88728 34.6988,59.91148 L34.6988,60.42788 L33.897,60.42788 C33.884,60.66688 33.873,60.86788 33.8608,61.09388 C34.087,61.13828 34.286,61.17768 34.5066,61.22088 L34.5066,61.66108 C34.2672,61.67688 34.0514,61.69108 33.8002,61.70748 C33.7874,61.94628 33.7756,62.16348 33.7618,62.41908 C34.0274,62.44888 34.2594,62.47488 34.5148,62.50348 L34.5148,63.02308 C34.046,62.98428 33.6068,62.94768 33.1152,62.90688 C33.1936,61.88648 33.2698,60.89108 33.3502,59.84028" id="Fill-65"></path>
                    <path d="M29.96992,12.70004 C29.72332,12.66984 29.55732,12.64024 29.39012,12.63184 C29.26112,12.62544 29.13112,12.64584 29.00132,12.65424 C29.04872,12.79524 29.06752,12.95784 29.15352,13.06904 C29.20472,13.13504 29.36052,13.13724 29.46972,13.13844 C30.01752,13.14564 30.26932,13.45924 30.36732,13.96084 C30.46192,14.44404 30.27612,14.75364 29.78072,14.89744 C29.29272,15.03924 29.01592,14.88044 28.82572,14.28384 C29.01172,14.27504 29.18252,14.24984 29.35012,14.26444 C29.47592,14.27544 29.59752,14.36224 29.72072,14.36184 C29.75752,14.36184 29.84912,14.15844 29.81932,14.08984 C29.75572,13.94284 29.65352,13.78364 29.52192,13.70344 C29.39532,13.62624 29.21212,13.63904 29.05312,13.61784 C28.54712,13.55024 28.47312,13.16384 28.45292,12.76764 C28.43212,12.35504 28.71652,12.06684 29.16072,11.99744 C29.53432,11.93904 29.74912,12.09744 29.96992,12.70004" id="Fill-67"></path>
                    <path d="M43.78534,13.0514 C43.59094,12.904 43.46054,12.7998 43.32434,12.7036 C43.21794,12.628 43.10454,12.5622 42.99414,12.492 C42.96834,12.6608 42.91954,12.8306 42.92814,12.9976 C42.93154,13.0644 43.06074,13.1258 43.13434,13.1878 C43.63254,13.6078 43.68754,13.8422 43.42634,14.4434 C43.24774,14.8546 42.85134,14.9886 42.37854,14.7974 C41.95874,14.628 41.83614,14.3438 42.01094,13.799 C42.16594,13.9034 42.30594,13.9972 42.44554,14.0914 C42.56774,14.1738 42.68954,14.2566 42.81174,14.339 C42.85614,14.1388 42.97174,13.9188 42.92354,13.7434 C42.88114,13.5886 42.65314,13.4874 42.51354,13.3556 C42.21014,13.069 42.19134,12.6586 42.46194,12.2678 C42.70394,11.9182 43.04394,11.886 43.40154,12.0232 C43.80614,12.1786 43.94774,12.4842 43.78534,13.0514" id="Fill-69"></path>
                    <path d="M34.61504,11.07934 C34.83124,11.05694 34.98424,11.04114 35.18604,11.01994 C35.30664,11.63254 35.42284,12.22394 35.53904,12.81534 C35.56924,12.81854 35.59904,12.82214 35.62884,12.82554 C35.70964,12.23694 35.79004,11.64834 35.87424,11.03434 L36.44864,11.03434 C36.28224,11.93574 36.12564,12.82734 35.94164,13.71334 C35.92244,13.80594 35.74504,13.91514 35.63324,13.92494 C35.52724,13.93394 35.33384,13.84394 35.31084,13.76074 C35.06744,12.88594 34.85044,12.00374 34.61504,11.07934" id="Fill-71"></path>
                    <path d="M41.50722,13.2977 C41.31922,13.2703 41.14702,13.2453 40.92462,13.2129 C40.87962,13.4287 40.83582,13.6387 40.78442,13.8847 C41.03042,13.9485 41.24062,14.0029 41.48322,14.0659 C41.46942,14.2111 41.45662,14.3463 41.43902,14.5309 C41.00182,14.4507 40.60222,14.3773 40.16262,14.2967 C40.33182,13.3455 40.49342,12.4383 40.66802,11.4563 C41.10262,11.5287 41.51442,11.5975 41.94602,11.6693 C41.90722,11.8517 41.88082,11.9741 41.84822,12.1265 C41.61182,12.1025 41.38242,12.0793 41.12402,12.0533 C41.08062,12.2757 41.04262,12.4711 41.00242,12.6769 C41.28522,12.8051 41.78382,12.7159 41.50722,13.2977" id="Fill-73"></path>
                    <path d="M38.08418,12.73638 C37.94038,12.73638 37.84538,12.73458 37.75018,12.73698 C37.67218,12.73878 37.59438,12.74538 37.46458,12.75298 C37.44938,12.96038 37.43458,13.15958 37.41678,13.40018 C37.64858,13.44958 37.85938,13.49458 38.09138,13.54398 L38.09138,13.99658 C37.66638,13.95658 37.27818,13.91998 36.83118,13.87798 C36.90678,12.91198 36.97878,11.99338 37.05618,11.00078 C37.48438,11.03538 37.88498,11.06758 38.29658,11.10098 L38.29658,11.54658 L37.56158,11.54658 C37.54658,11.77278 37.53358,11.96938 37.51898,12.19298 C37.71618,12.23058 37.88338,12.26258 38.08418,12.30078 L38.08418,12.73638 Z" id="Fill-75"></path>
                    <path d="M68.47266,30.96918 C68.36786,31.05578 68.20086,31.27438 67.98286,31.35478 C67.64186,31.48038 67.26886,31.53278 66.90466,31.57798 C66.58386,31.61778 66.33126,31.47638 66.26006,31.13998 C66.19186,30.81878 66.30366,30.55218 66.63866,30.46338 C67.03966,30.35678 67.44866,30.26618 67.86006,30.21578 C68.21386,30.17258 68.47906,30.45278 68.47266,30.96918" id="Fill-77"></path>
                    <path d="M31.10234,66.61918 C30.97274,67.17498 30.91934,67.62858 30.74794,68.03198 C30.67574,68.20138 30.31874,68.39018 30.15474,68.34418 C29.95454,68.28818 29.68054,67.98998 29.68634,67.80438 C29.70034,67.35198 29.81014,66.88458 29.98154,66.46438 C30.04814,66.30038 30.40614,66.13518 30.59114,66.17218 C30.79774,66.21318 30.95854,66.48338 31.10234,66.61918" id="Fill-79"></path>
                    <path d="M12.08106,19.67582 C12.08526,20.18182 11.63126,20.47422 11.23746,20.25802 C10.87646,20.05982 10.50606,19.84302 10.22206,19.55362 C10.07966,19.40822 10.02266,19.03802 10.10826,18.85342 C10.18066,18.69702 10.57566,18.52982 10.71986,18.59722 C11.16026,18.80362 11.55526,19.11162 11.95146,19.40242 C12.03866,19.46642 12.05786,19.62322 12.08106,19.67582" id="Fill-81"></path>
                    <path d="M10.25782,54.75532 C10.05222,54.57692 9.80442,54.46412 9.76042,54.29752 C9.70962,54.10532 9.76722,53.78872 9.90362,53.66232 C10.20482,53.38372 10.57162,53.16512 10.93722,52.97032 C11.21682,52.82132 11.50762,52.87572 11.69362,53.16792 C11.87982,53.46052 11.81162,53.74292 11.54782,53.93212 C11.15082,54.21692 10.72442,54.46072 10.25782,54.75532" id="Fill-83"></path>
                    <path d="M63.64374,54.43598 C63.66194,54.96458 63.21894,55.26478 62.81794,55.04658 C62.45334,54.84818 62.07934,54.63078 61.79374,54.33898 C61.65074,54.19278 61.59814,53.81558 61.68694,53.62958 C61.76054,53.47478 62.15974,53.31778 62.31074,53.38738 C62.74074,53.58558 63.12434,53.88998 63.51014,54.17418 C63.59874,54.23978 63.62294,54.39218 63.64374,54.43598" id="Fill-85"></path>
                    <path d="M6.04862,29.69594 C6.33082,29.75734 6.74662,29.78714 7.10262,29.94934 C7.29562,30.03714 7.48802,30.34474 7.49922,30.56254 C7.51522,30.87954 7.25082,31.08634 6.91082,31.04474 C6.51442,30.99614 6.11942,30.91774 5.73282,30.81834 C5.41962,30.73794 5.22862,30.51074 5.28162,30.17594 C5.33702,29.82414 5.57582,29.65974 6.04862,29.69594" id="Fill-87"></path>
                    <path d="M43.30234,7.5348 C42.81614,7.5124 42.58174,7.2994 42.60874,6.957 C42.64354,6.5148 42.72494,6.0578 42.89614,5.6534 C42.96994,5.479 43.33294,5.3146 43.53794,5.3424 C43.70674,5.3654 43.96434,5.6828 43.95794,5.862 C43.94294,6.3016 43.83134,6.7478 43.68954,7.1682 C43.63154,7.34 43.39514,7.4516 43.30234,7.5348" id="Fill-89"></path>
                    <path d="M43.5252,67.97386 C43.3334,68.14766 43.155,68.43726 42.946,68.46186 C42.7528,68.48466 42.4176,68.26866 42.3374,68.07706 C42.1796,67.70146 42.1322,67.27226 42.0838,66.86026 C42.0446,66.52486 42.2546,66.25606 42.5684,66.26626 C42.7844,66.27326 43.015,66.48686 43.1954,66.65506 C43.2826,66.73666 43.2742,66.92526 43.301,67.06686 C43.3516,67.33446 43.3962,67.60306 43.4434,67.87126 C43.4708,67.90546 43.4978,67.93966 43.5252,67.97386" id="Fill-91"></path>
                    <path d="M53.56738,61.88324 C53.63338,61.92184 53.80818,61.96944 53.89198,62.08344 C54.14718,62.43164 54.42258,62.78384 54.57638,63.17904 C54.64638,63.35884 54.51438,63.72944 54.35198,63.85344 C54.21598,63.95684 53.80578,63.91504 53.68618,63.78364 C53.37778,63.44504 53.12558,63.03944 52.92178,62.62584 C52.74618,62.26904 53.07418,61.87144 53.56738,61.88324" id="Fill-93"></path>
                    <path d="M63.94492,19.68774 C63.90872,19.75314 63.86652,19.93194 63.75392,20.01514 C63.40712,20.27114 63.05492,20.54594 62.66032,20.69954 C62.47772,20.77054 62.08472,20.64554 61.98332,20.48534 C61.88232,20.32514 61.93812,19.91974 62.08052,19.78134 C62.38392,19.48554 62.77212,19.26194 63.15512,19.06694 C63.54392,18.86854 63.95252,19.16574 63.94492,19.68774" id="Fill-95"></path>
                    <path d="M30.16874,5.65024 C30.31414,5.52304 30.49434,5.24144 30.70274,5.21884 C30.89894,5.19744 31.23314,5.40244 31.31454,5.59064 C31.46894,5.94884 31.50214,6.36384 31.55574,6.75964 C31.60334,7.11184 31.43834,7.36284 31.07854,7.41484 C30.72114,7.46684 30.49754,7.27284 30.42034,6.92884 C30.33654,6.55444 30.27134,6.17604 30.16874,5.65024" id="Fill-97"></path>
                    <path d="M54.46132,10.01782 C54.96892,10.01322 55.25172,10.44942 55.03032,10.86202 C54.83532,11.22542 54.60872,11.58962 54.31992,11.87722 C54.18112,12.01522 53.81292,12.07862 53.64732,11.99022 C53.48352,11.90322 53.30792,11.51642 53.37572,11.37602 C53.59352,10.92442 53.91372,10.52042 54.21372,10.11222 C54.26712,10.03922 54.41352,10.03462 54.46132,10.01782" id="Fill-99"></path>
                    <path d="M68.52656,43.49086 C68.24076,43.69426 68.02916,43.97026 67.82316,43.96606 C67.36816,43.95626 66.89736,43.85346 66.47236,43.68746 C66.30896,43.62366 66.14396,43.26446 66.17916,43.07746 C66.21316,42.89686 66.50936,42.63026 66.68096,42.63706 C67.13636,42.65526 67.59756,42.76726 68.03276,42.91286 C68.19996,42.96906 68.30256,43.21786 68.52656,43.49086" id="Fill-101"></path>
                    <path d="M6.94394,42.04476 C7.07694,42.19336 7.35554,42.36636 7.37234,42.56176 C7.38974,42.76536 7.20254,43.10616 7.01974,43.18196 C6.62914,43.34396 6.18294,43.43376 5.76054,43.43096 C5.56454,43.42956 5.24614,43.16636 5.20994,42.97836 C5.17414,42.79176 5.37434,42.43516 5.55774,42.35716 C5.94774,42.19136 6.39374,42.15836 6.94394,42.04476" id="Fill-103"></path>
                    <path d="M20.86368,11.20766 C20.69328,11.41646 20.58388,11.67966 20.42348,11.71526 C20.21388,11.76186 19.88948,11.70186 19.74808,11.55706 C19.47408,11.27646 19.23008,10.92766 19.09888,10.56186 C19.02408,10.35366 19.11688,9.97646 19.27628,9.81886 C19.51848,9.57846 19.85748,9.67286 20.06148,9.96286 C20.33408,10.35026 20.57648,10.75866 20.86368,11.20766" id="Fill-105"></path>
                    <path d="M18.4209,63.04242 C18.8003,62.54922 19.1325,62.07202 19.5225,61.64842 C19.6009,61.56322 19.9487,61.61682 20.0825,61.72162 C20.2149,61.82502 20.3445,62.13122 20.2835,62.24842 C20.0433,62.70962 19.7519,63.15122 19.4225,63.55342 C19.3391,63.65522 19.0163,63.64762 18.8557,63.57482 C18.6989,63.50382 18.6087,63.28502 18.4209,63.04242" id="Fill-107"></path>
                    <path d="M50.23672,57.19106 C49.90692,57.47846 49.58312,57.76046 49.20432,58.09066 C48.52232,57.30866 47.85492,56.54366 47.16832,55.75666 C47.31092,55.62566 47.43772,55.50926 47.60212,55.35826 C48.17072,56.00726 48.72312,56.63766 49.28992,57.28486 C49.50592,57.11366 49.69092,56.96686 49.92912,56.77806 C50.01852,56.89826 50.10932,57.02006 50.23672,57.19106" id="Fill-109"></path>
                    <path d="M39.3705,14.08676 C39.1747,14.07116 39.0515,14.06116 38.8565,14.04556 C38.9481,13.26576 39.0369,12.50976 39.1285,11.73096 C38.9493,11.58256 38.5029,11.58416 38.7855,11.10576 C39.2253,11.16396 39.6939,11.22596 40.1557,11.28736 C40.2121,11.73096 40.2121,11.73096 39.6891,11.78856 C39.5859,12.53256 39.4813,13.28776 39.3705,14.08676" id="Fill-111"></path>
                    <path d="M25.27852,60.29086 C25.80492,59.37586 26.29812,58.51866 26.82052,57.61026 C26.99472,57.70646 27.15132,57.79306 27.33772,57.89566 C26.81852,58.79806 26.31912,59.66626 25.79912,60.57006 C25.61812,60.47306 25.46932,60.39326 25.27852,60.29086" id="Fill-113"></path>
                    <path d="M25.85606,14.93148 C25.99246,14.83948 26.18666,14.61648 26.41306,14.57708 C26.77266,14.51428 26.97726,14.77988 26.97526,15.12768 C26.97346,15.45908 26.75346,15.67168 26.42706,15.673087 C26.07826,15.67448 25.87406,15.46548 25.85606,14.93148" id="Fill-115"></path>
                    <path d="M20.28028,54.2434 C20.37608,54.3816 20.60708,54.5756 20.64488,54.802 C20.70468,55.1586 20.43528,55.369 20.08848,55.366 C19.76208,55.3634 19.54208,55.1528 19.5406731,54.8186 C19.53928,54.4632 19.75208,54.2678 20.28028,54.2434" id="Fill-117"></path>
                    <path d="M46.42852,14.67308 C46.40212,15.19168 46.22312,15.41108 45.85992,15.41388 C45.51972,15.41648 45.31752,15.20348 45.30812,14.87608 C45.29832,14.52268 45.51352,14.26008 45.86232,14.30868 C46.08832,14.34048 46.28592,14.57548 46.42852,14.67308" id="Fill-119"></path>
                    <path d="M51.32266,54.25472 C51.47846,54.45372 51.71966,54.63332 51.77046,54.85632 C51.84986,55.20552 51.60766,55.43252 51.25086,55.44552 C50.89226,55.45892 50.63746,55.23572 50.68246,54.89412 C50.71186,54.66952 50.95266,54.47292 51.09906,54.26372 C51.17366,54.26052 51.24806,54.25772 51.32266,54.25472" id="Fill-121"></path>
                    <path d="M44.96288,13.98638 C44.84868,14.16238 44.75528,14.30598 44.63368,14.49298 C44.45908,14.37978 44.30708,14.28098 44.12848,14.16518 C44.24568,13.98478 44.33868,13.84178 44.45828,13.65778 C44.63368,13.77238 44.78728,13.87218 44.96288,13.98638" id="Fill-123"></path>
                    <path d="M19.77636,54.00356 C19.64956,54.11616 19.52056,54.23116 19.36756,54.36696 C19.22956,54.21596 19.10396,54.07836 18.96036,53.92096 C19.10316,53.78816 19.22956,53.67056 19.43056,53.48336 C19.54336,53.65316 19.64636,53.80796 19.77636,54.00356" id="Fill-125"></path>
                    <path d="M20.7666,56.10356 C20.6262,55.92796 20.5192,55.79456 20.3978,55.64296 C20.5396,55.51676 20.668,55.40296 20.8366,55.25316 C20.9698,55.40276 21.0898,55.53776 21.2444,55.71136 C21.0754,55.84996 20.927,55.97176 20.7666,56.10356" id="Fill-127"></path>
                    <path d="M51.67012,54.15044 C51.84232,54.00644 51.97532,53.89544 52.13852,53.75904 C52.27332,53.91904 52.39252,54.06024 52.53212,54.22564 C52.36932,54.35644 52.23572,54.46384 52.07432,54.59384 C51.94272,54.44964 51.82892,54.32464 51.67012,54.15044" id="Fill-129"></path>
                    <path d="M24.875,16.14828 C25.065,15.99088 25.1974,15.88108 25.3512,15.75368 C25.4798,15.91048 25.5892,16.04308 25.7194,16.20148 C25.5774,16.33628 25.4542,16.45308 25.2952,16.60428 C25.1552,16.45248 25.0312,16.31788 24.875,16.14828" id="Fill-131"></path>
                    <path d="M28.1461,14.4102 C27.9753,14.5292 27.8359,14.6262 27.6609,14.748 C27.5493,14.5904 27.4457,14.4442 27.3155,14.2602 C27.4783,14.1468 27.6243,14.045 27.8105,13.9152 C27.9311,14.093 28.0313,14.2408 28.1461,14.4102" id="Fill-133"></path>
                    <path d="M50.78652,55.62622 C50.63472,55.76902 50.51192,55.88422 50.35512,56.03162 C50.21212,55.87982 50.08812,55.74762 49.94192,55.59242 C50.09292,55.45262 50.21712,55.33782 50.37912,55.18782 C50.51932,55.33862 50.64112,55.46982 50.78652,55.62622" id="Fill-135"></path>
                    <path d="M47.38848,15.88832 C47.25648,16.04512 47.14708,16.17532 47.00508,16.34392 C46.84788,16.20972 46.71028,16.09212 46.54888,15.95412 C46.68308,15.79552 46.79308,15.66512 46.93528,15.49712 C47.09148,15.63192 47.22828,15.75012 47.38848,15.88832" id="Fill-137"></path>
                </g>
            </g>
        </g>
    </g>
</svg>