<?xml version="1.0" encoding="UTF-8"?>
<svg width="100px" height="100px" viewBox="0 0 100 100" version="1.1" xmlns="http://www.w3.org/2000/svg" xmlns:xlink="http://www.w3.org/1999/xlink">
    <!-- Generator: Sketch 59 (86127) - https://sketch.com -->
    <title>k8</title>
    <desc>Created with Sketch.</desc>
    <g id="Logos" stroke="none" stroke-width="1" fill="none" fill-rule="evenodd">
        <g transform="translate(-400.000000, 0.000000)" id="k8">
            <g transform="translate(400.000000, 0.000000)">
                <rect id="Area" fill="#FCE059" x="0" y="0" width="100" height="100"></rect>
                <path d="M52.0718066,62.2855018 L52.0718066,62.135381 C51.925177,62.0306456 51.7994945,61.9503484 51.6842855,61.8595777 C51.3596056,61.6082127 51.0349258,61.3568476 50.7207195,61.095009 C50.4518985,60.8806505 50.3059671,60.5475918 50.3297072,60.2047578 C50.3541454,59.0631415 50.3297072,57.9215252 50.3297072,56.7799089 C50.3216774,56.5899887 50.400229,56.4067017 50.5426692,56.28067 C51.0349258,55.8268165 51.5202,55.3729629 52.0054742,54.9086358 C52.0941502,54.8157704 52.1747965,54.7152243 52.2463657,54.6083942 C52.3971847,54.4397701 52.6237624,54.3605203 52.8468489,54.3989233 L64.7552682,54.3989233 C65.0380539,54.4111425 65.3033837,54.5371741 65.4915583,54.7480414 C65.8165873,55.0238448 66.099373,55.3520158 66.3996146,55.6557486 C66.699507,55.9594814 66.9163094,56.1689522 67.1638342,56.4377732 C67.2252789,56.5124845 67.2587943,56.6063972 67.2584479,56.703103 L67.2584479,60.4247022 C67.2381963,60.6690849 67.1198453,60.8946152 66.9302741,61.0496237 C66.7208033,61.2800416 66.4903853,61.4930037 66.2669497,61.7059657 C66.2020137,61.7520493 66.1342848,61.7939435 66.0644612,61.8316483 C65.868955,61.9747867 65.6734489,62.1249075 65.4496641,62.2994665 C65.83928,62.4391138 66.1517407,62.7355151 66.312335,63.116403 C66.8381069,63.3328562 67.201888,63.8212725 67.2584479,64.387193 L67.2584479,67.7596741 C67.2535575,68.0742295 67.1121647,68.371329 66.870924,68.5731193 C66.5842981,68.8663785 66.2564761,69.1177436 65.9419207,69.3865645 C65.694396,69.5960354 65.4496641,69.8159798 65.1878256,70.0149772 C65.094611,70.067694 64.9877809,70.0917832 64.8806016,70.0848008 L52.6614671,70.0848008 C52.5120446,70.0526819 52.3720482,69.9856512 52.253348,69.8892946 C52.0679663,69.7775768 51.8832828,69.6623679 51.7087238,69.5401765 C51.5341647,69.4179852 51.4570096,69.3167409 51.3316762,69.1910584 C51.2059937,69.0653759 51.0066472,68.9187462 50.8600176,68.7686255 C50.5880546,68.4928221 50.2944462,68.2379659 50.3017777,67.7876035 C50.3017777,66.7402491 50.3471631,65.6649653 50.3017777,64.6071374 C50.2630256,63.9298482 50.6714938,63.5772389 51.0625061,63.1792442 C51.1916798,63.0465793 51.3522742,62.9488263 51.4887793,62.8301261 C51.5620942,62.7603025 51.5900236,62.6416023 51.6668296,62.5752699 C51.7879736,62.475073 51.9160999,62.3839531 52.0505104,62.3029577 L52.0718066,62.2855018 Z M61.6585904,63.8809717 C61.5573461,63.8809717 61.4945049,63.8565334 61.4351548,63.8565334 L56.355486,63.8565334 C56.0377885,63.8565334 55.9470178,63.9542865 55.9470178,64.2894399 L55.9470178,66.3841486 C55.9470178,66.621549 56.0063679,66.6948638 56.2437682,66.6913726 L59.686073,66.6913726 L61.4316636,66.6913726 C61.553855,66.6913726 61.6690639,66.6913726 61.6690639,66.5168135 L61.6690639,63.887954 L61.6585904,63.8809717 Z M61.6585904,57.99484 L61.36184,57.99484 L59.4800933,57.99484 C59.3257831,57.9665615 59.1732185,57.9306023 59.0227485,57.8866134 C58.8652963,57.8656663 58.7054002,57.8656663 58.5479479,57.8866134 C58.3733888,57.9075605 58.1988298,57.9983312 58.0347442,58.0018224 C57.4447346,58.0018224 56.854725,58.0192783 56.2647153,58.0018224 C56.006717,58.0018224 55.950509,58.0821196 55.9540002,58.3230111 L55.9540002,60.2257049 C55.9540002,60.4735787 56.0238238,60.5294376 56.2538927,60.5259465 L61.3862783,60.5259465 C61.4735578,60.5259465 61.5608373,60.5259465 61.6585904,60.5084906 L61.6585904,57.99484 Z" id="Fill-393" fill="#000000"></path>
                <path d="M33.5232303,70.0813096 C33.5232303,69.973083 33.5019341,69.8927858 33.4918097,69.8229622 C33.1388513,69.6871552 32.8592076,69.4099555 32.7202586,69.0583935 C32.3700931,68.9082727 32.0946389,68.6240905 31.9556899,68.2693865 L31.7008337,68.2274924 L31.7008337,67.9551802 L31.7008337,56.8636973 C31.6676675,56.4978215 31.8635227,56.1494016 32.1930903,55.9874108 C32.2472036,55.9573866 32.2943345,55.9172381 32.3327375,55.8687106 C32.7202586,55.4497689 33.0973062,55.0238448 33.4918097,54.6188677 C33.5920066,54.5354285 33.7124523,54.4799187 33.8409278,54.4582734 C33.947758,54.4443087 34.0552863,54.4443087 34.1621165,54.4582734 L45.7668031,54.4582734 C46.171431,54.4348825 46.5579047,54.6272466 46.7827368,54.9644947 C46.978243,55.2298245 47.2400816,55.4392953 47.4425701,55.6976428 C47.6450586,55.9559902 47.7916882,56.2876524 48.0849474,56.4691938 C48.1481378,56.5075968 48.1760673,56.6437529 48.1760673,56.7310324 L48.1760673,67.9866008 C48.1603569,68.1848999 48.0584144,68.3664414 47.8964236,68.4823486 C47.4041671,69.0060258 46.9049282,69.529703 46.3847421,70.011486 C46.2576631,70.0896884 46.1075423,70.1228547 45.958818,70.1057479 L33.7955425,70.1057479 L33.5337039,70.1057479 M37.3286179,57.99484 C37.0667793,57.99484 37.0248851,58.0856107 37.0248851,58.3195199 L37.0248851,66.3981134 C37.0248851,66.621549 37.0772529,66.6948638 37.3041796,66.6948638 L42.5409516,66.6948638 C42.7713695,66.6948638 42.8167549,66.6180578 42.8167549,66.3981134 L42.8167549,58.3474493 L42.8167549,58.0192783 L42.5130221,58.0192783" id="Fill-394" fill="#000000"></path>
                <polygon id="Fill-395" fill="#000000" points="31.6831683 27.77514 31.6831683 50.3700652 41.6854027 50.3770476 41.6854027 42.7523077 39.7621109 42.7697636 49.0064098 39.4880532 58.8829616 42.7627812 57.1412113 42.7627812 57.1094416 50.3770476 67.2338673 50.5236772 67.2338673 38.9888143 54.3517575 35.3754416 67.2338673 27.77514 55.7723191 27.7227723 43.8010585 34.6527671 42.0453435 33.5984304 42.0554679 27.77514"></polygon>
            </g>
        </g>
    </g>
</svg>