<?xml version="1.0" encoding="UTF-8"?>
<svg width="100px" height="100px" viewBox="0 0 100 100" version="1.1" xmlns="http://www.w3.org/2000/svg" xmlns:xlink="http://www.w3.org/1999/xlink">
    <title>lanchonete</title>
    <defs>
        <polygon id="path-1" points="0 0.114456522 6.98195616 0.114456522 6.98195616 4.84473099 0 4.84473099"></polygon>
    </defs>
    <g id="Logos" stroke="none" stroke-width="1" fill="none" fill-rule="evenodd">
        <g transform="translate(-300.000000, -200.000000)" id="lanchonete">
            <g transform="translate(300.000000, 200.000000)">
                <rect id="Area" fill="#FCE059" x="0" y="0" width="100" height="100"></rect>
                <g id="Group-146" transform="translate(19.000000, 17.000000)">
                    <path d="M51.579883,34.2270199 C51.6192249,34.6991838 52.2322207,34.2243501 52.3198192,34.651319 C52.3525718,34.8111225 52.4800935,35.0458696 52.6795158,34.8835871 C52.8961865,34.7073837 52.7192452,34.5155433 52.547149,34.375763 C52.3845491,34.2439919 52.2333835,34.0921976 52.0535352,33.9888403 C51.807988,33.8475344 51.6618613,33.9819752 51.579883,34.2270199 M44.3088181,39.3897393 C44.1031942,39.4919524 43.6865198,39.3516 43.6433019,39.7713224 C43.6217899,39.9808976 43.8669495,40.0453529 44.052418,39.9993951 C44.3266479,39.9313166 44.7336322,40.026474 44.8156105,39.6704441 C44.8811156,39.3866881 44.5696757,39.4082368 44.3088181,39.3897393 M41.9686585,40.1519521 C41.3345382,40.194096 40.611269,39.6244863 39.9209462,40.4868147 C40.719992,40.3031743 41.4021751,40.725185 41.9686585,40.1519521 M46.976697,39.9347491 C47.149956,39.7825735 47.6422132,40.0171299 47.6121739,39.5647984 C47.5881424,39.1999965 47.1555763,39.1282947 46.8681679,39.0592627 C46.5693251,38.9875609 46.3666082,39.222308 46.3708718,39.5316173 C46.3759107,39.8815449 46.6344426,39.9444746 46.976697,39.9347491 M9.02366843,40.9137836 C10.8211823,40.8291145 12.2690774,40.0707155 13.850502,40.0276182 C13.9818998,40.023995 14.0830645,39.9378003 14.0929484,39.8064105 C14.1074835,39.6189561 13.9743415,39.5659426 13.8088346,39.5415335 C12.8968022,39.4065205 12.043298,40.1023711 11.1080094,39.7287972 C11.0531634,39.7066764 10.8886255,39.8432149 10.8376555,39.9383723 C10.6940482,40.207254 10.5362933,40.2873465 10.1965584,40.2490165 C9.80992331,40.2053471 9.47542099,40.4604987 9.02366843,40.9137836 M22.9221817,28.3198224 C23.2795526,29.2227691 23.8437104,30.3562676 24.9821036,31.1089456 C25.8788256,31.7020109 26.7191512,32.4733772 27.9585153,31.9289395 C28.4441832,31.7157411 28.7895384,31.3387346 29.2071818,31.0492577 C30.2527438,30.3240399 31.0176805,30.4115695 31.8394011,31.4167294 C32.5622827,32.3013692 33.5716037,32.3061366 34.357471,31.4354176 C34.5791805,31.1898008 34.8210455,30.9617281 35.0522513,30.7241206 C35.7458688,30.0111074 36.5001464,29.3158289 36.7741824,28.3371758 C37.1695386,26.9260236 37.3497745,25.9027475 36.4098346,25.1956459 C35.7609854,24.7074635 35.6259054,24.4574607 36.4509206,23.9698504 C37.2819438,23.4788076 38.1528902,22.7225063 37.7867981,21.6595654 C37.5100488,20.8557808 37.0759322,20.018815 36.3848341,19.3942848 C35.9821135,19.030055 35.5113684,18.7941637 34.9855834,18.8441261 C33.48323,18.9865762 31.8994797,18.7325688 30.5725172,19.7756773 C30.0744459,20.1671767 29.47521,20.0678239 29.1909024,19.4722796 C28.9728752,19.0157527 28.8048488,19.1099567 28.4742225,19.2998901 C27.5278871,19.8435651 26.6032576,19.9520713 25.6268829,19.2682346 C24.7059357,18.6232999 24.2274384,18.7480152 23.4568815,19.5298698 C23.1671475,19.8239234 22.9041581,20.201502 22.5746946,20.3921982 C21.1647848,21.2085688 21.701035,23.1710239 23.0919523,23.7652334 C24.1609643,24.2219509 24.131894,24.3893822 23.7423519,25.4769228 C23.444672,26.3077863 22.8243117,27.0364367 22.9221817,28.3198224 M29.3668747,43.5669404 C28.2963122,43.2643055 27.6393233,44.0272812 26.8879528,44.5198496 C26.6451189,44.6790809 26.486395,44.9592137 26.1900717,45.0642873 L26.2135217,45.0778268 C26.6885305,43.6043169 26.6228316,42.1256582 26.2672049,40.6418508 C26.2418168,40.5360144 26.2664297,40.4145409 26.2850347,40.3031743 C26.4102308,39.5558357 26.0892946,39.1467922 25.3127298,39.1153274 C25.0119491,39.1031228 24.7082613,39.1794013 24.4059301,39.1786385 C23.9644491,39.1774943 23.3053283,39.609612 23.1580388,39.2684564 C22.9628801,38.8172691 22.9677252,38.1320975 23.2944754,37.6357152 C23.8409972,36.8048517 23.5320767,36.1072848 23.0595873,35.4028529 C22.9378796,35.2211194 22.8049314,35.0477765 22.5609347,35.0727577 C22.2198431,35.1076551 22.2165485,35.4020901 22.2368977,35.620628 C22.2770147,36.0540806 21.8863098,36.4818123 22.2339906,36.9165997 C22.3398066,37.0493243 22.3260466,37.2125603 22.1518186,37.2899829 C21.5607224,37.552953 21.4386271,38.1574601 21.14211,38.6294333 C20.8155535,39.1490806 20.599658,39.701909 19.8816215,39.9086237 C19.4657223,40.0285717 19.3300609,40.3910852 19.4936298,40.9852947 C19.6692145,41.6237457 19.2405243,42.3798563 19.4279309,43.1046927 C18.2534906,43.5032479 19.4349078,43.731702 19.5471192,43.910003 C19.7405336,44.2174053 19.852745,44.2656515 19.5331654,44.6502858 C18.5565969,45.825356 17.1030816,45.7620449 15.8555779,46.1846278 C14.6414081,46.5957688 13.3533998,46.8036278 12.0450422,46.5732667 C11.8045339,46.5309321 11.5578239,46.5669737 11.3351454,46.6655637 C10.6324192,46.9758265 9.92659213,47.1350578 9.16049267,46.8545436 C8.5548613,46.6327639 7.8990352,46.7931395 7.29049679,46.8707528 C6.1131494,47.0208308 5.07940933,46.8526367 4.14276407,46.0095686 C3.89256564,45.7841656 3.59217248,45.6316086 3.27220531,45.5204327 C2.72393934,45.3297365 1.86074506,43.9557701 2.01908132,43.3764349 C2.37121963,42.0886632 2.96541668,40.897193 3.61019607,39.7322297 C4.50091024,38.1227534 5.90500601,36.952832 7.26898477,35.7735664 C9.11359258,34.1789644 11.0221551,32.6619758 13.1516519,31.4230223 C14.498576,30.6392608 16.0071311,30.2660682 17.3999864,29.6066406 C17.8517389,29.3928702 18.0441844,29.2132343 17.8220872,28.7546098 C17.4765382,28.0412152 17.7207287,27.1180547 16.8385419,26.5488264 C16.5966769,26.3926462 16.770905,25.508197 16.8629609,24.9763452 C17.075368,23.749787 16.8565655,22.5606052 16.6482283,21.3664653 C16.4935742,20.4799185 16.3759364,19.5830741 16.8662556,18.7705174 C17.2366113,18.1568569 16.6303985,17.930119 16.4654729,17.5292755 C17.4627782,16.9097035 18.1271316,15.9781523 18.6550484,14.9974015 C19.6151437,13.2140103 20.5265947,13.0366628 22.3741095,13.3820137 C22.5514384,13.4151948 22.7739231,13.543152 22.8965998,13.4796501 C24.2561211,12.7767438 25.4259102,13.6118026 26.6383358,13.9384653 C27.343969,14.1287802 27.9401041,14.2554025 28.6261633,13.8476939 C29.2972998,13.448948 30.0608798,13.2235451 30.8626388,13.1323923 C32.6702305,12.926631 34.4080533,12.3728492 36.1929701,12.0524795 C37.4803971,11.8213556 38.710071,12.3675097 39.4052389,13.4174832 C39.5273342,13.6016957 39.6645461,13.7855269 39.5910951,13.9903347 C39.2515539,14.9377136 39.8608675,15.625555 40.2195951,16.388912 C40.2928523,16.5452829 40.3732801,16.6511193 40.5261899,16.6648495 C41.1293019,16.7195793 41.403338,16.9772099 41.4355091,17.6278655 C41.4591529,18.1051782 41.808578,18.1665824 42.1905618,17.7912922 C42.4349462,17.5512056 42.7677043,17.194985 43.1225558,17.5290848 C43.4921363,17.8771055 43.2031775,18.2790932 42.9337927,18.5493097 C42.4333958,19.0506502 42.3888213,19.5821206 42.4709934,20.2634783 C42.6146007,21.4541856 42.3136261,22.6132374 41.8764087,23.8113818 C41.6192334,23.2181258 41.5800854,23.246921 41.9957908,22.0388603 C42.2510281,21.2968612 42.2349425,20.5041369 42.050443,19.7421147 C41.9014092,19.1269287 42.5715766,18.854233 42.7074319,18.2300842 C42.0068375,18.1702056 41.5605114,18.6473276 41.4878356,19.0737244 C41.392485,19.6334179 41.1459688,20.2381157 41.3843454,20.8327065 C41.5907445,21.347205 41.0699984,21.7068581 41.1095341,22.202859 C41.1950008,23.2778138 41.158566,24.3485732 41.6114813,25.39397 C41.7056691,25.6109823 41.7213671,26.3640417 41.332794,26.7500109 C41.1411238,26.9405165 41.0977121,27.1466591 41.0990688,27.3964712 C41.1025572,28.1009031 40.9928652,28.5528532 42.1413361,28.7069358 C46.866036,29.3408101 51.0521601,31.1819823 54.2648165,34.8065458 C54.4438896,35.0086838 54.6714132,35.2026219 54.7626939,35.4421363 C55.5022425,37.3849497 57.2210728,38.7255442 58.0329095,40.6237346 C58.1708966,40.9465834 58.3891177,41.2757251 58.6594715,41.4957886 C59.1914581,41.9284783 58.9784697,42.3937772 58.8286607,42.8720433 C58.6716811,43.3747186 58.2108198,43.3367701 57.8069364,43.4488995 C56.7414128,43.7450507 55.701471,44.1350245 54.6293581,44.4037155 C53.9186861,44.5820165 53.2742943,44.9124931 52.4432711,44.8497541 C51.7725223,44.7992196 51.0984788,44.8432704 50.4500172,45.0190923 C49.8629908,45.1783237 49.3868192,45.1998724 48.8356462,45.0816407 C47.2051896,44.7317131 45.5724074,44.9925855 43.9477649,45.1359891 C43.2146118,45.2006351 42.5308782,44.9206931 41.787066,45.0171854 C41.2560484,45.0860267 40.7351085,45.0286271 40.2374249,45.3274481 C39.9149383,45.5213862 39.5515595,45.5107072 39.3021362,45.098994 C39.0903106,44.748685 38.7319706,44.6634438 38.3433976,44.7919731 C36.483867,45.407922 34.5625136,45.1607796 32.6669358,45.1441891 C31.6665297,45.135417 30.689186,45.1251194 29.8899464,45.7523194 C28.9990384,46.4514118 28.0395245,45.9351971 27.1197401,46.027494 C26.8493862,46.0545729 26.6466693,45.7706262 26.5788386,45.4906841 C26.4995735,45.1636401 26.8166337,45.1283613 26.9939625,44.9885809 C27.7201388,44.4168736 28.6823659,44.2191216 29.3463317,43.5493964 C30.2719302,43.4496622 31.1331865,43.1104136 32.0564594,42.7728813 C31.9645972,43.1901247 31.6746694,43.2551521 31.4390061,43.3341003 C30.0977022,43.7835714 28.749809,44.2076798 27.605408,45.0825942 C27.3922257,45.2454488 26.8939607,45.2075002 27.1375698,45.6375202 C27.3133483,45.9481644 27.7069602,45.8549139 27.94805,45.6604038 C29.2548571,44.6058536 30.9277563,44.3589019 32.400458,43.6737303 C32.6151907,43.5738055 32.8475593,43.4593878 33.0954321,43.800734 C32.0155672,44.1802196 30.9616717,44.5446401 29.9133965,44.9243163 C29.7341296,44.9893437 29.418426,45.0366364 29.5502114,45.321918 C29.6688183,45.5795486 29.9378155,45.448731 30.1015782,45.3386992 C30.6362781,44.9796182 31.2048932,44.7774802 31.8616884,44.7572664 C32.4607305,44.7387688 33.0750829,44.7299968 33.6142402,44.3884598 C33.7045519,44.331251 33.8421514,44.3459346 33.9576574,44.3276277 C33.8677333,45.337555 34.5844132,44.5877374 34.7146482,44.5637097 C35.4720265,44.4245014 36.2208776,44.4901009 36.9679845,44.5341518 C37.3340765,44.5557005 37.6897033,44.5997513 37.753658,44.1750708 C37.8040465,43.8407802 38.3300252,43.6464608 38.0949433,43.3203702 C37.7992014,42.9099919 37.4443499,43.4294484 37.1024831,43.3916906 C37.0455053,43.3852069 36.9916283,43.3545048 36.8404627,43.3014913 C37.4484197,43.0608326 38.1455257,42.9876053 38.2168448,42.1891601 L36.470107,42.1891601 C36.582706,41.9071203 36.9904655,41.7700097 36.754027,41.4168403 C36.5511163,41.113824 36.2592504,41.2204232 36.0117652,41.2667624 C34.9152333,41.4713794 33.8371125,41.3481897 32.7547281,41.1624515 C32.509181,41.1203077 32.0603354,40.9866296 32.0487073,41.3171062 C32.0213812,42.0909515 31.3791213,42.1559789 30.9203918,42.3708936 C30.2988687,42.6622775 29.7806421,43.0368049 29.3668747,43.5669404" id="Fill-1" fill="#000000"></path>
                    <path d="M6.05581186,15.9992077 C5.6304293,16.0105922 5.25421835,15.9027292 5.12078012,15.4514025 C4.981557,14.9794294 4.86778742,14.4416579 5.34696949,14.1180688 C5.85970394,13.7719038 6.38304404,13.4407894 6.96211195,13.1700705 C7.68406675,12.8323956 8.30979947,12.2423327 9.03946746,11.8531382 C11.7616458,10.401136 14.3590633,8.73282878 17.0546312,7.23027174 C19.4237382,5.90986621 21.6939235,4.39322331 24.099861,3.13726546 C25.6286157,2.33919484 26.9294456,1.13861569 28.6107287,0.623227238 C28.7154353,0.5910034 28.793917,0.476193918 28.8872466,0.403449087 C29.585869,-0.140882929 30.4106021,-0.133357601 30.8130379,0.419657484 C31.2187518,0.977496497 30.9518754,1.71845181 30.1317702,2.20682626 C28.3947593,3.2414623 26.6511922,4.2654857 24.9035757,5.28236968 C22.0452594,6.94566 19.180387,8.59795175 16.3201425,10.2579618 C13.2090264,12.0638474 10.1002242,13.874171 6.98872246,15.6798637 C6.70102039,15.8467716 6.40483381,16.0032598 6.05581186,15.9992077" id="Fill-3" fill="#000000"></path>
                    <path d="M39.74099,2.00086516 C40.2541179,1.98736674 40.7039131,2.12861113 40.9203473,2.65113712 C41.1303152,3.15781713 40.9013285,3.58468036 40.5120132,3.85386635 C38.9652121,4.92337199 37.4212639,6.00989739 35.632163,6.62534731 C35.2915359,6.74252929 34.953191,6.97748014 34.752162,7.16528431 C33.6954761,8.15282126 32.391165,8.68825878 31.1992553,9.42265136 C30.8690885,9.62610588 30.5440567,9.82819099 30.1163234,9.77908803 C29.9316506,9.75796006 29.6081404,9.84599326 29.5543171,9.97510863 C29.170327,10.901218 28.1855323,10.998837 27.5676106,11.5745742 C26.9844934,12.1180325 26.3026686,11.8705614 25.6735258,11.9928297 C25.373599,12.0511273 25.1417595,11.7441848 25.0516103,11.4262871 C24.9192392,10.9620587 25.040199,10.4223173 25.4295143,10.3113955 C25.974784,10.1560658 26.2102371,9.68538157 26.6275101,9.43849733 C29.6750866,7.63440349 32.7365469,5.85495894 35.7924917,4.06592856 C36.749519,3.50564611 37.7086383,2.94908061 38.6555856,2.37138715 C38.9969735,2.16323752 39.3377909,1.99558317 39.74099,2.00086516" id="Fill-5" fill="#000000"></path>
                    <path d="M31.6045308,57.00009 C37.3201772,57.00009 43.0358236,56.9999165 48.751666,57.0006105 C48.9972326,57.0006105 49.2443671,56.9950584 49.4877779,57.0174404 C49.7982149,57.0458951 50.0092885,57.1928532 50,57.491107 C49.9902781,57.7902284 49.7670536,57.9266027 49.4568126,57.93736 C48.7816514,57.9613036 48.1055102,57.980389 47.429761,57.9809096 C37.0138558,57.9897583 26.5977547,57.9958309 16.1818495,58 C15.4137923,58.000342 14.6457352,57.9824711 13.877874,57.9713668 C13.4692496,57.9654677 12.9871316,57.9701523 13,57.4793088 C13.0135893,56.9921088 13.498843,57.0150114 13.9043317,57.0146644 C18.0219333,57.0108473 22.1397308,57.0072037 26.2575283,57.0044276 C28.0399931,57.0033866 29.822066,57.0042541 31.6045308,57.0042541 L31.6045308,57.00009 Z" id="Fill-7" fill="#000000"></path>
                    <path d="M12.3712727,26.2697584 C11.990968,26.1435119 11.707386,26.1384769 11.7438923,26.4086856 C11.8460721,27.1611301 11.2282887,27.2260249 10.8024453,27.4775857 C9.35969611,28.3296101 7.92240405,29.191891 6.46158993,30.0124004 C6.12042594,30.2039148 5.81764997,30.7618612 5.26459925,30.2454997 C5.11386988,30.1047077 4.84891738,30.4176202 4.72829624,30.6031672 C3.98217644,31.7490833 2.69881276,32.1526248 1.61943239,32.8343935 C0.708281805,33.409869 0.621156088,32.3239993 0.166333502,32.0304807 C-0.178217658,31.8080108 0.0696107846,31.3143998 0.392709824,31.0604148 C1.41225007,30.2592992 2.54450803,29.5959919 3.72249288,29.1025673 C4.48611309,28.7829416 5.12083241,28.4366493 5.74896555,27.8930618 C6.49075728,27.2508267 7.44104858,26.8435556 8.30609592,26.3434178 C9.55238884,25.6232343 10.8005635,24.9069668 12.0532544,24.1977856 C12.6620054,23.8531716 13.2922085,23.989861 13.7782684,24.3693467 C14.1120935,24.6296719 14.0287313,25.1355906 13.7931343,25.5044469 C13.4293891,26.0733956 12.7843201,26.0810413 12.3712727,26.2697584" id="Fill-9" fill="#000000"></path>
                    <path d="M45.1440233,22.9984583 C44.5225704,23.0219048 44.0608323,22.7778577 44.0099532,22.2703948 C43.9428156,21.5977872 44.2161477,20.9433252 44.8050838,20.5883661 C46.1805431,19.7585654 47.5890929,18.9913564 48.9655086,18.1633906 C49.671505,17.7385 50.2845417,17.0585526 51.0320448,16.8092046 C52.4270142,16.3437415 53.4342689,15.2715247 54.6301209,14.5053351 C55.1503891,14.1719877 55.6972447,14.1348811 56.2395096,14.0139789 C56.6065665,13.9320182 56.9223617,14.2227543 56.9824221,14.5648688 C57.0526201,14.9654974 56.9080161,15.3622523 56.6299021,15.7133375 C55.4608286,17.1900567 53.7536983,17.7939559 52.2837491,18.7766684 C51.7185312,19.1544622 51.1883166,19.7885361 50.3803706,19.5473433 C49.8650754,20.7100839 48.6114584,20.7798116 47.8019821,21.5194964 C47.1447609,22.1199297 46.124882,22.0818037 45.5434057,22.881226 C45.458097,22.9984583 45.2100132,22.9813322 45.1440233,22.9984583" id="Fill-11" fill="#000000"></path>
                    <path d="M49.0940519,28.9918439 C48.4904053,29.0238606 48.1907934,28.6876855 48.0542566,28.2362123 C47.8890662,27.6904042 48.1109867,27.2229226 48.5852118,26.9254343 C49.4236634,26.3996367 50.2598073,25.8593553 51.1451814,25.4202694 C51.9659409,25.0135814 52.9280448,24.6589205 53.5730372,24.1647584 C54.9593668,23.102872 56.5622324,22.4516757 57.9626004,21.4580153 C58.1081756,21.3547234 58.2699044,21.2636283 58.4374024,21.2028348 C58.8550898,21.0515179 59.4391213,20.781663 59.6098885,21.3213727 C59.7573867,21.7879014 60.4266095,22.3529576 59.5783504,22.9530797 C59.1439325,23.2602873 58.83759,23.6442968 58.2360587,23.6490612 C57.6835652,23.6534445 57.6383734,24.3286533 57.1853019,24.545147 C56.0318541,25.0962912 54.8882138,25.7084195 53.7943807,26.3287426 C52.5040114,27.0609335 51.2251804,27.8821231 49.9646185,28.7000729 C49.6828911,28.8828347 49.3930868,29.0377726 49.0940519,28.9918439" id="Fill-13" fill="#000000"></path>
                    <path d="M1.05588455,25.2280904 C0.83560683,24.3912018 1.28390874,23.8707902 2.09450691,23.4278 C4.64726549,22.0328564 7.16347664,20.5736859 9.69061229,19.1339193 C10.2354471,18.8234575 10.9324304,18.8954458 11.3735817,18.2326099 C11.6172975,17.866653 12.3901565,17.9654187 12.8328968,18.3005234 C13.2585552,18.6228215 12.7403365,18.9371641 12.7099465,19.2534471 C12.5526336,20.8866702 10.9830804,21.0387965 9.97027958,21.6117925 C7.85966546,22.8057122 5.8112217,24.1003379 3.69027896,25.2758239 C3.06480147,25.6223769 2.46415239,26.0284997 1.71214928,25.9984238 C1.31191519,25.9825126 0.841764277,25.9384658 1.05588455,25.2280904" id="Fill-15" fill="#000000"></path>
                    <path d="M48.9975156,6.0653048 C49.0264288,6.44535718 48.8007846,6.77156572 48.4352248,6.96973324 C45.8799459,8.35431548 43.354389,9.78922599 40.6062207,10.8503751 C40.0016722,11.0838835 39.415523,11.0898044 39.1263911,10.5345283 C38.8202753,9.9465018 39.0918166,9.36939208 39.7078899,9.0417033 C42.1426635,7.74704582 44.5873444,6.46774585 47.0441567,5.20842917 C48.0136584,4.7114376 48.9948871,5.14514878 48.9975156,6.0653048" id="Fill-17" fill="#000000"></path>
                    <path d="M54,10.9304442 C53.9584295,11.5227283 53.684506,11.922997 53.2127711,12.1927521 C51.1316351,13.3825976 49.0498967,14.5714282 46.9681583,15.7604617 C46.4675048,16.0466579 45.9417484,16.0840055 45.4304512,15.8313004 C45.0390458,15.6378642 44.994463,15.2412491 45.0004877,14.8426041 C45.0055083,14.53063 45.1308223,14.27691 45.3876758,14.1187916 C47.3334566,12.9208271 49.2953033,11.7496555 51.2258215,10.5275368 C51.8455634,10.1349812 52.5456348,10.170502 53.2009225,10.0198938 C53.7947582,9.88349388 53.9222812,10.4769958 54,10.9304442" id="Fill-19" fill="#000000"></path>
                    <path d="M62,27.9656591 C61.8237917,28.5807162 61.3581552,29.0089136 60.7637512,29.2751296 C59.847428,29.6853493 59.0138272,30.2206868 58.0389008,30.56408 C57.4801769,30.7607458 56.9360042,31.244874 56.3724964,31.5828194 C56.2178158,31.6754321 55.9987514,31.8504882 55.8931061,31.8092665 C55.4430174,31.633484 55.1091386,31.4288281 54.6829696,31.9556308 C54.5310796,32.14358 53.9021913,31.6930466 54.0130192,31.3783452 C54.1987954,30.8502714 54.1968021,30.1898159 54.9169838,29.8867364 C56.2321676,29.3332395 57.3007793,28.3526348 58.7668564,28.0428363 C58.9719677,27.9996171 59.1220637,27.7432071 59.2990694,27.5870367 C59.7993893,27.1463094 60.3979794,26.9411088 61.0896568,27.0146541 C61.6848582,27.0778487 61.9188724,27.4555631 62,27.9656591" id="Fill-21" fill="#000000"></path>
                    <path d="M22.9727299,9.16024108 C22.2627402,9.87733072 21.3272403,10.2704134 20.4667816,10.7390595 C19.1992054,11.4296256 18.0604369,12.4039363 16.7104701,12.8565539 C15.4357379,13.2839836 14.5783736,14.2577218 13.403245,14.7874293 C12.1994924,15.3297308 11.0874138,16.0701001 9.9374278,16.727464 C9.65408951,16.8892767 9.31447037,17.1982091 9.07155371,16.8186745 C8.81587233,16.4192948 9.30944184,16.2494679 9.54791017,16.1126522 C12.2346921,14.5708522 14.9379135,13.0567207 17.6359129,11.5336208 C18.4752905,11.0600134 19.3191165,10.5934663 20.1470832,10.1005864 C20.7096983,9.76551206 21.4117583,9.72486808 21.880572,9.15776047 C22.1509521,8.83050961 22.6222801,9.10089705 23,9.18256665 L22.9727299,9.16024108 Z" id="Fill-23" fill="#000000"></path>
                    <path d="M49,23.6021085 C49.5457487,23.3516233 49.9145033,22.8350734 50.5858673,23.125013 C50.8251634,23.228404 51.0149011,23.0090776 51.0413996,22.766888 C51.0767985,22.4461941 51.2297214,22.1390563 51.5096755,22.1263095 C52.8950844,22.06298 53.5144626,20.7710994 54.6193105,20.2446354 C55.8079019,19.6779075 56.8919151,18.8952929 58.0459167,18.2504655 C58.2975518,18.1098457 58.7059531,17.7899611 58.9430241,18.2057504 C59.1550125,18.5774316 58.7253719,18.7538639 58.4739391,18.9039931 C55.7356883,20.5390263 52.9873236,22.1570637 50.2474546,23.7898712 C49.8238824,24.0421774 49.4425864,24.1589222 49,23.6021085" id="Fill-25" fill="#000000"></path>
                    <path d="M55,12 C53.8675961,14.0697417 51.7469952,14.6144641 50.0855795,15.8411587 C49.0861875,16.5789267 47.9754146,17.1407545 46.9312426,17.8115267 C46.6045,18.0212703 46.263906,18.1153495 46.06676,17.7742616 C45.8236954,17.3541635 46.3073579,17.2537717 46.5113348,17.1303691 C47.5137627,16.5227236 48.5609707,15.9995864 49.5573268,15.3811483 C50.9269131,14.5313812 52.2650017,13.6233747 53.6159929,12.7391935 C54.0552548,12.4516615 54.4535316,12.067403 55,12" id="Fill-27" fill="#000000"></path>
                    <path d="M60.9332666,35.9165062 C60.8776592,37.1549912 59.4904805,38.3019513 58.5620208,37.9281902 C58.2440735,37.8004281 58.1550683,37.4529648 58.0461914,37.1262085 C57.8728567,36.6066702 58.2300464,36.7576241 58.4134005,36.671276 C58.4715127,36.6439427 58.5274541,36.5281907 58.5389763,36.443292 C58.728843,35.0540601 59.7471428,35.296746 60.4515029,35.0403935 C60.9873711,34.8451266 61.0897354,35.3936547 60.9332666,35.9165062" id="Fill-29" fill="#000000"></path>
                    <path d="M8.97510019,32 C8.19162473,33.1858417 7.11823053,33.923363 5.73059686,34.1854881 C5.33142779,34.2610257 5.27853982,34.727789 4.95542134,34.9155538 C3.91040135,35.5226011 2.88564865,36.1657496 1.84391003,36.7792715 C1.60147465,36.92191 1.2918677,37.1912946 1.06699731,36.786531 C0.824947979,36.3509637 1.30306296,36.3937357 1.48295927,36.2662047 C3.55446916,34.7950861 5.79873355,33.6143457 7.96791247,32.3070553 C8.27983569,32.1190943 8.62109822,31.9874431 9,32.0255062 L8.97510019,32 Z" id="Fill-31" fill="#000000"></path>
                    <path d="M52.3759977,29.9986795 C52.0334152,30.0160378 51.9082272,29.861742 52.0701205,29.5662657 C52.1635682,29.3957688 52.3288306,29.2524667 52.4900145,29.1479313 C53.7479235,28.332671 55.0038819,27.5120105 56.2820054,26.7351313 C56.6013589,26.5411044 57.0079539,26.5802569 57.2485773,26.1480359 C57.3812128,25.9094561 57.7104963,25.9812036 57.9071443,26.2072469 C58.1374831,26.4722499 57.8851566,26.5785211 57.7339025,26.6741845 C56.0426232,27.7448042 54.3470882,28.8080949 52.6515532,29.8706141 C52.5568642,29.9298251 52.4494082,29.9651202 52.3759977,29.9986795" id="Fill-33" fill="#000000"></path>
                    <path d="M25.020383,6.65194938 C25.5276355,6.01119861 26.2809388,5.65425503 27.015051,5.37823639 C27.9647102,5.02129281 28.677005,4.27606148 29.7751431,4.10414347 C30.171895,4.04202503 30.5825857,3.30211271 31.2045811,3.12240615 C31.4726512,3.04509054 31.7776896,2.85816532 31.951218,3.19155329 C32.1358572,3.54659722 31.7528421,3.63227128 31.5271945,3.75973756 C29.7292863,4.77376887 27.8408767,5.64019765 26.0870072,6.72793524 C25.7439905,6.94069565 25.3094624,7.25527712 25.0001818,6.63998161 C24.9977576,6.63808196 25.020383,6.65194938 25.020383,6.65194938" id="Fill-35" fill="#000000"></path>
                    <g id="Group-39" transform="translate(0.000000, 25.000000)">
                        <mask id="mask-2" fill="white">
                            <use xlink:href="#path-1"></use>
                        </mask>
                        <g id="Clip-38"></g>
                        <path d="M6.74343056,0.114456522 C7.13679167,0.59423913 7.02984722,0.888369565 6.52409722,1.19576087 C5.21451389,1.99119565 3.962875,2.91228261 2.627625,3.64554348 C2.09231944,3.93945652 1.53309722,4.08532609 1.12826389,4.65163043 C0.819875,5.08315217 0.412708333,4.67836957 -9.72222222e-05,4.52554348 C2.32195833,3.18532609 4.46006944,1.50771739 6.75898611,0.131195652 L6.74343056,0.114456522 Z" id="Fill-37" fill="#000000" mask="url(#mask-2)"></path>
                    </g>
                    <path d="M7.01205378,24.7928774 C8.61062784,24.2128916 9.8959377,23.1712117 11.4433702,22.5155689 C11.7439827,22.3882852 12.0285577,22.2332502 12.3261409,22.1005403 C12.559218,21.9966668 12.8184896,21.9064365 12.9646083,22.1901505 C13.099679,22.4518495 12.8172423,22.52084 12.6367322,22.6118456 C11.5272994,23.1710567 10.4126989,23.722361 9.30148412,24.2789365 C9.03544119,24.4119565 8.74534214,24.5245119 8.51992734,24.6989262 C8.02579671,25.0812425 7.53344802,25.0883741 7.00029301,24.7831102 C6.9977983,24.7809397 7.01205378,24.7928774 7.01205378,24.7928774" id="Fill-40" fill="#000000"></path>
                    <path d="M39.9213833,7 C39.9896128,7.35562365 39.7260634,7.54375454 39.4075231,7.69453214 C37.8555554,8.42846432 36.2999217,9.15693848 34.7489723,9.89240572 C34.5031423,10.0089002 34.2707545,10.0778076 34.0807301,9.84635374 C33.8579148,9.5748176 34.1459046,9.43922009 34.3465198,9.34319317 C35.9443133,8.57975362 37.5508646,7.8294474 39.159249,7.08152907 C39.4260571,6.95735927 39.7173056,7.00238788 40,7.06276715 C39.9735229,7.04212904 39.9472494,7.02132036 39.9213833,7" id="Fill-42" fill="#000000"></path>
                    <path d="M42,59.1075662 C41.6163319,59.6251843 41.0293614,60.0119503 40.3827556,60.2465245 C39.1468856,60.6949944 38.0603125,61.3343661 36.8680222,61.8322984 C36.6127995,61.9388328 36.325257,62.1277493 36.0900518,61.8721661 C35.8596424,61.6218765 36.1142395,61.421711 36.373007,61.3047548 C38.0136051,60.5626536 39.6604587,59.8294854 41.3154444,59.1074008 C41.4903887,59.0311394 41.7185044,58.9095513 42,59.1075662" id="Fill-44" fill="#000000"></path>
                    <path d="M57,35 C57.0150054,34.7139526 57.0228653,34.5651485 57.0305466,34.4163445 C57.729189,34.452183 57.9012147,33.7334312 58.5369775,33.5560554 C59.2929618,33.3449881 59.9214005,32.7568734 60.6212933,32.3567043 C61.0119686,32.1334156 61.4085388,31.8476986 62,32.0962559 C60.5760986,33.3920571 58.774741,34.0354985 57,35" id="Fill-46" fill="#000000"></path>
                    <path d="M14,7.23136934 C13.8892404,7.59457664 13.6179373,7.85788409 13.327724,7.90997473 C12.1734314,8.11673173 11.5414842,9.1157302 10.479427,9.44201023 C9.9885343,9.59275197 9.44554212,10.3684029 9.05537503,9.78648631 C8.76593357,9.35477626 9.68500669,9.11590859 10.1048898,8.86580219 C11.112339,8.26604632 12.1699581,7.73871785 13.1986331,7.16875355 C13.5077566,6.99749667 13.7755864,6.87101632 14,7.23136934" id="Fill-48" fill="#000000"></path>
                    <path d="M45,3.36166247 C45.0004243,3.5976035 44.8418512,3.70496075 44.6626594,3.80394985 C43.4265975,4.48748489 42.1911732,5.17285684 40.9565991,5.8592493 C40.6320133,6.03967479 40.2691659,6.08539347 40.0712684,5.76148481 C39.8130027,5.33817884 40.3244326,5.33899525 40.528707,5.21408529 C41.3128571,4.73505969 42.1964873,4.3742087 42.8896598,3.79905142 C43.4265975,3.35349842 44.2279652,3.67597837 44.6569202,3.04224404 C44.7593762,2.89059682 44.9521722,3.18246158 45,3.36166247" id="Fill-50" fill="#000000"></path>
                    <path d="M17,18.7553616 C16.6064951,18.5308893 16.2158055,18.1836616 15.8225171,18.6573036 C15.5227863,19.018618 15.2568402,19.6349563 15.6761168,19.8660146 C16.7526788,20.459302 16.8724412,21.3156628 16.9298318,22.229468 C16.9662153,22.8095834 16.9365454,23.3928089 16.7437995,24 C16.6147247,23.2140726 16.4676747,22.4294258 16.3622058,21.6411202 C16.28684,21.0780185 16.1486693,20.5873628 15.4539175,20.3147762 C14.9220253,20.1060371 14.9584088,19.6810582 15.0643108,19.2694342 C15.1972839,18.7517027 15.408005,18.2090909 16.0195944,18.0310863 C16.5629648,17.8726568 16.788196,18.3512383 17,18.7553616" id="Fill-52" fill="#000000"></path>
                    <path d="M21.6625493,60.9935132 C21.3115505,61.0195784 21.1431029,60.9677564 21.0477552,60.8260169 C20.9053296,60.6144101 21.1089367,60.5101491 21.2984402,60.4316448 C22.3502446,59.9954759 23.4556821,59.6381196 24.4560385,59.1251429 C24.5879362,59.0574349 24.7788303,58.9016603 24.9198654,59.089361 C25.0265357,59.2311005 25.0531536,59.4300602 24.8324633,59.5437294 C24.4725257,59.7289624 24.1161637,59.9394895 23.7174911,60.0531587 C22.9137893,60.282348 22.1136631,60.4970393 21.6625493,60.9935132" id="Fill-54" fill="#000000"></path>
                    <path d="M47.458091,10 C47.6408013,9.65290216 47.4908695,9.48508969 47,9.46265762 C48.3671911,8.97685764 49.4233902,7.98744901 51,8.00012056 C49.983459,8.90117079 48.6367039,9.34553136 47.4439274,9.99229433 C47.440083,9.99006824 47.458091,10 47.458091,10" id="Fill-56" fill="#000000"></path>
                    <path d="M6.96554701,18.108998 C6.74904761,18.6969033 4.9625158,20.0159165 4.40635208,19.9998546 C4.2568339,19.9955972 4.11646615,19.9626993 4.03941945,19.8146587 C3.95743151,19.6565551 4.00867398,19.5061922 4.14373446,19.4237539 C4.9105413,18.9562163 5.67899521,18.4915815 6.45605054,18.0437827 C6.65790924,17.9274789 6.84110104,18.064102 6.99976966,18.2061437 C7.00178275,18.1678273 6.99061922,18.1355099 6.96554701,18.108998" id="Fill-58" fill="#000000"></path>
                    <path d="M35.060136,2.49983425 C34.7433119,2.3642411 34.5164947,2.52243311 34.3454034,2.75402893 C34.2679192,2.85869733 34.313314,3.12053823 34.0897839,2.93566938 C33.9285543,2.80262497 34.0110475,2.64443296 34.1295435,2.53466708 C34.2400562,2.43220759 34.3684138,2.34792914 34.4983368,2.27571475 C35.1496733,1.91345335 35.8146283,1.58109721 36.417909,1.12113398 C36.5699031,1.00525111 36.7957812,0.908738693 36.9427663,1.14713116 C37.1052482,1.41016148 36.8861011,1.54456522 36.7286283,1.64838403 C36.2004837,1.99654239 35.7238387,2.47961422 35.060136,2.49983425" id="Fill-60" fill="#000000"></path>
                    <path d="M33,60 C32.5337571,61.1977016 31.3267545,61.4149498 30.4176898,61.9331566 C30.3014922,61.999389 30.1491644,62.0499831 30.044405,61.9149121 C29.9545334,61.7988522 30.01354,61.6811058 30.1106739,61.5889631 C30.2604599,61.4472994 30.399897,61.2821785 30.5863579,61.1862029 C31.3292963,60.8039871 32.0887566,60.4447686 33,60" id="Fill-62" fill="#000000"></path>
                    <path d="M27,60.3995032 C26.9839287,60.6967856 24.4936754,62.142029 24.2556187,61.9886377 C23.9795936,61.8109016 23.8670942,61.5573605 24.227293,61.3406334 C24.9494986,60.9065854 25.6731104,60.4731311 26.4131954,60.0703551 C26.7531041,59.8852958 26.9353129,60.0897517 27,60.3995032" id="Fill-64" fill="#000000"></path>
                    <path d="M18,60 C18.2421227,58.6516638 19.532131,57.8114512 21,58.0362791 C20.1490464,59.0546294 18.9160448,59.273989 18,60" id="Fill-66" fill="#000000"></path>
                    <path d="M49,24.2843434 C48.9770248,24.3464096 48.9737131,24.4274349 48.9316954,24.4569712 C48.1027261,25.0367212 47.2766546,25.6426147 46.3096272,25.9741 C45.9275355,26.1052173 45.9612738,25.7072753 46.0823592,25.480165 C46.3158367,25.0423091 46.7827917,24.8553123 47.1973799,24.6297986 C47.612589,24.4040852 48.1203197,24.3879201 48.5171073,24.088366 C48.7201582,23.9348969 48.94991,23.9698216 49,24.2843434" id="Fill-68" fill="#000000"></path>
                    <path d="M14.4216127,6 C14.317762,5.92809979 14.1586671,5.859381 14.062525,5.74103198 C13.9353347,5.58450585 14.0177729,5.43307001 14.1702299,5.3183266 C14.8308056,4.82160006 15.6924447,4.66846745 16.3020586,4.0654813 C16.4746434,3.8949569 16.7457257,4.09135689 16.9133856,4.26845624 C17.0176645,4.37853356 17.0405759,4.54121044 16.910602,4.61586788 C16.1042071,5.07759875 15.2875343,5.52130153 14.4216127,6" id="Fill-70" fill="#000000"></path>
                    <path d="M28,60 C28.843916,59.162951 30.0092335,58.9167004 31,58 C30.7074374,59.1655857 29.9483304,59.6511958 28,60" id="Fill-72" fill="#000000"></path>
                    <path d="M35.9988116,58.200412 C35.9535943,58.4409015 34.5154317,59.0786305 34.241795,58.9919651 C33.966364,58.9044637 33.9215055,58.718175 34.1316226,58.5856689 C34.5852315,58.2997567 35.1025394,58.0854619 35.6873144,58.0049272 C35.8676454,57.9801259 36.0147812,58.0495139 35.9988116,58.200412" id="Fill-74" fill="#000000"></path>
                    <path d="M45.0258642,10.9510695 C45.2461888,10.6181139 45.4707284,10.2941753 46.1359171,10.5170429 C46.2547009,10.5567446 46.4104608,10.5334619 46.4376661,10.4450416 C46.677341,9.66823488 47.4479024,10.152326 47.9996719,10.1158543 C48.0025457,10.1173347 47.9854945,10.1095289 47.9891347,10.1112785 C47.3831461,10.3572942 46.7555083,10.5823151 46.1705943,10.8525556 C45.7780333,11.0338374 45.4075048,11.0315495 45,10.9341122 L45.0258642,10.9510695 Z" id="Fill-76" fill="#000000"></path>
                    <path d="M9.02342536,31.9651159 C9.27702266,31.3563556 9.97783143,31.2076195 10.6168824,31.0106677 C10.7780205,30.961042 10.9260262,31.0934241 10.9840572,31.2246784 C11.038184,31.3467688 10.9478544,31.446584 10.8131586,31.4893016 C10.2229104,31.6759618 9.74943415,32.160235 9,31.9466472 C9.00053239,31.9467882 9.02342536,31.9651159 9.02342536,31.9651159" id="Fill-78" fill="#000000"></path>
                    <path d="M14.9633931,28 C14.9036138,28.8406967 14.0101787,30.0094125 13.4390227,29.9999428 C13.2619217,29.9967863 13.13728,29.8831502 13.0522877,29.7027002 C12.9542823,29.4948935 12.9975918,29.277617 13.1525298,29.1771333 C13.7602853,28.7825634 14.221236,27.9781671 15,28.056292 C15.0006026,28.056292 14.9633931,28 14.9633931,28" id="Fill-80" fill="#000000"></path>
                    <path d="M45,60.1592601 C44.2397327,60.4788214 43.6275278,60.736221 43,61 C43.1085078,60.1141596 43.8149666,59.7687842 45,60.1592601" id="Fill-82" fill="#000000"></path>
                    <path d="M23.2170979,9 C22.975609,8.58424204 22.8266445,8.22396609 23.3762401,7.97751163 C23.9386041,7.7255804 24.3199901,6.95692822 24.9998602,7.01360084 C25.0018958,7.01526768 24.9809852,6.99764678 24.9833909,7.0002661 C24.6845367,8.10800153 24.1016323,8.78783485 23.1902658,8.97166369 C23.191006,8.97213993 23.2170979,9 23.2170979,9" id="Fill-84" fill="#000000"></path>
                    <path d="M7,17.8933433 C7.02963363,17.9158416 7.04282817,17.9432664 7.04044883,17.9757821 C7.13345951,17.4034731 7.69628226,17.1842385 8.3144788,17.0231381 C8.55068266,16.9615553 8.80851691,17.0254371 8.93786664,17.184567 C9.13664993,17.4289273 8.81132886,17.5028266 8.62271186,17.5540635 C8.09493034,17.6975923 7.69801269,18.2226058 7,17.8933433" id="Fill-86" fill="#000000"></path>
                    <path d="M4,20.2569709 C3.97146254,20.420796 2.36646075,21.0369416 2.18649067,20.9982563 C2.01480565,20.9614504 2.01618649,20.8613699 2.00352875,20.7670842 C1.96233355,20.4576019 2.28867317,20.3487506 2.62467871,20.2579106 C2.99796705,20.1567337 3.31602161,19.8674554 3.78642936,20.0707489 C3.89160369,20.1161689 3.95028959,20.2118641 4,20.2569709" id="Fill-88" fill="#000000"></path>
                    <path d="M23,2.09228383 C22.4141727,2.42322898 21.9962004,2.66616999 21.56961,2.8963619 C21.4174242,2.97834564 21.219994,3.07219311 21.0785806,2.9151314 C20.9181685,2.73717534 21.0305941,2.53832494 21.1729868,2.39861615 C21.6297401,1.95045019 22.1899092,1.93114949 23,2.09228383" id="Fill-90" fill="#000000"></path>
                    <path d="M47,58.3439446 C46.9714735,58.5075736 45.400543,59.0887118 45.2443057,58.9884546 C45.1108896,58.9023238 44.8831168,58.7541944 45.0718303,58.6423616 C45.5741155,58.3447294 46.0652096,57.9727382 46.7221961,58.0015793 C46.8951104,58.009231 46.9844202,58.1785498 47,58.3439446" id="Fill-92" fill="#000000"></path>
                    <path d="M44.5933543,26.9908498 C44.2158661,27.0465221 43.9355725,26.8326047 44.0128864,26.7679819 C44.3984741,26.4452262 44.7850437,26.0805821 45.4172996,26.0055768 C45.6885119,25.9735339 46.0790085,26.0807611 45.9859864,26.2966476 C45.7736799,26.7894632 45.0091313,26.7724572 44.5933543,26.9908498" id="Fill-94" fill="#000000"></path>
                    <path d="M44.9637351,11 C45.1532791,11.7570344 44.5560306,11.7929221 44.1861063,11.9807523 C44.0116744,12.0693111 43.9542806,11.8336305 44.0377186,11.6536563 C44.2348186,11.2285387 44.5233949,10.9614341 44.9855993,11.0228539 C44.9854386,11.0224968 44.9637351,11 44.9637351,11" id="Fill-96" fill="#000000"></path>
                    <path d="M39,6.8141107 C39.0195696,6.84326862 39.0394474,6.87172675 39.0594793,6.89995162 C38.9577789,6.10662291 39.4852339,6.30373045 39.6964933,6.00375377 C39.7180661,5.972963 39.9114509,6.1378802 39.9707761,6.26850769 C40.0509036,6.44555458 39.9510524,6.59904188 39.8542829,6.71357419 C39.5846229,7.03244521 39.301711,7.11198802 39,6.8141107" id="Fill-98" fill="#000000"></path>
                    <path d="M14.0070169,20 C14.2311666,20.7098121 14.5713137,21.3728601 15,22 C14.2886983,21.4872651 13.9455625,20.8255532 14.0070169,20" id="Fill-100" fill="#000000"></path>
                    <path d="M14,28.9634063 C14,28.9634063 14.0440168,29 14.0432952,29 C14.3983163,28.4558824 15.2668671,28.4528044 16,28 C15.6394468,28.879104 14.8911606,29.001881 14,28.9634063" id="Fill-102" fill="#000000"></path>
                    <path d="M26.978957,45.0259488 C26.151677,46.0474808 25.2373463,46.0940386 24.3072787,45.9254134 C24.1604679,45.898809 23.952104,45.8002161 24.0098722,45.4136693 C24.0977197,44.8279805 24.2666418,45.1276716 24.4092694,45.3788488 C24.7417352,45.9637551 25.1008938,45.6910596 25.4572637,45.4997424 C25.9612412,45.2297857 26.4580475,44.8667134 26.9996739,45.0494233 C27.0030603,45.0537269 26.978957,45.0259488 26.978957,45.0259488" id="Fill-104" fill="#000000"></path>
                    <path d="M29,62.3048479 C28.9550048,62.8119641 28.6474012,62.9082427 28.3361162,62.9881074 C28.1534766,63.0348993 28.0281036,62.9437653 28.0047879,62.7120108 C27.9387267,62.0532496 28.5756134,62.49814 28.7236885,62.061824 C28.7893406,61.8690219 28.934757,62.1772114 29,62.3048479" id="Fill-106" fill="#000000"></path>
                    <path d="M32.6649266,10.014181 C32.9254812,9.95128216 33.0092228,10.1049497 32.9992102,10.3302093 C32.9814607,10.7257561 32.8244452,11.0157044 32.4339546,10.9993405 C32.218229,10.9903915 31.9918082,10.8390251 32.0002278,10.5851286 C32.0154743,10.1251489 32.4473806,10.1908603 32.6649266,10.014181" id="Fill-108" fill="#000000"></path>
                    <path d="M19,3.53615282 C18.6860123,3.94062219 18.4065837,4.24019804 18.0731912,3.73195404 C17.9504792,3.54482402 17.9920608,3.34286905 18.1238284,3.17168285 C18.5403842,2.63015264 18.6536711,3.54342544 19,3.53615282" id="Fill-110" fill="#000000"></path>
                    <path d="M35,62 C34.8745363,62.9761436 34.3593592,62.8123463 34,63 C34.1768971,62.4003935 34.5349073,62.2092966 35,62" id="Fill-112" fill="#000000"></path>
                    <path d="M32.3582391,26.8238687 C31.8613355,27.378151 31.3837968,27.9541539 30.8615252,28.4805684 C30.3336378,29.0131302 29.6792975,29.1194787 28.9993955,28.8758403 C27.6434646,28.3895882 26.4835065,27.4818356 25.1932226,26.8515316 C25.0588301,26.7857554 24.9670404,26.6384249 25.0111924,26.3992946 C26.1550776,26.4244985 27.2104652,26.9769367 28.355125,27.0802115 C30.4091609,27.2656553 32.0642797,26.4357686 33.5921711,25.1085647 C33.9717233,24.7790689 33.8712194,24.4967025 33.5211019,24 C34.3948466,24.3825675 34.8617345,24.831321 35,25.7206317 C34.3962021,24.6645241 33.9589425,25.139711 33.4699785,25.74727 C33.140775,26.1564759 32.7172645,26.480644 32.3363567,26.841491 C32.4260162,26.4796194 32.3642422,26.3464277 31.9899185,26.5320764 C31.5594365,26.7453881 31.1146246,26.9304221 30.6659396,27.0970141 C29.5164386,27.5236373 28.310392,27.2881954 27.1417198,27.4806062 C28.9806116,28.2547573 30.7091234,27.9326383 32.3582391,26.8238687" id="Fill-114" fill="#000000"></path>
                    <path d="M27.9249343,21.9996195 C27.6765495,22.0125246 27.631161,21.6948997 27.5402274,21.3957107 C27.136113,20.0664792 26.3573084,19.935584 25.7855695,21.0749253 C25.7392419,21.167105 25.6775761,21.242429 25.6159103,21.3066914 C25.4370169,21.4928944 25.2178999,21.8302722 25.0473016,21.4849933 C24.9014323,21.1897548 25.1274359,20.8876688 25.2595321,20.6661741 C25.7494152,19.8449845 26.5513835,19.826812 27.3823066,20.3722525 C27.8889365,20.7048896 28.1348171,21.0791392 27.9249343,21.9996195" id="Fill-116" fill="#000000"></path>
                    <path d="M32,22 C32.1632289,20.8670974 32.6291671,20.295727 33.3038243,20.0709627 C34.1015721,19.8053322 34.6566507,20.2921953 35,21.4180346 C34.6738767,21.6296813 34.5308842,21.2949314 34.3618018,20.9995342 C33.8369941,20.082819 33.0894191,20.2127332 32.666295,21.2828229 C32.4928643,21.7215042 32.4928643,21.7215042 32,22" id="Fill-118" fill="#000000"></path>
                    <path d="M24.2916953,27 C23.7304727,26.2680877 23.9857557,25.9733017 25,26.0018852 C24.7980398,26.28339 24.3345757,26.5009426 24.2916953,27" id="Fill-120" fill="#000000"></path>
                    <path d="M33.3622676,21.2389865 C33.5327758,21.6597428 33.9589442,20.423452 33.9995803,21.3599956 C34.0118324,21.6413139 33.753926,21.9879105 33.4729448,21.9996784 C33.1746065,22.0118903 32.9981764,21.6741751 33.0000142,21.3595515 C33.0016478,21.0302736 33.1895132,21.0746806 33.3622676,21.2389865" id="Fill-122" fill="#000000"></path>
                    <path d="M26.3622676,21.2389865 C26.5327758,21.6597428 26.9589442,20.423452 26.9995803,21.3599956 C27.0118324,21.6413139 26.753926,21.9879105 26.4729448,21.9996784 C26.1746065,22.0118903 25.9981764,21.6741751 26.0000142,21.3595515 C26.001852,21.0302736 26.1895132,21.0746806 26.3622676,21.2389865" id="Fill-124" fill="#000000"></path>
                    <path d="M9.85011051,50.4827943 L9.85011051,53.3454785 L11.5734378,53.3454785 C11.71087,53.3454785 11.8163552,53.3767359 11.8896926,53.4392506 C11.9632309,53.5019536 12,53.5806619 12,53.6753754 C12,53.7719719 11.9638336,53.8501153 11.8910991,53.9101822 C11.8185654,53.9700607 11.7128792,54 11.5734378,54 L9.52079566,54 C9.3355435,54 9.20253165,53.9615873 9.12155917,53.8845737 C9.04038577,53.8077484 9,53.6834722 9,53.511745 L9,50.4827943 C9,50.3218001 9.03837653,50.2011015 9.11593329,50.1206986 C9.19288728,50.0401073 9.29455495,50 9.42053446,50 C9.54852321,50 9.65220012,50.0397307 9.73116335,50.1191922 C9.81052843,50.198842 9.85011051,50.3201054 9.85011051,50.4827943" id="Fill-126" fill="#000000"></path>
                    <path d="M14.0035609,52.4222222 L14.9696547,52.4222222 L14.4822728,50.8259259 L14.0035609,52.4222222 Z M15.3006657,53.4961111 L15.1461527,53.0105556 L13.8315529,53.0105556 L13.6771946,53.5064815 C13.6168137,53.7001852 13.5652578,53.8307407 13.5226815,53.8985185 C13.4799505,53.9661111 13.4101254,54 13.3130516,54 C13.2306859,54 13.1579192,53.9638889 13.0947515,53.8918519 C13.0315838,53.8196296 13,53.737963 13,53.6464815 C13,53.5937037 13.0071218,53.5392593 13.0219848,53.482963 C13.0365382,53.4266667 13.0608453,53.3483333 13.0947515,53.247963 L13.9219693,50.7362963 C13.9453476,50.6640741 13.973835,50.5774074 14.0068122,50.4762963 C14.0399443,50.3751852 14.0752438,50.2912963 14.1127109,50.2242593 C14.150178,50.1575926 14.1995665,50.1033333 14.2605667,50.062037 C14.3215668,50.0207407 14.3969655,50 14.4866078,50 C14.5777984,50 14.6539712,50.0207407 14.7149714,50.062037 C14.7759715,50.1033333 14.82536,50.1566667 14.8626722,50.2216667 C14.9002942,50.2868519 14.931878,50.3566667 14.9575786,50.4314815 C14.9832791,50.5061111 15.0161016,50.6061111 15.0557362,50.7309259 L15.9006038,53.2268519 C15.9668679,53.4168519 16,53.555 16,53.6412963 C16,53.7309259 15.968571,53.8131481 15.9061774,53.887963 C15.843629,53.9625926 15.7682304,54 15.6799814,54 C15.6284255,54 15.5844558,53.9890741 15.5477628,53.967037 C15.510915,53.945 15.4799505,53.9151852 15.455024,53.8774074 C15.4299427,53.8394444 15.4031584,53.7814815 15.3743614,53.7031481 C15.345874,53.625 15.3212572,53.5559259 15.3006657,53.4961111 L15.3006657,53.4961111 Z" id="Fill-128" fill="#000000"></path>
                    <path d="M18.9364489,50.4696514 L20.3326278,52.7493865 L20.3326278,50.4485393 C20.3326278,50.2990879 20.3624871,50.1868605 20.4218625,50.1120422 C20.4814094,50.0374091 20.561549,50 20.662796,50 C20.7669603,50 20.8491591,50.0374091 20.9095641,50.1120422 C20.9699691,50.1868605 21,50.2990879 21,50.4485393 L21,53.4907172 C21,53.8303625 20.8697517,54 20.608912,54 C20.5437021,54 20.4848416,53.9899995 20.4328452,53.9696282 C20.3806773,53.9496273 20.3317698,53.9174036 20.2861229,53.8733275 C20.2404759,53.8296217 20.1982611,53.7779527 20.1589635,53.7190611 C20.1198375,53.6601695 20.0807116,53.5999815 20.0415856,53.538312 L18.6797277,51.2848743 L18.6797277,53.5514607 C18.6797277,53.6992453 18.6479808,53.8109172 18.5843153,53.8866614 C18.5208214,53.9622205 18.439309,54 18.3397781,54 C18.2373298,54 18.1547878,53.9618501 18.09301,53.8851799 C18.0310605,53.80888 18,53.6975786 18,53.5514607 L18,50.5672485 C18,50.440576 18.013042,50.3413121 18.039126,50.2690865 C18.0700149,50.1900088 18.1214964,50.1253762 18.1932273,50.0751887 C18.2649582,50.0250012 18.3423521,50 18.425409,50 C18.4906189,50 18.5465622,50.011482 18.5930672,50.0342608 C18.6394005,50.0570397 18.6802425,50.087967 18.71525,50.1264873 C18.7502574,50.165378 18.7861229,50.2153803 18.8228464,50.2770499 C18.8595698,50.3385342 18.897323,50.4027964 18.9364489,50.4696514" id="Fill-130" fill="#000000"></path>
                    <path d="M25,52.7123478 C25,52.8355016 24.9735796,52.968656 24.9209,53.1121811 C24.8680593,53.2555211 24.7849318,53.3962683 24.6716787,53.5342377 C24.5584255,53.6723922 24.4137579,53.7846197 24.2379981,53.8707348 C24.061916,53.9568499 23.856836,54 23.622758,54 C23.4452261,54 23.2838041,53.9805547 23.138331,53.9420344 C22.993019,53.9033289 22.8610783,53.8429557 22.7423478,53.7612852 C22.6239394,53.6794296 22.5148749,53.5716468 22.4154763,53.4379369 C22.3265492,53.316635 22.2509934,53.1807028 22.1881645,53.0303255 C22.1253356,52.8799481 22.0782945,52.7193852 22.0470411,52.5488217 C22.0157878,52.3782583 22,52.1969536 22,52.005278 C22,51.6937821 22.0393083,51.4150655 22.1180861,51.1687578 C22.197025,50.9224501 22.3097949,50.7118848 22.4567179,50.5368767 C22.6036409,50.3618686 22.7756954,50.2285291 22.9732037,50.1370434 C23.1707121,50.0457429 23.3809473,50 23.6043927,50 C23.8766513,50 24.1192675,50.0624103 24.3320803,50.1872309 C24.544732,50.3122367 24.707765,50.4665031 24.8210182,50.6502153 C24.9341102,50.8341127 24.9906562,51.0078244 24.9906562,51.1713505 C24.9906562,51.2611695 24.9631082,51.3402472 24.9081731,51.4089541 C24.853077,51.4774758 24.7865428,51.5119218 24.7084094,51.5119218 C24.6210933,51.5119218 24.5556868,51.4880319 24.512351,51.4406223 C24.4685318,51.3930275 24.4198797,51.311357 24.3663946,51.1952405 C24.2777897,51.0033798 24.173236,50.8600398 24.0532166,50.7650354 C23.9330362,50.670031 23.7848244,50.6226214 23.6089034,50.6226214 C23.328912,50.6226214 23.10595,50.7448493 22.9398561,50.9893051 C22.7739233,51.233946 22.6907958,51.5813695 22.6907958,52.0315755 C22.6907958,52.3323302 22.7276877,52.5827122 22.8011492,52.7821658 C22.8746107,52.9819899 22.97852,53.1310709 23.1131994,53.229594 C23.2477178,53.328117 23.4054344,53.3773786 23.5860273,53.3773786 C23.7817635,53.3773786 23.9475352,53.3214501 24.0830201,53.2097782 C24.2183439,53.0981064 24.3204812,52.9340247 24.3894319,52.7177184 C24.4184298,52.6156767 24.4543551,52.5325247 24.4973687,52.4684476 C24.5402212,52.4040002 24.6088497,52.3719617 24.7038986,52.3719617 C24.7849318,52.3719617 24.8545269,52.4045558 24.9126839,52.4695588 C24.9708409,52.534747 25,52.6156767 25,52.7123478" id="Fill-132" fill="#000000"></path>
                    <path d="M27.7213981,50.4748368 L27.7213981,51.5830363 L29.2786019,51.5830363 L29.2786019,50.4748368 C29.2786019,50.3164961 29.3113384,50.1977869 29.3769821,50.1187092 C29.4426257,50.0394463 29.5289003,50 29.6358056,50 C29.744075,50 29.8320546,50.0390759 29.8992327,50.1172276 C29.9665814,50.1955646 30,50.3148294 30,50.4748368 L30,53.5223853 C30,53.6825779 29.9660699,53.8022131 29.8982097,53.8812908 C29.8300085,53.9603685 29.7425405,54 29.6358056,54 C29.5271952,54 29.4405797,53.9599981 29.3757886,53.8799944 C29.3109974,53.7999907 29.2786019,53.680726 29.2786019,53.5223853 L29.2786019,52.2215843 L27.7213981,52.2215843 L27.7213981,53.5223853 C27.7213981,53.6825779 27.687468,53.8022131 27.6192668,53.8812908 C27.5514066,53.9603685 27.4639386,54 27.3570332,54 C27.2485934,54 27.1618073,53.9599981 27.0971867,53.8799944 C27.0322251,53.7999907 27,53.680726 27,53.5223853 L27,50.4748368 C27,50.3164961 27.0318841,50.1977869 27.0958227,50.1187092 C27.1599318,50.0394463 27.2468883,50 27.3570332,50 C27.4654731,50 27.5534527,50.0390759 27.6206309,50.1172276 C27.687809,50.1955646 27.7213981,50.3148294 27.7213981,50.4748368" id="Fill-134" fill="#000000"></path>
                    <path d="M34.1616813,51.9894444 C34.1616813,51.7062963 34.1131965,51.4609259 34.0168133,51.2533333 C33.9202346,51.0457407 33.7824047,50.8888889 33.6033236,50.7822222 C33.4240469,50.6759259 33.2181818,50.6227778 32.9861193,50.6227778 C32.8209189,50.6227778 32.6680352,50.6522222 32.5280547,50.7111111 C32.3876833,50.77 32.2670577,50.8557407 32.1657869,50.9683333 C32.0645161,51.0809259 31.9847507,51.2248148 31.9262952,51.3996296 C31.8678397,51.5748148 31.8385142,51.7714815 31.8385142,51.9894444 C31.8385142,52.2092593 31.8678397,52.4081481 31.9262952,52.5857407 C31.9847507,52.7635185 32.0674487,52.9107407 32.1741935,53.0277778 C32.2809384,53.1446296 32.4035191,53.2322222 32.54174,53.2901852 C32.6801564,53.3483333 32.8318671,53.3774074 32.997263,53.3774074 C33.2089932,53.3774074 33.4035191,53.3272222 33.5808407,53.2268519 C33.7583578,53.1266667 33.8993157,52.9718519 34.0043011,52.7625926 C34.1090909,52.5531481 34.1616813,52.2955556 34.1616813,51.9894444 M32.9861193,50 C33.4093842,50 33.7730205,50.0814815 34.0766373,50.2440741 C34.3802542,50.4068519 34.6101662,50.6381481 34.7661779,50.9381481 C34.9221896,51.237963 35,51.5901852 35,51.9946296 C35,52.2938889 34.9571848,52.5655556 34.8719453,52.81 C34.7865103,53.0544444 34.65826,53.2664815 34.4875855,53.4459259 C34.3167155,53.6251852 34.1069404,53.7625926 33.857869,53.8574074 C33.6091887,53.9525926 33.3241447,54 33.002737,54 C32.6832845,54 32.3974585,53.9512963 32.1450635,53.8535185 C31.8924731,53.7559259 31.6815249,53.6183333 31.51261,53.4405556 C31.343695,53.262963 31.2160313,53.0492593 31.1296188,52.7994444 C31.0432063,52.5498148 31,52.2796296 31,51.9894444 C31,51.6922222 31.0451613,51.4194444 31.1352884,51.1714815 C31.2252199,50.9235185 31.3556207,50.7124074 31.5264907,50.5383333 C31.6973607,50.3640741 31.9053763,50.2309259 32.1505376,50.1385185 C32.3956989,50.0462963 32.6742913,50 32.9861193,50" id="Fill-136" fill="#000000"></path>
                    <path d="M37.9364489,50.4696514 L39.3326278,52.7493865 L39.3326278,50.4485393 C39.3326278,50.2990879 39.3623155,50.1868605 39.4218625,50.1120422 C39.4812378,50.0374091 39.561549,50 39.6626244,50 C39.7669603,50 39.8491591,50.0374091 39.9095641,50.1120422 C39.9699691,50.1868605 40,50.2990879 40,50.4485393 L40,53.4907172 C40,53.8303625 39.8695801,54 39.6087404,54 C39.5435305,54 39.4848416,53.9899995 39.4328452,53.9696282 C39.3805057,53.9496273 39.3317698,53.9174036 39.2861229,53.8733275 C39.2404759,53.8296217 39.1980895,53.7779527 39.1589635,53.7190611 C39.1198375,53.6601695 39.0807116,53.5999815 39.0415856,53.538312 L37.6797277,51.2848743 L37.6797277,53.5514607 C37.6797277,53.6992453 37.6478092,53.8109172 37.5843153,53.8866614 C37.5208214,53.9622205 37.439309,54 37.3397781,54 C37.2371582,54 37.1547878,53.9618501 37.09301,53.8851799 C37.0310605,53.80888 37,53.6975786 37,53.5514607 L37,50.5672485 C37,50.440576 37.013042,50.3413121 37.039126,50.2690865 C37.0700149,50.1900088 37.1213248,50.1253762 37.1932273,50.0751887 C37.2649582,50.0250012 37.3423521,50 37.425409,50 C37.4906189,50 37.5465622,50.011482 37.5928955,50.0342608 C37.6394005,50.0570397 37.6800709,50.087967 37.71525,50.1264873 C37.7502574,50.165378 37.7861229,50.2153803 37.8228464,50.2770499 C37.8593982,50.3385342 37.897323,50.4027964 37.9364489,50.4696514" id="Fill-138" fill="#000000"></path>
                    <path d="M43.5645612,50.6248564 L41.7885225,50.6248564 L41.7885225,51.6070471 L43.4238867,51.6070471 C43.5442519,51.6070471 43.63406,51.6348142 43.693311,51.690157 C43.7527483,51.7458828 43.7821874,51.8190349 43.7821874,51.9099962 C43.7821874,52.0009575 43.7531209,52.075067 43.6946152,52.1323248 C43.6362959,52.1895825 43.5459288,52.2183072 43.4238867,52.2183072 L41.7885225,52.2183072 L41.7885225,53.3559939 L43.6256754,53.3559939 C43.7493944,53.3559939 43.842929,53.385676 43.9057201,53.4448487 C43.9685113,53.50383 44,53.5825354 44,53.6807736 C44,53.7753734 43.9685113,53.8521639 43.9057201,53.9113367 C43.842929,53.9703179 43.7493944,54 43.6256754,54 L41.483324,54 C41.3115334,54 41.1881871,53.9609345 41.1130986,53.882612 C41.0376374,53.804481 41,53.6779012 41,53.503447 L41,50.4967445 C41,50.3803141 41.0167691,50.2853313 41.0504938,50.2114133 C41.084032,50.1378782 41.1367617,50.0842589 41.2084964,50.0505553 C41.2800447,50.0168518 41.371716,50 41.483324,50 L43.5645612,50 C43.6901435,50 43.783678,50.0287246 43.8446059,50.0859824 C43.9057201,50.1434316 43.9362772,50.2183072 43.9362772,50.3111835 C43.9362772,50.4057832 43.9057201,50.4816162 43.8446059,50.538874 C43.783678,50.5963232 43.6901435,50.6248564 43.5645612,50.6248564" id="Fill-140" fill="#000000"></path>
                    <path d="M47.6339774,50.657315 L46.8539402,50.657315 L46.8539402,53.5144041 C46.8539402,53.6789682 46.820988,53.8009791 46.7552526,53.8806251 C46.6893483,53.9602711 46.6041796,54 46.4999155,54 C46.3939616,54 46.307779,53.9597063 46.2411987,53.8793071 C46.1744494,53.7989079 46.1411592,53.6772736 46.1411592,53.5144041 L46.1411592,50.657315 L45.3611221,50.657315 C45.2391145,50.657315 45.1483693,50.6273771 45.0890554,50.5673131 C45.0297415,50.5076257 45,50.4285445 45,50.3300697 C45,50.2280173 45.0309244,50.1476182 45.0927731,50.0884956 C45.1544528,50.0295613 45.2438461,50 45.3611221,50 L47.6339774,50 C47.7575058,50 47.8494339,50.0305027 47.9097617,50.0913199 C47.9697516,50.1521371 48,50.2317831 48,50.3300697 C48,50.4285445 47.9694136,50.5076257 47.9084098,50.5673131 C47.8474061,50.6273771 47.7559849,50.657315 47.6339774,50.657315" id="Fill-142" fill="#000000"></path>
                    <path d="M51.5647205,50.6248564 L49.7885714,50.6248564 L49.7885714,51.6070471 L51.4238509,51.6070471 C51.5444099,51.6070471 51.6340373,51.6348142 51.6932919,51.690157 C51.7527329,51.7458828 51.7823602,51.8190349 51.7823602,51.9099962 C51.7823602,52.0009575 51.7531056,52.075067 51.6945963,52.1323248 C51.6362733,52.1895825 51.5459006,52.2183072 51.4238509,52.2183072 L49.7885714,52.2183072 L49.7885714,53.3559939 L51.6256522,53.3559939 C51.7495652,53.3559939 51.8429193,53.385676 51.9059006,53.4448487 C51.9686957,53.50383 52,53.5825354 52,53.6807736 C52,53.7753734 51.9686957,53.8521639 51.9059006,53.9113367 C51.8429193,53.9703179 51.7495652,54 51.6256522,54 L49.4831677,54 C49.3115528,54 49.1880124,53.9609345 49.1129193,53.882612 C49.0374534,53.804481 49,53.6779012 49,53.503447 L49,50.4967445 C49,50.3803141 49.0167702,50.2853313 49.0504969,50.2114133 C49.0840373,50.1378782 49.1367702,50.0842589 49.208323,50.0505553 C49.2800621,50.0168518 49.3715528,50 49.4831677,50 L51.5647205,50 C51.6903106,50 51.7836646,50.0287246 51.8447826,50.0859824 C51.9059006,50.1434316 51.9362733,50.2183072 51.9362733,50.3111835 C51.9362733,50.4057832 51.9059006,50.4816162 51.8447826,50.538874 C51.7836646,50.5963232 51.6903106,50.6248564 51.5647205,50.6248564" id="Fill-144" fill="#000000"></path>
                </g>
            </g>
        </g>
    </g>
</svg>