<?xml version="1.0" encoding="UTF-8"?>
<svg width="100px" height="100px" viewBox="0 0 100 100" version="1.1" xmlns="http://www.w3.org/2000/svg" xmlns:xlink="http://www.w3.org/1999/xlink">
    <title>levain</title>
    <defs>
        <polygon id="path-1" points="0.0676966951 0.18123 21.5426661 0.18123 21.5426661 3.6889841 0.0676966951 3.6889841"></polygon>
    </defs>
    <g id="Logos" stroke="none" stroke-width="1" fill="none" fill-rule="evenodd">
        <g transform="translate(-300.000000, -300.000000)" id="levain">
            <g transform="translate(300.000000, 300.000000)">
                <rect id="Area" fill="#FCE059" x="0" y="0" width="100" height="100"></rect>
                <g id="Group-188" transform="translate(15.000000, 15.000000)">
                    <path d="M67.310145,35.813379 C67.293135,18.390309 53.260935,4.265079 35.942655,4.075869 C18.342345,3.883299 4.053315,18.027009 3.862425,35.435379 C3.668595,53.116959 17.965185,67.499019 35.565075,67.5200422 C53.043375,67.541019 67.300065,53.292309 67.310145,35.813379 M68.2904637,35.801619 C68.314365,53.868759 53.509995,68.630079 35.354865,68.507649 C17.406165,68.387109 2.794575,53.681859 2.87009133,35.652729 C2.945775,17.664339 17.672865,2.997729 35.742945,3.08282733 C53.683455,3.167619 68.317935,17.819529 68.2904637,35.801619" id="Fill-1" fill="#000000"></path>
                    <g id="Group-5" transform="translate(24.780000, 0.028770)">
                        <mask id="mask-2" fill="white">
                            <use xlink:href="#path-1"></use>
                        </mask>
                        <g id="Clip-4"></g>
                        <path d="M7.714665,1.882734 C7.453425,1.721874 7.207095,1.684074 6.966225,1.633464 C6.832665,1.605324 6.696795,1.587474 6.562185,1.565424 C6.503595,1.555974 6.442905,1.538754 6.438285,1.471764 C6.433665,1.406874 6.488265,1.376004 6.544125,1.355424 C7.153545,1.131144 7.763595,1.075074 8.369655,1.362144 C8.564745,1.454334 8.752695,1.562904 8.941275,1.668534 C9.136575,1.777944 9.339435,1.829814 9.593325,1.776054 C9.486225,1.328334 9.778755,1.096074 10.088295,0.872004 C10.343655,0.686994 10.630935,0.536634 10.794525,0.181104 C11.002845,0.575484 11.359635,0.740544 11.656575,0.976584 C11.907525,1.176294 12.118785,1.394274 11.992155,1.756104 C12.295605,1.861524 12.530595,1.749384 12.758235,1.616664 C13.074075,1.432284 13.391805,1.258404 13.759725,1.196454 C14.200095,1.122324 14.620515,1.200444 15.034005,1.344714 C15.097845,1.367184 15.174495,1.391124 15.162315,1.477434 C15.149715,1.564374 15.066555,1.558284 15.001035,1.571094 C14.766465,1.616454 14.530005,1.654464 14.298585,1.712424 C14.171955,1.744554 14.029155,1.758624 13.918695,1.888824 C14.361165,2.006214 14.782845,2.003694 15.205575,1.888824 C15.403185,1.835064 15.600375,1.777944 15.800085,1.733004 C16.248855,1.632414 16.657725,1.696464 17.006115,2.026164 C17.302845,2.306724 17.657535,2.468634 18.059265,2.554734 C19.139085,2.786574 20.206095,3.070284 21.253785,3.420984 C21.360255,3.456684 21.598395,3.427704 21.530775,3.622374 C21.480165,3.768324 21.306075,3.633924 21.200445,3.599904 C20.148345,3.262014 19.083015,2.974524 18.003195,2.741634 C17.591175,2.652804 17.218215,2.495514 16.915185,2.205714 C16.582965,1.888194 16.206645,1.822884 15.779085,1.938174 C15.559215,1.997394 15.337245,2.047794 15.117795,2.107644 C14.594475,2.250864 14.075565,2.103444 13.555185,2.085804 C13.384665,2.079924 13.214565,2.057034 13.044675,2.040444 C12.985455,2.034564 12.925815,2.014194 12.927495,1.944684 C12.929385,1.876854 12.987975,1.851234 13.047825,1.851444 C13.541955,1.853964 13.956285,1.581384 14.413245,1.457694 C14.417445,1.456644 14.417025,1.439004 14.422695,1.406244 C14.108115,1.310484 13.804245,1.368864 13.502265,1.464834 C13.272105,1.537914 13.060635,1.653624 12.863445,1.787184 C12.526185,2.015874 12.155115,2.007684 11.777535,1.978914 C11.651115,1.969464 11.624865,1.908354 11.689335,1.796004 C11.875605,1.471344 11.868885,1.406454 11.586015,1.175874 C11.365305,0.996114 11.130105,0.834834 10.903515,0.662634 C10.843455,0.617274 10.791375,0.592914 10.722285,0.646464 C10.470285,0.841344 10.206525,1.022574 9.965235,1.230054 C9.728145,1.433544 9.730665,1.503264 9.896985,1.776474 C9.990225,1.929774 9.973215,1.960014 9.786315,1.981644 C9.377865,2.028684 8.999235,1.967784 8.646435,1.732794 C8.259825,1.475334 7.832895,1.324134 7.356825,1.366134 C7.293615,1.371594 7.217175,1.353324 7.167405,1.479324 C7.642215,1.548414 8.039955,1.854594 8.533035,1.850604 C8.602125,1.849974 8.677095,1.861734 8.671635,1.957074 C8.668695,2.007474 8.625435,2.035194 8.576715,2.036874 C7.874685,2.062284 7.177695,2.263884 6.470415,2.103444 C6.248655,2.053254 6.029835,1.989834 5.809125,1.933344 C5.394585,1.827084 5.026035,1.887774 4.703055,2.196264 C4.391415,2.494254 4.008585,2.655114 3.584805,2.746254 C2.504985,2.978724 1.439655,3.267264 0.387555,3.605154 C0.288855,3.637074 0.128205,3.774204 0.073605,3.597804 C0.031605,3.462144 0.223965,3.458784 0.320775,3.427074 C1.392405,3.075954 2.480205,2.783214 3.582285,2.546124 C3.948525,2.467584 4.281585,2.326464 4.549125,2.068164 C4.944765,1.685964 5.398155,1.616244 5.907195,1.759464 C6.038655,1.796634 6.174105,1.819734 6.304305,1.860264 C6.749925,1.997814 7.197855,2.015244 7.714665,1.882734" id="Fill-3" fill="#000000" mask="url(#mask-2)"></path>
                    </g>
                    <path d="M1.703205,38.867619 C1.536885,39.154269 1.498875,39.401859 1.447635,39.644199 C1.419495,39.777969 1.402905,39.913839 1.378545,40.048239 C1.370565,40.091919 1.361115,40.140429 1.306095,40.152399 C1.237215,40.167309 1.201305,40.126569 1.178835,40.070289 C1.067955,39.792879 1.004745,39.504549 0.987105,39.207189 C0.964215,38.822679 1.049895,38.460639 1.228395,38.120439 C1.318485,37.949289 1.418865,37.783599 1.508535,37.612029 C1.605765,37.426389 1.651545,37.231509 1.579935,36.986859 C1.188075,37.119159 0.966105,36.875769 0.759675,36.604659 C0.683655,36.505119 0.611835,36.402429 0.540855,36.299109 C0.407295,36.104229 0.259875,35.922999 0.000105,35.794059 C0.353745,35.622489 0.505785,35.324499 0.701505,35.064729 C0.770175,34.973799 0.841995,34.885179 0.918435,34.801179 C1.091685,34.610079 1.297065,34.509279 1.569645,34.604619 C1.657845,34.386849 1.615005,34.193229 1.520925,34.007589 C1.423065,33.814809 1.310925,33.629379 1.212015,33.437019 C0.899535,32.828439 0.935865,32.207259 1.153425,31.581249 C1.160985,31.559829 1.170225,31.539039 1.179675,31.518249 C1.204455,31.463859 1.235955,31.418289 1.306515,31.435719 C1.360905,31.449159 1.370985,31.497249 1.378125,31.540929 C1.423485,31.821909 1.464225,32.104149 1.550115,32.376309 C1.580145,32.470809 1.587915,32.579379 1.675905,32.649099 C1.793295,32.366229 1.832355,32.038209 1.766835,31.710609 C1.710975,31.431939 1.642095,31.155369 1.569645,30.880269 C1.439025,30.382569 1.502445,29.938209 1.875405,29.552439 C2.134125,29.284899 2.279865,28.954569 2.359245,28.588329 C2.595915,27.497589 2.881095,26.419659 3.228225,25.358529 C3.256365,25.272219 3.285135,25.185489 3.323355,25.103379 C3.342465,25.062009 3.386985,25.037439 3.437595,25.059699 C3.486525,25.081329 3.499125,25.125219 3.487155,25.172049 C3.467835,25.249329 3.444735,25.325769 3.419745,25.401369 C3.074085,26.450949 2.791005,27.517959 2.557905,28.597569 C2.468865,29.009799 2.310735,29.382759 2.021145,29.685159 C1.702575,30.017799 1.640205,30.394119 1.755705,30.821469 C1.814925,31.040919 1.864485,31.263309 1.924755,31.482759 C2.065455,31.994529 1.922025,32.502309 1.905435,33.011559 C1.899975,33.182079 1.876665,33.351969 1.859445,33.522069 C1.852935,33.589269 1.848735,33.669069 1.754025,33.664239 C1.685145,33.660669 1.666245,33.598299 1.667085,33.539079 C1.675065,33.043269 1.373925,32.639019 1.290135,32.172609 C1.166445,32.193189 1.188915,32.275509 1.183455,32.335989 C1.149225,32.710209 1.234485,33.060489 1.407105,33.390609 C1.475565,33.521649 1.543185,33.654579 1.625925,33.776799 C1.847685,34.104609 1.819545,34.470009 1.791825,34.833939 C1.781115,34.972959 1.700475,34.959309 1.601985,34.899459 C1.312185,34.723899 1.240785,34.725579 1.031625,34.972539 C0.832965,35.206479 0.658875,35.461209 0.470925,35.704389 C0.420945,35.769279 0.421155,35.821149 0.470505,35.885619 C0.657615,36.129429 0.831915,36.384159 1.029315,36.618939 C1.234485,36.863169 1.313655,36.863799 1.602405,36.692649 C1.733235,36.614949 1.779015,36.635949 1.796235,36.790299 C1.841175,37.196229 1.797495,37.579059 1.560195,37.933539 C1.295385,38.329389 1.138095,38.765559 1.181985,39.254439 C1.184925,39.288249 1.187025,39.323109 1.196055,39.355449 C1.201305,39.374769 1.219785,39.390099 1.232595,39.407109 C1.364895,39.209709 1.638945,38.434389 1.661625,38.190369 C1.666875,38.133879 1.665195,38.076549 1.670655,38.020059 C1.675065,37.972599 1.694175,37.929549 1.747515,37.922619 C1.820595,37.912959 1.847475,37.962519 1.853775,38.023209 C1.875195,38.238669 1.894095,38.454129 1.914255,38.669799 C1.934205,38.885049 1.949745,39.100929 1.975365,39.315759 C2.021145,39.697329 1.941765,40.063569 1.846635,40.428339 C1.794975,40.626369 1.735335,40.821879 1.709505,41.026419 C1.672965,41.314329 1.729245,41.577459 1.929165,41.788299 C2.320605,42.201159 2.504145,42.699909 2.618175,43.247799 C2.822295,44.228499 3.095085,45.192819 3.405465,46.145799 C3.433815,46.232319 3.464265,46.318209 3.486315,46.406409 C3.500805,46.463739 3.494715,46.525479 3.423735,46.543329 C3.354645,46.560549 3.322305,46.508889 3.301935,46.454499 C3.274005,46.379739 3.251325,46.303299 3.226545,46.227699 C2.882565,45.177489 2.599905,44.110689 2.365755,43.031289 C2.284065,42.653289 2.137695,42.312879 1.872255,42.035259 C1.512735,41.659359 1.436715,41.225919 1.563975,40.739349 C1.615845,40.541319 1.664985,40.342239 1.718115,40.144419 C1.827315,39.738699 1.807995,39.335079 1.703205,38.867619" id="Fill-6" fill="#000000"></path>
                    <path d="M32.473329,69.668088 C32.017629,69.564978 31.598049,69.559518 31.174269,69.675858 C30.911559,69.748098 30.650109,69.827058 30.376899,69.861078 C30.028299,69.904338 29.711619,69.835248 29.457099,69.594168 C29.068599,69.226668 28.600719,69.057198 28.088109,68.949888 C27.085149,68.740308 26.098779,68.463528 25.125849,68.140968 C25.020009,68.105898 24.812319,68.109048 24.856629,67.957638 C24.907239,67.786278 25.073349,67.926138 25.172679,67.957848 C26.246829,68.301618 27.333789,68.595618 28.436499,68.830818 C28.823739,68.913348 29.175699,69.073578 29.460669,69.347628 C29.800659,69.674598 30.185799,69.746208 30.626799,69.621888 C30.856749,69.557208 31.090479,69.505968 31.321059,69.443598 C31.753029,69.326838 32.182059,69.437508 32.612139,69.457248 C32.828019,69.467328 33.043269,69.491898 33.258729,69.511428 C33.335799,69.518358 33.443949,69.506178 33.451719,69.606558 C33.460119,69.719118 33.350919,69.705888 33.274479,69.708408 C32.797569,69.725418 32.408229,70.013328 31.957989,70.124628 C32.295879,70.236138 32.618859,70.196658 32.939319,70.078428 C33.154569,69.999048 33.355539,69.889638 33.544119,69.763638 C33.871929,69.544608 34.233549,69.553848 34.598529,69.580308 C34.744059,69.591018 34.761279,69.649188 34.678959,69.784428 C34.512639,70.057848 34.509909,70.134498 34.741959,70.332318 C34.983879,70.538748 35.247219,70.720608 35.500899,70.913598 C35.550879,70.951398 35.601489,70.963578 35.655039,70.922628 C35.917329,70.722078 36.189069,70.532448 36.438759,70.317408 C36.653799,70.131978 36.650439,70.044198 36.494829,69.792828 C36.402219,69.642888 36.420909,69.594168 36.588489,69.577368 C36.994629,69.536628 37.376829,69.586818 37.729839,69.823908 C38.125899,70.090188 38.564169,70.241388 39.052419,70.191828 C39.103029,70.186578 39.166239,70.205478 39.199209,70.141848 C38.958549,69.996108 38.205489,69.739698 37.932489,69.710298 C37.876209,69.704418 37.817619,69.707148 37.764069,69.691608 C37.739709,69.684678 37.714089,69.645408 37.709469,69.617268 C37.704009,69.586818 37.718919,69.547968 37.758609,69.539358 C37.813839,69.527178 37.869279,69.516048 37.925349,69.511008 C38.367399,69.469848 38.809659,69.429108 39.251919,69.390468 C39.493629,69.369258 39.728619,69.420918 39.962139,69.470478 C40.140219,69.507858 40.316829,69.554688 40.490919,69.607398 C40.952499,69.747258 41.359479,69.688458 41.719419,69.336498 C41.993469,69.068538 42.338289,68.913978 42.713559,68.833968 C43.827609,68.596878 44.925279,68.299308 46.010559,67.953018 C46.107369,67.922148 46.270119,67.779138 46.322829,67.965198 C46.359369,68.093928 46.171419,68.099808 46.071039,68.132988 C45.010959,68.482848 43.933659,68.771808 42.842919,69.006798 C42.453369,69.090588 42.101829,69.237798 41.815389,69.512268 C41.449569,69.863178 41.024739,69.937098 40.550559,69.823488 C40.351269,69.775818 40.153029,69.723318 39.956049,69.667038 C39.543399,69.549858 39.132639,69.575058 38.676939,69.666618 C38.881059,69.837348 39.100929,69.853518 39.302739,69.905388 C39.467589,69.947808 39.638949,69.964188 39.807369,69.991488 C39.864699,70.000728 39.928119,70.010598 39.941559,70.075278 C39.959619,70.162848 39.886539,70.192668 39.823119,70.215138 C39.212019,70.432698 38.600919,70.483938 37.997379,70.192248 C37.802709,70.098378 37.616439,69.987288 37.426389,69.884178 C37.230879,69.778548 37.028229,69.721848 36.778119,69.797658 C36.901179,70.187418 36.664299,70.412958 36.392139,70.618968 C36.274329,70.708218 36.151899,70.792008 36.031149,70.877898 C35.857059,71.001798 35.690529,71.133258 35.601069,71.428728 C35.413959,71.023428 35.113239,70.874748 34.854099,70.678608 C34.790679,70.630518 34.726419,70.583058 34.665099,70.532238 C34.433469,70.340508 34.277859,70.116858 34.391889,69.799338 C34.154589,69.724158 33.959709,69.771618 33.773229,69.869898 C33.602079,69.960198 33.435129,70.058058 33.264189,70.148568 C32.648049,70.473858 32.015949,70.446978 31.376289,70.230048 C31.344159,70.219128 31.314339,70.201488 31.283469,70.187208 C31.237269,70.165368 31.210179,70.125258 31.220469,70.078848 C31.230549,70.033068 31.272339,70.007868 31.320639,69.998628 C31.577469,69.949698 31.836399,69.908328 32.090499,69.847218 C32.215239,69.817188 32.357409,69.802278 32.473329,69.668088" id="Fill-8" fill="#000000"></path>
                    <path d="M69.587133,36.986019 C69.511953,37.221639 69.555003,37.416519 69.653283,37.602999 C69.738333,37.763859 69.830313,37.921359 69.918093,38.081169 C70.260393,38.704239 70.239393,39.346419 70.018053,39.998889 C70.007133,40.031019 69.990123,40.061259 69.976053,40.092339 C69.954843,40.138959 69.914523,40.164369 69.867903,40.156599 C69.820233,40.148829 69.794613,40.107459 69.786633,40.058949 C69.758493,39.890529 69.737283,39.720639 69.700743,39.554109 C69.653073,39.337389 69.613593,39.115629 69.465123,38.874129 C69.352773,39.356079 69.345843,39.774609 69.461973,40.198179 C69.534423,40.460889 69.612753,40.722549 69.648033,40.995549 C69.693393,41.343939 69.625983,41.661669 69.385743,41.916609 C69.019503,42.305739 68.845623,42.771519 68.738523,43.284759 C68.526843,44.299269 68.245233,45.296559 67.919523,46.280829 C67.885713,46.382259 67.898313,46.589529 67.722753,46.523589 C67.584363,46.471299 67.709943,46.317159 67.739973,46.222659 C68.087313,45.137589 68.384253,44.039499 68.621553,42.925029 C68.701563,42.549759 68.857173,42.205779 69.124503,41.931099 C69.463863,41.582079 69.534003,41.187909 69.403383,40.735149 C69.337233,40.505619 69.288933,40.271049 69.228033,40.039839 C69.114423,39.607449 69.227403,39.178629 69.246723,38.748759 C69.257433,38.509989 69.285153,38.271849 69.307413,38.033709 C69.312873,37.974699 69.336183,37.917789 69.407163,37.920939 C69.480243,37.924509 69.493263,37.986669 69.493473,38.044419 C69.494523,38.526789 69.770673,38.930619 69.875463,39.383169 C69.878403,39.395769 69.911583,39.401229 69.951693,39.419499 C70.020783,39.072999 69.984453,38.746449 69.859503,38.424729 C69.788943,38.243079 69.701373,38.070039 69.593433,37.909599 C69.378813,37.590189 69.325893,37.239909 69.360963,36.865689 C69.383643,36.621249 69.406323,36.605499 69.608973,36.731709 C69.809943,36.857079 69.891003,36.856239 70.060473,36.697899 C70.320453,36.454719 70.477113,36.128799 70.711473,35.864199 C70.755993,35.814219 70.736673,35.760459 70.698663,35.710479 C70.512813,35.465619 70.337673,35.211729 70.140273,34.976739 C69.928593,34.724319 69.852993,34.722849 69.568863,34.894209 C69.425223,34.980729 69.383013,34.956579 69.363693,34.773039 C69.320223,34.364379 69.384483,33.985959 69.620523,33.633999 C69.886803,33.236889 70.030443,32.796519 69.978783,32.308689 C69.974373,32.264799 69.964083,32.221539 69.956523,32.178489 C69.845433,32.172609 69.856983,32.257449 69.836193,32.317089 C69.753243,32.553129 69.668193,32.788539 69.587133,33.025209 C69.527913,33.198459 69.491373,33.376119 69.490953,33.560499 C69.490953,33.605019 69.477303,33.653109 69.421233,33.662769 C69.347523,33.675159 69.312663,33.625389 69.310983,33.567219 C69.286203,32.787699 69.048063,32.008809 69.301953,31.228029 C69.337233,31.119879 69.356343,31.006689 69.390993,30.898539 C69.543033,30.423519 69.468693,30.009819 69.109383,29.641059 C68.841843,29.367009 68.696733,29.017779 68.616513,28.642509 C68.381313,27.539379 68.086893,26.452209 67.743333,25.378059 C67.712043,25.280829 67.569033,25.120389 67.751943,25.065579 C67.888653,25.024839 67.889283,25.214469 67.921623,25.312749 C68.274213,26.384169 68.566323,27.472389 68.802573,28.574889 C68.880903,28.940919 69.023493,29.273559 69.281793,29.541519 C69.663153,29.936949 69.734553,30.390759 69.591543,30.900429 C69.545763,31.064649 69.510483,31.232229 69.461973,31.395819 C69.338703,31.810989 69.360123,32.226999 69.442863,32.648049 C69.556893,32.651199 69.553743,32.556489 69.577893,32.489709 C69.683103,32.198859 69.733713,31.895829 69.777183,31.591329 C69.786843,31.523709 69.791673,31.443699 69.875463,31.434039 C69.961353,31.423749 69.986763,31.504389 70.008393,31.566129 C70.231413,32.203479 70.265643,32.836209 69.947073,33.455499 C69.858453,33.627489 69.757443,33.792969 69.665463,33.963279 C69.559623,34.159419 69.507333,34.363959 69.586923,34.602519 C69.929643,34.487229 70.147413,34.672869 70.349643,34.910589 C70.576653,35.177289 70.711263,35.521479 71.028993,35.712999 C71.102703,35.757099 71.098083,35.840889 71.028993,35.881209 C70.728483,36.056979 70.597653,36.374499 70.391013,36.627969 C70.182063,36.884379 69.965343,37.114959 69.587133,36.986019" id="Fill-10" fill="#000000"></path>
                    <path d="M66.420942,35.802522 C66.395112,18.859302 52.745322,5.131182 35.897442,4.965282 C18.803862,4.796862 4.919292,18.543042 4.752342,35.481222 C4.582872,52.653132 18.471012,66.624222 35.575722,66.6275827 C52.584252,66.631152 66.388182,52.831842 66.420942,35.802522 M66.612882,35.822472 C66.610992,52.941462 52.666992,66.853962 35.487102,66.8189582 C18.486552,66.784032 4.544442,52.979472 4.55745289,35.768502 C4.570692,18.638172 18.446442,4.772082 35.575722,4.769982 C52.814832,4.767672 66.613512,18.768162 66.612882,35.822472" id="Fill-12" fill="#000000"></path>
                    <path d="M18.805689,39.450453 C18.307989,39.203283 17.861949,39.082323 17.399529,39.017223 C17.299359,39.003363 17.193519,39.005673 17.093769,39.022053 C16.981839,39.040743 16.862139,39.077073 16.836939,39.211053 C16.811109,39.349233 16.919259,39.411183 17.015439,39.473343 C17.043789,39.491823 17.075079,39.507783 17.106999,39.518493 C17.655099,39.702453 18.196899,39.699723 18.805689,39.450453 M20.808039,39.121593 C20.850669,39.166323 20.863059,39.189633 20.881539,39.197193 C22.137759,39.703503 23.371929,40.265673 24.660069,40.691343 C25.005939,40.805583 25.357689,40.901343 25.718049,40.960143 C26.047119,41.013903 26.376189,41.024613 26.698329,40.919193 C26.991069,40.823433 27.221439,40.650393 27.368439,40.372353 C27.490239,40.141563 27.692259,40.116153 27.871179,40.304103 C27.971559,40.409523 28.001379,40.542033 28.006839,40.681263 C28.024899,41.124363 27.833169,41.476323 27.514809,41.763393 C27.113919,42.124173 26.622729,42.254373 26.098359,42.274533 C25.369659,42.302883 24.674979,42.129633 23.992689,41.896113 C23.160669,41.610933 22.374429,41.222643 21.593229,40.824273 C21.106239,40.576053 20.618619,40.328883 20.139189,40.067013 C19.953339,39.965373 19.804449,39.948993 19.603059,40.050633 C18.845589,40.433043 18.040659,40.520823 17.209059,40.363743 C16.961469,40.316913 16.725429,40.232283 16.515429,40.088433 C16.183629,39.861633 15.969009,39.566163 16.021509,39.143643 C16.073799,38.721753 16.356039,38.482983 16.728999,38.343543 C17.114139,38.199693 17.515029,38.230143 17.911509,38.287263 C18.431469,38.362233 18.933789,38.510913 19.432119,38.673243 C19.692939,38.758083 19.696929,38.758083 19.848759,38.538003 C20.227599,37.988853 20.473089,37.376913 20.676159,36.746073 C21.050169,35.583513 21.268779,34.384833 21.495579,33.188253 C21.747579,31.857693 21.963039,30.518733 22.378419,29.224713 C22.556289,28.669893 22.771959,28.131243 23.108169,27.650133 C23.395449,27.239163 23.750559,26.913243 24.244689,26.764983 C24.489339,26.691693 24.738609,26.673003 24.988929,26.701773 C25.396959,26.748393 25.692849,26.946213 25.816749,27.357183 C25.835859,27.421023 25.860639,27.483393 25.883109,27.547653 C25.999449,27.508173 26.038929,27.403383 26.111799,27.334083 C26.273709,27.180153 26.457459,27.073053 26.681739,27.050163 C26.931219,27.024963 27.139959,27.138363 27.246849,27.350673 C27.352269,27.559833 27.301449,27.723633 27.149619,27.905493 C26.630919,28.526673 26.375559,29.264193 26.270979,30.057573 C26.241369,30.283323 26.233809,30.511593 26.212599,30.738393 C26.193489,30.941463 26.115579,31.022733 25.922169,31.051503 C25.573779,31.103163 25.309599,30.888753 25.309599,30.544353 C25.309179,29.766933 25.376589,28.997703 25.606329,28.249263 C25.686129,27.989073 25.601919,27.844593 25.332069,27.792303 C25.032189,27.734343 24.768849,27.808053 24.550659,28.030233 C24.338979,28.246113 24.200799,28.506723 24.084879,28.780143 C23.866059,29.296113 23.718849,29.834553 23.605239,30.380973 C23.347779,31.617663 23.107959,32.858133 22.847559,34.094193 C22.737309,34.617303 22.605429,35.136633 22.461579,35.651553 C22.113819,36.898533 21.658329,38.097213 20.808039,39.121593" id="Fill-14" fill="#000000"></path>
                    <path d="M42.437451,32.306547 C42.009261,32.430027 41.748231,32.294367 41.586531,31.920567 C41.510091,31.743747 41.335161,31.662687 41.130831,31.686627 C40.956951,31.707207 40.805121,31.780707 40.663371,31.880457 C40.396881,32.067357 40.203471,32.319777 40.029591,32.588577 C39.718581,33.069057 39.491361,33.590067 39.305091,34.129347 C38.980221,35.069097 38.751531,36.029007 38.727591,37.029027 C38.722971,37.224537 38.749011,37.415637 38.806341,37.601697 C38.845611,37.729797 38.938851,37.755627 39.044901,37.685907 C39.129531,37.630467 39.205131,37.559067 39.277371,37.486827 C39.544701,37.220127 39.763521,36.914157 39.975621,36.604407 C40.806801,35.390817 41.520381,34.108347 42.192171,32.801937 C42.269031,32.652417 42.341481,32.500797 42.437451,32.306547 M42.653331,32.013387 C42.844851,31.811367 43.038051,31.634547 43.309161,31.583727 C43.707111,31.508967 44.009721,31.842867 43.889811,32.227167 C43.879731,32.259507 43.862091,32.289537 43.848861,32.321037 C43.362081,33.469947 43.040571,34.665687 42.846741,35.896077 C42.704571,36.798237 42.647031,37.706907 42.691341,38.620197 C42.702471,38.847837 42.725151,39.076317 42.812091,39.289467 C42.882651,39.462297 42.989541,39.482877 43.126881,39.360237 C43.231671,39.266997 43.290051,39.142887 43.337931,39.013527 C43.382241,38.894247 43.437681,38.783787 43.555701,38.718267 C43.674141,38.652747 43.794681,38.642247 43.913331,38.709027 C44.039751,38.780007 44.084271,38.905167 44.048991,39.032007 C43.915011,39.511857 43.711731,39.957057 43.277871,40.242237 C42.976521,40.440057 42.583821,40.389237 42.259371,40.135557 C41.999811,39.932487 41.843571,39.656967 41.724081,39.356667 C41.505891,38.809197 41.437851,38.232747 41.408031,37.651677 C41.384301,37.196607 41.388291,36.740697 41.442681,36.286467 C41.453181,36.197427 41.444361,36.106287 41.444361,36.011367 C41.326341,36.013467 41.305551,36.118467 41.260611,36.187347 C40.912431,36.722637 40.551651,37.248267 40.131861,37.730847 C39.899811,37.997967 39.648651,38.243667 39.360531,38.453037 C38.767701,38.882907 38.019891,38.639097 37.687041,38.118087 C37.492581,37.814007 37.389681,37.479267 37.357551,37.122897 C37.235541,35.773437 37.592541,34.527717 38.194401,33.339327 C38.494701,32.746077 38.873331,32.205957 39.361581,31.749417 C39.819591,31.320597 40.339131,31.010427 40.971441,30.908997 C41.764191,30.781737 42.359121,31.138737 42.606081,31.903347 C42.615741,31.932957 42.630441,31.960677 42.653331,32.013387" id="Fill-16" fill="#000000"></path>
                    <path d="M52.091928,32.223093 C51.849168,32.423013 51.672768,32.643513 51.502248,32.868843 C51.061248,33.452433 50.695638,34.083273 50.368668,34.735743 C49.822668,35.825223 49.307118,36.928143 48.976368,38.107503 C48.879558,38.452743 48.451578,38.535693 48.181518,38.265003 C48.047328,38.130813 47.992728,37.957353 47.956608,37.775913 C47.879748,37.392243 47.892768,37.004583 47.906418,36.617763 C47.950518,35.363643 48.062238,34.117293 48.372828,32.896563 C48.488118,32.443173 48.631758,31.999233 48.868848,31.591623 C48.984348,31.393173 49.118538,31.207743 49.322028,31.089933 C49.521948,30.974433 49.738248,30.938313 49.933128,31.081323 C50.128848,31.224963 50.158038,31.430973 50.090418,31.663233 C49.829178,32.559933 49.606578,33.466083 49.419678,34.381053 C49.397208,34.491933 49.368018,34.601343 49.386288,34.739523 C49.477848,34.681773 49.495068,34.591053 49.530978,34.517973 C49.851228,33.862143 50.198778,33.222063 50.626338,32.628603 C50.927058,32.210493 51.260118,31.821783 51.675708,31.512243 C52.020528,31.255833 52.398108,31.078593 52.839528,31.078593 C53.554788,31.078593 53.931738,31.576083 53.728458,32.261103 C53.361798,33.496113 53.065488,34.747083 52.907568,36.027033 C52.811178,36.807813 52.750488,37.591323 52.865568,38.377353 C52.883838,38.502513 52.910928,38.624313 52.963428,38.738343 C53.023698,38.868963 53.120088,38.895003 53.239788,38.810793 C53.314128,38.758293 53.382588,38.696343 53.460078,38.649513 C53.586708,38.572653 53.721738,38.559843 53.841018,38.660433 C53.963448,38.763753 53.966598,38.902143 53.900448,39.034443 C53.765838,39.303663 53.585658,39.537183 53.312238,39.680613 C52.999548,39.844203 52.618608,39.782673 52.331328,39.522693 C52.096758,39.310593 51.956688,39.037803 51.851268,38.745693 C51.579318,37.993473 51.534378,37.209543 51.550128,36.421623 C51.576798,35.072373 51.788268,33.747063 52.100748,32.436663 C52.113768,32.381433 52.133928,32.327253 52.091928,32.223093" id="Fill-18" fill="#000000"></path>
                    <path d="M27.311109,35.009478 C27.331059,35.019978 27.349749,35.035518 27.370749,35.039928 C27.403719,35.046438 27.438369,35.048118 27.472599,35.047698 C27.876639,35.043288 28.226289,34.885998 28.535619,34.641768 C29.208459,34.110678 29.647359,33.421038 29.877309,32.597418 C29.926449,32.420598 29.937579,32.237898 29.909019,32.056458 C29.879409,31.868298 29.798139,31.798368 29.612499,31.796478 C29.475369,31.795218 29.342649,31.824618 29.215599,31.881738 C28.962129,31.995978 28.749189,32.164818 28.567749,32.371248 C27.915069,33.114648 27.538119,33.995178 27.300609,34.943748 C27.295569,34.963278 27.307119,34.987428 27.311109,35.009478 M27.218079,35.264628 C27.064359,36.053808 26.993379,36.752268 27.188889,37.446318 C27.403089,38.207568 28.042329,38.454948 28.738899,38.065188 C29.106609,37.859388 29.378979,37.554048 29.591289,37.197468 C29.723169,36.976128 29.905239,36.873648 30.155979,36.896328 C30.425619,36.920898 30.551199,37.113888 30.425409,37.349298 C30.047199,38.056998 29.551809,38.661168 28.794129,38.987718 C27.579279,39.511668 26.225619,38.902038 25.806459,37.648338 C25.561389,36.915438 25.585959,36.168468 25.729599,35.420868 C25.960179,34.220088 26.463969,33.149928 27.290109,32.243568 C27.864879,31.613568 28.547169,31.158498 29.414679,31.039638 C29.527029,31.024098 29.641479,31.015278 29.754879,31.016958 C30.468459,31.026618 30.964269,31.462368 31.053099,32.170068 C31.237269,33.635658 30.120069,35.366898 28.655319,35.676648 C28.407309,35.729148 28.159299,35.740488 27.908769,35.726628 C27.626529,35.710878 27.420939,35.559468 27.218079,35.264628" id="Fill-20" fill="#000000"></path>
                    <path d="M37.949331,31.59492 C38.053281,32.45676 37.721271,32.70267 36.632001,32.61384 C36.578031,32.96874 36.531201,33.32721 36.468411,33.68253 C36.280881,34.74408 35.944671,35.75628 35.447391,36.71388 C35.151711,37.28319 34.803111,37.81554 34.332081,38.25843 C34.063701,38.51106 33.766131,38.7156 33.402201,38.81094 C32.795931,38.96949 32.195961,38.74332 31.853241,38.21853 C31.623081,37.86615 31.515561,37.46925 31.484481,37.05744 C31.365831,35.48643 31.697211,34.00131 32.370891,32.58633 C32.464131,32.39061 32.582361,32.20833 32.726211,32.04474 C32.808951,31.95024 32.896311,31.8591 33.011391,31.80324 C33.187581,31.71777 33.367131,31.71546 33.532191,31.8234 C33.704391,31.93596 33.753531,32.11404 33.716991,32.3043 C33.678351,32.50506 33.613461,32.70057 33.560751,32.8986 C33.284601,33.93306 33.027771,34.97214 32.870691,36.03222 C32.802441,36.49338 32.727891,36.95748 32.821131,37.42599 C32.832261,37.48164 32.835411,37.53939 32.850321,37.59399 C32.948811,37.95981 33.165321,38.04528 33.486621,37.84179 C33.671211,37.72482 33.821571,37.56879 33.960591,37.40121 C34.357071,36.92388 34.654431,36.38628 34.906011,35.82306 C35.388801,34.74156 35.689311,33.61533 35.741181,32.42673 C35.749791,32.23017 35.707161,32.08506 35.552181,31.94877 C35.213871,31.65057 34.970061,31.28244 34.822851,30.85131 C34.722471,30.55689 34.797441,30.31497 35.012481,30.10539 C35.402451,29.72508 35.832531,29.76792 36.132831,30.22215 C36.349971,30.5508 36.473031,30.92082 36.526581,31.30575 C36.561861,31.55943 36.693741,31.68102 36.918021,31.75914 C37.277961,31.88451 37.609971,31.83558 37.949331,31.59492" id="Fill-22" fill="#000000"></path>
                    <path d="M44.854719,36.849246 C44.892519,35.515746 45.016209,34.261836 45.358719,33.037536 C45.466449,32.653236 45.603579,32.279856 45.810849,31.936086 C45.935379,31.729446 46.080069,31.537296 46.297629,31.421586 C46.532619,31.296846 46.777689,31.267866 47.006799,31.431876 C47.202519,31.571946 47.241789,31.810296 47.134059,32.112906 C46.621449,33.551826 46.222239,35.019516 46.001949,36.533196 C45.926559,37.051896 45.886029,37.572906 45.874479,38.096856 C45.866499,38.467716 45.759399,38.625426 45.506979,38.656926 C45.247629,38.689686 45.055689,38.538696 44.955099,38.205846 C44.813979,37.739436 44.865429,37.257906 44.854719,36.849246" id="Fill-24" fill="#000000"></path>
                    <path d="M42.532203,60.291714 C42.609273,60.534684 42.667863,60.716334 42.724773,60.898824 C42.979293,61.713204 43.235493,62.527164 43.484763,63.343014 C43.516473,63.446754 43.615383,63.579054 43.413573,63.647094 C43.219743,63.711984 43.192863,63.706944 43.116843,63.460404 C42.815073,62.482014 42.516243,61.502784 42.216153,60.523554 C42.089523,60.110274 41.961003,59.697414 41.836683,59.283294 C41.805813,59.180394 41.732943,59.061954 41.895483,58.995804 C42.041853,58.936374 42.098133,59.044314 42.163443,59.138814 C42.752493,59.991204 43.341123,60.844014 43.932903,61.694514 C44.002413,61.794054 44.049873,61.915224 44.184063,61.988094 C44.198973,61.846344 44.134293,61.734624 44.095653,61.621224 C43.783173,60.705834 43.501773,59.780364 43.223733,58.854264 C43.193913,58.755144 43.101933,58.640484 43.275183,58.570344 C43.444863,58.501674 43.492113,58.519944 43.558473,58.732254 C43.747893,59.340624 43.932273,59.950464 44.118963,60.559464 C44.348703,61.310424 44.579073,62.060754 44.809023,62.811294 C44.832333,62.887314 44.857323,62.963334 44.876013,63.040614 C44.892183,63.108024 44.900583,63.178794 44.814483,63.210084 C44.731323,63.240534 44.643963,63.297654 44.568363,63.197904 C44.520273,63.134484 44.476593,63.067704 44.432073,63.001554 C43.889853,62.199984 43.348683,61.397784 42.805413,60.596634 C42.742413,60.504024 42.695163,60.396714 42.532203,60.291714" id="Fill-26" fill="#000000"></path>
                    <path d="M32.3148,11.094489 C32.27385,10.480449 32.151,9.876909 32.06826,9.268119 C32.02101,8.918889 31.95339,8.572179 31.88745,8.226099 C31.85931,8.080149 31.80072,7.941759 31.70202,7.827099 C31.56657,7.669599 31.28475,7.617099 31.07055,7.720209 C30.87609,7.813659 30.99096,7.985019 31.00734,8.111649 C31.08735,8.732409 31.18563,9.350649 31.27866,9.969729 C31.3635,10.532319 31.4496,11.094909 31.5357,11.657709 C31.54914,11.744649 31.53906,11.842299 31.66674,11.863089 C31.99749,11.917479 32.28078,11.705169 32.31354,11.367489 C32.32236,11.277189 32.3148,11.185629 32.3148,11.094489 M32.73102,11.146149 C32.72703,11.228049 32.72661,11.330739 32.7159,11.432379 C32.67327,11.839569 32.50254,12.048309 32.10039,12.148689 C31.88052,12.203289 31.65183,12.221979 31.42797,12.262509 C31.26921,12.291489 31.20747,12.231429 31.18563,12.070989 C31.11003,11.518899 31.01952,10.968279 30.93678,10.416819 C30.80616,9.550359 30.67743,8.683689 30.54828,7.817019 C30.5382,7.749399 30.53127,7.681359 30.52182,7.613739 C30.50628,7.503489 30.54912,7.436919 30.66357,7.427679 C30.92439,7.406469 31.17849,7.335909 31.44288,7.33442572 C31.79064,7.332759 32.02563,7.490469 32.17053,7.800219 C32.24319,7.956459 32.2959,8.119629 32.32383,8.287629 C32.47104,9.174249 32.61573,10.061709 32.71884,10.955049 C32.72535,11.011539 32.7264,11.068659 32.73102,11.146149" id="Fill-28" fill="#000000"></path>
                    <path d="M25.643415,58.35291 C25.673445,58.16286 25.615905,58.05765 25.496625,57.98919 C25.398135,57.9327 25.290405,57.89238 25.192335,57.83526 C25.052895,57.75462 24.970995,57.78213 24.903795,57.9348 C24.733905,58.31994 24.550155,58.69899 24.372915,59.08098 C24.202395,59.44848 24.202815,59.4489 24.585645,59.60556 C24.627645,59.62278 24.668805,59.64294 24.712275,59.65533 C24.844365,59.69355 24.965325,59.66961 25.051005,59.55831 C25.340175,59.18346 25.506915,58.74876 25.643415,58.35291 M24.267075,62.39961 C23.902935,62.26836 23.891385,62.25639 24.025995,61.94433 C24.187905,61.56864 24.365565,61.19946 24.532725,60.82566 C24.602025,60.67005 24.658515,60.50898 24.726555,60.35274 C24.805725,60.17151 24.736215,60.05055 24.585645,59.94828 C24.133725,59.64021 24.115455,59.64357 23.889285,60.13056 C23.650095,60.64632 23.407965,61.16082 23.173395,61.67889 C23.110185,61.81875 23.046555,61.86579 22.888845,61.79145 C22.731555,61.71711 22.730505,61.64067 22.796025,61.50186 C23.150505,60.75111 23.497215,59.99679 23.846865,59.24394 C24.119865,58.65594 24.391395,58.06752 24.667335,57.48099 C24.767505,57.26763 24.773595,57.26679 24.994305,57.3678 C25.221735,57.47175 25.452315,57.57129 25.670505,57.69246 C26.044515,57.90036 26.134605,58.13955 26.009235,58.54779 C25.915365,58.85355 25.781595,59.1423 25.620735,59.41803 C25.580625,59.48649 25.526235,59.54676 25.486545,59.61543 C25.383225,59.79414 25.079355,59.82228 25.058985,59.95941 C25.033365,60.12951 25.106235,60.33027 25.042185,60.51801 C24.965115,60.74376 24.893715,60.97203 24.801105,61.19169 C24.633945,61.58901 24.453345,61.98066 24.267075,62.39961" id="Fill-30" fill="#000000"></path>
                    <path d="M40.64508,8.275092 C40.64487,8.072862 40.66713,7.893102 40.47162,7.800282 C40.31412,7.725732 40.1394,7.729932 39.97287,7.696752 C39.88719,7.679532 39.85044,7.750302 39.8391,7.818972 C39.75384,8.334732 39.67278,8.851332 39.5892,9.367302 C39.57366,9.461802 39.60012,9.521652 39.70302,9.535302 C39.77043,9.544542 39.837,9.560082 39.9042,9.572052 C40.25553,9.634212 40.38468,9.561762 40.47897,9.216732 C40.56612,8.898792 40.61505,8.572242 40.64508,8.275092 M40.45167,9.771132 C40.64718,9.961602 40.64823,10.188402 40.6476,10.418142 C40.64592,10.922352 40.54113,11.413962 40.47351,11.910402 C40.45356,12.055722 40.43067,12.200622 40.40988,12.340482 C40.35045,12.386262 40.29627,12.348672 40.24272,12.348462 C40.0512,12.348042 40.01571,12.230232 40.03902,12.075252 C40.09131,11.726022 40.15053,11.377842 40.2024,11.028822 C40.23915,10.781232 40.28262,10.533432 40.29837,10.284162 C40.31454,10.026282 40.26141,9.972312 40.01109,9.896922 C39.53208,9.752232 39.52914,9.751812 39.4422,10.252662 C39.34518,10.813782 39.25446,11.375952 39.16017,11.937282 C39.14085,12.052782 39.1251,12.160092 38.95437,12.137412 C38.75088,12.110532 38.71896,12.088272 38.75298,11.881632 C38.99385,10.421082 39.2364,8.960742 39.47979,7.500612 C39.51675,7.279062 39.52095,7.275492 39.74103,7.312242 C40.01067,7.356972 40.28262,7.393512 40.54596,7.462392 C40.92312,7.561092 41.04807,7.737912 41.05185,8.127672 C41.05521,8.495172 40.99074,8.854062 40.88889,9.205392 C40.82106,9.439962 40.70304,9.645762 40.45167,9.771132" id="Fill-32" fill="#000000"></path>
                    <path d="M34.364967,63.344295 C34.364967,63.196245 34.365807,63.047985 34.364757,62.899935 C34.363497,62.754825 34.457367,62.741595 34.570557,62.741175 C34.684167,62.740545 34.775937,62.754615 34.777197,62.899515 C34.780347,63.229425 34.751157,63.560175 34.806177,63.888825 C34.821087,63.978285 34.826967,64.071525 34.857207,64.155735 C34.922517,64.339485 35.061327,64.424955 35.254527,64.412775 C35.431977,64.401225 35.561127,64.321425 35.594727,64.135995 C35.716737,63.463575 35.737107,62.817405 35.156037,62.310045 C34.993497,62.168295 34.851747,62.002185 34.707477,61.841325 C34.265427,61.347825 34.283277,60.781245 34.480257,60.204375 C34.597227,59.861235 34.898367,59.720325 35.312907,59.761275 C35.702457,59.799915 35.919387,59.992485 35.983017,60.369855 C36.036147,60.685485 36.041397,61.004265 36.038667,61.324095 C36.037197,61.482855 35.973567,61.545855 35.812707,61.546275 C35.639877,61.547115 35.599767,61.462695 35.604387,61.312545 C35.610477,61.118925 35.609847,60.924885 35.602497,60.731475 C35.598087,60.618495 35.587167,60.502995 35.557977,60.394215 C35.517027,60.242385 35.427987,60.131295 35.250957,60.119955 C35.068677,60.107985 34.948557,60.187575 34.868127,60.347385 C34.671567,60.738825 34.737717,61.258785 35.036757,61.592265 C35.189007,61.761735 35.348817,61.924485 35.506737,62.088705 C36.108387,62.713875 36.174747,63.459165 35.973777,64.252755 C35.888517,64.590225 35.610267,64.760325 35.216307,64.770405 C34.847337,64.779855 34.596177,64.621935 34.471647,64.288455 C34.357827,63.984165 34.355307,63.663915 34.364967,63.344295" id="Fill-34" fill="#000000"></path>
                    <path d="M47.462688,10.666698 C47.442318,10.654728 47.422368,10.642968 47.401998,10.630998 C46.925718,11.343318 46.449858,12.055428 45.959928,12.788328 C46.191768,12.900258 46.386438,12.991188 46.577958,13.087788 C46.698078,13.148478 46.760868,13.121598 46.798668,12.987828 C47.017068,12.213138 47.240718,11.440338 47.462688,10.666698 M44.872968,13.718838 C45.413088,12.929028 45.938928,12.160008 46.465398,11.390988 C46.818828,10.875018 47.174148,10.360308 47.525058,9.842448 C47.601078,9.730098 47.664078,9.647358 47.821998,9.731358 C47.956818,9.803178 48.031788,9.856728 47.981598,10.038378 C47.577558,11.494518 47.185908,12.954438 46.790268,14.412888 C46.763808,14.510118 46.754778,14.635908 46.599588,14.567868 C46.489338,14.519778 46.353048,14.489958 46.416258,14.305788 C46.486188,14.101668 46.532808,13.890198 46.597698,13.684188 C46.638018,13.555878 46.620168,13.472088 46.482828,13.415808 C46.294038,13.338108 46.109448,13.248018 45.928428,13.152678 C45.796968,13.083168 45.721788,13.127688 45.651858,13.241928 C45.563028,13.387458 45.464328,13.526898 45.368778,13.668228 C45.195318,13.924218 45.194898,13.924008 44.872968,13.718838" id="Fill-36" fill="#000000"></path>
                    <path d="M21.642537,56.617743 C21.619647,56.603673 21.596547,56.589183 21.573657,56.575113 C21.009387,57.192303 20.445537,57.809703 19.885677,58.422483 C19.989627,58.570743 20.117937,58.626813 20.230077,58.701153 C20.339487,58.773603 20.436087,58.875243 20.598207,58.901283 C20.946387,58.132893 21.308217,57.381513 21.642537,56.617743 M18.638697,59.210193 C19.164117,58.648443 19.676517,58.100763 20.188707,57.553293 C20.740377,56.963823 21.290997,56.373513 21.844347,55.785513 C22.016127,55.603023 22.014027,55.614993 22.205127,55.737423 C22.329447,55.817013 22.337427,55.898703 22.281567,56.021133 C22.121337,56.372463 21.967827,56.727153 21.811587,57.080373 C21.355887,58.109163 20.901447,59.138163 20.443437,60.165903 C20.353347,60.367503 20.242047,60.376953 20.096517,60.216303 C20.025957,60.138603 20.059977,60.070773 20.092737,59.998533 C20.177157,59.812263 20.254857,59.622213 20.350827,59.441823 C20.426007,59.300493 20.395977,59.214183 20.263887,59.134173 C20.098407,59.034423 19.937967,58.925643 19.782777,58.810983 C19.668957,58.727193 19.584327,58.733073 19.492977,58.843743 C19.384407,58.975203 19.264707,59.097213 19.148577,59.222163 C18.937527,59.449803 18.937107,59.449383 18.638697,59.210193" id="Fill-38" fill="#000000"></path>
                    <path d="M39.750732,63.047754 C39.489282,62.215524 39.271512,61.403874 38.950002,60.620784 C38.910102,61.185054 38.910942,61.741134 38.909682,62.297634 C38.909262,62.524854 38.907372,62.752494 38.900232,62.979504 C38.895402,63.132804 38.966382,63.174594 39.109392,63.158214 C39.312252,63.135534 39.514062,63.112014 39.750732,63.047754 M40.531932,64.262184 C40.214832,64.409814 40.139442,64.385244 40.069092,64.082004 C40.030662,63.916314 39.964302,63.757344 39.919992,63.592704 C39.885552,63.464604 39.825072,63.396144 39.680802,63.419664 C39.478782,63.452634 39.275292,63.477414 39.072012,63.502404 C38.932572,63.519414 38.880072,63.599004 38.880702,63.733824 C38.881542,63.938574 38.871882,64.143534 38.872092,64.348284 C38.872302,64.465254 38.839122,64.542114 38.708502,64.562694 C38.565912,64.584744 38.494932,64.550094 38.501232,64.390494 C38.512992,64.094604 38.512572,63.798504 38.519292,63.502404 C38.545542,62.296164 38.571582,61.089714 38.599932,59.883264 C38.605182,59.650374 38.638152,59.628324 38.839752,59.597244 C39.009012,59.570994 39.053322,59.662554 39.095322,59.795484 C39.307632,60.468114 39.526872,61.138434 39.742962,61.809594 C40.004202,62.621454 40.265022,63.433104 40.531932,64.262184" id="Fill-40" fill="#000000"></path>
                    <path d="M46.617984,58.253244 C46.594254,58.372314 46.654524,58.473114 46.687494,58.577064 C46.855284,59.106264 47.027274,59.633994 47.197164,60.162774 C47.388894,60.759804 47.388474,60.759804 47.942454,60.459504 C48.154554,60.344424 48.158964,60.341274 48.014064,60.137784 C47.593644,59.546214 47.169654,58.957584 46.747344,58.367274 C46.714164,58.320654 46.680354,58.275714 46.617984,58.253244 M49.274274,61.256874 C48.958224,61.451334 48.958014,61.451334 48.772584,61.195134 C48.692364,61.084464 48.614034,60.972324 48.532974,60.862494 C48.363714,60.632334 48.359934,60.626034 48.094494,60.761694 C47.903814,60.859344 47.635854,60.896094 47.547024,61.079634 C47.455254,61.269054 47.627244,61.488504 47.690454,61.691364 C47.771514,61.950714 47.854674,62.052984 47.468694,62.145174 C47.389734,62.085954 47.383434,61.988934 47.357394,61.905984 C46.923534,60.515364 46.491984,59.124534 46.062954,57.732864 C46.022634,57.601404 45.929604,57.458604 46.147374,57.366414 C46.292274,57.305094 46.377954,57.293544 46.484214,57.438654 C47.384274,58.670934 48.293364,59.896704 49.198674,61.124994 C49.224924,61.160484 49.243194,61.202064 49.274274,61.256874" id="Fill-42" fill="#000000"></path>
                    <path d="M35.723814,8.033298 C35.585844,8.866578 35.448084,9.699858 35.302134,10.581438 C35.552034,10.581438 35.754894,10.573878 35.956914,10.583748 C36.134994,10.592568 36.167124,10.514868 36.141924,10.356318 C36.066954,9.885078 36.002484,9.412368 35.933394,8.940498 C35.889504,8.639778 35.871444,8.334018 35.723814,8.033298 M36.738954,11.759748 C36.747984,11.850678 36.729924,11.920608 36.618624,11.919138 C36.508584,11.917458 36.377124,11.952318 36.350874,11.787258 C36.318954,11.585238 36.283044,11.383008 36.267294,11.179518 C36.253224,11.000808 36.187704,10.910088 35.994924,10.918488 C35.758044,10.928778 35.478324,10.820628 35.294994,10.952298 C35.120484,11.077668 35.191464,11.373978 35.129304,11.588598 C35.093394,11.712078 35.154504,11.908848 34.913634,11.905908 C34.730304,11.903808 34.697964,11.879658 34.730514,11.690028 C34.807164,11.242098 34.887594,10.794798 34.966974,10.347288 C35.149464,9.317868 35.331534,8.288448 35.515284,7.259238 C35.557914,7.020888 35.579964,7.014378 35.793324,7.0137462 C35.943684,7.013328 35.985684,7.086618 36.006264,7.216188 C36.080394,7.687638 36.163554,8.157828 36.239994,8.628858 C36.400224,9.615858 36.558144,10.603278 36.716694,11.590698 C36.725724,11.646768 36.731604,11.703468 36.738954,11.759748" id="Fill-44" fill="#000000"></path>
                    <path d="M27.515775,11.882619 C27.738585,11.815629 27.923175,11.764599 28.105245,11.704119 C28.338135,11.626839 28.342545,11.620959 28.233135,11.402139 C27.903015,10.741059 27.568695,10.082289 27.235005,9.423099 C27.212325,9.378159 27.194265,9.319779 27.105645,9.341199 C27.240885,10.179519 27.376125,11.016579 27.515775,11.882619 M29.289435,12.692799 C28.966245,12.842319 28.964985,12.842949 28.819665,12.563229 C28.735665,12.402159 28.654395,12.239199 28.575855,12.075189 C28.528395,11.976489 28.460565,11.945829 28.355355,11.980689 C28.139895,12.052299 27.923385,12.122229 27.705615,12.186489 C27.592845,12.219669 27.570585,12.292329 27.588435,12.394809 C27.625395,12.607539 27.662355,12.820269 27.696795,13.033209 C27.711705,13.124769 27.719475,13.209189 27.605865,13.258959 C27.432615,13.334349 27.350505,13.303689 27.320685,13.116579 C27.249495,12.667599 27.184815,12.217779 27.118875,11.767959 C26.967255,10.733499 26.819415,9.698409 26.661915,8.664789 C26.640285,8.523039 26.635035,8.425179 26.798835,8.376879 C26.941425,8.334459 27.040545,8.318079 27.127695,8.486919 C27.837285,9.860319 28.556955,11.228679 29.272635,12.598929 C29.282505,12.617829 29.281035,12.642609 29.289435,12.692799" id="Fill-46" fill="#000000"></path>
                    <path d="M24.301998,11.882808 C24.295698,11.857818 24.279528,11.768358 24.250338,11.683308 C24.109848,11.273388 23.921268,10.885098 23.690688,10.519488 C23.450868,10.138968 23.311848,10.117758 22.902138,10.324608 C22.742328,10.405248 22.719018,10.480008 22.800078,10.637718 C23.069928,11.162718 23.324448,11.695488 23.587578,12.224058 C23.716098,12.482148 23.717778,12.478788 23.989938,12.343548 C24.158358,12.259968 24.317328,12.173238 24.301998,11.882808 M24.700158,11.925228 C24.717588,12.240228 24.537828,12.429018 24.291708,12.583158 C24.161088,12.665058 23.937438,12.669048 23.917908,12.835788 C23.903418,12.960948 24.022698,13.103118 24.087168,13.235208 C24.250968,13.573308 24.417918,13.909518 24.582558,14.247198 C24.711288,14.510748 24.710658,14.511168 24.542028,14.596218 C24.352818,14.691558 24.350088,14.691138 24.210228,14.413518 C24.092418,14.179788 23.977758,13.944168 23.861838,13.709388 C23.343558,12.658128 22.824228,11.607288 22.306998,10.555608 C22.184778,10.306758 22.186878,10.302558 22.429218,10.183278 C22.653708,10.073238 22.877568,9.959628 23.108778,9.865968 C23.379048,9.756138 23.636088,9.808428 23.823618,10.030608 C24.256218,10.543428 24.529008,11.140248 24.690288,11.789358 C24.700998,11.832828 24.697218,11.879868 24.700158,11.925228" id="Fill-48" fill="#000000"></path>
                    <path d="M9.174207,36.864618 C8.629467,36.859998 8.174817,36.394428 8.185527,35.851998 C8.196447,35.297808 8.648787,34.866258 9.205497,34.879278 C9.749607,34.891878 10.175067,35.324478 10.1756973,35.866068 C10.176117,36.413328 9.718737,36.869448 9.174207,36.864618" id="Fill-50" fill="#000000"></path>
                    <path d="M62.981373,35.875728 C62.975703,36.418998 62.507193,36.876168 61.968543,36.864618 C61.417713,36.852648 60.983643,36.396318 60.996453,35.842338 C61.008633,35.295918 61.436823,34.878648 61.984293,34.8792773 C62.538903,34.879698 62.987253,35.328048 62.981373,35.875728" id="Fill-52" fill="#000000"></path>
                    <path d="M30.966411,63.871353 C30.939531,63.966483 30.993921,64.032633 31.143441,64.046913 C31.313121,64.063083 31.481331,64.095843 31.649541,64.126083 C31.733961,64.140993 31.802421,64.177323 31.781421,64.285053 C31.762941,64.379973 31.737321,64.464813 31.610271,64.444653 C31.284141,64.393623 30.957801,64.344483 30.631461,64.293243 C30.505461,64.273293 30.505461,64.180893 30.519531,64.085763 C30.566991,63.770553 30.614871,63.455553 30.664851,63.140553 C30.846921,61.993743 31.029201,60.846933 31.212531,59.700333 C31.253271,59.445813 31.266291,59.437833 31.521021,59.477103 C31.779531,59.517213 32.037831,59.560473 32.296551,59.601003 C32.415201,59.619693 32.524611,59.638803 32.498991,59.805963 C32.474631,59.963673 32.363751,59.932593 32.265471,59.920833 C32.107341,59.902143 31.949841,59.876943 31.792761,59.849853 C31.666761,59.828013 31.604181,59.873163 31.584231,60.002943 C31.504641,60.520383 31.419381,61.036983 31.335171,61.553793 C31.316271,61.669713 31.370031,61.720323 31.479441,61.736073 C31.636941,61.758963 31.793391,61.790463 31.950891,61.813983 C32.082771,61.833933 32.113851,61.907013 32.091801,62.030703 C32.068701,62.161323 31.991211,62.157543 31.891251,62.138433 C31.757271,62.113023 31.619511,62.104413 31.487001,62.072913 C31.336431,62.037213 31.248651,62.069763 31.223451,62.236293 C31.143441,62.765073 31.057761,63.293433 30.966411,63.871353" id="Fill-54" fill="#000000"></path>
                    <path d="M28.396788,59.190243 C28.403088,59.094693 28.368648,59.056683 28.307748,59.037153 C28.221228,59.009853 28.131978,58.987593 28.049448,58.950843 C27.951378,58.907163 27.979728,58.821903 28.000308,58.744623 C28.021518,58.666293 28.072758,58.630803 28.152768,58.654533 C28.511868,58.761633 28.870128,58.871253 29.229228,58.978143 C29.329398,59.008173 29.349348,59.068023 29.311968,59.159373 C29.282148,59.232453 29.267238,59.320863 29.152998,59.287473 C29.120238,59.278023 29.088948,59.263533 29.055768,59.256183 C28.824768,59.207673 28.819308,59.206413 28.750008,59.435733 C28.513758,60.218403 28.281918,61.002543 28.047768,61.785633 C27.898038,62.286063 27.748098,62.786493 27.595848,63.286083 C27.509538,63.568533 27.504498,63.569793 27.325158,63.514143 C27.137838,63.455763 27.127758,63.437913 27.205458,63.176883 C27.500508,62.186733 27.798498,61.197423 28.095018,60.207483 C28.183008,59.913693 28.269528,59.619693 28.356678,59.325693 C28.372848,59.271513 28.388808,59.217123 28.396788,59.190243" id="Fill-56" fill="#000000"></path>
                    <path d="M49.159719,55.649559 C49.230069,55.748259 49.303569,55.848219 49.374129,55.950489 C50.103459,57.007419 50.833419,58.063719 51.560859,59.121909 C51.772119,59.429349 51.754899,59.359209 51.999339,59.195829 C52.103289,59.126319 52.207029,59.056179 52.307829,58.982469 C52.391409,58.921359 52.459029,58.897629 52.534419,59.001789 C52.610019,59.106159 52.610439,59.175669 52.496409,59.251059 C52.230969,59.426619 51.969309,59.607849 51.710379,59.792859 C51.610419,59.864679 51.548259,59.839899 51.490929,59.745189 C51.461529,59.696469 51.425829,59.652159 51.393699,59.605329 C50.593179,58.445289 49.792869,57.285669 48.993189,56.125419 C48.788019,55.827639 48.789279,55.826799 49.159719,55.649559" id="Fill-58" fill="#000000"></path>
                    <path d="M51.373728,41.224176 C51.371838,41.549676 51.383388,41.563956 51.638118,41.561856 C51.881718,41.560176 52.036488,41.441946 52.046148,41.250636 C52.056438,41.052186 51.885288,40.913586 51.628668,40.912956 C51.380658,40.912116 51.375618,40.918206 51.373728,41.224176 L51.373728,41.224176 Z M51.373728,42.462546 C51.410688,42.592326 51.282378,42.829206 51.430008,42.935886 C51.599898,43.058946 51.846228,42.975996 52.059798,42.973056 C52.070928,42.972846 52.082268,42.969696 52.093398,42.966966 C52.487358,42.865326 52.647798,42.377916 52.389078,42.069636 C52.238928,41.891136 51.688938,41.756736 51.465918,41.884836 C51.275868,41.994036 51.407118,42.214956 51.374148,42.382536 C51.371838,42.393246 51.373728,42.405216 51.373728,42.462546 L51.373728,42.462546 Z M51.078258,41.951616 C51.078258,41.598816 51.072588,41.246016 51.080358,40.893846 C51.085398,40.654656 51.115428,40.632816 51.367638,40.623156 C51.481248,40.618536 51.595488,40.617486 51.708888,40.623996 C52.150518,40.648566 52.411338,40.949286 52.317048,41.376426 C52.274418,41.569836 52.316628,41.648376 52.472238,41.751276 C52.767918,41.946576 52.860528,42.252336 52.794588,42.590646 C52.728228,42.930216 52.516338,43.156596 52.176768,43.249416 C51.886128,43.328586 51.588558,43.290156 51.293928,43.289736 C51.111228,43.289736 51.073428,43.162266 51.078258,43.009386 C51.079098,42.986706 51.077838,42.963816 51.077838,42.941136 C51.077628,42.611226 51.077628,42.281316 51.077628,41.951616 L51.078258,41.951616 Z" id="Fill-60" fill="#000000"></path>
                    <path d="M46.563636,29.559327 C46.570776,29.161797 46.641546,28.854987 46.813536,28.577157 C46.944366,28.366317 47.122446,28.215117 47.373396,28.165977 C47.694696,28.103607 47.937036,28.282947 47.971056,28.607187 C47.989536,28.782117 47.945646,28.945077 47.876976,29.103417 C47.717586,29.469867 47.505066,29.805867 47.275746,30.130947 C47.127276,30.341157 46.953186,30.357117 46.768176,30.184497 C46.673886,30.096927 46.616346,29.984577 46.595766,29.858787 C46.576026,29.735937 46.568886,29.610777 46.563636,29.559327" id="Fill-62" fill="#000000"></path>
                    <path d="M44.376276,8.47791 C44.352756,8.55876 44.334906,8.62449 44.314326,8.6898 C43.888656,10.04661 43.462776,11.40321 43.037106,12.76002 C43.023456,12.80349 43.008966,12.84675 42.999306,12.89127 C42.964236,13.05045 42.861126,13.03827 42.739956,13.00236 C42.608706,12.9633 42.560406,12.90807 42.608286,12.75708 C42.974106,11.60796 43.330476,10.45611 43.689786,9.30489 C43.781556,9.01194 43.876266,8.71962 43.965936,8.42583 C43.999116,8.31663 44.064426,8.27232 44.168796,8.31936 C44.251116,8.35632 44.389086,8.33763 44.376276,8.47791" id="Fill-64" fill="#000000"></path>
                    <path d="M50.497839,41.606649 C50.497839,41.822739 50.501829,42.039039 50.496999,42.254919 C50.483979,42.842499 50.058519,43.278459 49.491939,43.289169 C48.954969,43.299249 48.480159,42.871059 48.453909,42.315609 C48.430809,41.827779 48.447609,41.337849 48.448029,40.848969 C48.448239,40.739979 48.467559,40.632459 48.609309,40.640229 C48.728379,40.647159 48.744339,40.746069 48.744969,40.840989 C48.747279,41.216259 48.746439,41.591529 48.748119,41.966589 C48.748539,42.080199 48.745599,42.194649 48.756939,42.307419 C48.796209,42.706839 49.092939,42.981309 49.478499,42.981729 C49.873509,42.982149 50.192919,42.687519 50.208459,42.276759 C50.224419,41.856549 50.212659,41.435499 50.213499,41.014659 C50.213709,40.935279 50.212449,40.855269 50.220429,40.776309 C50.229669,40.683279 50.286999,40.632249 50.381289,40.641069 C50.465919,40.648839 50.492169,40.717089 50.493009,40.788279 C50.495949,41.060859 50.494059,41.333859 50.494059,41.606649 L50.497839,41.606649 Z" id="Fill-66" fill="#000000"></path>
                    <path d="M45.541314,40.623093 C45.783444,40.618683 46.050774,40.702473 46.287864,40.877193 C46.342254,40.917303 46.394754,40.963713 46.436964,41.016423 C46.482324,41.073543 46.491144,41.142213 46.437594,41.203533 C46.384254,41.264433 46.318524,41.265903 46.254684,41.224743 C46.197354,41.187993 46.147374,41.140323 46.090674,41.102103 C45.638334,40.796973 45.050964,40.864803 44.694594,41.262333 C44.351664,41.644743 44.358384,42.245553 44.709924,42.635103 C45.071544,43.035993 45.645684,43.099203 46.104114,42.787773 C46.160394,42.749553 46.211634,42.703353 46.268124,42.665343 C46.322514,42.628803 46.379844,42.639723 46.423524,42.682353 C46.477494,42.734643 46.491564,42.799743 46.447044,42.867153 C46.389084,42.954513 46.304244,43.013313 46.218564,43.068963 C45.736614,43.382703 45.100944,43.351203 44.653224,42.993153 C44.197734,42.628383 44.023434,42.026733 44.217684,41.487033 C44.406054,40.963923 44.907534,40.622883 45.541314,40.623093" id="Fill-68" fill="#000000"></path>
                    <path d="M46.985673,41.934774 C46.985673,41.617044 46.984833,41.299524 46.986303,40.981794 C46.986723,40.902834 46.990293,40.823244 47.000163,40.744914 C47.008143,40.682544 47.051403,40.644744 47.114823,40.641384 C47.191893,40.636974 47.248803,40.672254 47.258883,40.751844 C47.268963,40.830174 47.270013,40.909974 47.270013,40.989144 C47.270853,41.556354 47.268753,42.123564 47.271273,42.690984 C47.272533,42.983304 47.276103,42.983514 47.576403,42.988554 C47.723823,42.990864 47.871453,42.988554 48.018453,42.995484 C48.091323,42.998844 48.148233,43.038954 48.158103,43.118334 C48.170283,43.215984 48.112113,43.278354 48.025593,43.280874 C47.731383,43.289274 47.436123,43.295154 47.142123,43.281294 C46.994493,43.274574 46.986093,43.142694 46.986303,43.024044 C46.986723,42.660744 46.986513,42.297864 46.986513,41.934774 L46.985673,41.934774 Z" id="Fill-70" fill="#000000"></path>
                    <path d="M57.128841,35.325507 C57.400161,35.318997 57.620241,35.531097 57.634941,35.813547 C57.650691,36.111957 57.438591,36.349467 57.151101,36.355137 C56.872221,36.360807 56.660331,36.156057 56.648571,35.870037 C56.636181,35.566167 56.842401,35.332437 57.128841,35.325507" id="Fill-72" fill="#000000"></path>
                    <path d="M49.786632,52.492188 C49.793352,52.760148 49.561722,53.001018 49.294812,53.0027048 C49.029162,53.004168 48.790182,52.765608 48.792912,52.500798 C48.795012,52.246068 49.012152,52.023888 49.269822,52.012338 C49.543242,52.000158 49.779492,52.219608 49.786632,52.492188" id="Fill-74" fill="#000000"></path>
                    <path d="M45.323922,55.6015762 C45.057012,55.600734 44.821812,55.360704 44.827272,55.094214 C44.832522,54.826254 45.074022,54.598404 45.342192,54.608274 C45.601542,54.617514 45.815952,54.835704 45.820152,55.094214 C45.824562,55.360074 45.587472,55.602414 45.323922,55.6015762" id="Fill-76" fill="#000000"></path>
                    <path d="M56.660856,30.612393 C56.931126,30.642633 57.137346,30.898413 57.105216,31.164063 C57.072666,31.435593 56.813946,31.637613 56.548716,31.598973 C56.291676,31.561803 56.093646,31.317573 56.117586,31.067883 C56.143626,30.795933 56.397726,30.582783 56.660856,30.612393" id="Fill-78" fill="#000000"></path>
                    <path d="M17.102715,25.622646 C17.107125,25.890606 16.871505,26.128746 16.604595,26.126436 C16.350915,26.124336 16.123905,25.906146 16.109625,25.650996 C16.094925,25.386396 16.323405,25.141326 16.593045,25.132926 C16.864785,25.124526 17.098305,25.348806 17.102715,25.622646" id="Fill-80" fill="#000000"></path>
                    <path d="M15.320382,30.029769 C15.317862,30.305289 15.091272,30.522219 14.813022,30.515499 C14.551362,30.509409 14.336952,30.297099 14.330232,30.037329 C14.322882,29.766639 14.550522,29.531859 14.822472,29.529759 C15.094632,29.527659 15.322902,29.756559 15.320382,30.029769" id="Fill-82" fill="#000000"></path>
                    <path d="M55.985937,43.36395 C55.715877,43.36836 55.486137,43.13946 55.4865564,42.86562 C55.486977,42.59073 55.715457,42.36456 55.987197,42.36981 C56.246337,42.37464 56.462427,42.58863 56.471457,42.84924 C56.480697,43.1193 56.254317,43.35954 55.985937,43.36395" id="Fill-84" fill="#000000"></path>
                    <path d="M38.540355,56.726628 C38.810415,56.717598 39.047505,56.945238 39.049815,57.215928 C39.052125,57.483678 38.816925,57.720768 38.549595,57.7199302 C38.297175,57.719508 38.070375,57.499848 38.057145,57.243438 C38.043495,56.976528 38.268615,56.735868 38.540355,56.726628" id="Fill-86" fill="#000000"></path>
                    <path d="M53.939676,25.037355 C53.669826,25.043655 53.435466,24.814125 53.435466,24.543225 C53.435676,24.283455 53.643786,24.060225 53.900616,24.044265 C54.166056,24.027885 54.413226,24.253005 54.425406,24.521385 C54.437166,24.788085 54.208476,25.031055 53.939676,25.037355" id="Fill-88" fill="#000000"></path>
                    <path d="M29.129331,14.80395 C29.402331,14.81277 29.625351,15.05154 29.610651,15.31908 C29.595951,15.58914 29.351301,15.80586 29.081451,15.78801 C28.821471,15.77058 28.612941,15.54672 28.617351,15.28947 C28.622181,15.01878 28.858011,14.79513 29.129331,14.80395" id="Fill-90" fill="#000000"></path>
                    <path d="M36.634563,14.309715 C36.638553,14.586285 36.419733,14.804055 36.138963,14.8032174 C35.868903,14.802165 35.661423,14.605395 35.649453,14.340165 C35.636853,14.060025 35.844753,13.836795 36.125523,13.829445 C36.407343,13.821885 36.630363,14.032725 36.634563,14.309715" id="Fill-92" fill="#000000"></path>
                    <path d="M19.832715,50.022021 C19.840275,50.293761 19.615575,50.526651 19.342365,50.530011 C19.072515,50.533371 18.836265,50.300061 18.838995,50.033361 C18.841095,49.776741 19.055505,49.556661 19.314435,49.545111 C19.589535,49.532511 19.825155,49.749231 19.832715,50.022021" id="Fill-94" fill="#000000"></path>
                    <path d="M24.814272,54.0534294 C25.090212,54.052383 25.314282,54.278133 25.309452,54.552813 C25.305042,54.827073 25.071942,55.050513 24.800202,55.041273 C24.543372,55.032453 24.322032,54.810693 24.316362,54.556593 C24.310482,54.290103 24.543582,54.054483 24.814272,54.0534294" id="Fill-96" fill="#000000"></path>
                    <path d="M21.455511,20.038788 C21.445851,20.314098 21.209601,20.533548 20.938491,20.519268 C20.664441,20.504778 20.452761,20.266638 20.470611,19.993218 C20.487621,19.731348 20.708121,19.525128 20.967261,19.528488 C21.238791,19.532268 21.464961,19.768938 21.455511,20.038788" id="Fill-98" fill="#000000"></path>
                    <path d="M20.985678,52.222905 C20.707218,52.218705 20.489448,51.992955 20.500158,51.719745 C20.510658,51.457875 20.722338,51.251865 20.984838,51.247665 C21.262668,51.243675 21.484848,51.460185 21.4854786,51.736125 C21.485898,52.014585 21.267918,52.227105 20.985678,52.222905" id="Fill-100" fill="#000000"></path>
                    <path d="M43.642704,56.045577 C43.649844,56.320887 43.428294,56.553147 43.155294,56.556297 C42.887754,56.559237 42.653184,56.323197 42.655914,56.053557 C42.658434,55.793997 42.869904,55.575597 43.130304,55.563837 C43.404354,55.551447 43.635564,55.768797 43.642704,56.045577" id="Fill-102" fill="#000000"></path>
                    <path d="M17.874633,47.6798274 C18.162123,47.679408 18.367293,47.886678 18.362253,48.173118 C18.357633,48.444858 18.162543,48.643308 17.892483,48.651288 C17.608563,48.659688 17.390373,48.454308 17.386173,48.174588 C17.381763,47.891928 17.590713,47.680248 17.874633,47.6798274" id="Fill-104" fill="#000000"></path>
                    <path d="M55.577214,45.092544 C55.562094,45.366594 55.322904,45.578274 55.049484,45.560004 C54.777114,45.541524 54.571734,45.299394 54.594414,45.023664 C54.615834,44.765364 54.846624,44.558304 55.101564,44.568384 C55.369314,44.578884 55.591914,44.824374 55.577214,45.092544" id="Fill-106" fill="#000000"></path>
                    <path d="M14.303415,38.944521 C14.579985,38.935701 14.802585,39.150531 14.806785,39.430671 C14.811195,39.709341 14.592165,39.935091 14.318535,39.9338362 C14.058135,39.932571 13.843725,39.724671 13.833015,39.462591 C13.821255,39.180981 14.028105,38.953341 14.303415,38.944521" id="Fill-108" fill="#000000"></path>
                    <path d="M57.115107,40.57305 C57.119517,40.85256 56.905527,41.06634 56.621817,41.0655025 C56.341887,41.06466 56.123907,40.84563 56.128947,40.56969 C56.133567,40.30677 56.340417,40.10181 56.607537,40.09509 C56.890617,40.08753 57.110697,40.29522 57.115107,40.57305" id="Fill-110" fill="#000000"></path>
                    <path d="M57.012354,33.94041 C56.737464,33.94419 56.510874,33.71991 56.512974,33.44607 C56.514864,33.18357 56.721294,32.96811 56.983374,32.95572 C57.251964,32.94291 57.496404,33.16698 57.505644,33.43431 C57.514884,33.70143 57.285774,33.93663 57.012354,33.94041" id="Fill-112" fill="#000000"></path>
                    <path d="M14.051373,36.591051 C14.328783,36.588321 14.556633,36.808821 14.5564231,37.079931 C14.5564231,37.350201 14.326893,37.570491 14.049273,37.566501 C13.784253,37.562301 13.574463,37.357971 13.565643,37.094841 C13.556613,36.818061 13.772913,36.593781 14.051373,36.591051" id="Fill-114" fill="#000000"></path>
                    <path d="M53.08695,49.096089 C53.09115,49.374759 52.87464,49.597359 52.59849,49.5982004 C52.3194,49.598829 52.10499,49.380429 52.10898,49.099029 C52.11234,48.835059 52.31793,48.621909 52.57938,48.610989 C52.85112,48.600069 53.08254,48.820989 53.08695,49.096089" id="Fill-116" fill="#000000"></path>
                    <path d="M22.843065,52.754478 C23.117325,52.763088 23.335935,52.999338 23.321025,53.271078 C23.306955,53.530008 23.084985,53.742738 22.828365,53.7431586 C22.559565,53.743578 22.327515,53.508168 22.331085,53.238948 C22.334655,52.968468 22.570065,52.745658 22.843065,52.754478" id="Fill-118" fill="#000000"></path>
                    <path d="M14.835387,42.238896 C14.553987,42.237006 14.337687,42.016926 14.345247,41.740566 C14.352597,41.466726 14.582967,41.253996 14.860797,41.264076 C15.122037,41.273526 15.327837,41.486046 15.330357,41.749386 C15.333507,42.031626 15.121827,42.240786 14.835387,42.238896" id="Fill-120" fill="#000000"></path>
                    <path d="M41.38008,56.75103 C41.38827,57.02319 41.16609,57.25419 40.89162,57.25944 C40.61988,57.26448 40.38573,57.03558 40.3865677,56.76594 C40.3872,56.51163 40.60392,56.2863 40.86033,56.27307 C41.13018,56.25879 41.37189,56.48139 41.38008,56.75103" id="Fill-122" fill="#000000"></path>
                    <path d="M17.115441,46.134144 C17.120481,46.414284 16.905441,46.640034 16.631811,46.6419334 C16.358601,46.643604 16.142721,46.421004 16.145031,46.139394 C16.147341,45.869124 16.343481,45.663114 16.609551,45.651774 C16.884231,45.640014 17.110401,45.855474 17.115441,46.134144" id="Fill-124" fill="#000000"></path>
                    <path d="M54.44376,47.160561 C54.44082,47.440281 54.22242,47.647551 53.93787,47.640831 C53.67222,47.634531 53.46537,47.428521 53.45907,47.164971 C53.45235,46.889871 53.6718,46.667061 53.95005,46.6662172 C54.22914,46.665171 54.4467,46.883151 54.44376,47.160561" id="Fill-126" fill="#000000"></path>
                    <path d="M49.256109,18.7071952 C49.534779,18.706149 49.747299,18.924549 49.743309,19.208049 C49.739739,19.486719 49.513779,19.707639 49.242249,19.697979 C48.982059,19.688739 48.778149,19.476849 48.772689,19.210569 C48.767019,18.928959 48.978909,18.708039 49.256109,18.7071952" id="Fill-128" fill="#000000"></path>
                    <path d="M47.872839,53.902716 C47.878509,54.178866 47.660109,54.400206 47.381229,54.4006273 C47.105499,54.401256 46.878279,54.176346 46.882269,53.906706 C46.886049,53.648406 47.098569,53.434626 47.359809,53.426016 C47.639109,53.416986 47.867169,53.628876 47.872839,53.902716" id="Fill-130" fill="#000000"></path>
                    <path d="M29.646939,56.447328 C29.648829,56.732298 29.439459,56.940618 29.153649,56.937468 C28.883799,56.934528 28.679679,56.737548 28.669599,56.470428 C28.659309,56.190918 28.869099,55.967478 29.146929,55.961598 C29.429379,55.955718 29.645049,56.165508 29.646939,56.447328" id="Fill-132" fill="#000000"></path>
                    <path d="M34.263243,14.367549 C34.273323,14.639289 34.051143,14.869239 33.775833,14.871759 C33.495693,14.874699 33.271413,14.657979 33.2712024,14.383929 C33.270783,14.124369 33.480153,13.908489 33.742023,13.897779 C34.022373,13.886019 34.252953,14.094129 34.263243,14.367549" id="Fill-134" fill="#000000"></path>
                    <path d="M40.84647,14.461881 C41.12535,14.466291 41.3322,14.685111 41.32506,14.969031 C41.31834,15.247911 41.09238,15.460431 40.81623,15.447411 C40.55331,15.435231 40.35528,15.224811 40.3544375,14.956221 C40.3536,14.673141 40.56822,14.457471 40.84647,14.461881" id="Fill-136" fill="#000000"></path>
                    <path d="M14.550312,34.722366 C14.538762,34.997046 14.308812,35.202636 14.028252,35.189406 C13.750002,35.175966 13.545252,34.944546 13.565622,34.666506 C13.584522,34.405266 13.803342,34.207866 14.066682,34.214586 C14.344302,34.221726 14.561652,34.449996 14.550312,34.722366" id="Fill-138" fill="#000000"></path>
                    <path d="M33.82029,56.861364 C34.09539,56.864514 34.3161,57.093204 34.30875,57.366834 C34.30161,57.625764 34.08531,57.840804 33.82575,57.846894 C33.55296,57.853614 33.32595,57.631224 33.32406,57.355284 C33.32217,57.077664 33.54267,56.858214 33.82029,56.861364" id="Fill-140" fill="#000000"></path>
                    <path d="M14.326998,31.845135 C14.599158,31.854585 14.807478,32.085795 14.796768,32.366355 C14.786058,32.644395 14.555268,32.854395 14.279538,32.836755 C14.019348,32.820165 13.823208,32.603235 13.826568,32.336535 C13.830348,32.058285 14.057148,31.835685 14.326998,31.845135" id="Fill-142" fill="#000000"></path>
                    <path d="M55.977327,28.334187 C56.259987,28.342377 56.459697,28.559937 56.447937,28.846167 C56.436387,29.130927 56.216937,29.327907 55.930707,29.310477 C55.663167,29.294097 55.472277,29.087247 55.475217,28.816557 C55.478367,28.536417 55.697397,28.325787 55.977327,28.334187" id="Fill-144" fill="#000000"></path>
                    <path d="M18.34098,23.595453 C18.34539,23.875173 18.13182,24.092523 17.85189,24.0933654 C17.57112,24.094203 17.35566,23.877693 17.35839,23.597973 C17.36112,23.332953 17.56503,23.126523 17.83215,23.118333 C18.11691,23.109723 18.33636,23.315313 18.34098,23.595453" id="Fill-146" fill="#000000"></path>
                    <path d="M52.558065,23.079063 C52.282125,23.072973 52.061835,22.841553 52.074435,22.571283 C52.087455,22.296813 52.319505,22.092063 52.600485,22.106553 C52.859205,22.120203 53.070045,22.341963 53.067735,22.597743 C53.064795,22.870323 52.837155,23.085363 52.558065,23.079063" id="Fill-148" fill="#000000"></path>
                    <path d="M51.025317,51.384753 C50.745807,51.378873 50.541477,51.160053 50.550927,50.876763 C50.560377,50.594523 50.779197,50.396703 51.065427,50.410983 C51.337167,50.425053 51.524277,50.625183 51.521757,50.899443 C51.519447,51.185043 51.308817,51.390633 51.025317,51.384753" id="Fill-150" fill="#000000"></path>
                    <path d="M25.260732,17.222646 C25.254852,17.502156 25.028472,17.717196 24.754212,17.703546 C24.490662,17.690736 24.291372,17.479896 24.2901044,17.212776 C24.288642,16.928436 24.499902,16.715286 24.780672,16.718016 C25.062702,16.720536 25.266612,16.935366 25.260732,17.222646" id="Fill-152" fill="#000000"></path>
                    <path d="M45.296664,16.114812 C45.572184,16.122582 45.779874,16.349382 45.770004,16.631622 C45.760344,16.909242 45.528294,17.122812 45.255084,17.104962 C44.993634,17.088162 44.798124,16.874172 44.7993779,16.606212 C44.800644,16.327752 45.023874,16.106832 45.296664,16.114812" id="Fill-154" fill="#000000"></path>
                    <path d="M26.880231,16.627296 C26.607651,16.621206 26.395131,16.391046 26.405211,16.112586 C26.414661,15.851346 26.628861,15.639456 26.886741,15.636096 C27.157221,15.632946 27.381291,15.859956 27.3798282,16.135896 C27.378141,16.412886 27.154281,16.633386 26.880231,16.627296" id="Fill-156" fill="#000000"></path>
                    <path d="M43.5959371,15.660771 C43.596147,15.940071 43.373757,16.159731 43.097187,16.153221 C42.834267,16.146921 42.625527,15.937551 42.619017,15.673791 C42.612087,15.396171 42.829017,15.164751 43.100547,15.159711 C43.368927,15.155091 43.595517,15.384411 43.5959371,15.660771" id="Fill-158" fill="#000000"></path>
                    <path d="M36.674757,57.420405 C36.672237,57.704745 36.459507,57.910545 36.174957,57.903405 C35.891667,57.896055 35.693637,57.681015 35.704347,57.392265 C35.714217,57.122415 35.916237,56.926695 36.185877,56.9254294 C36.467907,56.924175 36.677487,57.136065 36.674757,57.420405" id="Fill-160" fill="#000000"></path>
                    <path d="M38.493609,14.99673 C38.215569,14.98875 38.008929,14.76426 38.021109,14.48328 C38.032869,14.21364 38.235309,14.01981 38.506209,14.0191786 C38.788659,14.01855 39.000969,14.23212 38.996979,14.51289 C38.992989,14.79114 38.770809,15.00471 38.493609,14.99673" id="Fill-162" fill="#000000"></path>
                    <path d="M16.0842992,27.778422 C16.083879,28.058562 15.868419,28.269402 15.585969,28.264992 C15.302469,28.260792 15.100029,28.046172 15.108849,27.759732 C15.117249,27.488412 15.315489,27.294162 15.588279,27.290172 C15.871779,27.285972 16.084509,27.495132 16.0842992,27.778422" id="Fill-164" fill="#000000"></path>
                    <path d="M19.306896,21.234381 C19.582416,21.234381 19.798716,21.457611 19.794516,21.737751 C19.790736,22.014741 19.561206,22.237761 19.291146,22.227681 C19.033896,22.218231 18.824946,22.000881 18.819906,21.738171 C18.814236,21.458661 19.031166,21.234591 19.306896,21.234381" id="Fill-166" fill="#000000"></path>
                    <path d="M51.501303,20.81499 C51.497733,21.08925 51.270513,21.30261 50.991213,21.29442 C50.728083,21.28644 50.514723,21.07476 50.509893,20.81709 C50.504853,20.54724 50.731863,20.3196 51.006333,20.3191794 C51.285423,20.31876 51.504873,20.53842 51.501303,20.81499" id="Fill-168" fill="#000000"></path>
                    <path d="M26.940942,56.10423 C26.659752,56.10738 26.435892,55.89108 26.4369383,55.61766 C26.437782,55.35999 26.649252,55.14411 26.910702,55.13424 C27.193572,55.12332 27.421212,55.32975 27.429402,55.60464 C27.437592,55.88037 27.221712,56.10129 26.940942,56.10423" id="Fill-170" fill="#000000"></path>
                    <path d="M23.2774292,18.512991 C23.2774292,18.792711 23.055669,19.014261 22.782879,19.007541 C22.521219,19.001241 22.313529,18.791871 22.306809,18.528111 C22.299669,18.243141 22.505469,18.022851 22.783719,18.018231 C23.059659,18.013611 23.277639,18.232011 23.2774292,18.512991" id="Fill-172" fill="#000000"></path>
                    <path d="M47.82855,17.782107 C47.8359,18.066237 47.63073,18.281067 47.34849,18.285057 C47.06646,18.289047 46.85499,18.078627 46.8556186,17.794917 C46.85625,17.525907 47.05239,17.320527 47.3193,17.308977 C47.60406,17.296587 47.82099,17.498397 47.82855,17.782107" id="Fill-174" fill="#000000"></path>
                    <path d="M31.466799,56.53305 C31.739169,56.5362 31.955889,56.76489 31.950219,57.04293 C31.944339,57.32076 31.716279,57.53664 31.442229,57.52404 C31.178679,57.51186 30.978129,57.30144 30.975399,57.03432 C30.972669,56.75649 31.194849,56.5299 31.466799,56.53305" id="Fill-176" fill="#000000"></path>
                    <path d="M57.508437,38.221617 C57.519147,38.491887 57.295287,38.723727 57.019977,38.727717 C56.754327,38.731707 56.537397,38.534727 56.518287,38.272437 C56.498127,37.996077 56.705397,37.765917 56.985957,37.753317 C57.268197,37.740297 57.497517,37.946097 57.508437,38.221617" id="Fill-178" fill="#000000"></path>
                    <path d="M31.400565,15.201396 C31.122735,15.193416 30.914625,14.969136 30.925965,14.689416 C30.937305,14.411586 31.165155,14.207676 31.446135,14.224056 C31.713885,14.239806 31.906035,14.447286 31.902675,14.717556 C31.899105,14.998536 31.680075,15.209376 31.400565,15.201396" id="Fill-180" fill="#000000"></path>
                    <path d="M55.075608,27.111714 C54.791058,27.117174 54.580218,26.911584 54.5793737,26.627034 C54.578328,26.355084 54.769638,26.151384 55.037598,26.138364 C55.324038,26.124924 55.540968,26.322744 55.549788,26.606034 C55.558818,26.892894 55.358688,27.106674 55.075608,27.111714" id="Fill-182" fill="#000000"></path>
                    <path d="M15.605037,43.514478 C15.891477,43.510488 16.098117,43.715028 16.097071,44.001468 C16.095807,44.276148 15.907017,44.473968 15.635487,44.485098 C15.348627,44.496858 15.133797,44.298408 15.126237,44.014908 C15.118677,43.728048 15.319227,43.518468 15.605037,43.514478" id="Fill-184" fill="#000000"></path>
                    <path d="M43.926729,43.094268 C43.917069,43.216488 43.842309,43.273818 43.728279,43.275708 C43.614459,43.277808 43.513869,43.157268 43.535709,43.048698 C43.559229,42.931518 43.642179,42.882588 43.756209,42.888678 C43.869399,42.894768 43.935339,42.977928 43.926729,43.094268" id="Fill-186" fill="#000000"></path>
                </g>
            </g>
        </g>
    </g>
</svg>