<?xml version="1.0" encoding="UTF-8"?>
<svg width="100px" height="100px" viewBox="0 0 100 100" version="1.1" xmlns="http://www.w3.org/2000/svg" xmlns:xlink="http://www.w3.org/1999/xlink">
    <title>los frick</title>
    <defs>
        <polygon id="path-1" points="0.011025 0.12138 13.2396735 0.12138 13.2396735 22.4699475 0.011025 22.4699475"></polygon>
    </defs>
    <g id="Logos" stroke="none" stroke-width="1" fill="none" fill-rule="evenodd">
        <g transform="translate(-400.000000, -300.000000)" id="los-frick">
            <g transform="translate(400.000000, 300.000000)">
                <rect id="Area" fill="#FCE059" x="0" y="0" width="100" height="100"></rect>
                <g id="Group-46" transform="translate(9.000000, 39.000000)">
                    <path d="M3.542364,3.305295 L3.542364,3.305295 C3.292884,2.737665 3.400404,1.996575 2.849574,1.775655 C2.620884,1.683885 2.396604,1.643145 2.189754,1.643355 C1.293264,1.644405 0.723954,2.416785 1.539384,3.159555 C1.596294,3.165435 1.656984,3.169005 1.717464,3.169005 L1.720404,3.169005 C1.788024,3.169005 1.854594,3.164385 1.915704,3.154725 C1.939434,3.150945 1.962534,3.146325 1.983954,3.140865 C1.988784,3.139605 1.993824,3.138555 1.998234,3.137295 C2.127174,3.100755 2.205924,3.029565 2.158464,2.904615 C2.099034,2.913645 2.043174,2.917005 1.990884,2.915745 C1.337574,2.899155 1.249584,2.133285 1.813854,1.950375 C1.818264,1.948905 1.823094,1.948065 1.827504,1.946595 C1.892184,1.927275 1.964214,1.914675 2.045274,1.911945 C2.103024,1.910055 2.164974,1.912995 2.231334,1.921395 C3.009174,2.019465 3.389064,3.594885 2.494674,3.867045 C2.468634,3.875025 2.441754,3.882165 2.413404,3.887835 C2.377074,4.033575 2.521974,3.997875 2.486274,4.142775 C2.376024,4.158525 2.268084,4.165665 2.162874,4.164615 C1.146054,4.154535 0.394044,3.386985 0.446964,2.431275 C0.492954,1.594215 1.170414,1.219155 1.894284,1.21640664 C2.952264,1.212015 4.109994,2.002455 3.542364,3.305295 M6.345864,2.285535 C5.990754,1.617105 4.801104,1.512525 3.905664,1.193745 C3.203214,0.942585 2.594004,0.731745 1.866564,0.792435 C0.609924,0.897855 0.006804,1.692915 5.48692881e-05,2.941995 C-0.007476,4.494105 1.457484,5.204325 3.178224,4.944135 C4.181184,4.792305 5.753874,4.490325 6.237294,3.887835 C6.538644,3.511515 6.631044,2.821875 6.345864,2.285535" id="Fill-1" fill="#000000"></path>
                    <path d="M47.24265,2.795268 C47.17419,3.127698 46.97511,3.341268 46.72542,3.457398 C46.7145,3.462648 46.70358,3.467058 46.69245,3.471888 C46.68615,3.474408 46.67985,3.477348 46.67334,3.480078 C46.60635,3.506958 46.536,3.527328 46.46397,3.541608 C46.4625,3.541818 46.46124,3.542238 46.45998,3.542448 C46.02276,3.627078 45.52548,3.482598 45.29175,3.195108 C45.28692,3.189228 45.2823,3.183138 45.27789,3.177048 C45.2676,3.163818 45.25815,3.149958 45.24912,3.136098 C45.0954,2.897958 45.11388,2.576658 45.45828,2.212728 C45.75186,2.161698 46.08555,2.361408 46.22352,2.140698 C46.16283,2.008608 46.00512,1.953588 45.8304,1.944348 C45.60549,1.932378 45.35223,1.995588 45.24051,2.066988 C44.95302,2.249688 44.88498,2.541168 44.95218,2.845878 C45.02379,3.170328 45.2487,3.509478 45.52737,3.748668 C45.71721,3.911418 45.93162,4.027968 46.13889,4.061358 C46.14393,4.061988 46.14855,4.062198 46.15338,4.062828 C46.17501,4.065978 46.19685,4.068708 46.21827,4.069968 C46.24452,4.071438 46.27077,4.071438 46.2966,4.069968 C46.06098,4.121838 45.84027,4.134438 45.63846,4.113228 C45.00951,4.047498 44.56347,3.656058 44.40933,3.126438 C44.29614,2.738358 44.33961,2.275728 44.5851,1.812048 C44.62143,1.743378 44.66511,1.680588 44.71488,1.623678 C45.4566,0.774228 47.57109,1.207668 47.24265,2.795268 M48.29874,2.212728 C48.14397,0.966798 46.57128,-0.043092 45.16764,0.646758 C44.43789,1.005648 43.66782,2.310378 44.0013,3.268818 C44.11911,3.605658 44.48556,4.054008 44.8035,4.288368 C44.83164,4.309788 44.88687,4.309788 44.91186,4.324908 C46.58262,5.342358 48.52722,4.047918 48.29874,2.212728" id="Fill-3" fill="#000000"></path>
                    <path d="M22.236669,4.066545 C22.221969,4.060875 22.207689,4.053525 22.192989,4.047015 C22.151829,4.028955 22.111089,4.008375 22.071399,3.985485 C21.861819,3.865365 21.675549,3.679935 21.532539,3.414495 C22.302609,3.791445 23.728929,3.633525 24.008859,2.795205 C24.145989,2.392635 24.003819,2.098215 23.761899,1.929165 C23.358909,1.647345 22.678929,1.714755 22.552299,2.212665 C22.890609,2.257395 22.793589,1.957725 23.134209,1.958565 C23.223669,1.958565 23.303259,1.981245 23.371089,2.021355 C23.575209,2.141055 23.677059,2.414685 23.644089,2.686215 C23.572899,3.280305 22.900269,3.350235 22.348389,3.173625 C22.347339,3.173205 22.346289,3.172785 22.345449,3.172575 C22.296729,3.156825 22.249479,3.139185 22.203279,3.119865 C21.935739,3.008355 21.716499,2.839515 21.641949,2.649675 C21.056259,1.167075 23.194899,0.647535 24.044559,1.230075 C24.368589,1.450995 24.593289,1.997835 24.5909966,2.431275 C24.586149,3.559185 23.223669,4.453995 22.236669,4.066545 M24.336879,0.929145 C23.569119,0.571515 22.283919,0.594405 21.532539,1.193745 C20.739789,1.825005 20.741469,3.716475 21.459879,4.434255 C22.525839,5.500845 24.568929,4.723215 25.537869,4.106235 C26.459559,2.762025 25.281459,1.369725 24.336879,0.929145" id="Fill-5" fill="#000000"></path>
                    <path d="M11.663442,4.252143 C11.202702,4.103043 10.954482,3.800223 10.866072,3.441333 C10.639902,2.524053 11.456592,1.240953 12.428262,1.230033 C12.784212,1.225623 13.246212,1.342593 13.338822,1.702743 C12.526752,1.530543 11.594562,1.807533 11.335632,2.431233 C11.205012,2.745813 11.212362,3.005163 11.300352,3.201723 C11.563692,3.791613 12.552582,3.818283 12.718692,3.087483 C12.529692,3.284673 11.748912,3.736173 11.519592,3.206763 C11.504262,3.171483 11.491452,3.131793 11.481372,3.087483 C11.325972,2.400993 12.186132,1.912953 12.828102,2.140593 C13.036002,2.213463 13.669572,2.718723 13.738662,2.904573 C14.022162,3.663303 12.511632,4.526823 11.663442,4.252143 M15.887802,2.067093 C15.586872,1.772463 14.668122,1.528233 14.103432,1.302273 C13.142262,0.918393 11.729382,0.600453 10.934322,1.156533 C10.038462,1.784853 10.323642,3.932733 10.897782,4.507083 C11.869872,5.478963 15.385062,4.959213 15.997212,3.960663 C16.268112,3.519243 16.312842,2.484363 15.887802,2.067093" id="Fill-7" fill="#000000"></path>
                    <path d="M77.43015,0.909346341 C78.15402,0.912303 78.83148,1.287153 78.87768,2.124213 C78.9306,3.079923 78.17838,3.847473 77.16177,3.857763 C77.05656,3.858813 76.94841,3.851673 76.83837,3.835923 C76.80267,3.691023 76.94736,3.726723 76.91103,3.580983 C76.88289,3.575313 76.85601,3.568173 76.82997,3.560193 C75.93558,3.287823 76.31526,1.712403 77.09331,1.614333 C77.15946,1.606143 77.22141,1.603413 77.27916,1.605093 C77.36022,1.607823 77.43267,1.620423 77.49693,1.639953 C77.50155,1.641003 77.50617,1.642053 77.51079,1.643523 C78.07485,1.826223 77.98686,2.592513 77.33355,2.608893 C77.28126,2.610153 77.2254,2.606583 77.16597,2.597763 C77.11872,2.722503 77.19747,2.794113 77.3262,2.830443 C77.33061,2.831703 77.33586,2.832543 77.34048,2.833803 C77.36211,2.839263 77.385,2.844093 77.40873,2.847663 C77.46984,2.857533 77.53662,2.861943 77.60403,2.861943 C77.60508,2.861943 77.60613,2.862153 77.60718,2.862153 C77.66745,2.861943 77.72814,2.858373 77.78505,2.852703 C78.60048,2.109933 78.03117,1.337343 77.13489,1.336293 C76.92783,1.336083 76.70355,1.377033 76.47486,1.468803 C75.92403,1.689513 76.03176,2.430813 75.78207,2.998233 C75.21444,1.695393 76.37217,0.905163 77.43015,0.909346341 M73.08714,3.580983 C73.57056,4.183473 75.14325,4.485243 76.14642,4.637073 C77.86695,4.897263 79.33212,4.187043 79.3245891,2.634933 C79.31763,1.386063 78.71451,0.590793 77.45808,0.485373 C76.73043,0.424683 76.12143,0.635733 75.41877,0.886893 C74.52333,1.205463 73.33368,1.310253 72.97878,1.978683 C72.69339,2.515023 72.786,3.204663 73.08714,3.580983" id="Fill-9" fill="#000000"></path>
                    <path d="M54.7335214,2.124255 C54.731229,1.691025 54.955929,1.143975 55.279959,0.923265 C56.129409,0.340515 58.268259,0.860265 57.682569,2.342865 C57.608019,2.532495 57.388779,2.701545 57.121239,2.812845 C57.075039,2.832165 57.027789,2.850015 56.979069,2.865555 C56.978019,2.865975 56.977179,2.866395 56.976129,2.866605 C56.424249,3.043215 55.751619,2.973285 55.680429,2.379195 C55.647459,2.107875 55.749309,1.834245 55.953429,1.714545 C56.021469,1.674435 56.100849,1.651545 56.190309,1.651545 C56.530929,1.650915 56.433909,1.950585 56.772219,1.905855 C56.645379,1.407945 55.965609,1.340745 55.562619,1.622145 C55.320699,1.791195 55.178529,2.085825 55.315449,2.488395 C55.595379,3.326925 57.021699,3.484635 57.791769,3.107685 C57.649179,3.373125 57.462699,3.558555 57.253329,3.678465 C57.213429,3.701565 57.172899,3.721935 57.131529,3.739995 C57.116829,3.746505 57.102549,3.754065 57.087849,3.759735 C56.100849,4.146975 54.738159,3.252165 54.7335214,2.124255 M53.786649,3.799635 C54.755379,4.416405 56.798679,5.194035 57.864639,4.127235 C58.583259,3.409455 58.584729,1.517985 57.791769,0.886725 C57.040599,0.287595 55.755399,0.264915 54.987639,0.622125 C54.043059,1.062705 52.864959,2.455005 53.786649,3.799635" id="Fill-11" fill="#000000"></path>
                    <path d="M65.586066,2.597763 L65.586066,2.597763 C65.654946,2.411703 66.288516,1.906443 66.496416,1.833573 C67.138386,1.605933 67.998546,2.093973 67.843146,2.780463 C67.833066,2.824983 67.820256,2.864673 67.804926,2.899743 C67.575606,3.429363 66.795036,2.977653 66.605616,2.780463 C66.771726,3.511263 67.760616,3.484803 68.024376,2.894703 C68.112156,2.698353 68.119296,2.439003 67.988676,2.124213 C67.729956,1.500513 66.797766,1.223733 65.985696,1.395933 C66.078516,1.035573 66.540516,0.918813 66.896256,0.923223 C67.867926,0.934143 68.684616,2.217033 68.458446,3.134313 C68.370036,3.493203 68.121816,3.796233 67.661076,3.945123 C66.812886,4.219803 65.302146,3.356283 65.586066,2.597763 M63.327306,3.653643 C63.939666,4.652193 67.454646,5.171943 68.426526,4.200063 C69.000876,3.625923 69.286056,1.477833 68.390196,0.849723 C67.594926,0.293433 66.182256,0.611373 65.221086,0.995253 C64.656606,1.221423 63.737646,1.465653 63.436716,1.760073 C63.011676,2.177343 63.056406,3.212223 63.327306,3.653643" id="Fill-13" fill="#000000"></path>
                    <path d="M82.786179,14.340543 C82.812849,14.896623 80.361309,16.674273 80.346189,17.107503 C80.332539,17.526243 82.384869,18.886623 82.385709,19.292553 C82.387179,19.704573 81.152799,20.661963 80.710329,20.639913 C80.327289,20.621013 78.810459,18.641343 78.197469,18.403413 C78.177939,18.781203 78.341739,20.095803 78.237789,20.660493 C78.161769,20.875113 76.925289,20.763603 76.195329,20.786283 C75.976929,18.055863 75.902589,14.301693 76.049799,11.389833 C76.702059,11.339013 78.004689,11.208603 78.234009,11.499243 C78.593529,11.953683 78.044379,15.072393 78.416709,15.612093 C79.006389,15.248583 79.404549,14.911953 79.942569,14.373093 C80.246859,14.069643 81.281739,12.993813 81.469269,13.058913 C81.937149,13.222293 82.767279,13.927053 82.786179,14.340543" id="Fill-15" fill="#000000"></path>
                    <path d="M72.881319,19.844853 C72.970989,20.413953 71.285739,20.845713 70.222929,20.718873 C66.194079,20.240913 66.345279,14.408793 69.093129,12.773733 C70.137249,12.154023 71.923929,12.088503 73.248609,12.740343 C72.838899,13.691013 72.455019,14.550543 71.940729,15.359463 C68.908119,14.631813 68.444439,18.518703 70.549899,18.819003 C71.200899,18.912453 71.944299,18.527103 72.116499,18.527943 C72.421629,18.529203 72.822309,19.471683 72.881319,19.844853" id="Fill-17" fill="#000000"></path>
                    <path d="M64.541001,15.396696 C64.606311,16.929906 64.431171,19.350156 64.614711,20.786346 C64.155651,21.007266 63.551691,21.083076 62.865621,21.077826 C62.446251,19.215126 62.550831,16.634226 62.501691,14.521836 C63.603981,14.375466 64.493121,14.263746 64.541001,15.396696" id="Fill-19" fill="#000000"></path>
                    <path d="M63.135177,10.918005 C64.297317,10.407285 64.931097,11.801895 64.149477,12.562095 C63.736827,12.963405 62.618367,13.058955 62.469687,12.247305 C62.338437,11.525115 62.706567,11.106165 63.135177,10.918005" id="Fill-21" fill="#000000"></path>
                    <path d="M55.47675,16.124115 C56.63847,15.955695 57.88419,15.393525 57.84387,14.157675 C57.80838,13.065255 56.28252,12.485445 55.07544,12.992385 C55.1901,13.913445 54.87594,15.569505 55.47675,16.124115 M60.32565,19.156095 C60.3372,19.550475 59.25297,20.540625 58.86888,20.543565 C58.42662,20.545875 57.58599,19.545855 57.29094,19.186965 C56.90706,18.718245 56.42889,18.241755 55.86819,18.090765 C55.60506,18.747645 55.94484,20.303115 55.75227,21.305445 C55.08615,21.635355 54.45657,21.660345 53.5437,21.623805 C53.4009,19.385835 53.445,17.055255 53.5437,14.594685 C53.58381,13.579545 53.52165,12.238065 53.82888,12.046125 C54.77661,11.452875 56.94255,11.358795 58.02216,11.790345 C60.18684,12.656175 59.82102,15.998955 57.80376,16.706865 C58.16937,17.179365 60.31515,18.755205 60.32565,19.156095" id="Fill-23" fill="#000000"></path>
                    <path d="M55.764471,15.432186 C56.609511,15.602916 57.218091,14.869176 57.196671,14.210196 C57.177141,13.592376 56.586831,13.040076 55.655901,13.356336 C55.544391,13.962606 55.565601,14.914116 55.764471,15.432186 M57.843891,14.157696 C57.884211,15.393546 56.638491,15.955716 55.476771,16.124136 C54.875961,15.569526 55.190121,13.913466 55.075461,12.992406 C56.282541,12.485466 57.808191,13.065276 57.843891,14.157696" id="Fill-25" fill="#000000"></path>
                    <path d="M51.069627,8.579697 C51.213897,9.553887 51.176517,10.976427 51.103647,12.046167 C49.824537,12.257847 48.326817,12.191907 46.951527,12.373137 C46.912677,12.684987 47.210037,14.024997 47.206887,14.413287 C47.942937,14.700777 48.878277,14.345037 49.537047,14.448987 C49.564977,14.936187 49.645407,15.742587 49.537047,16.124157 C49.339017,16.225797 47.785857,16.222227 47.607777,16.479267 C47.665947,18.084717 48.185907,19.769757 48.372387,21.368277 C48.028827,21.570087 46.422537,21.966987 45.276147,21.878157 C44.792727,17.583237 44.446857,13.246527 44.257227,8.731527 C46.361007,8.447607 48.868617,8.527407 51.069627,8.579697" id="Fill-27" fill="#000000"></path>
                    <path d="M21.714735,15.213765 C22.594845,16.275945 24.529365,16.023945 24.5182828,18.055065 C24.512775,19.162815 23.930865,20.249985 22.952265,20.603625 C21.623595,21.083685 18.425085,20.830425 19.456815,19.073985 C20.488755,19.125645 21.867825,18.989145 21.605325,17.835825 C21.311115,16.543695 18.865035,16.674945 18.619335,14.995155 C18.212565,12.227355 20.847435,10.413585 23.716875,11.098395 C23.796675,11.801055 23.696505,12.629505 23.499105,13.174245 C22.166025,12.658485 20.730675,14.027265 21.714735,15.213765" id="Fill-29" fill="#000000"></path>
                    <path d="M15.55953,15.432186 C15.64437,14.630406 15.49485,13.974786 14.97762,13.575786 C13.88562,12.733476 12.38034,13.795026 12.17328,14.850276 C12.00948,15.681246 12.36837,17.050446 13.59288,17.180226 C14.70294,17.298876 15.43647,16.596006 15.55953,15.432186 M15.52614,13.098456 C17.73387,15.047676 16.4199,20.335056 12.79173,19.802916 C10.017,19.395726 9.55353,14.633976 11.62707,13.098456 C12.7659,12.255516 14.60424,12.285336 15.52614,13.098456" id="Fill-31" fill="#000000"></path>
                    <path d="M12.900888,16.124115 C14.353038,18.000465 16.013088,14.348145 14.322168,13.794165 C13.165068,13.546155 12.416838,15.199485 12.900888,16.124115 M14.977578,13.575765 C15.495018,13.974975 15.644328,14.630385 15.559488,15.432165 C15.436428,16.595985 14.702898,17.298645 13.592838,17.180205 C12.368328,17.050635 12.009438,15.681225 12.173238,14.850465 C12.380298,13.795005 13.885578,12.733455 14.977578,13.575765" id="Fill-33" fill="#000000"></path>
                    <path d="M8.312262,17.872197 C8.682702,18.570867 8.589252,19.732377 8.713572,20.676537 C7.166712,21.205947 5.321652,21.436737 3.614562,21.805287 C2.345112,18.110547 1.662402,13.633977 1.612422,8.840727 C2.328522,8.619807 4.543182,8.166207 5.071962,8.804187 C5.118162,8.861097 5.231982,9.076557 5.254032,9.242037 C5.586462,11.770017 5.264532,16.045407 6.018852,18.163677 C6.853392,18.268257 7.933632,17.846367 8.312262,17.872197" id="Fill-35" fill="#000000"></path>
                    <g id="Group-39" transform="translate(27.300000, 0.088620)">
                        <mask id="mask-2" fill="white">
                            <use xlink:href="#path-1"></use>
                        </mask>
                        <g id="Clip-38"></g>
                        <path d="M9.368625,13.361271 C10.696875,13.296381 11.010195,11.673921 10.902885,9.972291 C10.856895,9.243171 10.723545,8.484651 10.527825,7.857381 C10.394265,7.429821 10.248105,7.121961 10.175865,6.835101 C10.065825,6.399561 10.570245,6.063141 10.744335,6.052221 C11.378115,6.012741 11.972625,6.495951 12.400185,7.209531 C12.845595,7.953771 13.091925,9.197811 13.160385,9.851961 C13.401885,12.165741 13.163955,14.197491 11.425785,15.176721 C10.587465,15.648801 9.799965,15.426411 8.884575,16.144611 C8.797635,17.415531 8.641395,18.714171 9.045855,19.734771 C9.959145,19.083141 10.868445,19.435101 11.933775,19.123041 C11.284245,20.006511 11.226075,20.430081 11.383155,20.581701 C11.728395,20.914971 12.917625,20.447721 13.200705,19.936581 C13.286595,21.093681 12.153225,21.215901 12.393885,22.397151 C8.893605,22.501101 4.761435,22.520001 1.260735,22.275981 C1.432515,22.165731 1.669605,22.120371 1.785105,21.953421 C1.956045,21.305781 0.760095,20.889561 0.011025,20.662551 C1.085595,19.551861 4.541145,22.394001 3.882585,19.492641 C4.495575,19.556691 4.779075,20.149941 5.576655,19.896051 C5.270685,17.362401 5.632725,16.238691 5.576655,14.813421 C5.549355,14.114121 3.832815,14.047761 2.712885,13.280631 C0.487935,11.756871 0.336735,6.674241 1.342215,3.518781 C1.908165,1.743441 4.101825,2.916291 4.205355,4.204641 C4.265835,4.958751 3.706605,6.005391 3.559815,6.947661 C3.313065,8.532951 3.559185,10.321311 4.124505,11.304111 C4.409265,11.817771 5.703495,12.080901 5.899425,11.304111 C6.345465,9.537381 5.879475,5.200251 5.657505,3.115581 C5.496855,1.607571 5.127675,-0.497469 7.486815,0.293601 C8.438115,0.612801 8.639295,2.180451 8.897595,3.591441 C9.201465,5.252541 9.321375,7.368081 9.207135,9.166101 C9.112845,10.650591 8.684865,12.483681 9.368625,13.361271" id="Fill-37" fill="#000000" mask="url(#mask-2)"></path>
                    </g>
                    <path d="M33.662181,1.414476 C33.869871,1.414476 33.912081,1.596126 33.918171,1.686846 C34.123971,4.788966 34.826841,7.755846 34.885641,10.996146 C34.908321,12.233886 34.555311,13.574736 34.433091,14.828856 C34.267401,16.524816 34.068111,18.105066 34.141191,19.779186 C33.447981,18.861696 33.593511,17.370696 33.662181,16.266096 C33.799941,14.049126 34.362111,11.907546 34.221201,9.638706 C34.142661,8.374926 33.966261,7.100436 33.821991,5.806206 C33.674361,4.482576 33.408711,3.165666 33.502371,1.654086 C33.530721,1.549296 33.552561,1.483146 33.662181,1.414476" id="Fill-40" fill="#000000"></path>
                    <path d="M29.908011,3.490473 C28.786191,6.054363 28.641921,11.677533 30.979221,13.442373 C31.119711,13.548633 31.269231,13.640823 31.428201,13.717473 C31.554831,13.778583 31.559661,13.845993 31.430721,13.813653 C29.908431,13.432083 28.786821,11.248923 28.552041,9.239433 C28.284081,6.945813 28.686651,4.762233 29.508801,3.437133 C29.638581,3.230913 29.839761,3.394503 29.908011,3.490473" id="Fill-42" fill="#000000"></path>
                    <path d="M38.666292,7.030947 C38.615892,6.868407 38.703462,6.840897 38.905692,7.030947 C40.283922,8.954547 40.975242,14.720727 37.788912,14.932827 C37.686222,14.939547 37.530192,14.826567 37.566942,14.779527 C37.636662,14.689857 37.718562,14.616567 37.807812,14.552727 C38.117142,14.330337 38.509002,14.216727 38.745882,13.897527 C39.880512,12.369777 39.146772,8.910447 38.666292,7.030947" id="Fill-44" fill="#000000"></path>
                </g>
            </g>
        </g>
    </g>
</svg>