<?xml version="1.0" encoding="UTF-8"?>
<svg width="100px" height="100px" viewBox="0 0 100 100" version="1.1" xmlns="http://www.w3.org/2000/svg" xmlns:xlink="http://www.w3.org/1999/xlink">
    <!-- Generator: Sketch 59 (86127) - https://sketch.com -->
    <title>manouche</title>
    <desc>Created with Sketch.</desc>
    <g id="Logos" stroke="none" stroke-width="1" fill="none" fill-rule="evenodd">
        <g transform="translate(-300.000000, -100.000000)" id="manouche">
            <g transform="translate(300.000000, 100.000000)">
                <rect id="Area" fill="#FCE059" x="0" y="0" width="100" height="100"></rect>
                <path d="M49.5803618,61.257468 C41.979711,61.257468 35.8181252,55.0958821 35.8181252,47.4952314 C35.8181252,39.8945806 41.979711,33.7329948 49.5803618,33.7329948 C57.1810126,33.7329948 63.3425984,39.8945806 63.3425984,47.4952314 C63.3425984,55.0958821 57.1810126,61.257468 49.5803618,61.257468 M49.5803618,32.6751669 C41.3917961,32.6751669 34.7533149,39.3136481 34.7533149,47.5022137 C34.7533149,55.6911286 41.3917961,62.3292606 49.5803618,62.3292606 C57.7689275,62.3292606 64.4074087,55.6911286 64.4074087,47.5022137 L64.4074087,47.4987226 C64.3976334,39.3143463 57.7643889,32.6828475 49.5803618,32.6751669" id="Fill-297" fill="#000000"></path>
                <path d="M18.2470098,32.675097 C17.9652715,32.6583394 17.7194924,32.8632717 17.6849297,33.1429153 L14.822161,57.266978 L11.9559012,33.1464065 C11.9223858,32.8534964 11.6574052,32.6429782 11.364146,32.6768426 C11.0939285,32.7079142 10.8903927,32.9369356 10.8910891,33.2092478 L10.8910891,61.7915489 C10.8907418,62.0865537 11.1295386,62.3260487 11.4245434,62.3263982 C11.7195482,62.326747 11.9590433,62.0879502 11.9593924,61.7929454 L11.9593924,61.7915489 L11.9593924,42.2409337 L14.2915015,61.8648637 C14.3498042,62.1539335 14.6311934,62.3414099 14.9206123,62.2834563 C15.1314797,62.2408639 15.2966126,62.075731 15.3388558,61.8648637 L17.6674738,42.2409337 L17.6674738,61.7915489 C17.6678229,62.0865537 17.9073179,62.3253505 18.2023227,62.3250014 C18.4969784,62.3246523 18.735077,62.0862046 18.7357769,61.7915489 L18.7357769,33.2092478 C18.7364735,32.9310006 18.5242096,32.6988371 18.2470098,32.675097" id="Fill-299" fill="#000000"></path>
                <path d="M24.7721673,58.4401196 L22.2585168,58.4401196 L23.5289576,40.7119011 L24.7931144,58.4401196 L24.7721673,58.4401196 Z M23.5324488,32.6752018 L23.5324488,32.6752018 C23.2545508,32.6779947 23.0255293,32.8937497 23.0052805,33.1709495 L20.952815,61.7532506 C20.985283,62.0465099 21.2495654,62.2573772 21.5428246,62.2245601 C21.7620708,62.2001218 21.9436122,62.0433678 22.0001694,61.8300566 L22.1677461,59.5049299 L24.7543623,59.5049299 C24.7857829,59.5084211 24.8175527,59.5084211 24.8489733,59.5049299 L25.0127097,61.837039 C25.0329585,62.1170317 25.2665186,62.333485 25.5472095,62.3327884 L25.5852634,62.3327884 C25.8792209,62.3121888 26.10126,62.0576816 26.0810112,61.7637242 L24.0460016,33.1779319 C24.0313386,32.9024777 23.8082522,32.6839297 23.5324488,32.6752018 L23.5324488,32.6752018 Z" id="Fill-301" fill="#000000"></path>
                <path d="M32.0719481,32.6750874 C31.7783397,32.6733515 31.5384956,32.9086571 31.5343061,33.2022654 L31.5343061,52.9169661 L29.1397049,33.1464065 C29.0670883,32.8604788 28.7762729,32.6876653 28.4899961,32.760631 C28.2780814,32.8143952 28.1206291,32.9924454 28.0923505,33.2092478 L28.0923505,61.7915489 C28.0682614,62.0855064 28.2871584,62.3431555 28.581465,62.3672447 C28.8754225,62.3909847 29.1330717,62.1720876 29.1568117,61.8777811 C29.1592555,61.8491534 29.1592555,61.8201766 29.1568117,61.7915489 L29.1568117,42.0838306 L31.5521112,61.8543902 C31.5838809,62.1235602 31.811855,62.3260487 32.0824216,62.3256996 L32.1138422,62.3256996 C32.3966279,62.308942 32.6172706,62.0746837 32.6169219,61.7915489 L32.6169219,33.2092478 C32.6169219,32.914243 32.3777755,32.6750874 32.0824216,32.6750874 L32.0719481,32.6750874 Z" id="Fill-303" fill="#000000"></path>
                <path d="M70.8206389,32.675097 C70.525634,32.675097 70.2864881,32.914243 70.2864881,33.2092478 L70.2864881,59.8329962 C70.3514241,60.5626531 69.8127348,61.2071251 69.0827288,61.2724102 C68.3534211,61.3373462 67.708949,60.7986569 67.6436639,60.0686509 C67.6366815,59.9904485 67.6366815,59.9115478 67.6436639,59.8329962 L67.6436639,33.2092478 C67.6436639,32.914243 67.404518,32.675097 67.1095132,32.675097 C66.8145083,32.675097 66.5753624,32.914243 66.5753624,33.2092478 L66.5753624,59.8329962 C66.5247403,61.1547574 67.5549879,62.2673969 68.8770982,62.318019 C70.1988595,62.368292 71.3111498,61.3380444 71.361772,60.0162832 C71.3642158,59.9551875 71.3642158,59.8940919 71.361772,59.8329962 L71.361772,33.2092478 C71.361772,32.914243 71.122626,32.675097 70.8276212,32.675097 L70.8206389,32.675097 Z" id="Fill-305" fill="#000000"></path>
                <path d="M84.0697416,32.6750874 C83.7764824,32.6733515 83.5376856,32.9090062 83.5355909,33.2022654 L83.5355909,33.2092478 L83.5355909,46.6886987 L80.2748276,46.6886987 L80.2748276,33.2092478 C80.2748276,32.914243 80.0356817,32.6750874 79.7406768,32.6750874 C79.445672,32.6750874 79.2065261,32.914243 79.2065261,33.2092478 L79.2065261,61.7915489 C79.2065261,62.0865537 79.445672,62.3256996 79.7406768,62.3256996 C80.0356817,62.3256996 80.2748276,62.0865537 80.2748276,61.7915489 L80.2748276,47.7570002 L83.5355909,47.7570002 L83.5355909,61.7915489 C83.5355909,62.0865537 83.7747368,62.3256996 84.0697416,62.3256996 C84.3647464,62.3256996 84.6038924,62.0865537 84.6038924,61.7915489 L84.6038924,33.2092478 C84.6038924,32.914243 84.3647464,32.6750874 84.0697416,32.6750874" id="Fill-307" fill="#000000"></path>
                <path d="M90.5983204,33.7434334 C90.8933253,33.7430843 91.1321221,33.5035893 91.1314253,33.2085845 C91.1310747,32.9142779 90.8929761,32.6754811 90.5983204,32.6751223 L87.6343075,32.6751223 C87.3410483,32.6733864 87.1019024,32.9090411 87.0998015,33.2023003 L87.0998015,33.2092827 L87.0998015,61.7915838 C87.0984112,62.084843 87.3340659,62.3239889 87.6269761,62.3257345 L87.6343075,62.3257345 L90.2352376,62.3257345 C90.5302424,62.3253854 90.7690392,62.0858904 90.7686901,61.7908856 C90.7679918,61.496579 90.5295442,61.2577822 90.2352376,61.2574331 L88.1719495,61.2574331 L88.1719495,47.7570351 L89.1840429,47.7570351 C89.4793968,47.756686 89.7181936,47.5171909 89.7178445,47.2221861 C89.7174954,46.9278795 89.4786986,46.6890827 89.1840429,46.6887336 L88.1719495,46.6887336 L88.1719495,33.7434334 L90.5983204,33.7434334 Z" id="Fill-309" fill="#000000"></path>
                <path d="M75.9248157,33.7434334 L77.0699232,33.7434334 C77.364928,33.7430843 77.6040739,33.5035893 77.6033757,33.2085845 C77.6030266,32.9142779 77.3645789,32.6754811 77.0699232,32.675132 L75.9248157,32.675132 C74.7063934,32.675132 73.714898,33.79231 73.714898,35.1678354 L73.714898,59.8330311 C73.714898,61.2085565 74.7102337,62.3257345 75.9283069,62.3257345 L77.0734144,62.3257345 C77.3684192,62.3253854 77.607216,62.0858904 77.6068672,61.7908856 C77.6065177,61.496579 77.3680701,61.2577822 77.0734144,61.2574331 L75.9283069,61.2574331 C75.3065275,61.2574331 74.7828503,60.6045822 74.7828503,59.8330311 L74.7828503,35.1678354 C74.7828503,34.3962843 75.3065275,33.7434334 75.9248157,33.7434334" id="Fill-311" fill="#000000"></path>
            </g>
        </g>
    </g>
</svg>