<?xml version="1.0" encoding="UTF-8"?>
<svg width="100px" height="100px" viewBox="0 0 100 100" version="1.1" xmlns="http://www.w3.org/2000/svg" xmlns:xlink="http://www.w3.org/1999/xlink">
    <!-- Generator: Sketch 59 (86127) - https://sketch.com -->
    <title>maracana-mais</title>
    <desc>Created with Sketch.</desc>
    <g id="Logos" stroke="none" stroke-width="1" fill="none" fill-rule="evenodd">
        <g transform="translate(-400.000000, -100.000000)" id="maracana-mais">
            <g transform="translate(400.000000, 100.000000)">
                <rect id="Area" fill="#FCE059" x="0" y="0" width="100" height="100"></rect>
                <path d="M32.8443374,71.8953323 L33.1620349,71.6998261 C34.1102397,71.1538054 34.6346151,70.0889951 34.4886838,69.0046342 C34.3207579,67.8385796 33.4413294,66.7388575 32.393975,66.6201574 C31.3487153,66.5342743 30.298568,66.5227534 29.2519118,66.5852455 C28.9164093,66.5946717 28.6521269,66.8743154 28.6619022,67.2098179 C28.6622513,67.2262264 28.6632987,67.242635 28.6650443,67.2590435 C28.6650443,69.6190821 28.6650443,71.9791206 28.6863405,74.3426503 C28.7257908,74.5992522 28.8891781,74.8195457 29.1227381,74.93266 C29.3800382,74.9637315 29.6373383,74.8750555 29.8209744,74.6917685 C29.9477043,74.4910255 30.0049596,74.2543235 29.9850599,74.0179705 C30.006007,73.354646 29.9850599,72.6913216 29.9850599,72.0419619 C30.7985051,71.8499469 31.3815324,71.9337353 31.7865095,72.7401981 C32.1199173,73.3532496 32.4917281,73.9443066 32.9001963,74.510227 C33.2178938,74.9955012 33.5600295,75.107219 33.9475507,74.8593452 C34.3350718,74.6114713 34.3630012,74.2623532 34.0557773,73.7596231 C33.6787297,73.1381928 33.2877174,72.5237449 32.8862316,71.8813675 M30.1173757,70.5861393 C30.0423153,70.5690325 29.9686514,70.5445942 29.8977804,70.5128245 L29.8977804,68.3203626 C29.9442131,68.1506912 30.076878,68.0180263 30.2468985,67.9712445 C30.8725182,67.9380783 31.4991852,67.9380783 32.1248049,67.9712445 C32.7256372,67.999174 33.2144026,68.7253397 33.1721593,69.482926 C33.2035799,70.0607165 32.760549,70.5540204 32.1827585,70.585441 C32.1335329,70.5878849 32.083609,70.5868375 32.0343833,70.5826481 L30.103411,70.5826481" id="Fill-337" fill="#000000"></path>
                <path d="M27.6075655,73.8260602 C26.6401591,71.7104044 25.6839246,69.5877662 24.6854467,67.4790927 C24.576871,67.2486747 24.2417176,66.9589067 24.0291047,66.9728714 C23.7337507,67.045488 23.4816874,67.2361065 23.3308684,67.5000398 C23.0613492,68.000326 22.8197595,68.5156244 22.6081939,69.0431419 C21.8610811,70.6770147 21.1104771,72.3073964 20.3703467,73.9307957 C20.164367,74.3846492 20.2862092,74.7582056 20.6601147,74.9222912 C21.0336711,75.0863767 21.358351,74.9432383 21.6093669,74.4684376 C21.7406353,74.2338302 21.8572408,73.9911931 21.958485,73.7422719 C22.038084,73.4755456 22.3065558,73.3121584 22.5802644,73.3652243 C23.2868795,73.4158464 23.9959384,73.4158464 24.7029026,73.3652243 C25.6210833,73.2604889 26.2006194,73.5293098 26.4031079,74.4439993 C26.4230077,74.5696819 26.4938786,74.6820979 26.598265,74.7547145 C26.8217006,74.8793496 27.0765568,74.9362559 27.3317621,74.9188 C27.541233,74.8594499 27.6808803,74.5696819 27.8379834,74.4335258 C27.7468636,74.1577225 27.7049694,73.9831634 27.6316546,73.8225691 L27.6075655,73.8260602 Z M22.6780175,72.0246107 C23.1039416,71.1134124 23.5019363,70.2545818 23.8999309,69.3957512 L24.1582784,69.4236807 L25.2929123,72.0246107 L22.6780175,72.0246107 Z" id="Fill-338" fill="#000000"></path>
                <path d="M45.4160113,28.0776208 C45.506782,28.1055503 45.6499205,27.8681499 45.8768473,27.6482055 C45.6464293,27.4352434 45.4963085,27.2048255 45.4020466,27.2362461 C45.3074356,27.2676667 45.1576639,27.5120494 45.0529285,27.6621702 C45.1751198,27.8087998 45.2833464,28.0357266 45.4299761,28.0776208" id="Fill-339" fill="#000000"></path>
                <path d="M63.1057919,30.1932767 C63.3222452,30.1932767 63.5352072,29.9838058 63.9052725,29.7778261 C63.5561543,29.564864 63.3257364,29.3309549 63.1337214,29.3484108 C62.9085402,29.4105538 62.7273479,29.5784796 62.6484472,29.7987732 C62.6205177,29.9035086 62.9451976,30.1932767 63.1057919,30.1932767" id="Fill-340" fill="#000000"></path>
                <path d="M42.1447396,28.9188558 L42.4310164,28.9188558 C42.5951019,28.6954202 42.846467,28.4929317 42.9058171,28.2520402 C42.9965878,27.9029221 42.7138021,27.6690129 42.3227898,27.651557 C41.9317775,27.6341011 41.6036065,27.8680103 41.6734301,28.248549 C41.7156734,28.4859494 41.980654,28.6919291 42.1447396,28.9118735" id="Fill-341" fill="#000000"></path>
                <path d="M43.7577002,29.3622708 C43.9476205,29.3228204 44.105771,29.1922502 44.1801332,29.0131526 C44.1801332,28.8944525 43.9566976,28.7478229 43.7402443,28.5208961 C43.5482293,28.7513141 43.3247937,28.9014348 43.3422497,29.0306086 C43.4110259,29.2111026 43.5681291,29.3430693 43.7577002,29.3797267" id="Fill-342" fill="#000000"></path>
                <path d="M45.0283506,29.156326 C44.9578287,29.4167681 45.1114407,29.68524 45.3718828,29.7561109 C45.4504344,29.7774071 45.5324771,29.7788036 45.611727,29.7603004 C45.9105721,29.6831452 46.1542565,29.4659938 46.2642287,29.1772731 C46.32707,28.8714456 46.1298183,28.5722514 45.8236417,28.5094101 C45.7611495,28.4968418 45.6962135,28.494398 45.6323249,28.5034751 C45.3296395,28.4689124 45.05628,28.686413 45.0217173,28.9890984 C45.0157823,29.0449573 45.017877,29.1011653 45.0283506,29.156326" id="Fill-343" fill="#000000"></path>
                <path d="M46.7217829,30.1897157 C46.9172891,30.2141539 47.1508491,29.9942095 47.5387194,29.7847386 C47.1896012,29.5682854 46.9762901,29.3553233 46.7671683,29.348341 C46.5573483,29.3413586 46.260947,29.6066884 46.2818941,29.6974591 C46.3370548,29.9212438 46.503235,30.1017379 46.7217829,30.1757509" id="Fill-344" fill="#000000"></path>
                <path d="M40.4796207,19.6148927 C40.6468482,19.6358397 40.8496859,19.4438248 41.2054372,19.2657745 C40.8563191,19.0353566 40.6576709,18.8084298 40.4691471,18.811921 C40.2617709,18.8698746 40.099431,19.0311671 40.0393827,19.2378451 C40.0393827,19.3635276 40.3050616,19.6044191 40.4796207,19.6288574" id="Fill-345" fill="#000000"></path>
                <path d="M28.4138887,37.9052612 C32.5544297,39.7800255 36.9568093,40.5969619 41.4185389,41.0857273 C44.0927838,41.3824777 46.791816,41.4557925 49.1654702,41.6059133 C51.0995846,41.5081603 52.7128595,41.3964425 54.3289273,41.3440747 C57.0003792,41.2498128 59.6603102,40.9495713 62.2856785,40.4468412 C65.3715337,39.8603227 68.4123526,39.095754 71.2611565,37.7027727 C72.7658556,36.9696246 74.1696596,36.0758822 75.1014559,34.5956213 C75.7864257,33.5709596 75.8552019,32.2537369 75.2795061,31.1637901 C74.6706441,29.9977356 73.7290725,29.0390572 72.5738407,28.4092481 C70.3883612,27.1454405 68.0387962,26.1902533 65.5914781,25.5709177 C64.4362462,25.2462379 63.2663514,24.9704346 62.1002968,24.7190695 C61.8911751,24.6736841 61.6394609,24.8377697 61.4020606,24.9041021 C61.5612584,25.0657438 61.7452437,25.2012016 61.9466848,25.305588 C62.3694669,25.4452352 62.815989,25.5150588 63.2488955,25.6197943 C65.7415989,26.230751 68.2308111,26.8591636 70.5803761,27.9274651 C71.9943046,28.5698425 73.3733212,29.3239376 74.3787814,30.563307 C75.3214003,31.7223791 75.3042935,32.8779601 74.3473607,34.03005 C74.0886642,34.3348301 73.8009909,34.6144737 73.4885301,34.8644423 C71.7642357,36.2888443 69.7075808,37.0115188 67.630328,37.6573873 C63.2974229,38.9575032 58.8123023,39.6815742 54.2905243,39.8114462 C51.0964426,39.9406199 47.8845558,39.8638139 44.6862846,39.7171843 C42.2215106,39.6019753 39.7602278,39.2738042 37.3094186,38.9595979 C34.8048451,38.6104798 32.3463553,37.9866057 29.9779379,37.0987983 C28.2323473,36.4703857 26.5429646,35.7023258 25.1985107,34.3233092 C23.8544059,32.9442926 23.875353,31.2859815 25.3695786,30.0082091 C26.4361345,29.0830461 27.6444323,28.3359333 28.9480394,27.7948002 C31.6816344,26.674131 34.5339295,25.9793859 37.3897158,25.2776585 C37.5820798,25.2322732 37.7388339,25.0088375 37.895937,24.8691903 C37.6972888,24.8098402 37.4808356,24.6632106 37.298945,24.6981224 C34.6201616,25.2050419 31.9982845,25.9769421 29.4717166,27.0023021 C27.8308614,27.6830824 26.2636701,28.4825629 24.9750751,29.7568441 C23.2294845,31.5024347 23.1631521,33.6914054 24.8493926,35.4823814 C25.8684684,36.5154219 27.0809557,37.3375951 28.417729,37.90177" id="Fill-346" fill="#000000"></path>
                <path d="M37.6587113,32.3089674 C37.3717362,32.3913593 37.1455076,32.6133984 37.0582281,32.8989771 C36.981073,33.1835083 37.1489988,33.4771167 37.4335301,33.5542718 C37.5002116,33.5724259 37.569337,33.5773136 37.6374151,33.5692839 C37.8751645,33.5308809 38.0811442,33.2550775 38.3045798,33.0840097 L38.3045798,32.7872593 C38.0877774,32.6161914 37.8573595,32.2845292 37.6587113,32.3089674" id="Fill-347" fill="#000000"></path>
                <path d="M62.2296102,31.2684208 C62.2121543,31.7013273 62.4914488,31.8793776 62.8580228,31.8828687 C63.2245968,31.8863599 63.5562591,31.6803802 63.4689795,31.2788944 C63.3869368,30.9835404 63.1732765,30.7422998 62.8894434,30.6260435 C62.5403253,30.559711 62.2365925,30.8320232 62.2296102,31.2684208" id="Fill-348" fill="#000000"></path>
                <path d="M37.0582979,29.5160224 C37.0010425,29.8288322 37.2087678,30.1287247 37.5215777,30.1859801 C37.5715016,30.1950572 37.6221237,30.197501 37.6727458,30.1933116 C37.9974257,30.2167025 38.2802114,29.9723198 38.3036023,29.6472908 C38.3053479,29.6235508 38.305697,29.5994616 38.3043005,29.5753725 C38.3043005,29.2262544 38.1297414,28.9539422 37.5156427,28.9260128 C37.4000846,29.0621688 37.1036833,29.2751309 37.0582979,29.5160224" id="Fill-349" fill="#000000"></path>
                <path d="M37.8261134,31.041529 C37.6899573,31.079932 37.585571,31.3278058 37.4769953,31.4884002 C37.6026778,31.6280474 37.721378,31.8619566 37.857534,31.8829037 C37.9936901,31.9038507 38.1019167,31.6594681 38.3148788,31.4430148 C38.0952835,31.2440175 37.9448136,31.0101083 37.836587,31.041529" id="Fill-350" fill="#000000"></path>
                <path d="M49.2143816,23.9858865 C49.1724875,23.7729245 48.9350871,23.6123301 48.777984,23.4272975 C48.6348456,23.6088389 48.4047767,23.7764156 48.3799893,23.975413 C48.3555511,24.1744103 48.5754955,24.3454782 48.7853155,24.6980875 C49.0049108,24.3489694 49.2458023,24.1325161 49.2143816,23.9998512" id="Fill-351" fill="#000000"></path>
                <path d="M57.5339015,29.7708786 C57.6979871,29.7708786 57.8830197,29.5648989 58.0296493,29.4461988 L58.0296493,29.2297455 C57.8620726,29.1180277 57.6805312,28.9190304 57.5269192,28.9260128 C57.3733072,28.9329951 57.177801,29.1983249 57.177801,29.3414633 C57.177801,29.4846018 57.3946034,29.7673875 57.5269192,29.7708786" id="Fill-352" fill="#000000"></path>
                <path d="M62.6486218,32.8186799 C62.6486218,32.9443624 62.8999868,33.1224127 63.0710547,33.167798 C63.2417735,33.2131834 63.4760317,32.9967301 63.4861561,32.8885035 C63.4969788,32.7802769 63.3115971,32.5987355 63.137038,32.3229321 C62.8926553,32.5742972 62.6556041,32.7104533 62.6660777,32.8361358" id="Fill-353" fill="#000000"></path>
                <path d="M59.2900355,30.9752314 C59.2900355,30.8460577 59.0103919,30.7343399 58.8571291,30.6261133 C58.7139906,30.7483047 58.4867147,30.8600225 58.452152,30.9996697 C58.4172402,31.139317 58.6438179,31.2510348 58.8291996,31.4709792 C59.0522861,31.2475436 59.30016,31.1218611 59.2900355,30.985705" id="Fill-354" fill="#000000"></path>
                <path d="M59.7298546,29.9662102 C59.6530486,30.3153284 59.9044136,30.5946229 60.3896878,30.6155699 C60.7077344,30.6194102 60.9688748,30.364554 60.972366,30.0461583 C60.9730642,30.0147376 60.9706204,29.983317 60.9657327,29.9522455 C60.8711217,29.6554951 60.6312776,29.4278701 60.3303377,29.3482711 C60.1281983,29.3482711 59.7892046,29.6973893 59.7298546,29.9662102" id="Fill-355" fill="#000000"></path>
                <path d="M59.4612082,28.9224518 C59.691277,28.9224518 59.9045882,28.6082454 60.1241835,28.4336864 L60.1241835,28.1578831 C59.9112214,27.983324 59.709082,27.7040295 59.4748238,27.6656265 C59.1501439,27.6097676 58.8816721,27.8401856 58.8677073,28.2486538 C58.813594,28.5621619 59.023414,28.8603087 59.3372712,28.914422 C59.3767216,28.9214044 59.4172193,28.9238482 59.4573679,28.9224518" id="Fill-356" fill="#000000"></path>
                <path d="M61.2835001,23.0048297 C61.4266385,23.0048297 61.5662857,22.7813941 61.8071772,22.5614497 C61.5694278,22.3589611 61.4161649,22.1320344 61.3075892,22.163455 C61.1288407,22.2472433 60.999667,22.4099324 60.9584711,22.6033438 C60.9584711,22.7185528 61.1644508,23.011812 61.2730265,23.0048297" id="Fill-357" fill="#000000"></path>
                <path d="M77.9293476,34.1032949 C77.9084006,34.623481 77.7338415,35.1506493 77.6814738,35.6568706 C77.6856632,35.8342226 77.7722445,35.9993555 77.9153829,36.1037418 C77.9852065,36.1491272 78.2404119,36.0164623 78.3517806,35.9117269 C78.4634984,35.7951214 78.5315764,35.6436041 78.5441447,35.4823116 C78.6171104,34.7704597 78.607335,34.0523237 78.5162152,33.3422174 C78.2522819,32.1129725 77.3990372,31.0928493 76.2361247,30.6156049 C76.183757,30.6679726 76.1317384,30.7238315 76.0755304,30.7761992 C76.1495434,30.7943533 76.2207635,30.8215845 76.2884924,30.8564964 C77.3756463,31.5683482 78.0009169,32.805972 77.9293476,34.1032949" id="Fill-358" fill="#000000"></path>
                <path d="M76.672662,36.5856645 C75.555484,37.3722276 74.4578566,38.1867202 73.380129,39.0294914 C73.217789,39.1646001 73.131906,39.3705798 73.149711,39.581098 C73.1989367,39.7382012 73.47474,39.8254807 73.6248608,39.9302161 C73.7865025,39.8904167 73.944653,39.8356051 74.0961702,39.7661306 C75.3037699,39.0794153 76.3773081,38.1804361 77.2658137,37.1128329 C77.3635668,36.9941327 77.3150394,36.7637147 77.3356374,36.5856645 C77.1125509,36.5856645 76.8192916,36.4948938 76.6723129,36.5856645" id="Fill-359" fill="#000000"></path>
                <path d="M53.833389,28.9538026 C54.0149305,29.0934498 54.1825072,29.327359 54.3846466,29.3448149 C54.5871351,29.3622708 54.7337647,29.135344 55.0828828,28.9119084 C54.7337647,28.7024375 54.4998555,28.4755107 54.332628,28.5034402 C54.1647021,28.5313696 53.9835098,28.7932082 53.8229155,28.9538026" id="Fill-360" fill="#000000"></path>
                <path d="M53.5398156,28.0706384 C53.7496356,28.0287443 53.9273367,27.7459586 54.2380519,27.4526994 C53.913372,27.1454754 53.7356709,26.848725 53.5398156,26.8173044 C53.2503967,26.7684278 52.9780845,26.9988458 52.9885581,27.4387346 C52.9986825,27.8786235 53.2224672,28.1369709 53.5328332,28.0706384" id="Fill-361" fill="#000000"></path>
                <path d="M57.1919403,30.2072763 C57.2275504,30.3958001 57.3602153,30.5508085 57.5410585,30.6157445 C57.6663919,30.6157445 57.8098794,30.3992913 58.0402974,30.1933116 C57.8098794,29.9873319 57.6562674,29.7499315 57.5372182,29.7708786 C57.3539311,29.8469864 57.2223136,30.011421 57.1881,30.2072763" id="Fill-362" fill="#000000"></path>
                <path d="M49.6473579,29.9524201 C49.5785817,30.239046 49.7552354,30.5274176 50.0418614,30.596543 C50.1001642,30.6105077 50.1602125,30.6146971 50.2199117,30.6087621 C50.4538208,30.5773415 50.6632917,30.3050294 50.8832361,30.1374527 L50.8832361,29.8651405 C50.6563093,29.6766167 50.4255423,29.3379722 50.205947,29.3484457 C49.9860025,29.3589192 49.6752874,29.6975638 49.6333932,29.9524201" id="Fill-363" fill="#000000"></path>
                <path d="M51.7839958,30.1932767 C51.8953645,30.2107326 52.1572031,29.8685968 52.154061,29.6940377 C52.1505698,29.5194787 51.9341166,29.2890607 51.7068407,28.9259779 C51.5081925,29.3100078 51.2917392,29.5439169 51.3196687,29.7324407 C51.388445,29.9534325 51.5623058,30.126246 51.7839958,30.1932767" id="Fill-364" fill="#000000"></path>
                <path d="M54.4930826,23.4272626 C54.7863419,23.4614762 55.0516717,23.2516562 55.0855361,22.9587461 C55.091122,22.911266 55.0904238,22.8634368 55.0827432,22.8163059 C55.0551628,22.5858879 54.8003066,22.3833994 54.6463455,22.1704373 L54.3708913,22.1704373 C54.1820184,22.3868906 53.8716524,22.5858879 53.8367406,22.8197971 C53.7808817,23.1689152 54.0776321,23.4377362 54.4930826,23.4377362" id="Fill-365" fill="#000000"></path>
                <path d="M48.7987914,28.891101 C48.9632261,29.0516953 49.1164889,29.3274986 49.2983795,29.3449545 C49.4795718,29.3624104 49.696025,29.1319925 50.0559658,28.912048 C49.7068477,28.7060683 49.4935365,28.4965975 49.2983795,28.5035798 C49.1025242,28.5105622 48.9492613,28.7514537 48.7987914,28.891101" id="Fill-366" fill="#000000"></path>
                <path d="M41.2439799,30.0117352 C41.2439799,29.5753376 41.0453317,29.313499 40.6682841,29.3553931 C40.4235523,29.3868138 40.2140814,29.6661083 39.9700478,29.8371762 L39.9700478,30.1059971 C40.1931343,30.2805562 40.399114,30.5633419 40.6434967,30.605236 C40.9716677,30.6645861 41.2198907,30.4341682 41.2300152,30.0117352" id="Fill-367" fill="#000000"></path>
                <path d="M65.1517638,67.6535819 C65.1304676,67.2555873 64.9108723,66.9553457 64.4954217,66.9728016 C64.1253565,66.9801331 63.8313991,67.2863097 63.8383814,67.6563749 C63.8387305,67.6612625 63.8387305,67.6661502 63.8387305,67.6710378 L63.8387305,68.1493297 L63.8387305,72.1327675 C63.6226264,71.8639465 63.4896124,71.7242993 63.3922085,71.5811609 C62.3448541,70.1846883 61.2762035,68.7882158 60.1838129,67.4301463 C59.9823717,67.1871601 59.6891125,67.0387849 59.3738588,67.0216781 C58.9409523,67.0600811 58.8711287,67.4720405 58.8746199,67.8805087 L58.8746199,73.4175222 L58.8746199,74.3217382 C58.8438975,74.6575898 59.0910731,74.9550384 59.4272739,74.9857608 C59.445428,74.9875064 59.4635822,74.9885538 59.4820854,74.9885538 C59.826665,75.0280041 60.1384275,74.7801303 60.1775287,74.4352016 C60.1785761,74.4254262 60.1796234,74.4156509 60.1803217,74.4055265 C60.1977776,74.2288727 60.1977776,74.0511716 60.1803217,73.874867 L60.1803217,69.8914291 C60.3618631,70.0939176 60.4491426,70.1742148 60.5294398,70.2684767 L63.8146414,74.5626297 C64.0412191,74.8593801 64.2964244,75.1107451 64.7014014,74.9606243 C65.1063785,74.8105035 65.1587462,74.4788413 65.155255,74.0948114 L65.155255,69.2490518 L65.155255,67.6535819" id="Fill-368" fill="#000000"></path>
                <path d="M55.0972316,47.2301715 C55.1007227,47.5925561 55.3974732,47.8837206 55.7598578,47.8798803 C55.8034975,47.8791821 55.8467882,47.8746435 55.8897297,47.8655665 C56.0534661,47.8568385 56.2179008,47.8568385 56.3819863,47.8655665 L56.3819863,47.952846 C58.0329659,47.7154457 59.6877858,47.4955012 61.3394637,47.2336626 C62.1595422,47.1044889 62.9764786,46.9159651 63.7832906,46.7239502 C64.1034319,46.6893875 64.3345481,46.4017141 64.2999854,46.0815728 C64.2964942,46.0459628 64.2891627,46.011051 64.2790383,45.9768374 C64.2392389,45.6284175 63.9239852,45.3780998 63.5752162,45.4178993 C63.5535709,45.4203431 63.5319255,45.4241834 63.5109784,45.4287219 L63.2421575,45.4636337 C61.5733728,45.71849 59.9077302,45.9873109 58.2354544,46.2212201 C57.4464474,46.3294467 56.6469669,46.3713409 55.8513267,46.4481469 C55.4044555,46.490041 55.0200765,46.8566151 55.0727933,47.2336626" id="Fill-369" fill="#000000"></path>
                <path d="M42.504436,47.2405752 C42.3368593,47.1683077 42.1591581,47.1225733 41.9772676,47.1044191 C41.872183,47.1044191 41.7712879,47.2405752 41.6735348,47.3243635 C39.8127352,48.9826746 37.9309885,50.6200387 36.0876448,52.302788 C34.3839483,53.8633461 32.7217969,55.4692894 31.0428878,57.0542857 C30.7740669,57.309142 30.6099814,57.5954188 30.9067318,57.9166075 C31.2034822,58.2377962 31.4653208,58.1051313 31.7236682,57.867731 L32.0727863,57.5186129 L35.3401829,54.3276732 C37.574888,52.1491761 39.8068002,49.9696316 42.0366177,47.7886906 C42.197212,47.6116877 42.3490784,47.426306 42.4904712,47.2335928" id="Fill-370" fill="#000000"></path>
                <path d="M45.9011459,68.4635011 C46.8437648,68.1772242 47.7165601,68.2784685 48.3449728,68.9801959 C48.6940909,69.3886641 49.1203641,69.4305583 49.4240969,69.116352 C49.7274806,68.8021457 49.6541658,68.4181157 49.3783624,68.0689976 C48.5966869,67.133361 46.9345355,66.7039457 45.6466388,67.1054316 C44.3405878,67.4447744 43.4084424,68.5958168 43.3490924,69.9437619 L43.3490924,70.9527133 L43.380513,70.9527133 C43.3316365,71.4449699 43.3316365,71.9407176 43.380513,72.4329742 C43.7296311,74.1785648 45.5872887,75.2922516 47.3922294,74.9152041 C48.1850767,74.8006933 48.9046091,74.3873375 49.4028007,73.7596231 C49.5508268,73.4988318 49.5689809,73.1839273 49.4520264,72.9077748 C49.3713801,72.7471805 48.9559295,72.6913216 48.6979312,72.698304 C48.540828,72.698304 48.3903581,72.9182484 48.2437285,73.0474221 C47.6191562,73.6311476 46.714242,73.8039611 45.9186018,73.4908021 C45.1275001,73.2254723 44.618835,72.4549686 44.6865639,71.6230201 L44.6865639,70.4011067 C44.6865639,69.4305583 45.0915409,68.7043926 45.8871812,68.4635011" id="Fill-371" fill="#000000"></path>
                <path d="M77.335777,39.1655078 L77.1891474,39.0712459 C77.0952346,39.1131401 76.9657118,39.130596 76.9098529,39.2039108 C75.9532692,40.4223331 74.6999351,41.2811637 73.4186716,42.1295207 C73.2549352,42.2412385 73.2235146,42.5449713 73.1289036,42.7614245 C73.3561795,42.7928451 73.6665455,42.9394748 73.7992104,42.8417217 C75.0249641,41.9444881 76.2849314,41.0716928 77.0983767,39.7345703 C77.1919403,39.5526798 77.2680481,39.3620613 77.3256526,39.1655078" id="Fill-372" fill="#000000"></path>
                <path d="M86.7517373,69.2875246 L83.7803929,69.2875246 L83.7803929,66.0861114 C83.8229853,65.4968 83.4019489,64.9748684 82.8168269,64.8921274 C82.1887634,64.7500363 81.5561613,65.1148647 81.3644955,65.7300109 C81.2915298,66.0302525 81.2587127,66.339222 81.2667424,66.6481915 L81.2667424,69.2875246 L78.2157991,69.2875246 C77.7120216,69.253311 77.2435051,69.5462211 77.0532357,70.0136903 C76.7386803,70.6476888 76.998075,71.4164469 77.6320736,71.7306532 C77.8111712,71.8193292 78.008772,71.8650637 78.2084676,71.8640164 L81.2670915,71.8640164 L81.2670915,74.8873794 C81.2880386,75.7915953 81.776804,76.2838519 82.5864089,76.2838519 C83.3967121,76.2838519 83.780742,75.7846129 83.780742,74.8664323 L83.780742,71.8744899 L86.7444058,71.8744899 C87.6000943,71.8744899 88.1796304,71.3438304 88.1796304,70.586244 C88.1796304,69.8286577 87.6032364,69.3014893 86.7482461,69.2979981" id="Fill-373" fill="#000000"></path>
                <path d="M70.4372726,67.4266901 C70.2930868,67.0691931 69.8863642,66.8956814 69.5285181,67.0402163 C69.3525626,67.1110873 69.2129153,67.2507345 69.1420444,67.4266901 C68.09469,69.6121695 67.1031945,71.8185961 66.0907519,74.0180403 C65.9113052,74.3130451 66.005218,74.6974242 66.2998737,74.8765218 C66.3288505,74.8943268 66.3595729,74.909688 66.3909935,74.9222563 C66.7111348,75.1003065 67.1150645,74.9850975 67.2931148,74.6646071 C67.302541,74.6475003 67.311618,74.6296953 67.3196477,74.6115411 C67.4823368,74.3350396 67.6191911,74.043875 67.728116,73.742237 C67.8052711,73.4957596 68.0541923,73.3459879 68.307652,73.3931189 C69.0048409,73.440948 69.7048228,73.440948 70.4023608,73.3931189 C71.3345062,73.2953658 71.9768836,73.4978543 72.2142839,74.4823674 C72.273634,74.7197677 72.5948227,74.8943268 72.7065405,75.0060446 C73.4327062,75.0060446 73.7294566,74.5277528 73.4850739,73.9866197 C72.486596,71.8011402 71.4811358,69.6156607 70.4477462,67.444146 L70.4372726,67.4266901 Z M68.4891935,72.0071199 C68.9011529,71.0889392 69.2991475,70.2126527 69.693651,69.3398574 L69.8612277,69.3119279 C70.2696959,70.1847233 70.6816553,71.0575186 71.1285265,72.0071199 L68.4891935,72.0071199 Z" id="Fill-374" fill="#000000"></path>
                <path d="M70.2661349,44.8352909 C70.8767425,44.6003344 71.4716398,44.3262767 72.0469865,44.0148633 C72.1827934,43.9415485 72.2177053,43.6901835 72.2980024,43.5191156 C72.1147154,43.4220607 71.9199075,43.3480477 71.7184663,43.2991712 C71.5788191,43.2991712 71.4252071,43.4039066 71.2715951,43.4527831 C69.9833492,43.892672 68.6985945,44.3430344 67.4037154,44.7654673 C66.935548,44.9190793 66.4223443,44.9679558 65.9719819,45.1564796 C65.7499428,45.2887954 65.6054079,45.5202607 65.5844608,45.7779099 C65.5844608,45.9489778 65.8881936,46.127028 66.031332,46.2562017 C66.2865374,46.1933604 66.4258355,46.165431 66.5588495,46.1200456 C67.7943786,45.6941215 69.0407303,45.2856533 70.2661349,44.8352909" id="Fill-375" fill="#000000"></path>
                <path d="M66.3245563,43.2676458 C66.4118359,43.3304871 66.5724302,43.2676458 66.6949707,43.2676458 C66.8192567,43.2903385 66.947034,43.2903385 67.0720183,43.2676458 C68.6884352,42.6322508 70.3079942,42.000347 71.9104464,41.326549 C72.0888457,41.249743 72.172285,40.9390279 72.2979675,40.7365394 C72.0947808,40.58188 71.8734399,40.4527063 71.6384834,40.3525094 C71.4593858,40.3374974 71.2792408,40.3713618 71.1179482,40.4502625 L66.2302944,42.0247853 C65.9234196,42.1260295 65.4971464,42.2412385 65.6088642,42.6427244 C65.6856702,42.9045629 66.066558,43.0861044 66.3318878,43.2676458" id="Fill-376" fill="#000000"></path>
                <path d="M71.2054023,65.3809276 C70.9362323,65.6253103 70.7166369,65.5485044 70.4513072,65.3564894 C70.1587462,65.1693621 69.8529187,65.003531 69.5366177,64.8607416 C69.2381217,64.9968977 68.9570816,65.1679656 68.6983851,65.3704541 C68.5730516,65.4961366 68.5765428,65.7963782 68.523826,66.0198138 C68.7371372,66.0721815 69.0199228,66.2467406 69.1490966,66.1524787 C69.4982147,65.8906401 69.7495797,66.0093403 70.0494722,66.2397582 C70.5148467,66.676505 71.2462491,66.6534632 71.6829959,66.1880888 C71.6843924,66.1866923 71.6857889,66.1852958 71.6871853,66.1838993 C71.8407973,65.9859494 71.9043368,65.7324896 71.8617444,65.4856631 C71.7430442,65.136545 71.4459447,65.157492 71.2054023,65.3774365" id="Fill-377" fill="#000000"></path>
                <path d="M53.833389,47.4536769 C53.833389,47.013788 53.4842709,46.7554406 52.9326643,46.7554406 C51.7247155,46.7554406 50.520258,46.7903524 49.3123093,46.7763877 C47.8006278,46.7763877 46.2889463,46.7170376 44.7737736,46.6751435 C44.1174315,46.6541964 43.6915074,46.9998233 43.7683134,47.5479388 C43.8451194,48.0960542 44.2326405,48.1972985 44.6651979,48.1972985 L50.0032141,48.1972985 L50.0032141,48.361384 C50.9810939,48.3159987 51.9586247,48.2671221 52.9361554,48.2287191 C53.4877621,48.207772 53.8368802,47.9110216 53.8295487,47.4432033" id="Fill-378" fill="#000000"></path>
                <path d="M23.5647775,38.7081631 C24.0476079,39.1309451 24.5674448,39.5097383 25.1183532,39.8393058 C25.3672744,39.9939651 25.6947472,39.9171591 25.8490575,39.6682379 C25.8895552,39.6022546 25.9153899,39.5285907 25.9248161,39.4517847 L26.1339378,39.2318402 C25.9105022,39.1319925 25.6947472,39.0150379 25.4884184,38.8827221 C24.6644996,38.2508183 23.8545456,37.6014586 23.0445915,36.9520989 C22.8909796,36.8299075 22.7687882,36.6239278 22.5973712,36.5750513 C22.3791724,36.538743 22.156435,36.538743 21.9378871,36.5750513 C21.9797812,36.7670663 21.9588342,37.0184313 22.070552,37.1441138 C22.5341808,37.697117 23.0334198,38.2197468 23.5647775,38.7081631" id="Fill-379" fill="#000000"></path>
                <path d="M23.0724512,57.4802448 C23.3046147,57.6136079 23.5570271,57.7078698 23.819564,57.7595393 C26.2319702,58.5206168 28.5815352,59.410868 30.6870666,60.8422523 C30.9785803,61.0761615 31.2962778,61.2762062 31.6328277,61.4392443 C31.8688315,61.5174468 32.1282263,61.4786947 32.3310639,61.3345089 C32.4441782,61.1177065 32.4556991,60.8625012 32.3624845,60.6362726 C32.2413405,60.3992214 32.0793497,60.1855611 31.8841927,60.0043688 C29.8453428,57.7036804 27.1676068,56.7226584 24.1686821,56.4224168 C23.8687896,56.3906471 23.5661042,56.3979786 23.2683064,56.4433639 C23.0441726,56.5069034 22.8619329,56.6706398 22.7757008,56.886744 C22.7805884,57.1199549 22.8909097,57.3381537 23.0759423,57.4802448" id="Fill-380" fill="#000000"></path>
                <path d="M32.1706441,41.5605978 C31.1232897,41.2394091 30.1000245,40.9391675 29.070126,40.6040141 C28.4836076,40.4119992 27.911403,40.1676165 27.2477294,39.9057779 L26.5494932,40.3875609 C26.6929807,40.5760847 26.832628,40.7646085 26.9827488,40.9461499 C27.0340691,40.9953756 27.0962121,41.0323821 27.1639411,41.0543765 C28.6302372,41.640895 30.0968824,42.2309046 31.5666698,42.7999672 C31.6989855,42.8540805 31.8438696,42.8708381 31.9856115,42.8488437 C32.3867482,42.7825112 32.785092,42.6393728 32.8371106,42.1680633 C32.8898275,41.6967539 32.4879925,41.640895 32.1633126,41.5431419" id="Fill-381" fill="#000000"></path>
                <path d="M44.6550385,43.2992061 C44.2008359,43.2800046 43.8105218,43.6186492 43.7644382,44.0707571 C43.7298755,44.5699961 44.068171,44.7480463 44.4626745,44.8143788 C44.9367769,44.9020074 45.4164652,44.9533278 45.8978991,44.9679907 C48.1284148,44.9889476 50.3631199,44.9889476 52.5974759,44.9889476 C52.8470954,44.9896361 53.0953184,44.9529786 53.3337661,44.8807112 C53.6731089,44.8175208 53.8972427,44.4914445 53.8340524,44.1521017 C53.8197385,44.0749466 53.7911108,44.0009335 53.7495658,43.9346011 C53.543237,43.4947122 53.1452423,43.4074327 52.7022114,43.4074327 L44.916528,43.4074327 L44.916528,43.2992061 L44.6477071,43.2992061" id="Fill-382" fill="#000000"></path>
                <path d="M56.4445832,44.56647 L56.6819835,44.56647 L63.5913803,43.6971658 C63.9404985,43.6517805 64.3137058,43.5714833 64.3241793,43.1281033 C64.335002,42.6847233 63.9750612,42.5764966 63.625943,42.4892171 C63.4353245,42.4560509 63.2405166,42.4560509 63.0498981,42.4892171 C61.5560217,42.6707585 60.061447,42.8627735 58.5637302,43.0338414 C57.7363202,43.1315945 56.8984367,43.1665063 56.0745179,43.2817153 C55.8580647,43.3131359 55.4949818,43.5540274 55.5089466,43.6587628 C55.5669002,43.942945 55.7096895,44.2033871 55.9174148,44.4058756 C56.0396061,44.5315582 56.3084271,44.5315582 56.441092,44.5699612" id="Fill-383" fill="#000000"></path>
                <path d="M21.9831677,39.5565899 C22.7267893,40.7753613 23.709906,41.8300472 24.8738658,42.6567589 C25.007578,42.7408964 25.1475744,42.8145603 25.2928075,42.8767033 C25.4429283,42.7754591 25.6419257,42.7126178 25.7047669,42.5764617 C25.7676082,42.4403057 25.648908,42.2552731 25.551155,42.1540288 C25.3552997,41.9599191 25.1412903,41.7843127 24.9126179,41.6303516 C23.9626675,40.9321153 23.009575,40.2618085 22.3287946,39.249366 C22.258971,39.1446305 22.0704472,39.1271746 21.9412735,39.0713157 C21.9412735,39.2354012 21.9098529,39.4204339 21.9831677,39.5565899" id="Fill-384" fill="#000000"></path>
                <path d="M21.0230928,35.8908496 C21.0614958,36.0025674 21.3163521,36.0409704 21.4734552,36.110794 C21.55864,35.9645135 21.6267181,35.8088068 21.6759437,35.6464669 C21.6759437,35.5382403 21.6061201,35.4160489 21.582031,35.2973488 C21.2329128,33.6914054 21.4175963,32.2286004 22.7267893,31.083493 C22.8786557,30.9693313 23.0409956,30.8698327 23.2124126,30.7867426 L23.0340133,30.6121835 C21.5589892,31.3512666 20.6484891,32.880404 20.7019042,34.5292889 C20.7574139,34.9953616 20.8750668,35.4520081 21.0510223,35.8873584" id="Fill-385" fill="#000000"></path>
                <path d="M18.8305263,66.6621563 C18.5243497,66.6712333 18.2373746,66.8140227 18.0450105,67.0531686 C17.650507,67.5524075 17.3467742,68.1249612 16.9976561,68.6660943 L15.6011836,70.9109239 C15.1019447,70.1254081 14.6550735,69.4166983 14.2047111,68.7079885 C13.8346459,68.1179789 13.5064748,67.503531 13.0739175,66.9623979 C12.8839972,66.762004 12.6162236,66.6537774 12.3404203,66.6656474 C11.9913021,66.6970681 11.8621284,66.9938185 11.8834246,67.3638837 C11.9040226,67.7339489 11.8834246,68.1424171 11.8834246,68.5334294 L11.8834246,74.2031078 C11.8834246,74.6604526 12.0017757,74.9711677 12.4905411,74.9921148 C12.9199564,75.0130619 13.1294272,74.7372586 13.1364096,74.1751784 L13.1364096,69.8112018 C13.3249334,70.0695492 13.4226865,70.1917405 13.509966,70.3209142 C13.9920981,71.0575535 14.4595673,71.8046663 14.9483327,72.5343232 C15.3533097,73.1313152 15.8350927,73.1348064 16.2400698,72.5343232 C16.6450468,71.93384 17.0360591,71.3019362 17.4340538,70.6874883 C17.5876657,70.4535791 17.7482601,70.2266523 17.9996251,69.8565871 C18.0209213,70.2057053 18.0380281,70.3907379 18.0380281,70.5548234 L18.0380281,74.1123371 C18.0380281,74.5766642 18.1637106,74.9222912 18.6632987,74.9676765 C19.0714178,75.0025883 19.3856241,74.6395055 19.3856241,74.1123371 C19.3856241,71.8884546 19.3856241,69.6645722 19.3681682,67.4441809 C19.3681682,67.0461862 19.2149053,66.6796122 18.8479822,66.6447004" id="Fill-386" fill="#000000"></path>
                <path d="M40.8985973,44.5175236 L41.2718046,44.5175236 C41.713439,44.5234586 42.0761728,44.1701511 42.0821078,43.7285166 L42.0821078,43.7110607 C42.0608116,43.1804012 41.7329896,43.0966128 41.3105567,43.0582098 C40.5875331,42.9918774 39.87219,42.8766684 39.1564979,42.7544771 C37.8158843,42.5275503 36.4787618,42.2796764 35.1377991,42.0562408 C34.6863894,41.971056 34.245104,42.2479067 34.1257056,42.6916358 C34.0415682,43.1035952 34.2929332,43.3619426 34.8934164,43.4946075 C35.3263229,43.5923606 35.7560873,43.7110607 36.1889938,43.7878667 C37.7561851,44.0601789 39.3310569,44.3185263 40.8912658,44.5803649 L40.8912658,44.5314883" id="Fill-387" fill="#000000"></path>
                <path d="M27.0174162,43.7110607 C28.5737848,44.5677966 30.2261609,45.2370561 31.9403309,45.7045252 L32.3767286,45.8336989 C32.5125355,45.6870693 32.7569182,45.5334574 32.8232506,45.3309688 C32.9489332,44.9329742 32.6207621,44.7619063 32.2754843,44.6327326 C30.6691918,44.0601789 29.0740711,43.4736604 27.4576541,42.9255449 C27.2132714,42.8417566 26.7594179,42.848739 26.6403686,42.9883862 C26.3994771,43.3060837 26.7206658,43.543484 27.0174162,43.7075696" id="Fill-388" fill="#000000"></path>
                <path d="M27.0245731,55.6056201 C26.850014,55.9756853 27.1467644,56.3911359 27.7228094,56.4051006 C27.9235523,56.2207662 28.1050937,56.0158339 28.2639425,55.7941439 C30.2120216,52.4935811 32.152071,49.1923201 34.0837416,45.8896626 C34.2457325,45.6498184 34.3857288,45.3963587 34.5026834,45.1320762 C34.5358496,44.9449489 34.5358496,44.7536322 34.5026834,44.5665049 C34.3455802,44.6502932 34.1884771,44.7305904 34.0383563,44.8213611 C33.9929709,44.8492906 33.975515,44.9121318 33.9475856,44.9575172 C31.7994617,48.2413223 29.6509888,51.5279203 27.5028649,54.8166131 C27.3269094,55.0679782 27.1694571,55.3315623 27.0315555,55.6056201" id="Fill-389" fill="#000000"></path>
                <path d="M39.2577072,46.469059 C39.7709109,45.9034877 39.5575997,45.4810547 39.2259375,45.1808131 C38.8946244,44.8805715 38.3255618,44.9503952 37.9485142,45.428687 C37.616852,45.8441376 37.2956633,46.2665705 36.9706344,46.6855123 C34.4500015,49.9183461 31.9332089,53.1546712 29.4192093,56.3944874 C29.2785146,56.6144318 29.1615601,56.848341 29.0700911,57.0927237 L29.2900355,57.2358621 C29.4750682,57.0717766 29.6744146,56.925147 29.8385001,56.7470967 C31.4678344,54.9830028 33.0908846,53.2185598 34.708698,51.4544659 C36.2284092,49.7926636 37.7411381,48.1284175 39.2472337,46.4620767" id="Fill-390" fill="#000000"></path>
                <path d="M42.836168,73.9656726 C41.8586373,71.8255785 40.8880889,69.6819932 39.8756463,67.5558638 C39.7244781,67.2622554 39.4532134,67.0492934 39.1320247,66.9728365 C38.9155714,66.9553806 38.5699445,67.2870428 38.4337884,67.5384079 C37.6866756,69.0605629 36.9845991,70.6001738 36.2797296,72.1397848 C35.9840265,72.7867007 35.6991461,73.4395516 35.4243902,74.0983375 C35.2644941,74.3755373 35.3594542,74.7298922 35.636654,74.8897883 C35.6719149,74.9103862 35.7099688,74.9271439 35.74907,74.9397122 C36.0870164,75.1003065 36.490946,74.9561207 36.6511913,74.6181744 C36.6557298,74.6090973 36.6599192,74.5996711 36.6634104,74.590594 C36.8145785,74.3280572 36.9441014,74.0533012 37.0512806,73.7701664 C37.1305305,73.5027419 37.3979549,73.33726 37.6727109,73.3861365 C38.3500001,73.4385042 39.0307804,73.4385042 39.7080696,73.3861365 C40.6716356,73.2674363 41.3070306,73.5048367 41.5650289,74.4893498 C41.6282193,74.7267501 41.9420765,74.897818 42.0468119,75.0025534 C42.7838003,75.0025534 43.0700772,74.5172792 42.8222033,73.9761461 L42.836168,73.9656726 Z M37.8399385,72.0245758 C38.1230733,71.3821984 38.367456,70.7991712 38.6429102,70.2301086 C38.7919836,69.9588438 38.9564183,69.6966561 39.1351667,69.4445928 C39.3201994,69.6896738 39.4891725,69.9462756 39.6417371,70.2126527 C39.928014,70.7817153 40.1825211,71.3647425 40.486603,72.0245758 L37.8399385,72.0245758 Z" id="Fill-391" fill="#000000"></path>
                <path d="M57.8656336,73.9097788 C56.8741381,71.7417552 55.8931162,69.5737316 54.8736912,67.423164 C54.7270616,67.0663652 54.3192916,66.8963447 53.9624929,67.0426252 C53.7896794,67.1134962 53.6531743,67.2506996 53.5819542,67.423164 C52.5555469,69.6121346 51.5675426,71.8185612 50.5655735,74.0180054 C50.38089,74.3070752 50.4653766,74.6914543 50.7544464,74.8764869 C50.7841215,74.8953392 50.8158912,74.9120969 50.8483592,74.9257125 C51.1929388,75.0995733 51.6125788,74.9609735 51.7860905,74.616743 C51.7927238,74.6034765 51.7990079,74.59021 51.8049429,74.5765944 C51.944241,74.3294188 52.0611956,74.0696749 52.154061,73.8015522 C52.2322635,73.5163226 52.5157474,73.3375742 52.8069119,73.3895928 C53.6060433,73.4297413 54.4065712,73.4297413 55.2053535,73.3895928 C55.8756603,73.3407162 56.3158982,73.4978194 56.4761434,74.1855821 C56.5121026,74.3978459 56.6178854,74.5919556 56.776385,74.7371887 C56.9729385,74.8953392 57.2229071,74.9728435 57.4746213,74.953642 C57.6980569,74.8908007 57.8516689,74.6045238 58.0052808,74.4404383 C57.9249837,74.1855821 57.8970542,74.0459348 57.8411953,73.9202523 L57.8656336,73.9097788 Z M52.9287541,72.0245409 L54.1440343,69.3223666 L54.3081199,69.3223666 L55.5509804,72.0385056 L52.9287541,72.0245409 Z" id="Fill-392" fill="#000000"></path>
            </g>
        </g>
    </g>
</svg>