<?xml version="1.0" encoding="UTF-8"?>
<svg width="100px" height="100px" viewBox="0 0 100 100" version="1.1" xmlns="http://www.w3.org/2000/svg" xmlns:xlink="http://www.w3.org/1999/xlink">
    <!-- Generator: Sketch 59 (86127) - https://sketch.com -->
    <title>matriz</title>
    <desc>Created with Sketch.</desc>
    <g id="Logos" stroke="none" stroke-width="1" fill="none" fill-rule="evenodd">
        <g transform="translate(-200.000000, 0.000000)" id="matriz">
            <g transform="translate(200.000000, 0.000000)">
                <rect id="Area" fill="#FCE059" x="0" y="0" width="100" height="100"></rect>
                <path d="M32.5161642,55.7512054 C31.7481043,54.4140829 31.0393945,53.1747136 30.3237023,51.9388354 C29.8873047,51.1847403 29.450907,50.4306451 28.9795975,49.7009882 C28.8462344,49.5344589 28.6479353,49.4328655 28.4349733,49.4216937 C27.0385007,49.3972554 25.6420282,49.4216937 24.2455557,49.3972554 C23.9802259,49.3972554 23.8964376,49.484535 23.8964376,49.7463736 C23.8964376,50.2700508 23.8685081,50.793728 23.8964376,51.3104228 C23.9348406,51.4947572 24.0378304,51.6591918 24.1862056,51.7747499 C24.7657417,52.2635153 25.3766985,52.7173688 25.9492522,53.2166078 C26.1060062,53.3660303 26.1995699,53.5695662 26.2110908,53.7856703 L26.2110908,61.6582841 C26.2110908,61.9620169 26.1342848,62.0772258 25.8061138,62.0738115 C23.2540602,62.0562788 20.6985155,62.0738115 18.146462,62.0562788 C17.4656817,62.0562788 17.0991077,61.6094076 16.8651985,60.9670302 C16.5649569,60.0732878 16.6941306,59.1830366 16.6906394,58.2962765 L16.6906394,46.1504569 C16.6840062,45.9619331 16.6054546,45.7831846 16.470695,45.6512179 C15.3709729,44.7295461 14.2503037,43.8323125 13.1540728,42.9106406 C13.0015082,42.7629637 12.909341,42.5639663 12.8957254,42.3520516 C12.8643048,41.5630447 12.8957254,40.7740377 12.8712871,39.9850307 C12.8712871,39.7162098 12.9306372,39.6079831 13.2204053,39.6079831 L36.9185438,39.6079831 C37.5919926,39.563296 38.2347191,39.8935618 38.5908196,40.4668137 C38.7856275,40.7890498 38.8949015,41.1556238 38.9085171,41.531624 C38.9329554,43.9754509 38.9085171,46.4402249 38.9085171,48.8945253 C38.9085171,49.3134671 38.7967993,49.4740614 38.3569104,49.4426408 C37.7948303,49.4042378 37.2187853,49.5019909 36.6671787,49.4182025 C36.0317837,49.3274318 35.7839098,49.6730588 35.5430183,50.1164388 C34.6632407,51.7817323 33.7764806,53.4365522 32.8862294,55.0948633 C32.802441,55.2973518 32.6732673,55.492858 32.5161642,55.7512054" id="Fill-247" fill="#000000"></path>
                <path d="M47.8807482,59.2633686 C47.0865045,59.837668 46.171815,60.2230944 45.2065034,60.3910202 C44.68527,60.425932 44.1615928,60.4000973 43.6459453,60.3142142 C43.0943387,60.27232 42.1587021,59.4937866 42.0958609,58.8723563 C42.0208005,58.4530655 42.0040428,58.0253958 42.0469843,57.6015664 C42.1656845,56.9556978 42.6998352,56.5786502 43.2584242,56.3447411 C44.3665252,55.8699404 45.566095,55.6472031 46.7705526,55.6918902 C47.1004692,55.6636116 47.4282911,55.6136877 47.7515745,55.5417694 C48.1006927,55.5033664 48.2403399,55.6744343 48.2298664,56.0165701 L48.2298664,57.3711484 C48.2298664,57.7656519 48.2054281,58.1601554 48.2298664,58.5546588 C48.2626835,58.838841 48.1261783,59.1160408 47.8807482,59.2633686 M50.9250583,60.5376498 C50.4621277,60.3414454 50.173407,59.8736271 50.205875,59.3715953 C50.2585918,57.3851131 50.205875,55.3951398 50.226822,53.4051665 C50.2624321,52.1556727 49.6497298,50.9767008 48.6069139,50.2875416 C48.1115153,49.9049081 47.5215057,49.6636675 46.8997263,49.5893053 C44.2638844,49.5159905 41.6280426,49.5578847 38.9293594,49.5578847 C38.9293594,49.9873 38.9503065,50.3957682 38.9293594,50.7972541 C38.9049212,51.1463722 38.9887095,51.2615812 39.3622659,51.25809 C41.5198159,51.2406341 43.677366,51.2266693 45.834916,51.25809 C46.8836669,51.216894 47.8381558,51.8592714 48.1949545,52.8465775 C48.4812314,53.5448137 48.1949545,53.9707378 47.4652977,53.9881937 C46.4964949,53.9571222 45.5266447,54.0129811 44.5676172,54.1557704 C43.760107,54.2863406 42.9738929,54.5272321 42.2320169,54.8714626 C40.8006326,55.6046107 39.8789607,56.6868769 39.9976609,58.4010469 C40.0255904,58.788568 40.1268346,59.1725979 40.1826935,59.5566279 C40.3251337,60.5757037 40.9860143,61.4478008 41.9282842,61.8608075 C42.7696588,62.2902228 43.6738748,62.2622934 44.5536525,62.2622934 C45.3356771,62.2392516 46.1033878,62.0451419 46.8019732,61.6932308 C47.2663003,61.4802688 47.7131715,61.2323949 48.1984457,60.9949946 C48.2218366,61.0958897 48.2312628,61.1988795 48.2263752,61.3022185 C48.1530604,61.7106867 48.3031812,61.8538252 48.7221229,61.8363692 C49.5111299,61.8049486 50.3001369,61.8363692 51.092635,61.8363692 C51.3335265,61.8363692 51.4417531,61.7665456 51.4417531,61.4872511 C51.5045944,61.0903038 51.2926797,60.7003389 50.9250583,60.5376498" id="Fill-249" fill="#000000"></path>
                <path d="M86.2104624,51.24423 L84.3426804,51.24423 L80.1532629,51.24423 C79.8041447,51.24423 79.6644975,51.1394946 79.7063917,50.7764117 C79.7395579,50.5096854 79.7395579,50.2401663 79.7063917,49.97344 C79.6679887,49.6243219 79.7797065,49.5370423 80.1218422,49.5370423 L85.7496264,49.5370423 L88.3331006,49.5370423 C88.6158863,49.5370423 88.6822187,49.6138483 88.7345864,49.9105987 C88.9021631,50.9300237 88.3854683,51.6561894 87.8094234,52.3823551 C86.992487,53.4052712 86.2209359,54.4770639 85.4284378,55.5034711 C84.8419193,56.2760696 84.2519097,57.0465733 83.6584089,57.8146332 L82.0803949,59.8465007 C82.0531637,59.9135313 82.0353587,59.9840532 82.0283763,60.0559715 C82.1498694,60.081108 82.2738064,60.0975166 82.3980924,60.1048481 L86.5875099,60.1048481 C86.7536902,60.0804098 86.9034619,59.9931303 87.0064517,59.8604654 C87.1750758,59.6195739 87.3311316,59.3699544 87.47427,59.1133526 C87.6208996,58.8794434 88.5216244,58.6664814 88.7415688,58.8235845 C88.8194221,58.8986449 88.863411,59.0019839 88.8637601,59.1098614 L88.8637601,61.5222677 C88.8637601,61.7491944 88.7694982,61.8120357 88.5600274,61.8120357 L79.671829,61.8120357 C79.4201148,61.8120357 79.3227108,61.7247562 79.3227108,61.4629176 C79.264059,60.7758531 79.4909858,60.0950728 79.9507743,59.5811709 C80.9981287,58.3208544 81.88838,56.9627849 82.8659107,55.6605743 C83.5920764,54.6935171 84.3496628,53.7508981 85.0828108,52.7908233 C85.4563672,52.3195138 85.7915206,51.8307484 86.2104624,51.24423" id="Fill-251" fill="#000000"></path>
                <path d="M36.5517952,52.9618563 C36.5793755,53.0871897 36.5968314,53.2142687 36.6041629,53.342395 L36.6041629,61.5920564 C36.6041629,61.9621216 36.5133922,62.0633659 36.1293622,62.0599612 C33.6879792,62.0389276 31.2441523,62.0389276 28.7978816,62.0599612 C28.382431,62.0599612 28.3126074,61.930701 28.3126074,61.5501622 L28.3126074,53.342395 C28.3237791,53.2456893 28.341235,53.1503801 28.3649751,53.0561182 C28.4414319,53.1112788 28.5105573,53.1758657 28.5709548,53.2481331 C29.5729238,54.9937238 30.578384,56.7393144 31.5628971,58.484905 C31.698355,58.7429033 31.9699689,58.9003556 32.2611334,58.8898821 C32.8043612,58.996014 33.3468908,58.7038021 33.5563616,58.1916458 C34.3911031,56.6450525 35.3019523,55.1368622 36.1712564,53.611216 C36.2700568,53.4115204 36.3573364,53.206239 36.433095,52.9967681 L36.5517952,52.9618563 Z" id="Fill-253" fill="#000000"></path>
                <path d="M61.9954894,49.5963226 L61.9954894,52.2984969 C61.9954894,52.3683205 61.8841207,52.4940031 61.8282618,52.4905119 C61.5695653,52.4695648 61.3129635,52.4311618 61.0598528,52.3753029 C61.0179586,52.3753029 60.9799048,52.2950057 60.9620997,52.242638 C60.6129816,51.3977721 59.9919005,51.1673542 59.1431943,51.2965279 C58.8048988,51.3227117 58.465556,51.3227117 58.1272605,51.2965279 C57.6175481,51.2965279 57.5655295,51.3454044 57.5655295,51.8446433 L57.5655295,61.5780567 C57.5655295,61.9271749 57.4953567,62.0738045 57.1218003,62.0319103 C56.8267955,62.0039809 56.5300451,62.0039809 56.2350403,62.0319103 C55.9382899,62.0563486 55.8443771,61.9655779 55.8478683,61.6583539 L55.8478683,51.9668347 C55.8478683,51.3279485 55.8126074,51.2965279 55.1807035,51.2965279 L53.6166543,51.2965279 C53.3209513,51.2755808 53.0353726,51.4071983 52.859068,51.645646 C52.6045609,51.9493788 52.4265106,52.39625 51.874904,52.2984969 C51.6336634,52.2566027 51.5257859,52.1867791 51.5463838,51.9249405 C51.5711712,51.2267043 51.56768,50.528468 51.5463838,49.8511788 C51.5463838,49.6207609 51.5991007,49.5020607 51.8469745,49.5020607 L61.873298,49.5020607 C61.9172869,49.5292919 61.9584829,49.5607126 61.9954894,49.5963226" id="Fill-255" fill="#000000"></path>
                <path d="M65.8917175,51.2336517 C66.014258,51.1718578 66.1312126,51.0992412 66.2408356,51.0171985 C67.4330741,49.8588245 69.0896396,49.3096617 70.7374771,49.5264641 C71.5299753,49.5718494 71.5268333,49.6032701 71.5268333,50.3992594 C71.5268333,51.4466138 71.5268333,51.4675609 70.4794788,51.4466138 C68.9698921,51.3722516 67.4819506,51.8212175 66.2652739,52.7174038 C66.0051809,52.8919628 65.8554092,53.1901097 65.8707704,53.5029195 C65.8707704,56.1527261 65.8707704,58.8025327 65.8917175,61.4558305 C65.8917175,61.7211603 65.7943136,61.8049486 65.5425994,61.8049486 L64.1880211,61.8049486 C63.9436384,61.8049486 63.8773059,61.7002132 63.8773059,61.4558305 L63.8773059,49.8197233 C63.8773059,49.5788318 63.9645855,49.5020258 64.2019858,49.5090082 C64.6513008,49.5275114 65.1016632,49.5275114 65.5530729,49.5090082 C65.8218939,49.5090082 65.9021911,49.6137436 65.8777528,49.8581263 C65.8777528,50.3084887 65.8917175,50.7134657 65.8917175,51.2336517" id="Fill-257" fill="#000000"></path>
                <path d="M75.2132414,49.5509722 L76.6097139,49.5509722 C76.7423788,49.5509722 76.9867614,49.6312693 76.9902526,49.6766547 C76.9902526,49.914055 76.9902526,50.319032 76.8890084,50.3748909 C76.0933682,50.6856061 76.169825,51.3244922 76.1907721,51.9773431 C76.1907721,54.6690439 76.1907721,57.3607447 76.2117192,60.0524454 C76.2117192,60.2723899 76.4281724,60.5028078 76.5782932,60.7018052 C76.6830287,60.8449436 76.882026,60.9252408 76.9727967,61.0718704 C77.2241618,61.4838298 77.0181821,61.8189832 76.5398902,61.8189832 L73.7923306,61.8189832 C73.6526833,61.8189832 73.3908447,61.6967918 73.3943013,61.6479153 C73.4149339,61.4241306 73.480219,61.2069791 73.5863509,61.0090291 C73.6352274,60.9147672 73.7923306,60.8763642 73.9040484,60.813523 C74.180899,60.665846 74.3387004,60.3638588 74.302043,60.0524454 C74.281096,57.2071327 74.302043,54.3583288 74.302043,51.513016 C74.3278778,51.2183603 74.2144144,50.9289414 73.9948191,50.7309914 C73.8094374,50.558178 73.6484939,50.3609262 73.5165273,50.144473 C73.2930917,49.7953548 73.4292477,49.5649369 73.8446983,49.5649369 L75.2132414,49.5509722 Z" id="Fill-259" fill="#000000"></path>
                <path d="M67.4906785,44.1466235 L67.4906785,44.1466235 L67.4906785,46.2203852 C67.4906785,46.3460677 67.6233434,46.5695033 67.7144633,46.5695033 C68.2734014,46.6498005 68.8435113,46.5377336 69.3308802,46.2518059 C70.4616738,45.5762623 70.8855032,44.1459253 70.3049198,42.9631131 C69.8123141,41.9786 68.9325364,41.6853407 67.8890223,41.7027967 C67.5814493,41.7027967 67.4662403,41.786585 67.4767138,42.1112649 C67.5081345,42.7920452 67.4906785,43.4693344 67.4906785,44.1466235 L67.4906785,44.1466235 Z M66.4433242,44.1117117 L66.4433242,41.2384695 C66.4433242,40.9661574 66.5201302,40.8544396 66.7924423,40.861422 C67.5119748,40.861422 68.2482649,40.7601777 68.9363767,40.8928426 C69.9837311,41.0953311 70.9260009,41.4653963 71.3484339,42.6384332 C71.6025919,43.382404 71.6486754,44.1815354 71.4810987,44.9495952 C71.2761664,46.1268216 70.3621751,47.0537302 69.1873926,47.274722 C68.3564915,47.4807017 67.5430463,47.372475 66.726459,47.4248428 C66.4677624,47.4248428 66.4328506,47.2851955 66.4363418,47.0757246 L66.4363418,44.1152029 L66.4433242,44.1117117 Z" id="Fill-261" fill="#000000"></path>
                <path d="M47.3536846,45.4138874 C47.3627617,45.5901921 47.4015138,45.7637038 47.4688936,45.9270911 C47.8180117,46.4752065 48.7501571,46.6043803 49.3157285,46.2762092 C49.9790529,45.8817057 50.1846835,45.2288548 50.2583474,44.558548 C50.2209918,44.3424439 50.0722675,44.1619498 49.8673351,44.0837474 C49.2979234,43.9947222 48.7152453,44.0659423 48.1845857,44.2897271 C47.745046,44.5117662 47.4367747,44.9286132 47.3536846,45.4138874 L47.3536846,45.4138874 Z M47.0290047,42.1182123 C46.8649192,41.4513967 46.9347428,41.1441727 47.6574174,41.0708579 C48.1437389,40.9671698 48.6373919,40.9018848 49.134187,40.8753518 C49.8324233,40.9277195 50.5306596,41.130208 50.8797777,41.8563737 C51.0641121,42.2452913 51.1723387,42.6659787 51.1974752,43.0957431 C51.2393694,44.3176565 51.1974752,45.53957 51.2149311,46.771957 C51.2149311,47.0687074 51.1904928,47.2956341 50.8169364,47.215337 C50.5516066,47.1594781 50.0453854,47.4632108 50.153612,46.7963952 C50.1522155,46.7363469 50.1323158,46.6780442 50.097404,46.6288185 C49.4937787,46.8836748 48.9142426,47.138531 48.3277242,47.3724401 C47.8529235,47.5644551 46.802078,47.0442691 46.5821335,46.5520125 C45.9991063,45.2986785 46.5262746,44.3490771 47.4304906,43.7171733 C47.6678909,43.5740349 47.9276348,43.4717433 48.1985505,43.4134406 C48.5347512,43.3254628 48.8765379,43.2601777 49.2214666,43.2179344 C49.3876468,43.2165379 49.5534779,43.2305027 49.7172143,43.2598286 C49.8289321,43.2598286 50,43.2982316 50.0415451,43.2598286 C50.1218422,43.1491581 50.1522155,43.00986 50.1253334,42.8757986 C49.7762153,41.7446559 49.0119957,41.4793261 47.8145205,41.880812 L47.0290047,42.1182123 Z" id="Fill-263" fill="#000000"></path>
                <path d="M60.5710525,44.0523616 L60.5295075,43.9336615 C59.9974514,44.062137 59.4835496,44.2531046 58.9965298,44.502724 C58.686862,44.7498997 58.4819296,45.1053019 58.4243252,45.4977107 C58.4005851,45.8967527 58.6645184,46.2563444 59.0523887,46.3530501 C60.1699158,46.6428182 60.9620648,46.2448235 61.3324792,45.099716 C61.5943178,44.289762 61.370533,44.0523616 60.5710525,44.0523616 M61.0671494,43.2947753 C61.2982656,42.7019727 61.0053555,42.0341098 60.412902,41.8026444 C60.2753495,41.7488802 60.1287199,41.7219981 59.981392,41.7237437 C59.3948735,41.7586556 58.8184795,41.8983028 58.1729601,42.0030382 L57.9704716,41.3990639 C58.7360876,40.9410209 59.6347177,40.7573848 60.5190339,40.8788779 C61.4543214,40.9871045 62.0446801,41.7132702 62.2646246,42.6244685 C62.5823221,44.0558528 62.3344482,45.4942195 62.4423257,46.9221127 C62.4636219,47.1769689 62.3410814,47.2467925 62.1179949,47.2398102 L61.695562,47.2398102 C61.4756176,47.2398102 61.3464439,47.1804601 61.3670419,46.9221127 C61.3984625,46.5729945 61.2870938,46.5450651 60.9760295,46.7091506 C60.4523524,46.9964748 59.904586,47.2370172 59.3390146,47.4283339 C58.7940413,47.602893 57.8479311,46.967498 57.593424,46.3460677 C57.3382187,45.7246375 57.5515298,44.4817769 58.1062785,44.0872735 C58.580381,43.805186 59.0852058,43.5793066 59.6109777,43.4134755 C59.8358097,43.3328292 60.0707662,43.2860474 60.3092139,43.2738282 C60.5623246,43.2651003 60.8150861,43.2720826 61.0671494,43.2947753" id="Fill-265" fill="#000000"></path>
                <path d="M75.1958553,44.0523616 C74.4840034,43.9654312 73.7801813,44.2649746 73.3490204,44.8378774 C72.9999022,45.3022045 73.2791967,46.2343499 73.8098563,46.3844707 C74.5423061,46.6204746 75.3410884,46.323026 75.7404795,45.6652874 C75.8909495,45.3587617 76.0082532,45.0368748 76.0895977,44.7052125 C76.2327361,44.2967443 76.0651594,44.059344 75.6217794,44.0523616 L75.1958553,44.0523616 Z M72.8319764,42.1182472 C72.7345725,41.420011 72.6403106,41.2035577 73.5061235,41.0708928 C73.8793308,40.9748854 74.2598696,40.9106476 74.6442486,40.8788779 C75.0862322,40.8893514 75.5226298,40.9794239 75.9321454,41.1442076 C76.5944225,41.4385142 77.0172045,42.0990457 77.0074292,42.8234658 C77.0636373,44.1466235 77.0074292,45.4732724 77.0074292,46.7964301 C77.0074292,47.1455483 76.9065341,47.2677396 76.5748719,47.2188631 C76.4914326,47.2101351 76.4069461,47.2101351 76.3231577,47.2188631 C76.0511947,47.2188631 75.8661621,47.1804601 75.9534416,46.8418155 C75.9569328,46.7667551 75.9450628,46.6920438 75.9185298,46.6218711 C75.3491181,46.852289 74.8013518,47.0652511 74.2567275,47.2921779 C73.6248237,47.5575077 72.6542753,47.1315835 72.3575249,46.4926974 C71.7640241,45.2184162 72.3575249,44.3456209 73.2544094,43.7206994 C73.5480177,43.5677857 73.8639696,43.4630502 74.1903951,43.4099843 C74.4438548,43.3370186 74.701504,43.2811597 74.9619461,43.2424076 C75.1392981,43.2336796 75.3166501,43.240662 75.4926057,43.2633547 C75.6043235,43.2633547 75.7823737,43.3192136 75.8103032,43.2633547 C75.8989792,43.1453528 75.9401751,42.9980249 75.9255122,42.8513953 C75.7223254,41.9978015 74.8659386,41.4706331 74.0123448,41.674169 C73.859082,41.7104772 73.7117541,41.7694782 73.5759472,41.8494263 C73.3364521,41.9604458 73.0875309,42.0505183 72.8319764,42.1182472 L72.8319764,42.1182472 Z" id="Fill-267" fill="#000000"></path>
                <path d="M54.6885517,40.798476 C55.1752224,40.8689978 55.655958,40.9751297 56.1269184,41.1161735 C56.2386362,41.1580676 56.2560921,41.5211505 56.2630745,41.7410949 C56.2630745,41.8039362 56.0850242,41.9366011 55.9942535,41.9296187 C55.7558058,41.9160031 55.5208493,41.8678248 55.2960173,41.7864803 C54.7458071,41.5480326 54.1065718,41.8011432 53.8681241,42.3513534 C53.8646329,42.3597322 53.8611418,42.3681111 53.8576506,42.3764899 C53.8157564,42.5573331 53.8579997,42.7476025 53.9728596,42.8931847 C54.3904048,43.242652 54.8348322,43.5582548 55.3029996,43.8358037 C55.8755534,44.1849218 56.4027217,44.5340399 56.619175,45.190382 C56.6806198,45.3307275 56.7043598,45.4846886 56.6889986,45.6372532 C56.5004748,46.3354895 56.2037244,46.942955 55.4566116,47.2187583 C54.5174838,47.5678765 53.6446885,47.2431966 52.7757335,46.9604109 C52.7160343,46.9394638 52.6776313,46.6112928 52.7404726,46.5100485 C52.8347345,46.366561 52.9886956,46.2729973 53.1594143,46.2551923 C53.7529151,46.2551923 54.3533983,46.3878572 54.9399168,46.3494542 C55.4147174,46.3180336 55.6137148,45.5290266 55.3068399,45.1205584 C54.984953,44.7082499 54.5373836,44.4114995 54.0322096,44.2756925 C53.9135095,44.2407807 53.8017917,44.1849218 53.6830915,44.1395364 C53.1534793,43.9705633 52.8036629,43.4660876 52.8312433,42.9106406 C52.8312433,42.2612809 52.7718932,41.5455888 53.4980589,41.1894883 C53.8845327,41.0295922 54.2825273,40.8986729 54.6885517,40.798476" id="Fill-269" fill="#000000"></path>
                <path d="M45.2204332,41.9260926 C44.5640911,41.9260926 43.984555,41.9051455 43.4120013,41.9260926 C42.8394476,41.9470397 41.942214,42.7849232 41.9107933,43.4098446 C41.8793727,44.0347661 41.7816196,44.6666699 42.0748789,45.2776266 C42.3880378,45.8973113 42.9996928,46.3110163 43.6912958,46.3703664 L44.581547,46.3703664 C44.8782974,46.3703664 45.1331537,46.324981 45.4124482,46.3040339 C45.6323926,46.8661141 45.5311483,47.0965321 44.811965,47.1873028 C44.1273443,47.2951803 43.4301554,47.2951803 42.7451857,47.1873028 C41.9910905,47.0605729 41.3595358,46.5456237 41.0833834,45.8327245 C40.5254926,44.575201 40.668631,43.1172837 41.460431,41.992425 C41.9114916,41.3458583 42.6669832,40.9806807 43.4538955,41.028859 C43.946152,41.028859 44.4384086,41.067262 44.9306651,41.0882091 C45.4892541,41.1126474 45.5974808,41.3186271 45.3007304,41.7864454 C45.2623274,41.8457954 45.2274155,41.9191102 45.2204332,41.9260926" id="Fill-271" fill="#000000"></path>
            </g>
        </g>
    </g>
</svg>