<?xml version="1.0" encoding="UTF-8"?>
<svg width="100px" height="100px" viewBox="0 0 100 100" version="1.1" xmlns="http://www.w3.org/2000/svg" xmlns:xlink="http://www.w3.org/1999/xlink">
    <title>nao me torra</title>
    <defs>
        <polygon id="path-1" points="0.00654489674 0.0796048624 4.89216614 0.0796048624 4.89216614 22.68 0.00654489674 22.68"></polygon>
        <polygon id="path-3" points="0 0.196551787 10.2701055 0.196551787 10.2701055 16.3764739 0 16.3764739"></polygon>
    </defs>
    <g id="Logos" stroke="none" stroke-width="1" fill="none" fill-rule="evenodd">
        <g transform="translate(-200.000000, -400.000000)" id="nao-me-torra">
            <g transform="translate(200.000000, 400.000000)">
                <rect id="Area" fill="#FCE059" x="0" y="0" width="100" height="100"></rect>
                <g id="Group-31" transform="translate(17.000000, 29.000000)">
                    <g id="Group-3" transform="translate(12.600000, 18.897060)">
                        <mask id="mask-2" fill="white">
                            <use xlink:href="#path-1"></use>
                        </mask>
                        <g id="Clip-2"></g>
                        <path d="M0.013902,11.37486 C0.013902,9.39729 0.036372,7.41909 0.007392,5.44194 C-0.018858,3.67143 0.563682,2.15082 1.934352,1.04979 C2.531592,0.56973 3.349962,0.34503 4.095882,0.08568 C4.243932,0.03444 4.565232,0.31857 4.722102,0.51534 C4.822902,0.64176 4.781532,0.89145 4.783212,1.08612 C4.823532,6.01776 4.876452,10.9494 4.891782,15.88104 C4.898082,17.91426 4.825422,19.9479 4.781742,21.98133 C4.767462,22.6527 4.471992,22.79634 3.824142,22.59747 C2.512692,22.19553 1.513302,21.4368 0.788802,20.26752 C0.265482,19.4229 0.025032,18.51696 0.019782,17.54298 C0.008652,15.48708 0.016422,13.43097 0.016422,11.37486 L0.013902,11.37486 Z" id="Fill-1" fill="#000000" mask="url(#mask-2)"></path>
                    </g>
                    <path d="M23.726871,30.465813 C23.726871,32.561403 23.771181,34.658253 23.709231,36.752163 C23.675631,37.890783 23.296581,38.930073 22.500261,39.831603 C21.784581,40.641783 20.972931,41.209413 19.928601,41.438733 C19.262901,41.585103 19.093851,41.475693 19.051431,40.813143 C18.991791,39.876753 18.959241,38.937003 18.958191,37.998513 C18.951891,32.025063 18.956511,26.051613 18.959031,20.078163 C18.959451,19.038453 19.398981,18.742773 20.366661,19.123923 C22.369011,19.912893 23.706711,21.839433 23.721621,24.002853 C23.736321,26.157033 23.724771,28.311423 23.724771,30.465813 L23.726871,30.465813 Z" id="Fill-4" fill="#000000"></path>
                    <path d="M16.602264,0.110355 C17.345244,0.110355 18.088854,0.094605 18.831204,0.116655 C19.235034,0.128415 19.603584,0.263025 19.923204,0.545265 C20.210694,0.798945 20.411874,1.086855 20.493144,1.457295 C20.545014,1.693335 20.506164,1.753185 20.271384,1.768095 C19.939374,1.789305 19.606104,1.800855 19.273254,1.801275 C17.155194,1.803585 15.037134,1.801905 12.918864,1.800855 C12.550314,1.800855 12.445314,1.645035 12.580764,1.301895 C12.860274,0.591675 13.543614,0.117495 14.310534,0.112245 C15.074514,0.106995 15.838284,0.110985 16.602264,0.110985 L16.602264,0.110355 Z" id="Stroke-6" stroke="#000000" stroke-width="1.05"></path>
                    <path d="M62.0529,26.743752 C62.0529,25.838442 62.05311,24.933132 62.05269,24.027612 C62.05269,23.921352 62.05269,23.814672 62.04849,23.708202 C61.97856,21.995022 61.31874,21.118272 60.09108,21.106302 C58.78467,21.093492 57.90351,22.071252 57.87621,23.672082 C57.84072,25.748352 57.92367,27.828192 57.84387,29.902152 C57.78465,31.445442 58.63599,31.632972 59.86197,31.600212 C61.03335,31.568922 62.18184,31.680642 62.06613,29.938272 C61.99578,28.877772 62.05311,27.808872 62.0529,26.743752 M54.04875,31.238802 C54.04959,28.682892 54.0183,26.126772 54.05736,23.571702 C54.11007,20.097882 56.46711,17.811402 59.9424,17.7983273 C63.4011,17.785362 65.83374,20.096412 65.86146,23.538732 C65.90325,28.756392 65.85831,33.974892 65.88855,39.192552 C65.8959,40.458222 65.57271,41.212962 64.10817,41.208155 C62.65476,41.203512 62.08482,40.502322 62.07201,39.158742 C62.0634,38.253642 62.03988,37.348332 62.05374,36.443442 C62.0781,34.865082 60.98694,34.862562 59.86701,34.836732 C58.74666,34.811112 57.81741,34.945722 57.86067,36.412782 C57.8907,37.423092 57.86277,38.436132 57.8277,39.446652 C57.7794,40.826982 56.95032,41.210862 55.68864,41.197422 C54.41184,41.183562 54.03027,40.534452 54.04035,39.385122 C54.06387,36.669822 54.04791,33.954102 54.04875,31.238802" id="Fill-8" fill="#000000"></path>
                    <path d="M29.764791,25.014843 L29.787681,25.014843 C29.787681,25.860513 29.778441,26.706393 29.791671,27.551853 C29.798391,27.988233 29.904441,28.375263 30.354891,28.600803 C31.640301,29.244243 33.865881,28.321293 34.121871,26.918073 C34.348671,25.675083 34.378281,24.376863 34.066221,23.137653 C33.742401,21.850983 32.438721,21.218883 30.889341,21.397383 C29.377341,21.571473 29.862231,22.725843 29.773401,23.588523 C29.725101,24.059133 29.764791,24.538983 29.764791,25.014843 M26.199411,30.124563 C26.199411,26.319783 26.194161,23.287383 26.201301,20.254983 C26.206551,18.126423 26.263881,18.083583 28.324401,18.111093 C29.707461,18.129573 31.090941,18.102693 32.473581,18.133143 C35.474061,18.198873 37.655961,20.207103 37.754031,23.202333 C37.834041,25.648833 38.374581,28.271313 36.025311,30.159633 C35.590401,30.509493 35.922621,30.956373 36.159291,31.300773 C37.839081,33.745173 37.683891,36.545523 37.703631,39.303033 C37.712031,40.481343 37.178001,41.179803 35.864871,41.192823 C34.463541,41.206893 33.971721,40.452363 33.941901,39.209793 C33.913551,38.040093 33.980541,36.863463 33.876171,35.701533 C33.748911,34.287813 33.326181,32.963343 31.939761,32.238843 C30.577281,31.526733 29.801541,31.973193 29.775081,33.503253 C29.741061,35.471163 29.723001,37.440963 29.777811,39.407823 C29.818551,40.858293 29.075151,41.224743 27.789111,41.196603 C26.436501,41.167203 25.977231,40.411413 26.075511,39.241503 C26.352081,35.946183 26.097561,32.647503 26.199411,30.124563" id="Fill-10" fill="#000000"></path>
                    <path d="M43.822485,24.972591 L43.843275,24.972591 C43.843275,25.820151 43.832775,26.667711 43.847475,27.514851 C43.855035,27.946821 43.940715,28.343931 44.385915,28.584171 C45.693375,29.290611 47.864355,28.441581 48.170115,26.982501 C48.430095,25.741401 48.435135,24.439191 48.142185,23.194941 C47.833695,21.883071 46.565295,21.241311 44.998695,21.386631 C43.486905,21.526911 43.899345,22.661751 43.829205,23.542911 C43.791615,24.016671 43.822485,24.495891 43.822485,24.972591 M40.265715,29.486541 C40.266345,26.294121 40.298265,23.101071 40.251015,19.909281 C40.231695,18.615681 40.727295,18.062541 42.036855,18.112101 C43.630755,18.172161 45.228645,18.129111 46.824855,18.131841 C48.439335,18.134571 49.698075,18.863061 50.648955,20.111721 C52.726485,22.840041 52.617285,27.283851 50.398845,29.896251 C49.982835,30.385971 49.615125,30.739611 50.175615,31.364151 C51.195165,32.500041 51.361485,33.955131 51.513315,35.381241 C51.648345,36.647541 51.674595,37.926231 51.728775,39.200301 C51.778965,40.374831 51.382695,41.160021 50.034705,41.186481 C48.751815,41.211891 47.995605,40.742331 47.998125,39.354441 C48.000435,38.024721 48.025425,36.690591 47.930505,35.366331 C47.820885,33.834171 47.191935,32.575011 45.605385,32.070171 C44.538165,31.730601 43.820385,31.984911 43.828365,33.292581 C43.840965,35.314461 43.792875,37.336971 43.834875,39.358011 C43.861125,40.622841 43.381275,41.207901 42.061005,41.2028933 C40.770345,41.197821 40.238415,40.670091 40.252695,39.383211 C40.289235,36.084741 40.264875,32.785641 40.265715,29.486541" id="Fill-12" fill="#000000"></path>
                    <path d="M41.563956,9.306066 L41.591886,9.306066 C41.591886,7.923426 41.532876,6.537426 41.607846,5.158776 C41.688276,3.682266 42.845796,2.583756 44.160606,2.591526 C45.520146,2.599716 46.655406,3.649296 46.705386,5.143026 C46.781826,7.427826 46.736676,9.716406 46.745496,12.003306 C46.747386,12.481896 46.738566,12.961956 46.774266,13.438236 C46.805346,13.856136 46.819206,14.386176 47.376546,14.406546 C47.977566,14.428386 47.933466,13.876086 47.970216,13.468686 C48.003396,13.099086 47.989746,12.724866 47.990376,12.352536 C47.994576,10.225026 47.964546,8.096886 48.009486,5.970426 C48.052956,3.929646 49.118286,2.600976 50.639106,2.567166 C52.241616,2.531676 53.326056,3.857196 53.372046,6.018516 C53.416986,8.145186 53.388846,10.273326 53.396406,12.400836 C53.397876,12.826086 53.393466,13.253436 53.433786,13.675746 C53.469906,14.050806 53.556426,14.468496 54.049296,14.450226 C54.539016,14.431956 54.616926,14.001036 54.617346,13.632696 C54.620916,10.709916 54.926676,7.762986 54.489876,4.871076 C54.046356,1.936746 50.946756,0.612066 48.528816,2.260566 C47.633376,2.871036 47.125386,2.724246 46.311216,2.220456 C43.754886,0.638736 40.505766,2.178456 40.360866,5.082756 C40.223526,7.841526 40.317186,10.612476 40.332516,13.377966 C40.334826,13.833456 40.302276,14.479416 40.983306,14.434056 C41.628846,14.391006 41.547366,13.749876 41.555556,13.295016 C41.579286,11.965716 41.563956,10.635786 41.563956,9.306066 L41.563956,9.306066 Z M39.033666,9.592926 C39.033666,8.316336 39.017916,7.039326 39.036606,5.762736 C39.094566,1.823976 42.259686,-0.521514 45.994746,0.686196 C47.008416,1.014006 47.862276,1.033956 48.896946,0.724416 C52.778586,-0.436884 55.866216,1.876056 55.931946,5.922546 C55.974156,8.528436 55.965126,11.136216 55.926906,13.742316 C55.901916,15.452136 55.388676,15.912036 53.893266,15.925056 C52.322466,15.938706 52.089576,14.997906 52.106166,13.723416 C52.139136,11.170446 52.129056,8.616426 52.097556,6.063456 C52.085796,5.103546 52.081176,3.931956 50.759226,3.930276 C49.399686,3.928596 49.280196,5.074986 49.275366,6.135066 C49.263186,8.741586 49.233366,11.348946 49.280196,13.954626 C49.304136,15.283506 48.810216,15.941436 47.427996,15.918756 C46.112136,15.897336 45.669876,15.223026 45.688566,13.993476 C45.723636,11.653446 45.702636,9.312366 45.692976,6.971706 C45.690666,6.441246 45.707046,5.896506 45.595326,5.384106 C45.415566,4.556916 45.002916,3.813306 44.011296,3.919566 C43.084776,4.018686 42.878766,4.792956 42.872676,5.584236 C42.851886,8.350356 42.832986,11.116896 42.856926,13.882596 C42.868686,15.261246 42.325206,15.973986 40.873476,15.932616 C39.717426,15.899646 39.054666,15.423996 39.047736,14.220906 C39.038916,12.678246 39.045636,11.135586 39.045636,9.592926 L39.033666,9.592926 Z" id="Fill-14" fill="#000000"></path>
                    <path d="M4.147458,31.268601 C4.145358,28.605801 4.102308,25.942161 4.163418,23.280621 C4.194288,21.934941 3.732078,21.272181 2.323818,21.374661 C1.188978,21.457191 0.330288,21.207081 0.338833822,19.762701 C0.347298,18.350661 1.151178,18.110631 2.314578,18.112941 C4.709838,18.117351 7.105308,18.027471 9.500358,18.043011 C11.179308,18.053931 11.731398,18.714801 11.484438,20.147421 C11.308248,21.168021 10.626798,21.467061 9.748998,21.365841 C8.069208,21.172011 7.675248,21.969801 7.696038,23.509101 C7.766598,28.727181 7.699608,33.946941 7.739298,39.165651 C7.749798,40.545561 7.328958,41.261451 5.821158,41.205801 C4.580478,41.160021 4.127718,40.597641 4.140528,39.416601 C4.169298,36.700881 4.149768,33.984741 4.147458,31.268601" id="Fill-16" fill="#000000"></path>
                    <g id="Group-20" transform="translate(0.000000, 0.207060)">
                        <mask id="mask-4" fill="white">
                            <use xlink:href="#path-3"></use>
                        </mask>
                        <g id="Clip-19"></g>
                        <path d="M1.31922,9.269841 C1.31922,10.759791 1.30473,12.249951 1.32783,13.739691 C1.33497,14.194761 1.26273,14.837361 1.90953,14.873271 C2.60085,14.911491 2.50383,14.258601 2.54016,13.806051 C2.57439,13.382691 2.55297,12.955131 2.55423,12.529251 C2.56074,10.028361 2.50509,7.525161 2.5914,5.027001 C2.66616,2.853501 4.78611,1.685481 6.54066,2.780211 C7.57659,3.426171 7.71771,4.501581 7.72716,5.585391 C7.74984,8.192751 7.72128,10.800531 7.75194,13.407471 C7.75803,13.940241 7.51338,14.804811 8.30949,14.848281 C9.15642,14.894481 8.94999,14.014581 8.95524,13.488531 C8.98338,10.721781 9.00522,7.953771 8.95251,5.187651 C8.91009,2.958291 7.266,1.401141 5.06856,1.383921 C2.93622,1.367331 1.41771,2.852451 1.3293,5.119611 C1.27533,6.500991 1.31943,7.886361 1.31922,9.269841 L1.31922,9.269841 Z M10.25346,9.829071 C10.25346,11.265681 10.26669,12.702501 10.2501,14.139111 C10.22973,15.894921 9.79293,16.351881 8.30781,16.369731 C6.79077,16.388001 6.42327,15.506001 6.43461,14.204001 C6.45708,11.649981 6.43965,9.095751 6.4365,6.541731 C6.43608,6.116271 6.44133,5.689551 6.41445,5.265351 C6.36363,4.460631 6.1215,3.737391 5.17062,3.706731 C4.25901,3.677331 3.83145,4.360461 3.71889,5.130531 C3.5889,6.018621 3.61431,6.932331 3.60885,7.835121 C3.59541,10.123071 3.59226,12.411231 3.60612,14.699181 C3.61284,15.807141 3.14664,16.380651 1.98807,16.3764739 C0.88053,16.372671 0.05712,16.025541 0.04935,14.786751 C0.02856,11.382021 -0.07959,7.969521 0.11088,4.575081 C0.2604,1.909551 2.47674,0.146601 5.10552,0.197631 C7.95228,0.252651 10.05732,2.126481 10.22154,4.881891 C10.31919,6.525561 10.23939,8.179731 10.23939,9.829071 L10.25346,9.829071 Z" id="Fill-18" fill="#000000" mask="url(#mask-4)"></path>
                    </g>
                    <path d="M58.239069,8.29164 C58.239069,9.93909 58.236759,11.58654 58.240119,13.2342 C58.241589,13.91082 58.329789,14.59059 59.193939,14.61306 C60.786369,14.65422 62.380689,14.62965 63.974169,14.61558 C64.233729,14.61327 64.562169,14.5551 64.588839,14.23149 C64.624749,13.79343 64.237509,13.74492 63.931959,13.73358 C62.976669,13.69788 62.019699,13.67919 61.063569,13.68948 C60.030579,13.70082 59.486469,13.28733 59.472819,12.18567 C59.458959,11.06532 59.895759,10.4769 61.058949,10.50882 C61.589829,10.5231 62.123649,10.52919 62.652429,10.48866 C63.040089,10.45905 63.643839,10.59324 63.627669,9.98445 C63.615069,9.51132 63.072639,9.60498 62.720259,9.56907 C59.475339,9.23601 59.474919,9.23769 59.477229,5.87097 C59.477439,5.39259 59.496129,4.91379 59.478069,4.43625 C59.434179,3.2802 60.006009,2.79279 61.130979,2.82933 C61.927089,2.85516 62.725929,2.84928 63.522039,2.81883 C63.920619,2.8035 64.539279,2.93076 64.578129,2.3898 C64.620549,1.79319 63.987399,1.90386 63.602259,1.89588 C62.274219,1.869 60.944709,1.90995 59.616879,1.87866 C58.572759,1.85409 58.209879,2.36838 58.227519,3.34929 C58.256709,4.99632 58.235499,6.64419 58.239069,8.29164 M60.837399,12.13569 C62.227389,12.558 63.272769,12.39105 64.288959,12.40596 C65.522079,12.42423 66.183789,12.93054 66.173079,14.22372 C66.162789,15.45852 65.490789,15.9222 64.348809,15.91968 C62.485479,15.91569 60.622149,15.92115 58.758819,15.9219905 C57.555939,15.92262 57.083859,15.35289 57.102129,14.12586 C57.161139,10.18752 57.179829,6.2475 57.117459,2.30958 C57.098559,1.12497 57.532209,0.61425 58.653609,0.60921 C60.623409,0.60039 62.593209,0.59115 64.562589,0.61446 C65.683779,0.62769 66.173499,1.27281 66.17455,2.36166 C66.175389,3.46794 65.642199,4.04607 64.535709,4.08429 C64.110249,4.09899 63.684369,4.1013 63.258279,4.10382 C60.848529,4.11726 60.215799,4.97364 60.794979,7.36386 C60.950169,8.00541 61.334679,8.23578 61.926249,8.25867 C62.564439,8.28324 63.204729,8.27358 63.840609,8.32545 C64.825089,8.40546 65.205819,9.03504 65.220729,9.95316 C65.236479,10.91958 64.904259,11.6088 63.832629,11.75139 C62.973729,11.86563 62.067159,11.62077 60.837399,12.13569" id="Fill-21" fill="#000000"></path>
                    <path d="M20.119764,14.059059 C20.111574,14.387289 19.985154,14.706699 19.600434,14.763189 C19.201854,14.821779 19.016004,14.545209 18.952794,14.211309 C18.746994,13.121199 18.006534,13.107759 17.131674,13.223049 C16.556274,13.298649 15.958404,13.309149 15.382164,13.245099 C14.560854,13.153539 13.872684,13.166139 13.722954,14.205009 C13.669614,14.574399 13.420554,14.759199 13.041294,14.700399 C12.651324,14.639709 12.534144,14.342979 12.530784,14.002359 C12.520704,12.990999 12.527424,11.979009 12.527424,10.967439 L12.517134,10.967439 C12.517134,10.115259 12.477024,9.260979 12.524904,8.411529 C12.639774,6.374319 14.079534,4.956399 16.122834,4.816539 C17.987634,4.688859 19.726434,5.945289 20.030304,7.841799 C20.359794,9.896649 20.171844,11.984889 20.119764,14.059059 M21.406224,8.719809 C21.339654,7.077819 20.866734,5.538099 19.394844,4.588059 C19.218444,4.474239 19.077114,4.365039 18.961824,4.253529 C18.685884,4.117869 18.413094,3.985779 18.117834,3.895269 C17.647434,3.818409 17.174094,3.790269 16.697814,3.795309 C16.194234,3.838149 15.690024,3.935799 15.208074,4.040589 C14.434854,4.208799 13.578684,4.440639 12.958764,4.962699 C12.517134,5.334819 12.218514,5.805219 11.786544,6.179019 C11.405604,6.839469 11.239074,7.643769 11.232354,8.458989 C11.224374,9.414909 11.230674,10.371039 11.231934,11.326959 C11.233404,12.335799 11.237814,13.345059 11.231724,14.353899 C11.226474,15.242829 11.517534,15.944019 12.472614,16.127349 C13.397664,16.305009 14.212884,16.262589 14.794794,15.266139 C15.525384,14.014329 17.156244,13.963719 17.831184,15.189069 C18.429894,16.275609 19.297824,16.318659 20.266134,16.141209 C21.259224,15.958929 21.410634,15.114519 21.423024,14.294679 C21.450744,12.436389 21.481824,10.575369 21.406224,8.719809" id="Fill-23" fill="#000000"></path>
                    <path d="M23.709441,8.107491 L23.695371,8.107491 C23.695371,9.223431 23.636571,10.343151 23.707761,11.454471 C23.844891,13.590381 25.345761,14.930811 27.508761,14.9367057 C29.495781,14.941941 31.194471,13.538721 31.293801,11.581101 C31.406781,9.355311 31.414971,7.114191 31.291701,4.889661 C31.180401,2.882901 29.553741,1.588251 27.476631,1.60262061 C25.298511,1.618071 23.899911,2.814651 23.724771,4.921161 C23.636991,5.976411 23.709441,7.044891 23.709441,8.107491 L23.709441,8.107491 Z M22.395261,8.110431 C22.395261,7.258671 22.385181,6.407121 22.397151,5.555781 C22.441671,2.411031 24.509331,0.350091 27.619431,0.341037081 C30.454221,0.332871 32.554011,2.428671 32.594751,5.461071 C32.624571,7.690431 32.811261,9.932391 32.417721,12.152091 C31.976301,14.641641 29.708931,16.371621 27.110391,16.217901 C24.605511,16.069851 22.567881,14.102781 22.425921,11.622051 C22.358931,10.455081 22.414371,9.281181 22.414371,8.110431 L22.395261,8.110431 Z" id="Fill-25" fill="#000000"></path>
                    <path d="M15.037722,9.283092 C15.080562,10.047072 14.863632,11.024412 16.180542,11.075232 C17.459232,11.124372 17.660622,10.321542 17.631852,9.302622 C17.603922,8.324442 17.655162,7.194012 16.294362,7.211442 C15.051372,7.227192 15.046122,8.287062 15.037722,9.283092 M18.919782,9.783312 C18.921042,12.038922 18.921042,12.038922 16.502052,12.167442 C13.752522,12.313812 13.752522,12.313812 13.7510502,9.689652 C13.749582,7.077252 14.645862,5.792892 16.441152,5.835522 C18.005652,5.872692 18.918522,7.326522 18.919782,9.783312" id="Fill-27" fill="#000000"></path>
                    <path d="M28.801122,8.325387 C28.801122,7.372197 28.824222,6.418167 28.793982,5.466027 C28.768362,4.660467 28.491162,3.946887 27.556032,3.911397 C26.605362,3.875067 26.270412,4.572267 26.255292,5.383287 C26.219382,7.289037 26.221062,9.196047 26.251302,11.102007 C26.264322,11.910717 26.568192,12.627867 27.535662,12.568437 C28.428162,12.513627 28.787892,11.867037 28.800702,11.026197 C28.814562,10.126137 28.804062,9.225657 28.801122,8.325387 M30.082332,8.272887 C30.082332,9.337377 30.140082,10.405857 30.068262,11.465517 C29.968512,12.939087 28.839972,13.952967 27.448092,13.930077 C26.064822,13.907817 25.033722,13.003977 24.975342,11.511717 C24.890502,9.332757 24.890922,7.145187 24.983952,4.966857 C25.046112,3.507777 26.119422,2.597847 27.495552,2.584407 C28.875882,2.570967 29.922102,3.463047 30.048312,4.921917 C30.144282,6.031137 30.067422,7.155267 30.067422,8.272677 C30.072462,8.272887 30.077292,8.272887 30.082332,8.272887" id="Fill-29" fill="#000000"></path>
                </g>
            </g>
        </g>
    </g>
</svg>