<?xml version="1.0" encoding="UTF-8"?>
<svg width="100px" height="100px" viewBox="0 0 100 100" version="1.1" xmlns="http://www.w3.org/2000/svg" xmlns:xlink="http://www.w3.org/1999/xlink">
    <title>ovni</title>
    <defs>
        <polygon id="path-1" points="0 0.0915924923 58.434794 0.0915924923 58.434794 74.1399012 0 74.1399012"></polygon>
    </defs>
    <g id="Logos" stroke="none" stroke-width="1" fill="none" fill-rule="evenodd">
        <g transform="translate(-300.000000, -400.000000)" id="ovni">
            <g transform="translate(300.000000, 400.000000)">
                <rect id="Area" fill="#FCE059" x="0" y="0" width="100" height="100"></rect>
                <g id="Group-20" transform="translate(21.000000, 13.000000)">
                    <g id="Group-3" transform="translate(0.000000, 0.128480)">
                        <mask id="mask-2" fill="white">
                            <use xlink:href="#path-1"></use>
                        </mask>
                        <g id="Clip-2"></g>
                        <path d="M38.904954,26.438742 C39.013194,26.614962 39.121434,26.790962 39.229894,26.966742 C39.662194,26.680962 40.094934,26.394962 40.527454,26.108962 C40.432414,25.956502 40.337594,25.803822 40.242334,25.651362 C39.796614,25.913822 39.350674,26.176502 38.904954,26.438742 L38.904954,26.438742 Z M29.647134,12.438382 C29.721494,12.464122 29.795854,12.489862 29.869994,12.515602 C29.869994,12.109042 29.969214,11.666842 29.839634,11.307142 C29.729194,10.999802 29.355854,10.786842 29.098894,10.532302 C29.052914,10.589502 29.006934,10.646482 28.960954,10.703462 C29.189754,11.281622 29.418554,11.860002 29.647134,12.438382 L29.647134,12.438382 Z M18.066994,14.189802 C17.874054,14.181002 17.681114,14.172422 17.488174,14.163622 L17.488174,15.836942 C17.623694,15.845082 17.758774,15.853002 17.893854,15.860922 C17.951714,15.303882 18.009354,14.746842 18.066994,14.189802 L18.066994,14.189802 Z M18.569034,18.350002 C18.660994,18.539202 18.752954,18.727962 18.844694,18.917162 C19.308014,18.674282 19.771334,18.431622 20.234654,18.188962 C20.153034,18.022422 20.071414,17.856102 19.989574,17.689562 C19.516134,17.909782 19.042694,18.129782 18.569034,18.350002 L18.569034,18.350002 Z M14.810334,20.104942 C14.918134,20.284022 15.025934,20.463322 15.133514,20.642182 C15.568894,20.364322 16.004054,20.086242 16.439214,19.808162 C16.348134,19.653502 16.257274,19.498842 16.166194,19.344402 C15.714094,19.597842 15.262214,19.851502 14.810334,20.104942 L14.810334,20.104942 Z M42.563774,23.931622 C42.730314,24.059442 42.897074,24.187262 43.063614,24.315082 L44.016214,23.078242 C43.872994,22.963622 43.729554,22.849222 43.586114,22.734602 C43.245334,23.133682 42.904554,23.532762 42.563774,23.931622 L42.563774,23.931622 Z M10.335534,29.523802 C9.987054,28.494202 9.499974,28.289162 8.813794,29.269482 C9.320894,29.354182 9.828214,29.439102 10.335534,29.523802 L10.335534,29.523802 Z M24.385614,16.751482 C23.185074,16.246142 23.015234,16.315442 22.689634,17.466482 C23.175174,17.261662 23.660494,17.056842 24.385614,16.751482 L24.385614,16.751482 Z M16.955114,14.496482 C16.786594,14.465022 16.618294,14.434002 16.449994,14.402762 C16.323494,14.994562 16.196994,15.586802 16.070714,16.178602 C16.233074,16.213362 16.395874,16.248122 16.558234,16.282662 C16.690454,15.687342 16.822674,15.091802 16.955114,14.496482 L16.955114,14.496482 Z M36.605514,14.955182 C35.721994,14.151522 35.513874,14.193542 34.820434,15.300582 C35.585814,15.152522 36.095554,15.053742 36.605514,14.955182 L36.605514,14.955182 Z M14.711554,16.662602 C14.873694,16.711442 15.035614,16.760282 15.197534,16.809122 C15.372654,16.214682 15.547554,15.620242 15.722674,15.025802 C15.562514,14.977402 15.402574,14.929222 15.242414,14.880602 C15.065534,15.474602 14.888434,16.068602 14.711554,16.662602 L14.711554,16.662602 Z M45.313334,19.440322 C45.068254,19.901442 44.822734,20.362782 44.577654,20.823902 C45.644654,20.796402 45.888414,20.334402 45.313334,19.440322 L45.313334,19.440322 Z M11.734734,21.578722 C11.842534,21.760882 11.950334,21.943262 12.058134,22.125642 C12.498574,21.838982 12.938794,21.552102 13.379014,21.265442 C13.284854,21.110342 13.190694,20.955022 13.096314,20.799702 C12.642454,21.059522 12.188594,21.319122 11.734734,21.578722 L11.734734,21.578722 Z M7.569034,25.869382 C7.363114,25.831542 7.157194,25.793922 6.951494,25.756082 C6.859094,26.254602 6.766694,26.753122 6.674514,27.251422 C6.880214,27.289262 7.085694,27.326882 7.291614,27.364502 C7.384014,26.866202 7.476634,26.367902 7.569034,25.869382 L7.569034,25.869382 Z M9.976714,23.342242 C9.822274,23.202542 9.667614,23.063062 9.512734,22.923582 C9.171514,23.329922 8.829854,23.736262 8.488194,24.142382 C8.624374,24.262502 8.760774,24.382402 8.897174,24.502302 L9.976714,23.342242 Z M30.971314,15.012382 C31.753194,15.841342 32.229274,15.572062 32.606574,14.946602 C32.573134,14.826262 32.539474,14.705922 32.506254,14.585582 C31.994754,14.727922 31.483034,14.870042 30.971314,15.012382 L30.971314,15.012382 Z M13.042854,30.306342 C13.818134,31.275002 14.018114,31.264222 14.743234,30.306342 L13.042854,30.306342 Z M44.347094,15.773362 C44.104214,16.058262 43.806554,16.353282 43.832294,16.385182 C44.068574,16.674922 44.338074,16.957182 44.654654,17.147042 C44.724174,17.188402 45.019634,16.852682 45.211034,16.690542 C44.951654,16.415102 44.692274,16.139882 44.347094,15.773362 L44.347094,15.773362 Z M28.627214,12.909622 C29.334514,12.006302 29.069854,11.292182 27.771414,10.847562 C28.080294,11.591822 28.331754,12.197922 28.627214,12.909622 L28.627214,12.909622 Z M39.430314,14.889402 C40.221654,15.791402 40.743714,15.868842 41.536594,14.889402 L39.430314,14.889402 Z M23.289794,4.538402 C22.382514,4.774462 21.825254,5.860162 21.866614,7.298522 C22.312554,6.433262 22.802714,5.483302 23.289794,4.538402 L23.289794,4.538402 Z M7.800474,46.150962 C7.022774,46.297922 6.492794,46.721422 6.532174,47.546202 C6.570674,48.356022 7.108794,48.852342 7.904094,48.816042 C8.689054,48.780182 9.212874,48.260982 9.180754,47.444342 C9.148414,46.631002 8.600174,46.228622 7.800474,46.150962 L7.800474,46.150962 Z M51.486534,30.617202 C51.411294,29.812002 50.993074,29.286422 50.181934,29.255182 C49.369034,29.223722 48.843454,29.708382 48.808474,30.516002 C48.772834,31.333522 49.293134,31.845682 50.083594,31.883082 C50.888574,31.921142 51.344414,31.407662 51.486534,30.617202 L51.486534,30.617202 Z M47.627294,48.572062 C47.671294,49.401682 48.100954,49.931882 48.896914,49.983362 C49.702774,50.035282 50.243094,49.540722 50.297214,48.742122 C50.352434,47.930102 49.851494,47.405402 49.052014,47.351502 C48.239114,47.296502 47.781734,47.798322 47.627294,48.572062 L47.627294,48.572062 Z M7.076234,38.164742 C6.991314,37.391882 6.569354,36.854642 5.765694,36.828462 C4.960714,36.801842 4.426114,37.309602 4.395754,38.106882 C4.364734,38.912742 4.875794,39.432822 5.679894,39.465162 C6.494774,39.497722 6.940934,38.989962 7.076234,38.164742 L7.076234,38.164742 Z M52.868794,39.114042 C52.768474,38.324462 52.324074,37.810762 51.535154,37.801962 C50.749314,37.792942 50.254094,38.282442 50.181054,39.080822 C50.115494,39.795162 50.837974,40.526662 51.553854,40.460002 C52.340134,40.386522 52.784314,39.913522 52.868794,39.114042 L52.868794,39.114042 Z M13.987094,54.375662 C13.215994,54.535382 12.672154,54.950742 12.714174,55.777062 C12.755534,56.584462 13.286614,57.075722 14.091594,57.040522 C14.888654,57.005542 15.396414,56.494262 15.365394,55.674542 C15.334154,54.852402 14.775574,54.467842 13.987094,54.375662 L13.987094,54.375662 Z M33.648934,41.070722 C34.156474,41.159162 34.900294,41.536902 35.412674,41.332742 C37.051454,40.680222 38.604654,39.812102 40.190854,39.027142 L40.134754,38.715842 C39.516334,38.665462 38.792974,38.383642 38.299074,38.607602 C36.690654,39.336242 35.166054,40.249682 33.648934,41.070722 L33.648934,41.070722 Z M19.379954,45.643202 C19.402614,45.747922 19.424834,45.852202 19.447274,45.956702 C19.892994,46.079462 20.340034,46.197822 20.783994,46.326742 C21.081654,46.413202 21.428374,46.666642 21.661354,46.584802 C23.059894,46.092882 24.443914,47.249862 25.826834,46.584802 C25.878094,46.560162 25.967414,46.610102 26.037814,46.629902 C27.138254,46.941202 27.138254,46.941422 27.775154,46.319922 C25.646434,46.039862 23.342814,45.710522 21.030834,45.451802 C20.494254,45.391522 19.931054,45.573022 19.379954,45.643202 L19.379954,45.643202 Z M27.445374,41.228462 C27.243634,41.208442 27.039474,41.202502 26.841034,41.165982 C24.620134,40.758982 22.385154,40.410502 20.188454,39.899222 C19.495894,39.737962 19.052154,39.708702 18.516674,40.459562 C21.535294,41.179622 24.331494,42.619522 27.445374,41.228462 L27.445374,41.228462 Z M51.654614,61.437882 C52.994634,61.038142 54.365454,60.668762 55.699754,60.195542 C55.949674,60.107102 56.181334,59.611882 56.200694,59.290902 C56.281874,57.942962 56.290674,56.590182 56.304314,55.238722 C56.318174,53.826762 56.307614,52.414582 56.307614,50.853022 C54.881794,51.275642 53.487214,51.667902 52.112214,52.119782 C51.912014,52.185562 51.676614,52.534042 51.674194,52.754042 C51.644714,55.595782 51.654614,58.437962 51.654614,61.437882 L51.654614,61.437882 Z M38.420074,44.970662 C37.980734,45.134122 37.560974,45.457522 37.235814,45.380742 C36.020534,45.092982 35.123814,45.582482 34.205754,46.269102 C33.923054,46.480522 33.348854,46.510662 32.995534,46.382622 C31.238614,45.745722 28.212954,46.571602 27.038154,48.080142 C25.704954,47.083542 25.295314,47.057142 23.830554,47.944402 C23.062754,46.548282 21.949554,47.396162 20.884534,47.551482 C20.960654,49.018882 21.949994,49.635762 23.183754,49.964222 C25.872814,50.679442 28.603894,50.780422 31.343334,50.329642 C33.315854,50.005142 35.187834,49.378142 36.708914,48.009522 C37.610254,47.198382 38.404894,46.293302 38.420074,44.970662 L38.420074,44.970662 Z M24.830674,60.223042 C25.794934,63.089642 26.701554,65.784862 27.643374,68.583922 C29.741074,67.960002 31.777834,67.396362 33.778734,66.725142 C34.206414,66.581702 34.682274,66.109582 34.830114,65.683002 C35.667654,63.264762 36.413894,60.814622 37.187414,58.374162 C37.379914,57.767182 37.559654,57.156022 37.801434,56.361822 C36.395194,56.778942 35.223254,57.185282 34.021394,57.462482 C33.226094,57.645962 32.891914,58.061542 32.713714,58.831762 C32.308474,60.586262 31.807534,62.318322 31.269854,64.345402 C30.728434,62.309522 30.266654,60.572182 29.781994,58.749042 C28.071054,59.258562 26.504874,59.724962 24.830674,60.223042 L24.830674,60.223042 Z M24.844754,64.721822 C24.879734,62.179942 23.835174,61.089842 21.323654,61.276402 C18.840514,61.460762 16.519734,62.247042 14.469774,63.695962 C12.498134,65.089882 11.742654,67.072962 11.885654,69.426302 C11.998954,71.298282 12.959474,72.237022 14.853674,72.213482 C17.520734,72.180482 19.968454,71.347342 22.168454,69.855522 C23.963434,68.638482 24.837934,66.894762 24.844754,64.721822 L24.844754,64.721822 Z M45.762134,57.669942 C45.655214,57.687542 45.548074,57.704922 45.441154,57.722522 C45.000494,57.192762 44.494714,56.703482 44.132814,56.124882 C43.412974,54.973402 42.579394,54.840522 41.292614,55.274802 C38.135394,56.340482 38.096234,56.263262 38.048714,59.590542 C38.021214,61.518182 38.043874,63.446482 38.043874,65.474662 C39.187434,65.143342 40.333414,64.780342 41.496994,64.485982 C42.170634,64.315702 42.465654,63.998022 42.425394,63.270042 C42.367094,62.210742 42.410434,61.145722 42.410434,60.083342 C42.520874,60.065302 42.631094,60.047262 42.741094,60.029222 C43.608554,60.915382 44.451154,61.827942 45.359534,62.669882 C45.600214,62.892962 46.075854,63.046302 46.386054,62.976562 C47.420494,62.743582 48.441074,62.428982 49.438994,62.068182 C49.703434,61.972922 50.046854,61.602662 50.050594,61.354062 C50.093494,58.500662 50.077874,55.646602 50.077874,52.710042 C48.853794,53.072602 47.515754,53.433182 46.210934,53.889022 C45.988294,53.966902 45.799094,54.446282 45.782154,54.750322 C45.728034,55.720962 45.762134,56.696442 45.762134,57.669942 L45.762134,57.669942 Z M28.787594,40.763602 C28.798594,40.673842 28.810034,40.584082 28.821254,40.494542 C29.553634,40.494542 30.313734,40.622142 31.012674,40.469242 C32.748474,40.089962 34.585474,39.842682 36.145714,39.067182 C38.668674,37.813842 38.817614,34.931402 36.553374,33.233002 C35.646094,32.552542 34.515294,31.976582 33.411334,31.785402 C28.561874,30.945222 24.188714,32.147082 20.384694,35.286042 C19.889254,35.694802 19.460694,36.239302 19.147414,36.802282 C18.601814,37.783922 18.883194,38.583842 19.883534,39.076422 C20.371714,39.316882 20.897734,39.533142 21.429694,39.621582 C23.877854,40.029022 26.334154,40.387622 28.787594,40.763602 L28.787594,40.763602 Z M51.628214,50.013282 C51.757574,50.116242 51.887154,50.219202 52.016514,50.322162 C52.477854,49.792622 53.112114,49.337222 53.374794,48.722982 C57.628494,38.776782 56.196734,29.567582 49.717954,21.019702 C49.439434,20.651862 49.251334,20.033662 49.341314,19.597842 C49.882514,16.976542 49.213934,14.731002 47.146814,13.090682 C45.965854,12.153482 44.564014,11.394922 43.144354,10.878362 C39.758994,9.646802 36.242294,9.704882 32.714814,10.216162 C32.393614,10.262582 31.907854,10.162042 31.714914,9.940722 C30.593574,8.655702 30.307134,8.594102 28.696074,9.117262 C27.901214,9.375322 27.039034,9.425922 26.447454,9.528882 C26.060694,7.496742 25.779754,5.717162 25.351414,3.973662 C25.239434,3.517602 24.740914,3.025022 24.294534,2.810962 C23.383734,2.373382 22.407374,1.943502 21.420894,1.828662 C20.406694,1.710302 19.281834,1.776522 18.322414,2.104982 C16.116474,2.859582 15.585174,4.973342 14.885794,6.886902 C14.798454,7.126262 14.889534,7.485522 15.008334,7.736762 C15.702434,9.204162 16.429534,10.655942 17.196674,12.217062 C16.952474,12.349942 16.618514,12.549042 16.270034,12.718442 C15.046174,13.312882 13.633554,13.631662 13.252514,15.286282 C13.144274,15.756202 12.683154,16.269242 12.244694,16.518722 C9.809954,17.904942 7.479274,19.414142 5.644254,21.571462 C4.408514,23.024122 3.422254,24.643762 3.453054,26.603962 C3.472194,27.814402 3.186194,28.887342 2.803834,30.000542 C-0.719246,40.259142 3.128774,53.593782 14.004254,60.818582 C14.750934,61.314462 15.249894,61.001402 15.832014,60.610242 C15.752814,60.485062 15.729714,60.402122 15.676694,60.371762 C4.637314,54.044122 -0.156266,40.335262 4.645234,28.437882 C4.724434,28.241642 4.784494,28.011522 4.764474,27.805822 C4.498714,25.062642 5.704534,22.897842 7.696194,21.251802 C9.491394,19.768122 11.515834,18.555042 13.483294,17.291362 C14.019214,16.947282 14.327874,16.632682 14.448214,15.978182 C14.544354,15.454802 14.837834,14.790182 15.255614,14.536742 C16.487174,13.789842 17.823674,13.215862 18.921914,12.672242 C17.919154,10.776062 17.005274,9.110882 16.170374,7.407202 C16.023854,7.108442 16.135394,6.621802 16.258154,6.267162 C16.423154,5.790862 16.698154,5.349102 16.955334,4.909982 C17.695414,3.646742 18.807734,2.795342 20.262154,2.918982 C21.495694,3.023702 22.702174,3.522222 23.900074,3.909422 C24.115894,3.978942 24.341174,4.337762 24.378794,4.590322 C24.663474,6.504982 24.902614,8.426022 25.167054,10.431102 C26.818814,10.774302 26.818814,10.774302 28.859974,10.255542 C30.563434,9.823022 30.788934,9.916082 31.457294,11.316602 C31.484574,11.373582 31.561794,11.407022 31.619654,11.454542 C32.858914,11.367642 34.098174,11.234322 35.340074,11.203302 C38.550754,11.123662 41.731074,11.315062 44.666094,12.808202 C47.602434,14.302002 48.675594,16.605622 47.840474,19.706742 C47.664474,20.360142 47.863794,20.702022 48.237574,21.143122 C53.200774,26.997102 55.220594,33.747582 54.332234,41.366402 C53.977154,44.412742 53.016414,47.279342 51.628214,50.013282 L51.628214,50.013282 Z M38.879874,43.735802 C39.412714,45.268982 39.215374,46.439822 38.561314,47.578982 C38.423594,47.818782 38.445154,48.277702 38.586174,48.526302 C39.032554,49.314122 38.858754,49.982262 38.224934,50.483422 C37.600794,50.976882 36.895254,51.385862 36.180914,51.743142 C33.842754,52.912002 31.287234,53.303162 28.735454,53.436482 C27.043214,53.524922 25.304994,53.252342 23.626614,52.934662 C22.110594,52.647562 21.557954,51.616202 22.074074,50.437442 C20.677514,49.671842 19.992434,48.448642 20.005414,47.224122 C19.306914,46.685562 18.833254,46.320582 18.359374,45.955602 C18.418554,45.871342 18.477734,45.787302 18.536914,45.703042 C18.205154,45.804462 17.873174,45.905882 17.405454,46.048882 C17.611154,44.482922 17.828514,43.039502 17.969094,41.588602 C17.999894,41.272902 17.754814,40.930362 17.636674,40.600362 C17.522934,40.632922 17.408974,40.665262 17.294794,40.697602 C17.061594,42.323402 16.796714,43.945242 16.609714,45.576322 C16.529634,46.275042 16.245394,46.656302 15.598154,46.959902 C14.390794,47.526182 13.243494,48.220502 12.070014,48.862242 C14.583294,53.170502 19.840634,56.616582 25.231954,57.551582 C25.818254,57.653442 26.480894,57.616702 27.052894,57.451702 C31.092314,56.287242 35.085534,54.944142 39.159934,53.925102 C41.357734,53.375542 42.893554,52.149482 44.167354,50.457462 C45.117314,49.195102 45.940554,47.837482 46.896014,46.409022 C45.900294,45.949222 45.202894,45.504382 44.441034,45.302862 C43.247534,44.987382 42.640334,44.294382 42.310334,43.118042 C41.953934,41.848642 41.379074,40.640622 40.899474,39.405762 C40.746354,39.451962 40.593454,39.498162 40.440334,39.544362 C40.747894,41.211082 41.598634,42.749762 42.001894,44.444202 C41.261154,44.396022 40.604454,44.391842 39.961614,44.294382 C39.672974,44.250822 39.412934,44.020262 38.879874,43.735802 L38.879874,43.735802 Z M39.496314,34.859022 C39.056094,36.737162 39.389834,37.901622 40.427354,38.166282 C40.118034,37.068922 39.806074,35.962762 39.494114,34.856822 C39.358594,34.609762 39.187434,34.375462 39.092834,34.113662 C38.064114,31.258502 37.026814,28.405982 36.053314,25.532122 C35.938474,25.193102 36.075974,24.649262 36.293774,24.339062 C36.964114,23.384482 37.976774,22.507562 37.458894,21.218142 C36.969614,19.999562 35.675354,19.959302 34.570294,19.726542 C34.534654,19.719062 34.497914,19.714662 34.461394,19.712242 C29.208894,19.363102 24.324234,20.444842 20.002774,23.552562 C19.277654,24.074182 18.690694,24.822622 18.143114,25.544662 C17.720054,26.101922 17.765154,26.691302 18.453534,27.138782 C18.674194,27.282222 18.904754,27.633342 18.890674,27.875562 C18.835894,28.815842 18.684754,29.750182 18.583774,30.570562 C18.011994,30.753162 17.569794,30.894402 17.127594,31.035862 C17.130234,31.137062 17.132874,31.238262 17.135514,31.339682 C17.542074,31.520742 17.948634,31.701362 18.379834,31.892982 C18.044114,34.618342 17.708174,37.345022 17.362774,40.148482 C18.332754,39.826842 18.433954,39.258142 18.322854,38.461742 C18.236174,37.841122 18.335174,37.176942 18.452214,36.550602 C18.564414,35.950662 18.886054,35.387462 18.977794,34.786862 C19.482254,31.490162 19.921154,28.183122 20.444754,24.889502 C20.526154,24.376682 20.926774,23.914462 21.179774,23.428922 C21.298574,23.481502 21.417374,23.533642 21.535954,23.586002 C21.148534,27.110842 20.761334,30.635682 20.374134,34.160522 C20.506134,34.197702 20.638354,34.235102 20.770354,34.272282 C20.969674,33.815782 21.288234,33.374242 21.348294,32.900142 C21.727574,29.918702 22.037114,26.928902 22.404074,23.945702 C22.453574,23.545742 22.591954,22.959002 22.869814,22.819522 C23.931094,22.287342 25.066514,21.902782 26.313254,21.407562 C26.627414,24.770482 26.919134,27.891842 27.210634,31.013202 C27.333614,31.060282 27.456594,31.107362 27.579574,31.154442 C27.744574,30.881202 27.979314,30.625562 28.053234,30.329882 C28.119894,30.063022 28.010334,29.752382 27.978434,29.460662 C27.684734,26.774902 27.390814,24.089362 27.077094,21.224522 C28.473434,21.088122 29.740854,20.986922 31.001674,20.832262 C31.722834,20.743602 32.033474,21.023882 32.233454,21.714682 C33.099594,24.706022 34.014574,27.683282 34.935054,30.658562 C35.040214,30.998242 35.289914,31.292822 35.472734,31.608522 C35.561834,31.556162 35.650714,31.503362 35.739374,31.451002 C34.712414,27.973462 33.685454,24.495702 32.658274,21.017942 C32.794454,20.946002 32.930414,20.873842 33.066374,20.801902 C33.314094,21.152142 33.650254,21.468942 33.795894,21.857462 C35.083114,25.288142 36.277494,28.754462 37.635994,32.155882 C38.031334,33.145882 38.866894,33.960102 39.496314,34.859022 L39.496314,34.859022 Z M24.154394,10.161382 C24.263954,9.490602 24.373294,8.819822 24.509914,7.981622 C23.759714,8.431522 23.292874,8.797382 22.764654,9.010122 C21.703374,9.437362 21.154914,9.093282 21.292854,7.978542 C21.455874,6.660082 21.833174,5.368022 22.132154,3.998522 C20.451794,2.913702 18.247614,3.542902 17.406994,5.429842 C18.220114,6.191922 19.091094,6.870622 19.776834,7.702442 C20.196154,8.211082 20.329914,8.955122 20.592154,9.593562 C19.861314,9.835782 19.130254,10.076242 18.401394,10.323962 C18.348374,10.342222 18.312734,10.412622 18.226934,10.503262 C18.602694,10.936442 18.936214,11.429022 19.372694,11.801702 C20.276894,12.573682 21.181094,13.689962 22.498674,13.234122 C23.839574,12.769922 23.941874,11.345862 24.181674,10.127722 L24.154394,10.161382 Z M37.469894,67.767062 C33.839014,68.766522 30.208354,69.765982 26.510154,70.783922 C26.288394,70.201362 26.050134,69.575022 25.748514,68.782362 C23.576234,72.033962 20.323534,73.116142 16.888014,73.926842 C12.332474,75.002202 9.149514,71.885242 10.145454,67.317382 C10.592274,65.268962 11.565774,63.579362 13.279794,62.219102 C12.218514,61.315122 11.221914,60.491222 10.252374,59.636522 C4.607834,54.660562 1.045594,48.557322 0.191554,40.994162 C-0.297946,36.658182 0.127314,32.435722 1.734634,28.354502 C1.838034,28.092262 1.891054,27.785802 1.875214,27.505082 C1.726494,24.860242 2.728374,22.636922 4.370894,20.652742 C6.175554,18.472762 8.471474,16.912082 10.878054,15.479222 C11.333454,15.207962 11.746394,14.725942 11.976734,14.244362 C12.623534,12.891582 13.282654,12.232242 14.957514,11.590722 C14.572514,10.668262 14.237234,9.719622 13.789534,8.826862 C13.182334,7.616642 13.159234,6.445142 13.773254,5.248342 C13.939574,4.923622 14.115574,4.600882 14.246474,4.261642 C15.594414,0.767602 19.513934,-0.855778 22.941754,0.659582 C23.340614,0.836022 23.751354,1.000362 24.172214,1.109262 C25.895694,1.555642 26.718494,2.527162 27.027814,4.310482 C27.219214,5.415102 27.567914,6.492442 27.864254,7.654262 C28.386534,7.549762 28.946654,7.438882 29.506114,7.324922 C30.557494,7.110862 31.419234,7.445922 32.252594,8.103282 C32.618014,8.391482 33.213994,8.565282 33.679074,8.520402 C37.261114,8.173242 40.787714,8.307442 44.202114,9.560782 C46.413334,10.372362 48.350434,11.586322 49.708714,13.573582 C50.881314,15.288702 51.231994,17.185982 50.982074,19.234182 C50.935214,19.617642 51.022554,20.119022 51.245634,20.419322 C57.795254,29.240882 58.981934,38.763362 55.056254,49.146482 C55.606254,48.992922 56.136234,48.845742 56.665554,48.696802 C57.223474,48.539942 57.780514,48.381542 58.434794,48.196522 C58.315334,52.550762 58.206874,56.794562 58.057714,61.037042 C58.049794,61.257262 57.727054,61.588362 57.488354,61.660742 C53.632194,62.824102 49.774934,63.985922 45.889954,65.046102 C45.453034,65.165342 44.847154,64.665722 44.252934,64.426142 C44.223014,64.755702 44.188914,65.134762 44.145794,65.609742 C42.349494,66.142142 40.528774,66.669482 38.717294,67.227182 C38.274434,67.363582 37.861934,67.598982 37.435354,67.788622 L37.469894,67.767062 Z" id="Fill-1" fill="#000000" mask="url(#mask-2)"></path>
                    </g>
                    <path d="M47.94515,67.044846 C46.49623,67.395306 46.13213,68.184006 46.17833,69.217126 C46.19065,69.497846 46.40119,69.769766 46.52087,70.045866 C46.79565,69.901106 47.24027,69.815746 47.31441,69.601686 C47.57577,68.847526 47.71041,68.049146 47.94515,67.044846 M48.58733,69.703766 C48.38207,70.265646 48.22895,70.854146 47.95835,71.382806 C47.62285,72.037526 47.25083,72.696426 46.76749,73.241146 C46.59061,73.440686 46.05117,73.319026 45.67673,73.343666 C45.71083,72.959986 45.74493,72.576086 45.77903,72.192186 C45.88023,72.462786 45.98121,72.733386 46.08241,73.003986 C46.34707,72.858126 46.72437,72.777166 46.85351,72.552986 C47.12367,72.084166 47.26293,71.540326 47.49261,70.930266 C47.13995,71.005286 46.96725,71.042246 46.79455,71.078986 C47.02445,70.787926 47.25457,70.496866 47.40747,70.303926 C46.87243,70.398966 46.30549,70.499726 45.73855,70.600266 C45.72227,69.843026 45.56431,69.053226 45.72667,68.336026 C45.92335,67.467246 46.61547,66.948706 47.55311,66.846846 C47.96275,66.802406 48.38449,66.774906 48.77301,66.651706 C49.13227,66.537306 49.45435,66.305866 49.75773,66.144386 C50.43797,67.017566 48.97211,68.328986 50.49979,68.994926 C50.15593,69.787806 49.53773,69.746666 48.83505,69.432286 C49.34171,67.848506 49.30607,67.159906 48.44367,66.741246 C48.49581,67.814406 48.54157,68.759086 48.58733,69.703766" id="Fill-4" fill="#000000"></path>
                    <path d="M37.435442,67.917124 C39.047602,68.230184 39.127902,68.665784 37.902282,70.384644 C38.257582,70.594524 38.833322,70.742584 38.914062,71.029684 C39.019222,71.404344 38.810442,71.931904 38.598582,72.318004 C37.978622,73.447924 36.758942,73.983624 35.365682,73.827424 C36.471842,72.773404 35.945162,71.329544 36.259322,70.086324 C36.371302,69.643684 36.557642,69.219744 36.726162,68.740584 C37.554682,69.378364 36.110162,70.494864 37.550502,70.717944 C36.345122,71.331964 36.855522,72.428664 36.877962,73.445504 C37.440942,72.964804 37.923182,72.414804 38.154842,71.774164 C38.242182,71.532164 37.750262,71.080724 37.522562,70.724764 C37.640042,70.451744 37.752462,70.176304 37.875662,69.905704 C38.267482,69.043304 38.049022,68.515964 37.132502,68.185084 C37.251302,68.082564 37.358002,67.990384 37.467562,67.8968258 C37.469762,67.895564 37.435442,67.917124 37.435442,67.917124" id="Fill-6" fill="#000000"></path>
                    <path d="M52.841448,68.234012 C52.383848,67.042932 52.659288,65.685972 53.599348,65.040712 C53.931328,64.813232 54.439528,64.842492 54.866988,64.754712 C54.810008,65.191852 54.780968,65.635812 54.679768,66.062612 C54.646988,66.201872 54.425228,66.296032 54.290148,66.410872 C54.410488,65.997272 54.531048,65.583672 54.680428,65.069972 C53.448208,65.377312 53.038128,66.330572 53.624428,67.096392 C53.206868,68.095192 53.931768,67.866172 54.384968,67.741432 C55.355168,67.474132 55.958628,66.145772 55.745448,64.968772 C55.705628,64.748992 55.748308,64.354092 55.875688,64.292052 C56.419528,64.026732 57.002968,63.832472 57.588388,63.672312 C57.696188,63.642612 58.018928,63.918932 58.001328,64.004732 C57.958428,64.215492 57.713788,64.582892 57.656588,64.563972 C56.506648,64.186892 56.636448,65.159732 56.434488,65.726672 C56.315248,66.061292 56.338128,66.444312 56.271908,66.800932 C56.226808,67.044472 56.122088,67.491732 56.071928,67.487772 C54.906808,67.397792 54.093468,68.892472 52.814608,68.212232 L52.841448,68.234012 Z" id="Fill-8" fill="#000000"></path>
                    <path d="M40.776032,71.580212 C40.955772,71.152312 41.170712,70.734972 41.306452,70.293432 C41.481132,69.724732 41.592672,69.136892 41.731272,68.556972 L42.148832,68.636832 C42.085692,69.539712 42.022552,70.442372 41.958312,71.359772 C42.896832,71.305432 43.327592,69.656532 42.700152,68.563572 C43.510852,68.275372 44.298672,67.995312 45.182632,67.680932 C45.229052,68.127752 45.598432,68.632432 44.666732,68.473592 C44.460812,68.438612 44.089892,68.752332 43.966912,68.993012 C43.772432,69.373392 43.699612,69.823292 43.616452,70.251852 C43.270612,72.035832 42.347052,72.472092 40.773832,71.579772 L40.776032,71.580212 Z" id="Fill-10" fill="#000000"></path>
                    <path d="M40.773898,71.579772 C40.946158,72.380132 40.402758,72.654472 39.801938,72.686152 C39.653438,72.693852 39.379978,72.053872 39.323218,71.686912 C39.225318,71.055072 39.179118,70.393532 39.265798,69.766092 C39.297258,69.537292 39.770038,69.369212 40.257558,69.017652 C40.155258,69.984992 40.065718,70.661712 40.023258,71.341072 C40.011598,71.529392 40.139638,71.726292 40.203438,71.919232 C40.394398,71.806152 40.585578,71.693292 40.776318,71.580212 C40.776098,71.580212 40.773898,71.579772 40.773898,71.579772" id="Fill-12" fill="#000000"></path>
                    <path d="M52.814586,68.21232 C52.627586,68.38458 52.467866,68.61734 52.247866,68.71502 C51.938766,68.8523 51.584786,68.8897 51.250166,68.96978 C51.166566,68.62064 51.012566,68.27106 51.015866,67.9228 C51.021146,67.37852 51.095286,66.82698 51.214966,66.29524 C51.279646,66.00638 51.498766,65.75184 51.648146,65.4819 C51.735486,65.51534 51.822606,65.54922 51.909726,65.58266 C51.848346,66.47564 51.787406,67.36906 51.719426,68.35774 C52.158106,68.3078 52.497126,68.26886 52.838786,68.23212 C52.841426,68.2341 52.814586,68.21232 52.814586,68.21232" id="Fill-14" fill="#000000"></path>
                    <path d="M19.99635,66.350262 C20.00889,67.974082 18.98127,69.303102 17.85157,69.217302 C16.91151,69.145802 16.71637,68.423102 16.69679,67.646502 C16.65983,66.195822 17.67711,64.936322 18.86467,64.974822 C19.86237,65.007162 19.96357,65.750102 19.99635,66.350262" id="Fill-16" fill="#000000"></path>
                    <path d="M24.181718,10.25629 C23.682978,10.76427 23.221198,11.31735 22.672518,11.76373 C22.341418,12.03257 21.875238,12.13531 21.332058,12.13135 C22.371998,11.87835 22.659538,11.20119 22.737858,10.28225 C22.759418,10.02705 23.196998,9.60443 23.415678,9.62137 C23.677258,9.64161 23.909138,10.05059 24.153998,10.29039 C24.154438,10.28973 24.181718,10.25629 24.181718,10.25629" id="Fill-18" fill="#000000"></path>
                </g>
            </g>
        </g>
    </g>
</svg>