<?xml version="1.0" encoding="UTF-8"?>
<svg width="100px" height="100px" viewBox="0 0 100 100" version="1.1" xmlns="http://www.w3.org/2000/svg" xmlns:xlink="http://www.w3.org/1999/xlink">
    <title>party industry</title>
    <defs>
        <polygon id="path-1" points="2.72852414e-06 0 64.1995943 0 64.1995943 64.799992 2.72852414e-06 64.799992"></polygon>
    </defs>
    <g id="Logos" stroke="none" stroke-width="1" fill="none" fill-rule="evenodd">
        <g transform="translate(-400.000000, -200.000000)" id="party-industry">
            <g transform="translate(400.000000, 200.000000)">
                <rect id="Area" fill="#FCE059" x="0" y="0" width="100" height="100"></rect>
                <g id="Group-10" transform="translate(18.000000, 17.000000)">
                    <g id="Group-3">
                        <mask id="mask-2" fill="white">
                            <use xlink:href="#path-1"></use>
                        </mask>
                        <g id="Clip-2"></g>
                        <path d="M11.01508,36.60596 C11.01508,35.44416 11.01528,34.28236 11.01508,33.12056 C11.01508,31.85496 11.01408,31.88876 9.72108,31.84916 C9.11188,31.83056 8.97028,32.03376 8.97748,32.61196 C9.00728,35.05376 8.99008,37.49616 8.99008,39.93836 C8.99008,41.42796 8.98968,41.41016 10.45648,41.38196 C10.89728,41.37356 11.02768,41.22756 11.02188,40.80256 C11.00248,39.40396 11.01448,38.00496 11.01508,36.60596 M41.80348,38.14616 C41.80348,38.71616 41.79968,39.28616 41.80448,39.85616 C41.81388,40.98396 42.24928,41.44216 43.38808,41.51496 C43.67188,41.53316 43.95908,41.50156 44.24248,41.52316 C44.69568,41.55796 44.90968,41.39276 44.85588,40.91416 C44.81428,40.54176 44.99848,40.04636 44.30948,40.11016 C43.84448,40.15336 43.68448,39.89336 43.68828,39.45736 C43.69788,38.41256 43.71048,37.36676 43.68008,36.32256 C43.66608,35.83516 43.81148,35.60456 44.32108,35.67116 C44.87068,35.74296 44.85328,35.37356 44.85748,34.99336 C44.86128,34.62256 44.83628,34.30516 44.34068,34.37876 C43.77488,34.46276 43.63508,34.17816 43.68388,33.67816 C43.71128,33.39596 43.68428,33.10856 43.68528,32.82356 C43.68588,32.59596 43.57848,32.49956 43.35028,32.45416 C42.10568,32.20676 41.81748,32.42816 41.80308,33.67436 C41.80248,33.74556 41.79788,33.81716 41.80288,33.88816 C41.82488,34.19516 41.73948,34.41076 41.37688,34.37456 C40.88288,34.32536 40.92108,34.66656 40.93868,34.97696 C40.95588,35.27816 40.79948,35.70616 41.36348,35.67156 C41.78308,35.64576 41.80928,35.90756 41.80528,36.22236 C41.79708,36.86356 41.80268,37.50496 41.80348,38.14616 M14.08048,35.18596 C13.99428,35.08256 13.94068,35.04816 13.94088,35.01436 C13.94948,33.91796 13.12008,34.47936 12.65428,34.39296 C12.06648,34.28376 12.18488,34.77416 12.18368,35.10556 C12.17708,36.95816 12.20008,38.81136 12.16868,40.66356 C12.15908,41.22456 12.32368,41.45976 12.89068,41.37516 C13.05328,41.35096 13.22428,41.35636 13.38868,41.37396 C13.79348,41.41716 13.93728,41.24256 13.92448,40.84296 C13.90288,40.17856 13.91108,39.51296 13.92188,38.84796 C13.93308,38.16116 13.84668,37.46716 14.03368,36.79136 C14.23928,36.04676 14.82288,35.66396 15.59588,35.75056 C16.27448,35.82676 16.55628,36.19736 16.56628,37.07476 C16.57748,38.07236 16.56968,39.06996 16.56988,40.06776 C16.57008,41.45576 16.56928,41.44276 17.95248,41.37956 C18.31508,41.36296 18.46068,41.25616 18.45628,40.88416 C18.43868,39.34056 18.47588,37.79536 18.42248,36.25316 C18.38108,35.05276 17.64088,34.35556 16.43648,34.23216 C15.48648,34.13496 14.65248,34.34436 14.08048,35.18596 M31.70188,40.59356 C31.59648,41.69016 32.33408,41.29916 32.79888,41.37076 C33.30188,41.44836 33.51548,41.28476 33.50568,40.72256 C33.47308,38.82316 33.48028,36.92296 33.50268,35.02356 C33.50828,34.54016 33.37608,34.30556 32.86588,34.37376 C32.72588,34.39256 32.57928,34.39216 32.43908,34.37376 C31.90268,34.30316 31.67768,34.47876 31.70548,35.06836 C31.75348,36.08716 31.71788,37.10996 31.71848,38.13096 C31.71868,38.48916 31.69048,38.84176 31.55748,39.18016 C31.30668,39.81756 30.71108,40.15476 30.01568,40.05196 C29.29988,39.94616 29.10608,39.45956 29.10688,38.82276 C29.10788,37.77796 29.10368,36.73316 29.10308,35.68836 C29.10248,34.28736 29.10348,34.30056 27.71408,34.36876 C27.35068,34.38656 27.20808,34.49756 27.21248,34.86656 C27.23028,36.31476 27.18868,37.76496 27.24508,39.21136 C27.31608,41.02516 28.42128,41.85556 30.20688,41.52356 C30.77208,41.41836 31.18088,41.06176 31.70188,40.59356 M37.59108,41.66116 C38.02048,41.67436 38.44728,41.64356 38.86128,41.52976 C39.11108,41.46096 39.36588,41.38416 39.59248,41.26256 C40.39688,40.83036 40.80528,40.14196 40.78308,39.23036 C40.76128,38.33916 40.24448,37.75456 39.45308,37.47156 C38.65228,37.18496 37.80948,37.01556 36.98808,36.78456 C36.68008,36.69776 36.37588,36.55936 36.41928,36.16876 C36.45988,35.80476 36.75168,35.66236 37.07768,35.62756 C37.73148,35.55836 38.38428,35.51896 38.69688,36.29156 C38.74368,36.40676 38.80988,36.52256 38.94088,36.51796 C39.46748,36.49956 40.17948,36.80316 40.46808,36.36676 C40.73908,35.95636 40.31088,35.38896 39.95468,34.99196 C39.83068,34.85376 39.67108,34.73236 39.50488,34.64896 C38.33928,34.06356 37.13228,33.98956 35.92668,34.48096 C35.04708,34.83936 34.52008,35.72456 34.55268,36.62676 C34.58468,37.50156 35.00168,38.00316 36.07508,38.35736 C36.72728,38.57256 37.40268,38.71596 38.06468,38.90256 C38.26848,38.95996 38.49128,39.01476 38.65348,39.13876 C38.96968,39.38016 39.01488,39.69516 38.70728,39.98516 C38.18648,40.47596 36.68648,40.26356 36.32928,39.65996 C36.08948,39.25476 34.74848,38.89456 34.49988,39.23416 C34.14848,39.71396 34.52408,40.17476 34.78868,40.57816 C35.11428,41.07436 35.61408,41.35496 36.18128,41.50316 C36.64208,41.62356 37.11288,41.68376 37.59108,41.66116 M23.42788,30.03936 C23.03588,29.57996 23.11188,29.08016 23.11468,28.58896 C23.12088,27.44976 23.13288,26.31016 23.11848,25.17136 C23.10408,24.03856 22.67968,23.48676 21.59528,23.13376 C20.69268,22.83956 19.77628,22.80896 18.85668,23.03556 C17.88088,23.27596 17.22368,23.98076 17.11008,24.88036 C17.09328,25.01256 17.01408,25.15216 17.17148,25.26336 C17.47208,25.47616 18.75868,25.23216 18.96068,24.91916 C19.31048,24.37676 20.51828,24.20716 20.99008,24.63416 C21.30828,24.92196 21.26128,25.45516 20.86788,25.65116 C20.64088,25.76416 20.37208,25.80656 20.11688,25.84656 C19.46128,25.94896 18.79488,25.98956 18.16788,26.23576 C17.15948,26.63176 16.69908,27.46636 16.84648,28.63896 C16.96448,29.57856 17.63988,30.20696 18.67368,30.33196 C19.35888,30.41496 19.98968,30.27116 20.57488,29.89476 C20.86428,29.70876 21.22188,29.15036 21.43348,29.98196 C21.45068,30.04996 21.62948,30.11816 21.73228,30.11636 C22.26648,30.10696 22.80788,30.19616 23.42788,30.03936 M24.23968,40.65396 C24.15308,41.33376 24.50928,41.42896 25.01008,41.37476 C25.19768,41.35436 25.39028,41.35976 25.57948,41.37276 C25.91668,41.39576 26.04428,41.24476 26.0436821,40.91276 C26.03748,38.03896 26.03848,35.16516 26.04108,32.29136 C26.04148,31.99676 25.92128,31.85176 25.61708,31.86396 C25.37988,31.87316 25.13908,31.88896 24.90528,31.85916 C24.38588,31.79256 24.26008,32.03136 24.27848,32.51036 C24.31088,33.34676 24.28748,34.18536 24.28748,35.12496 C22.19868,33.20916 19.52268,34.55996 19.27348,37.23256 C19.21828,37.82616 19.18648,38.42076 19.31028,39.00676 C19.55528,40.16776 20.13248,41.10696 21.30048,41.50136 C22.41108,41.87636 23.40628,41.61916 24.23968,40.65396 M9.12968,25.33496 L9.12968,28.68296 C9.12968,30.24076 9.12888,30.22836 10.66628,30.13516 C11.03668,30.11276 11.16808,29.98416 11.16048,29.62356 C11.14528,28.91156 11.19428,28.19656 11.14568,27.48756 C11.10548,26.89996 11.34248,26.75876 11.88168,26.78116 C12.61488,26.81156 13.35448,26.83816 14.08348,26.69396 C14.80088,26.55196 15.49428,26.31016 15.88008,25.65516 C16.56428,24.49316 16.60268,23.23996 16.03988,22.03536 C15.53728,20.95976 14.51808,20.67396 13.41608,20.65956 C12.20528,20.64356 10.99348,20.68076 9.78368,20.64076 C9.22448,20.62236 9.10888,20.84076 9.11988,21.34616 C9.14908,22.67516 9.12968,24.00536 9.12968,25.33496 M49.66068,35.42176 C49.74208,35.60856 49.83548,35.79096 49.90308,35.98256 C50.52008,37.72836 51.13648,39.47436 51.74508,41.22296 C52.07888,42.18176 51.81608,42.63316 50.79348,42.79116 C50.47268,42.84076 50.37108,42.98656 50.41428,43.25336 C50.46968,43.59516 50.18308,44.06036 50.67968,44.25316 C51.53608,44.58556 52.75108,44.07256 53.15468,43.22496 C53.34848,42.81836 53.52048,42.39956 53.67088,41.97516 C54.43168,39.82736 55.18108,37.67576 55.93628,35.52616 C56.34348,34.36716 56.34428,34.39696 55.08768,34.36316 C54.53208,34.34816 54.30268,34.52736 54.17308,35.07096 C53.88168,36.29396 53.51648,37.49976 53.16788,38.70876 C53.11408,38.89476 53.14988,39.15076 52.83008,39.25116 C52.40568,37.81296 51.97308,36.38516 51.56828,34.94976 C51.45668,34.55416 51.29988,34.33796 50.84068,34.36596 C50.32608,34.39756 49.81528,34.36096 49.29448,34.24736 C48.71648,34.12116 48.18348,34.37676 47.75428,34.81356 C47.59888,34.97196 47.54108,35.24736 47.16948,35.28136 C47.47788,34.26736 46.81928,34.33656 46.18448,34.37616 C46.13708,34.37896 46.08848,34.38236 46.04208,34.37576 C45.57488,34.31016 45.42388,34.51516 45.42908,34.97736 C45.44908,36.68656 45.42488,38.39656 45.44028,40.10596 C45.45348,41.56916 45.20668,41.32816 46.72768,41.38196 C47.25688,41.40056 47.36208,41.18816 47.35168,40.71756 C47.32768,39.67336 47.32708,38.62736 47.36388,37.58396 C47.39928,36.57876 47.86848,36.09436 48.87908,36.09116 C49.39148,36.08956 49.60888,35.93876 49.66068,35.42176 M31.87828,23.77336 C32.16348,23.91676 32.15488,24.16196 32.22288,24.34856 C32.89728,26.19896 33.55928,28.05396 34.21908,29.90976 C34.59128,30.95696 34.38828,31.31376 33.26508,31.51256 C32.98908,31.56136 32.87428,31.66876 32.90888,31.91736 C32.95788,32.26956 32.69528,32.72896 33.10228,32.95676 C33.76288,33.32676 35.19368,32.85556 35.56048,32.17456 C35.78448,31.75816 35.97428,31.31856 36.13328,30.87276 C36.92248,28.65936 37.69508,26.43996 38.47648,24.22356 C38.86268,23.12736 38.86368,23.16516 37.68848,23.11676 C37.07268,23.09116 36.81648,23.29776 36.67548,23.89216 C36.37968,25.13856 36.00588,26.36656 35.65828,27.60056 C35.61768,27.74456 35.63068,27.93216 35.35868,28.01956 C34.94528,26.63196 34.50888,25.25876 34.13608,23.86836 C33.99088,23.32636 33.78548,23.04636 33.17748,23.12036 C32.70948,23.17736 32.22908,23.13216 31.75408,23.13156 C30.84848,23.13076 30.84848,23.13056 30.84688,22.19816 C30.84528,21.23096 30.84528,21.23096 29.89308,21.2315312 C28.96328,21.23236 28.96308,21.23236 28.96088,22.15976 C28.96048,22.30216 28.95228,22.44516 28.96148,22.58696 C28.99908,23.16476 28.68588,23.26336 28.25828,23.03876 C27.75868,22.77676 27.34048,22.98476 26.90788,23.16576 C26.50908,23.33276 26.31888,23.74396 26.00368,24.07216 C25.79548,23.11816 25.79548,23.11816 24.80888,23.13176 C24.73748,23.13276 24.66568,23.13876 24.59508,23.13196 C24.25888,23.10036 24.13728,23.24976 24.13888,23.58596 C24.14828,25.60396 24.15048,27.62216 24.1370499,29.64016 C24.13468,30.01696 24.27548,30.15676 24.63788,30.12956 C24.85048,30.11356 25.06708,30.10876 25.27828,30.13096 C25.73588,30.17856 25.90888,30.00316 25.90028,29.53016 C25.88128,28.48636 25.86628,27.43876 25.93448,26.39816 C26.00928,25.25536 26.47488,24.86196 27.61608,24.80276 C27.83708,24.79136 28.09308,24.89676 28.23968,24.60216 C28.36268,24.35496 28.60748,24.40016 28.80108,24.47236 C29.02948,24.55716 28.95528,24.79556 28.95648,24.97296 C28.96388,26.18376 28.95428,27.39476 28.96348,28.60556 C28.97208,29.72256 29.31348,30.10216 30.41048,30.22016 C30.69208,30.25036 30.97908,30.23576 31.26348,30.23296 C31.58108,30.22976 31.93388,30.23216 31.85528,29.76156 C31.79688,29.41096 32.14928,28.82636 31.37348,28.83596 C30.98028,28.84076 30.84288,28.61276 30.84568,28.23936 C30.85448,27.12356 30.85048,26.00756 30.84668,24.89176 C30.84568,24.62836 30.88408,24.38476 31.22088,24.43836 C31.73428,24.51976 31.95368,24.30956 31.87828,23.77336 M64.19448,32.39716 C64.45808,46.62456 54.51188,60.64356 39.00748,64.04476 C21.90868,67.79576 5.03208,57.22216 0.93528,40.14256 C-3.25752,22.66256 7.08028,5.99296 23.27148,1.25416 C38.65168,-3.24724 55.39648,4.71596 61.62548,19.57076 C63.43148,23.87836 64.19428,27.68696 64.19448,32.39716" id="Fill-1" fill="#000000" mask="url(#mask-2)"></path>
                    </g>
                    <path d="M11.1555,23.60722 C11.1555,22.24682 11.1555,22.24642 12.4917,22.25022 C12.7039,22.25082 12.9171,22.24682 13.1285,22.26222 C13.9941,22.32582 14.4049,22.76942 14.4061026,23.63222 C14.4073,24.49442 13.9871,24.95142 13.1357,25.00702 C12.9477,25.01922 12.7583,25.01542 12.5695,25.01602 C11.1555,25.02062 11.1555,25.02022 11.1555,23.60722" id="Fill-4" fill="#000000"></path>
                    <path d="M21.1252395,37.94736 C21.12604,36.59796 21.69764,35.81316 22.67744,35.8161514 C23.65424,35.81916 24.26304,36.62496 24.27604,37.93096 C24.28924,39.27856 23.67444,40.10136 22.66264,40.09016 C21.67544,40.07936 21.12464,39.31156 21.1252395,37.94736" id="Fill-6" fill="#000000"></path>
                    <path d="M21.21644,27.37382 C21.19944,28.40702 20.61264,29.00982 19.64024,29.0134376 C19.17844,29.01522 18.78924,28.87922 18.69124,28.36002 C18.59624,27.85782 18.76384,27.45002 19.26544,27.28722 C19.80124,27.11322 20.35404,26.97862 20.90884,26.88042 C21.38684,26.79562 21.13644,27.21442 21.21644,27.37382" id="Fill-8" fill="#000000"></path>
                </g>
            </g>
        </g>
    </g>
</svg>