<?xml version="1.0" encoding="UTF-8"?>
<svg width="100px" height="100px" viewBox="0 0 100 100" version="1.1" xmlns="http://www.w3.org/2000/svg" xmlns:xlink="http://www.w3.org/1999/xlink">
    <!-- Generator: Sketch 59 (86127) - https://sketch.com -->
    <title>quartinho</title>
    <desc>Created with Sketch.</desc>
    <g id="Logos" stroke="none" stroke-width="1" fill="none" fill-rule="evenodd">
        <g transform="translate(0.000000, -100.000000)" id="quartinho">
            <g transform="translate(0.000000, 100.000000)">
                <rect id="Area" fill="#FCE059" x="0" y="0" width="100" height="100"></rect>
                <path d="M26.4995322,88.507725 C26.4995322,87.7431563 26.457638,86.9820788 26.457638,86.2175101 C26.457638,85.71478 26.496041,85.2120499 26.5169881,84.6464785 C26.649653,84.712811 26.7474061,84.7407404 26.7474061,84.7686699 C26.7753355,86.0150216 26.7962826,87.2613733 26.8172297,88.507725 L26.4995322,88.507725 Z" id="Fill-67" fill="#000000"></path>
                <path d="M13.8613861,80.1672231 L15.2019997,80.1288201 C15.3332682,80.1200922 15.4652348,80.1200922 15.5965032,80.1288201 C15.7920094,80.1497672 16.0329009,80.1567496 16.0084626,80.4290617 C16.0084626,80.4744471 15.7186946,80.5198324 15.5615914,80.5268148 C14.9960201,80.5512531 14.4269575,80.5582354 13.8613861,80.5722002 L13.8613861,80.1672231 Z" id="Fill-69" fill="#000000"></path>
                <path d="M55.2075158,49.0817451 L55.1516569,48.9944655 L54.7362063,49.1306216 L54.8304682,49.7101577 L55.2075158,49.0817451 Z M54.6733651,49.9580316 C54.6094765,49.788011 54.5302266,49.6246237 54.4359648,49.4692662 C54.3713779,49.3854778 54.2725775,49.3355539 54.1671438,49.3331101 C54.1043025,49.3331101 54.0484436,49.4727574 53.9925847,49.5495633 C54.2020556,49.71714 54.3591588,49.9964345 54.6733651,49.9580316 L54.6733651,49.9580316 Z M56.4538675,49.022395 L56.3107291,48.9560625 L55.3681102,50.54455 L55.5601251,50.6527766 L56.4538675,49.022395 Z M59.1804801,54.7968088 C58.5415939,54.4476907 57.965549,54.1683962 57.4523454,53.8122957 C56.9391417,53.4561952 56.4713234,52.9988504 55.9336815,52.5449969 C55.6421679,53.0522655 55.3845187,53.5783865 55.1621305,54.1195196 C55.0486671,54.5562664 54.7313187,54.9109704 54.3102822,55.0726121 C54.0973202,55.1529093 53.8913405,55.2506624 53.612046,55.3658714 C54.0379701,55.5208798 54.4509768,55.7087054 54.8479241,55.9279515 C55.3146951,56.2592646 55.9050538,56.3643492 56.4573587,56.2142284 C56.7303691,56.1384698 56.9939533,56.0319887 57.2428745,55.8965309 C57.9096901,55.5439216 58.5485763,55.1529093 59.1804801,54.7968088 L59.1804801,54.7968088 Z M62.1200547,53.9379782 C62.2038431,54.4476907 61.8023572,54.6362145 61.5160804,54.8805972 C60.7934059,55.512501 60.0358195,56.109493 59.3480568,56.7728174 C58.5422922,57.6002274 57.4142915,58.0331338 56.2618526,57.9563279 C55.7556313,57.9283984 55.2424276,58.0017132 54.7362063,57.9563279 C54.093829,57.9109425 53.4514516,57.9563279 52.8754067,57.4710537 C52.4843944,57.1428826 51.9048583,57.0416384 51.4195841,56.8147116 C51.256546,56.7455862 51.1217864,56.6223475 51.0390454,56.4655935 C50.9238364,56.1374224 50.742295,56.1164753 50.4664916,56.2316843 C50.2727311,56.3179165 50.068497,56.3776157 49.8590261,56.4097346 C49.5835719,56.4575637 49.3213842,56.2732294 49.273555,55.9977752 C49.2732059,55.9953313 49.2728568,55.9928875 49.2725076,55.9907928 C49.2644779,55.7464101 49.3245262,55.5044712 49.4470667,55.2925565 C49.5451689,55.2133067 49.6760882,55.1885193 49.7961848,55.2262241 C49.9044115,55.3135036 49.9428145,55.4915539 50.0405675,55.6905512 L51.7477552,55.2925565 C51.7931405,55.0691209 51.7721934,54.8491765 51.8734377,54.7514234 C52.0549791,54.5768644 52.2225558,54.7060381 52.4250443,54.8491765 C52.5636442,54.9416928 52.7354104,54.9696223 52.8963538,54.9259825 C53.2838749,54.829975 53.6581296,54.6857892 54.0100406,54.4965672 C54.241506,54.3324817 54.4324736,54.1174249 54.5686296,53.8681546 C54.8758536,53.3619333 55.1446746,52.8208002 55.4204779,52.3110877 C55.5356869,52.0911433 55.6264576,51.8572342 55.7277018,51.6372897 C55.0294656,51.0961566 54.3661411,50.5899354 53.6923431,50.0592758 C53.58272,49.9863101 53.4657655,49.9255636 53.343225,49.8777344 C53.0185452,49.734596 53.015054,49.4797397 53.0639305,49.1794981 C53.112807,48.8792565 53.3152956,48.9805008 53.5073105,48.945589 C53.7956821,48.8684339 54.076024,48.7643967 54.345194,48.6348738 C55.4274602,48.2194233 56.5271823,48.3451058 57.6338868,48.4987178 C57.8143809,48.5050019 57.9952241,48.487546 58.1715287,48.4463501 C58.6428382,48.387 58.8069237,48.561559 58.7091706,49.0154126 C58.6959041,49.1149113 58.7091706,49.2158064 58.7475736,49.3086718 C58.9326062,49.8079108 58.7789943,50.0837141 58.2937201,50.3560262 C57.9760226,50.553278 57.6827633,50.7875362 57.4209247,51.0542625 C57.0299124,51.4033806 56.6598472,51.7909017 56.328185,52.1016169 C56.5376559,52.2796671 56.8239327,52.4926292 57.0752978,52.740503 C57.5497493,53.2156528 58.142901,53.5553447 58.792959,53.7250162 C59.0617799,53.7948398 59.2991803,54.0147842 59.6133866,53.9763812 L59.7704897,53.9763812 C60.2313257,53.52951 60.8667207,53.819278 61.3799243,53.5888601 C61.893128,53.3584421 62.4761552,53.1454801 63.0207795,52.9220445 C63.1045679,52.8871326 63.1674091,52.8033443 63.2511975,52.7719237 C63.3660573,52.7415504 63.4826628,52.7181595 63.6003156,52.7021 C63.6003156,52.8522208 63.6387186,53.0791476 63.5619126,53.1350065 C63.1918474,53.4003363 62.7903615,53.6237719 62.3958581,53.8541899 C62.3068329,53.8911964 62.2143166,53.9191258 62.1200547,53.9379782 L62.1200547,53.9379782 Z" id="Fill-71" fill="#000000"></path>
                <path d="M61.317083,33.7239688 C61.2751889,33.0257325 61.2437682,32.3589169 61.1948917,31.6955925 C61.0866651,30.2502434 60.9435267,28.8258415 61.3240654,27.3735101 C61.7046042,25.9211786 61.8791632,24.4513913 62.1200547,22.981604 C62.2422461,22.2275089 62.1968607,21.4280283 62.4272787,20.7158274 C62.7393903,19.6147088 62.9474647,18.4867081 63.048709,17.3468374 C63.1143432,17.0521817 63.2089542,16.7641593 63.3314946,16.4880068 C63.3482523,16.4370356 63.3800221,16.3919994 63.4222654,16.3588331 C63.9145219,16.1039769 64.4032873,15.8421383 64.9060174,15.6117203 C65.0411261,15.5673823 65.1888031,15.5837909 65.3109944,15.6571057 C65.9558156,16.0474198 66.3761538,16.7215669 66.4421372,17.47252 C66.5084696,18.4011742 66.5782932,19.3298284 66.6760463,20.265465 C66.8471142,21.9167937 66.8959907,23.5751048 67.2625648,25.2089777 C67.3952296,25.7954961 67.1962323,26.4553294 67.171794,27.0872332 C67.1560837,27.5344535 67.1630661,27.9816738 67.1927411,28.4278468 C67.2416177,29.2727127 67.3114413,30.1210697 67.3742826,30.9659356 C67.3669511,31.0039895 67.3669511,31.0430907 67.3742826,31.0811446 C67.6528788,31.661728 67.7572651,32.3103895 67.6745242,32.9489266 C67.709436,33.3134059 67.7928752,33.6716011 67.922398,34.0137368 C68.0969571,34.767832 68.2715162,35.518436 68.4216369,36.2795135 C68.539988,36.7609474 68.6052731,37.2539022 68.6171431,37.7493008 C68.5927048,38.5487813 68.4530576,39.3447707 68.404181,40.14076 C68.2840844,41.3982835 68.2418411,42.6624402 68.2784985,43.9252005 C68.3308662,44.6618397 68.596196,45.4159349 68.5158988,46.1630477 C68.477845,46.8787398 68.5284671,47.5961776 68.6660196,48.2996506 C68.6660196,48.4113684 68.7986845,48.5091215 68.8475611,48.6243305 C68.8964376,48.7395395 68.9697524,48.9490103 69.0291025,49.1130959 C68.8925973,49.1445165 68.7592342,49.1892036 68.6311078,49.2457607 C68.4705135,49.3330403 68.2819897,49.423811 68.1982013,49.5704406 C68.114413,49.7170702 68.1807454,50.0173118 68.2750073,50.0661883 C68.7742463,50.3210446 68.6241255,50.7295128 68.5473195,51.1135427 C68.4684188,51.4493944 68.3514642,51.7751216 68.1982013,52.0840911 C68.1423424,52.2097737 67.9642922,52.2761061 67.8490832,52.370368 C67.8134732,52.225484 67.8050943,52.0750141 67.8246449,51.926988 C67.9189068,51.6651494 68.1458336,51.4347314 67.7722772,51.1903487 C67.6919801,51.1414722 67.7234007,50.9250189 67.6954712,50.7853717 C67.6675418,50.6457244 67.6186653,50.4362536 67.5802623,50.2477298 L67.440615,50.2023444 C67.3428619,50.3245358 67.2730383,50.4886213 67.1473558,50.5514625 C67.0216733,50.6143038 66.7563435,50.7050745 66.6830287,50.6352509 C66.5468726,50.5130596 66.4176989,50.2651857 66.6411345,50.0941178 C66.8645701,49.9230499 67.1613205,49.7449997 67.5139298,49.5460023 C67.5139298,49.3260579 67.6849977,48.9280633 67.1333911,48.7639777 C67.0216733,48.7325571 66.9274114,48.519595 66.8959907,48.3764566 C66.8268653,48.0542206 66.7800835,47.7277951 66.7563435,47.3989259 C66.7563435,47.3151375 66.8331495,47.2243668 66.8750436,47.1370873 C66.958832,47.1929462 67.074041,47.2313492 67.1159351,47.3081551 C67.1690011,47.4167309 67.1930903,47.5368275 67.1857588,47.6572733 C67.1491014,47.9229522 67.3344831,48.167684 67.600162,48.2043414 C67.6214582,48.2071343 67.6427544,48.2088799 67.6640506,48.2088799 L67.6640506,46.8892134 C67.6567191,46.8246265 67.6675418,46.7593414 67.6954712,46.7006896 C67.9887305,46.3026949 67.922398,45.8593149 67.883995,45.4124437 C67.8595568,45.1401316 67.9258892,44.8329076 67.4964739,44.8189429 C67.4615621,44.8189429 67.3882473,44.6339103 67.4126856,44.5571043 C67.6200617,43.6965281 67.718513,42.8136084 67.7059448,41.9282448 C67.747839,40.5771576 67.8770127,39.2260705 67.8874862,37.8749833 C67.9080842,36.6206019 67.7014062,35.3725046 67.2765295,34.1917871 C67.1536399,33.7508509 67.0789286,33.2976956 67.0530939,32.8406999 C67.0077085,32.4636524 66.9902526,32.0831136 66.9483584,31.706066 C66.8890084,31.2103183 66.7947465,30.7180617 66.7563435,30.2188228 C66.6725551,29.1295742 66.5852756,28.0403257 66.5503638,26.9475859 C66.5294167,26.371541 66.690011,25.7885138 66.6376433,25.2194512 C66.5363991,24.0952908 66.3164546,22.9850952 66.2047368,21.864426 C66.1139661,20.9462453 66.1349132,20.0175911 66.054616,19.0994104 C65.9980589,18.4437666 65.8950691,17.7926613 65.7473921,17.1513313 C65.6684914,16.8999662 65.525353,16.6737377 65.3319415,16.4949892 C65.1399265,16.2925007 64.8955439,16.1877652 64.6755994,16.4949892 C64.6316106,16.5613216 64.5663255,16.6105473 64.4905668,16.6346364 C63.7399629,16.8161779 63.6038068,17.4131699 63.5758773,18.031109 C63.5193202,19.033078 63.3276543,20.023177 63.0068148,20.9741748 C62.8846234,21.4199986 62.827019,21.8808346 62.8357469,22.3427178 C62.8078175,23.5855784 62.3958581,24.7516329 62.2003519,25.9630728 C61.9688866,27.1794004 61.8079431,28.4079471 61.7185689,29.6427779 C61.6731835,30.7529735 61.8512338,31.8736427 61.9175662,32.9943119 C61.9402589,33.4013836 61.9402589,33.8095027 61.9175662,34.2162254 C61.8823053,34.362855 61.8219079,34.5021531 61.739516,34.6281847 C61.5949811,34.5775626 61.4567303,34.5108811 61.3275566,34.4291874 C61.0646706,34.2228586 60.8154003,34.0001212 60.5804438,33.7623718 C60.5158569,33.6621749 60.4697734,33.5508062 60.4442877,33.4342008 C60.5629879,33.4062713 60.7026351,33.3259741 60.7934059,33.3643771 C60.9815805,33.4631776 61.1571869,33.5839724 61.317083,33.7239688" id="Fill-73" fill="#000000"></path>
                <path d="M62.8008351,58.6056178 C62.451717,58.3053762 62.451717,58.1343083 62.8916058,57.9318198 C63.0731472,58.1552554 63.415283,58.3333056 62.9823765,58.6614767 L63.37688,59.035033 L63.7085422,58.6859149 C63.4990713,58.4781896 63.498024,58.1398942 63.7060984,57.9304233 C63.7954726,57.8406999 63.9138237,57.7855393 64.0402044,57.7747166 C64.2950607,57.7223489 64.4102697,57.9038903 64.3229901,58.2076231 C64.089081,58.8360357 63.7399629,59.4152227 63.2930917,59.9148107 C62.8252734,60.536241 62.3853845,61.1751272 61.8966191,61.7895751 C61.7112374,61.9861286 61.5104945,62.1669718 61.296136,62.3307082 C61.296136,62.7880529 60.7550029,62.8124912 60.4058847,62.9032619 C59.3410744,63.1825564 58.2483347,63.3606066 57.1625773,63.5700775 C56.8518622,63.6294276 56.5376559,63.6573571 56.2269407,63.7062336 C56.0370205,63.7292754 55.8502423,63.7701222 55.6683517,63.8284249 C55.3995308,63.9356042 55.0950998,63.8043358 54.9882696,63.5355148 C54.9683699,63.4862892 54.9564999,63.4346197 54.9526596,63.3815537 L53.8215168,62.9381737 L53.6644137,63.3536243 C53.1965954,63.0917857 52.7322683,62.8648589 52.3063442,62.5820732 C51.705861,62.1840786 51.147272,61.7162603 50.5398064,61.3322303 C49.9155832,60.9192236 49.4540491,60.3023319 49.2341047,59.5866397 C48.6336215,59.5866397 48.3124328,59.1816627 47.9912441,58.7522474 C47.6700554,58.3228321 47.3767962,57.9876787 47.0276781,57.6001575 C46.6471393,57.7502783 46.3922831,57.3837043 46.3294418,57.1218657 C46.2247064,56.6819769 45.8651147,56.5318561 45.6312056,56.2351057 C45.3972964,55.9383553 45.2506668,55.4530811 45.0132665,55.0899982 C44.8125236,54.8333964 44.5908336,54.5939013 44.349942,54.374306 C44.2836096,54.3009912 44.1684006,54.2241852 44.1649094,54.1438881 C44.1299976,53.41074 44.0776299,52.6741008 44.1125417,51.9409527 C44.1533885,51.6445514 44.290592,51.3694463 44.503554,51.1589281 C44.6117806,51.0437191 44.9015487,51.099578 45.1110196,51.0786309 C45.1543102,51.2545865 45.1637364,51.4368261 45.138949,51.6162728 C44.8648913,52.3239353 44.8722228,53.1098002 45.1598961,53.8122259 C45.2576492,53.4791672 45.3742546,53.1513452 45.5090142,52.8312039 C45.7314025,52.3846818 45.9806728,51.9521245 46.256127,51.5359757 C46.3762237,51.2985753 46.6659917,51.2036152 46.903392,51.3237118 C46.9508721,51.3474519 46.9941627,51.3792216 47.0311693,51.4172755 C47.3453756,51.6721317 47.411708,51.9723733 47.1114664,52.2202472 C46.575221,52.7139002 46.1849069,53.345804 45.9838149,54.046135 C45.8825706,54.3750043 45.8563868,54.7220277 45.9070089,55.0620688 L46.5005097,53.756367 C46.5214568,53.7074904 46.5528774,53.6655962 46.5773157,53.6167197 C46.7099806,53.3653547 47.275552,53.3164781 47.6560907,53.5329314 C48.0366295,53.7493846 47.7922468,53.9623467 47.6560907,54.161344 C47.2127107,54.8595802 46.8880308,55.5578165 47.1289223,56.3957 C47.2556522,56.7486584 47.4061221,57.0928889 47.5792847,57.4255985 L47.7049673,57.397669 L47.7049673,56.7308534 C47.7049673,56.510909 47.5967406,56.3363499 47.893491,56.3119117 C48.1340334,56.2483722 48.3805108,56.3915106 48.4440503,56.632053 C48.454873,56.6722016 48.4597606,56.7137466 48.4590624,56.7552917 C48.5358684,57.3557749 48.6406038,57.956258 48.7767599,58.5462677 C48.8577553,58.7529456 49.0099708,58.9240135 49.2061752,59.0280507 C49.2030331,58.9090014 49.223282,58.7903012 49.2655253,58.6789326 C49.3461716,58.5549956 49.4708067,58.4666687 49.6146434,58.4310587 C49.6984318,58.4310587 49.8625173,58.5637236 49.8904467,58.6649678 C49.9428145,58.8500004 49.8904467,59.0664537 49.9323409,59.2479951 C50.1592677,59.9462314 50.4315798,60.6165382 51.2345515,60.8923415 C51.463573,61.0134855 51.6611739,61.1869972 51.8105964,61.3985628 C52.1813599,61.8499725 52.8097725,61.9934601 53.3397338,61.7476809 C53.7831139,61.576613 54.0379701,61.6499278 54.170635,62.1247285 C54.1950732,62.1826821 54.2292868,62.235748 54.2718792,62.2818316 C54.6412462,62.0978464 55.089863,62.2486654 55.2734991,62.6180324 C55.2920024,62.6546898 55.3070145,62.6930928 55.3192336,62.732194 C55.3716013,62.862066 55.4791297,62.9619137 55.6124928,63.0045062 C55.9378709,63.048495 56.2653437,63.0739807 56.5935148,63.0813121 C56.3177115,62.9311914 56.0569202,62.7545376 55.8149814,62.5541438 C55.7346842,62.4773378 55.8149814,62.2364463 55.8149814,62.0688696 C55.9514865,62.0838817 56.0855479,62.1180952 56.212976,62.1701138 C56.656356,62.4214789 57.0718066,62.7810706 57.637378,62.4843201 C57.7351311,62.4438224 57.8388191,62.4190351 57.9446019,62.4110053 C58.349579,62.3307082 58.349579,62.3307082 58.4578056,62.7601235 C58.9902107,62.7210222 59.5205212,62.6532933 60.0462931,62.557635 C60.4069321,62.4459172 60.7508134,62.2860211 61.0692092,62.0828343 C61.1145945,62.058396 61.1076122,61.8562566 61.0692092,61.7721192 C61.0308062,61.6883308 60.8981413,61.6883308 60.8876678,61.6848396 C60.6677233,61.7372074 60.4268318,61.8492743 60.3849376,61.8000486 C60.2655392,61.6597031 60.2065383,61.4778126 60.2208521,61.2938273 C60.2987055,61.0089469 60.4002988,60.7310489 60.5245849,60.4629262 C60.5245849,60.4280144 60.5804438,60.382629 60.5734614,60.3585399 C60.4896731,60.1522111 60.4023936,59.9357578 60.7165999,59.8729166 C60.9885629,59.8149629 61.2622715,59.962989 61.3624684,60.2220347 L61.3903979,60.2499641 C61.7849013,59.9951079 61.8337779,60.016055 62.1095812,60.5397322 C62.6856261,59.9985991 62.2946138,59.1467508 62.8008351,58.6056178" id="Fill-75" fill="#000000"></path>
                <path d="M43.5747951,37.040591 C44.0321398,36.5727727 43.7633189,36.1433574 43.6585834,35.6825215 C43.5611795,35.1539566 43.4934505,34.6198059 43.4560949,34.0835605 C43.400236,33.2851273 43.3000391,32.4901853 43.1558533,31.7025748 C42.9652348,31.0036403 42.8898253,30.278522 42.9324177,29.5554984 C43.0340111,28.7273902 42.9711698,27.8874119 42.7473851,27.083742 C42.4227052,26.0154405 42.6042467,24.9366655 42.6321761,23.8613817 C42.6531232,22.9013068 42.6321761,21.9377408 42.6705791,20.977666 C42.6628985,20.4780779 42.7250415,19.9798863 42.8556117,19.4974051 C43.1174503,18.7153805 43.0301708,17.9333559 43.0441355,17.1478401 C43.0776509,16.8887944 43.0905682,16.627305 43.0825385,16.3658155 C43.0371532,15.9887679 43.2361505,15.8421383 43.515445,15.6675792 C43.8094024,15.4263386 44.0792708,15.1575177 44.3219079,14.8646075 C45.3692622,14.7598721 45.6904509,15.2835493 46.0290955,16.3832714 C46.1781689,17.0186664 46.4131254,17.6303213 46.7273318,18.2021768 C47.3697091,19.2456909 47.833338,20.3890528 48.099366,21.5851315 C48.4100811,22.8629038 48.7976023,24.1267115 49.2305087,25.3730632 C49.8994191,27.2701711 50.2199095,29.2727127 50.1766189,31.2836331 C50.1766189,31.8177838 50.1312335,32.3309875 50.6269812,32.7604028 C50.9342052,33.0292237 50.525737,33.1444327 50.333722,33.2526593 L50.333722,34.0870516 C50.333722,34.1813135 50.2254954,34.2651019 50.1696365,34.3558726 C50.0998129,34.2755754 49.9880951,34.2057518 49.9706392,34.1149811 C49.8868508,33.6576364 49.8309919,33.1933092 49.7576771,32.7359645 C49.665859,32.3023598 49.5960354,31.8642165 49.5482062,31.4232803 C49.5028209,30.7006058 49.5482062,29.9744401 49.4993297,29.2517656 C49.4155413,27.6667693 48.8744082,26.1865084 48.427537,24.6818093 C48.0574718,23.4424399 47.7851597,22.1751411 47.3801827,20.9427541 C47.1420841,20.2050675 46.8359075,19.4907719 46.4654932,18.8096424 C46.0161781,18.0677664 45.6642671,17.2710788 45.4181388,16.4391303 C45.3217822,16.1340011 45.1650281,15.8515645 44.9573029,15.6082292 C44.824638,15.4406525 44.6291318,15.4720731 44.5034493,15.6850351 C44.4556201,15.7796462 44.3833527,15.8592451 44.2939784,15.9154531 C43.5957422,16.2645712 43.6446187,16.8825103 43.630654,17.5144141 C43.6166892,18.1463179 43.5433744,18.8201159 43.4979891,19.4729668 C43.4421302,20.2340443 43.3792889,20.9916307 43.3373947,21.7561994 C43.2780447,22.9152716 43.208221,24.0743437 43.1907651,25.2473807 C43.1761022,25.8007329 43.2263752,26.353736 43.3408859,26.8952182 C43.5747951,27.7351964 43.6505537,28.6111338 43.5643215,29.4786924 C43.4281655,30.375926 43.728407,31.1928624 43.8750367,32.0447106 C43.9937368,32.7150174 43.9937368,33.4062713 44.0565781,34.0870516 C44.1089458,34.6316759 44.1752782,35.1763002 44.2485931,35.7174333 C44.2653507,36.0442079 44.3264464,36.3671421 44.4301345,36.6775082 C44.5627994,36.9672762 44.4999581,37.4350945 45.0690207,37.4525504 C45.2435797,37.4525504 45.5124007,37.8261068 45.5473125,38.0565248 C45.5857155,38.5421481 45.5926978,39.029517 45.5682596,39.5158385 C45.5682596,39.8859037 45.3762446,40.294372 45.7428186,40.6155606 C45.7742393,40.6434901 45.7428186,40.7691726 45.7218716,40.8285227 C45.5089095,41.2055703 45.5124007,41.6803709 45.1563002,42.0015596 C45.076003,42.0748744 45.1563002,42.3227483 45.1563002,42.490325 C45.1583949,42.6341616 45.135004,42.7773001 45.0864766,42.9127579 C45.0341088,42.9948007 44.942989,43.0436772 44.8455851,43.0419769 C44.756909,43.0028304 44.6902275,42.9260244 44.6640436,42.8324607 C44.4870407,42.3789563 44.4734251,41.8776227 44.6256406,41.4150411 C44.6895292,41.0669704 44.6738189,40.7091243 44.5802553,40.3676868 C44.479011,39.6240652 44.3393638,38.8874259 44.2311371,38.1472955 C44.2314863,37.6861104 43.9797721,37.2615828 43.5747951,37.040591" id="Fill-77" fill="#000000"></path>
                <path d="M46.5388778,64.2194722 L46.4062129,64.1531397 C46.1269184,64.4743284 45.8231856,64.7780612 45.5718206,65.1201969 C44.8316902,66.1361307 44.5244662,67.3301147 44.2591364,68.531081 C43.9554037,69.8542387 43.7983005,71.1808876 44.1509098,72.5215012 C44.1788393,72.6297278 44.1055244,72.7623927 44.1509098,72.8706194 C44.1910584,73.0759008 44.2877641,73.265472 44.4302043,73.4187348 C44.5314486,73.4955408 44.8945314,73.4361907 44.9364256,73.3419288 C45.1570682,72.8702702 45.3267397,72.3762681 45.4426469,71.8686503 C45.4810499,71.6871089 45.3029996,71.439235 45.1877906,71.2437289 C44.8096957,70.653021 44.5897513,69.9750336 44.5489045,69.2747026 C44.4895544,68.699356 44.908147,68.1847558 45.4834937,68.1254058 C45.6126674,68.1121393 45.7432376,68.1229619 45.868571,68.1575246 L46.119936,68.20291 C46.5458602,66.8797523 46.5458602,65.5496122 46.5388778,64.2194722 M48.4555363,74.2042506 C47.9702621,74.4311774 47.7887207,73.9877974 47.5094262,73.8027648 C47.1456451,73.5311509 46.7958287,73.2410337 46.4620718,72.9334606 C46.3747923,73.2057728 46.3224246,73.4082613 46.2456186,73.6002762 C45.868571,74.5289305 45.4321733,74.7279278 44.5000279,74.4381597 C43.7036895,74.2475413 43.1328813,73.549305 43.1035554,72.7309721 C42.9223631,70.9298717 43.0693418,69.1106171 43.5364619,67.3615353 C43.7738622,66.3071986 44.1994372,65.3041822 44.7932872,64.4010136 C45.1546244,63.917485 45.6140639,63.5153009 46.1408831,63.2209943 C46.6889986,62.8928233 47.3662878,63.3711151 47.4745144,64.0658602 C47.6316175,65.1125163 47.5830901,66.1797704 47.3313759,67.2079233 C47.2510788,67.5395855 47.0835021,67.8537919 47.0311344,68.1889453 C46.9124342,68.991917 46.8181723,69.801871 46.7623134,70.6118251 C46.7678993,70.8474798 46.8516876,71.0744066 46.9997137,71.2576936 C47.5513204,71.976877 48.14133,72.6541661 48.6964278,73.3803318 C48.8877446,73.6631175 49.0626527,73.957075 49.220105,74.2601095 C49.3381069,74.4126741 49.3101775,74.6319203 49.1576129,74.7499222 C49.1202572,74.778899 49.0773157,74.7998461 49.0315812,74.8117161 C48.815128,74.9164516 48.661516,74.769822 48.5986747,74.5428952 C48.5672541,74.4451421 48.5148864,74.3508802 48.4555363,74.2042506" id="Fill-79" fill="#000000"></path>
                <path d="M48.2878898,67.4138681 L48.4764136,68.3529959 C48.7976023,68.2936458 48.9093201,68.5031167 48.9442319,68.8382701 C49.0000908,69.4003503 49.0838791,69.9589393 49.1571939,70.5210194 C49.1571939,70.6187725 49.1886146,70.7165256 49.2095616,70.8456993 C49.9077979,70.0322541 49.9077979,69.0372674 50.082357,68.1086132 C50.1699856,67.7835842 50.372125,67.5007985 50.6514195,67.3126239 C50.8046824,67.2581614 50.9754011,67.2874873 51.1017819,67.3894298 C51.237938,67.6268302 51.4509,68.0003866 51.3496558,68.1609809 C51.1017819,68.5938874 51.1855702,69.0337762 51.1506584,69.4631915 C51.1237763,70.4948356 50.8378486,71.5030887 50.3197573,72.3957838 C49.9427097,72.9823022 49.775133,72.9927758 49.1606851,72.6576224 C48.8848818,72.5040104 48.5462372,72.4656074 48.2599603,72.3294513 C48.1108869,72.260326 47.9953288,72.1346434 47.9387717,71.9803332 C47.7188272,70.6117902 47.3906562,69.2572118 47.6245653,67.8502658 C47.6874066,67.4522711 47.8235627,67.2951679 48.2878898,67.4138681" id="Fill-81" fill="#000000"></path>
                <path d="M59.4875993,43.960217 C59.3846095,44.1016099 59.2676549,44.2325292 59.1384812,44.3512293 C59.0512017,44.4245441 58.8556955,44.5083325 58.806819,44.4664383 C58.6762488,44.3714782 58.5896675,44.2279906 58.5659275,44.0684437 C58.5963007,43.8645587 58.534856,43.6571825 58.3983508,43.5028723 C58.2981539,43.3422779 58.2824435,43.1429315 58.3564566,42.9687216 C58.6741541,42.4729738 59.0337458,42.0051555 59.403811,41.5408284 C59.8436998,40.9857306 60.4162535,41.0206424 61.0237191,41.1917103 C61.2597229,41.2657233 61.5016618,41.3205349 61.7463936,41.3557958 C62.0256881,41.3907076 62.3817886,41.4046723 62.3922621,41.725861 C62.3922621,41.9108936 62.1024941,42.109891 61.9418998,42.3019059 C62.3922621,42.6510241 62.388771,42.6510241 62.9683071,42.2809588 C63.0740898,42.2177685 63.2039618,42.2086914 63.3174252,42.2565206 C63.3921365,42.3574157 63.4067994,42.4907788 63.3558282,42.6056387 C63.1969794,42.7959081 63.0266098,42.9767513 62.8461157,43.1467718 C62.7448715,43.2584896 62.6052242,43.3841721 62.5842771,43.516837 C62.4585946,44.3163175 61.9314262,44.7631887 61.254137,45.0739039 C60.8516038,45.25754 60.3754067,45.1318575 60.116012,44.7736623 C59.9065411,44.5362619 59.7145261,44.2534763 59.4875993,43.960217" id="Fill-83" fill="#000000"></path>
                <path d="M76.1440252,68.4857655 C76.158339,68.4072139 76.158339,68.3269167 76.1440252,68.2483652 C76.0672192,68.0633326 75.9904132,67.7491262 75.8752042,67.7316703 C75.620348,67.6897762 75.2782122,67.5606025 75.0896884,67.8922647 C74.9011647,68.2239269 74.7405703,68.5381332 74.5764848,68.8523395 C74.2273667,69.4702786 74.2797344,70.151059 74.2692608,70.8143834 C74.2692608,70.9575218 74.4961876,71.1635015 74.6637643,71.229834 C74.8187728,71.2643967 74.9811127,71.2200587 75.0966708,71.1111338 C75.729622,70.3776366 76.0982907,69.4531718 76.1440252,68.4857655 M73.1311358,70.4931947 C73.155574,69.4999537 73.4554665,68.5332456 73.9969487,67.7002497 C74.2078161,67.3647472 74.441027,67.0439076 74.695185,66.7401749 C74.9263012,66.4053706 75.3853915,66.3215822 75.7198467,66.5526984 C75.7512673,66.5743437 75.7809423,66.5984329 75.8088718,66.6249659 C76.1579899,66.8578277 76.4913977,67.1133821 76.8073496,67.3895346 C77.2388596,67.7540139 77.4423955,68.3209817 77.3415004,68.8767778 C77.1599589,69.8228879 76.8632085,70.7550333 76.1440252,71.404393 C75.6653842,71.78563 75.1088899,72.0572439 74.5136435,72.2003824 C74.0667723,72.3260649 73.4662892,71.8233348 73.2987125,71.3136223 C73.2271432,71.043754 73.1709352,70.7696963 73.1311358,70.4931947" id="Fill-85" fill="#000000"></path>
                <path d="M69.6643578,67.2428701 L69.3571339,67.0997316 C69.3257132,67.2009759 69.2908014,67.2847642 69.2663632,67.3685526 C69.0568923,68.1051918 68.8404391,68.8383399 68.6379505,69.5749791 C68.5367063,69.9450444 68.4529179,70.3220919 68.3691296,70.6956483 C68.320253,70.9086104 68.2678853,71.093643 67.9850996,71.1145901 C67.702314,71.1355372 67.6359815,71.0028723 67.4963343,70.765472 C67.2240221,70.266233 66.874904,69.8088883 66.5572065,69.3340876 L66.4350152,69.3550347 C66.3826474,69.5610144 66.3198062,69.7635029 66.277912,69.9729738 C66.1522295,70.6328071 66.0265469,71.2926403 65.9287939,71.9524736 C65.8764261,72.2666799 65.6180787,72.5494656 65.3876608,72.5075714 C65.1572428,72.4656772 64.9861749,72.0537179 65.0385426,71.7779145 C65.1432781,70.9644693 65.2200841,70.1440417 65.3387842,69.3340876 C65.3653172,68.9678627 65.4676088,68.611064 65.6390258,68.2867333 C65.8170761,68.0214035 65.7123406,67.665303 66.0405117,67.4558321 C66.2918767,67.2952378 66.4419975,67.3161849 66.6165566,67.5047086 L68.0584144,69.072249 C68.3412001,68.0248947 68.6414417,66.9949962 68.8753509,65.9581153 C68.9381921,65.6718385 68.9416833,65.4728411 69.2838191,65.4099999 C69.5460068,65.3450639 69.8109874,65.5046109 69.8759234,65.7667986 C69.8815093,65.7894913 69.8853496,65.8125331 69.8877934,65.835924 C69.9035037,66.2440431 69.8741778,66.6525113 69.8005139,67.0543463 C69.7586197,67.1171875 69.7202167,67.1695552 69.6643578,67.2428701" id="Fill-87" fill="#000000"></path>
                <path d="M70.7292729,68.3461532 C71.0602368,68.3332358 71.3901535,68.3018152 71.7172772,68.2518913 C71.8363264,68.1981271 71.9222095,68.0902496 71.9476951,67.9621232 C72.0524306,67.1940633 72.1222542,66.4225123 72.2269896,65.6544524 C72.2479367,65.4868757 72.3387074,65.2285283 72.4504252,65.1971076 C72.7052815,65.1203017 72.8728582,65.2774048 72.946173,65.5636817 C73.0795361,66.004967 73.0917552,66.4741818 72.9810848,66.9217512 C72.9014858,67.3487227 72.8466743,67.7798836 72.8169993,68.2134883 C72.6808432,69.1735631 72.5272312,70.133638 72.387584,71.0937128 C72.349181,71.3695161 72.3317251,71.6488106 72.3003044,71.924614 C72.2688838,72.2004173 72.1676395,72.3505381 71.867398,72.2981704 C71.6230153,72.2629094 71.4533439,72.0363318 71.4886048,71.7922982 L71.4903504,71.7814755 C71.5147886,70.9401008 71.5531916,70.0987262 71.5915946,69.191019 C71.2843707,69.2468779 70.9317614,69.3027368 70.5861344,69.3900164 C70.5302755,69.3900164 70.4953637,69.5680666 70.4779078,69.6658197 C70.3592076,70.2802676 70.2649457,70.8982067 70.1287897,71.5056722 C70.1008602,71.6278636 69.8948805,71.7046695 69.7796715,71.8024226 C69.6400243,71.6278636 69.3677122,71.4533045 69.3816769,71.2787454 C69.4693055,70.4576196 69.6012722,69.6417305 69.7761804,68.8349185 C69.9193188,68.1681029 70.1462456,67.5187432 70.3347694,66.8589099 C70.3703794,66.7447483 70.3972615,66.6281429 70.4150665,66.5097918 C70.4168121,66.2881018 70.5983536,66.1097024 70.8200436,66.1117971 C70.8493695,66.1121463 70.8786954,66.1156374 70.9073231,66.1222707 C71.2040735,66.1571825 71.1901088,66.4155299 71.1447234,66.6145272 C71.039988,67.0788544 70.8968496,67.5327079 70.7746582,67.9900527 C70.753362,68.1077055 70.7383499,68.2267548 70.7292729,68.3461532" id="Fill-89" fill="#000000"></path>
                <path d="M49.7436775,43.3247173 C49.6110126,43.7750797 49.7227304,43.9636035 50.0927956,44.0229536 L49.7436775,43.3247173 Z M51.4159533,42.9616345 L51.4159533,43.4050145 L52.0827689,43.6040118 L52.1840132,43.3072614 L51.4159533,42.9616345 Z M50.2708458,41.6664062 C49.7332039,41.5651619 49.0873354,42.0713832 48.9476881,42.8115137 C48.8918292,43.1152464 48.7451996,43.4469087 49.003547,43.7541326 C49.0384589,43.7925356 48.9546705,43.9321828 48.9267411,44.0264447 C48.8370177,43.9950241 48.7497382,43.9576685 48.6649025,43.9147269 C48.5189711,43.8078968 48.3632644,43.7146823 48.2005753,43.6354324 C47.8703096,43.4762346 47.6789929,43.122927 47.7257747,42.7591459 C48.1272605,42.6997959 48.1237694,43.1536494 48.3332402,43.2583849 C48.4547333,42.7874245 48.6181206,42.3283342 48.8220056,41.8863506 C49.2294265,41.1116575 50.1877557,40.8138597 50.9624489,41.2209315 C51.0825455,41.2841218 51.1939142,41.3619752 51.293762,41.4534441 C51.7964921,41.85493 52.3411163,42.221504 52.8263905,42.6264811 C53.1650351,42.9853745 53.2970018,43.492294 53.1755087,43.9705858 C53.1301233,44.0718301 52.9974584,44.1311802 52.8089346,44.2917745 L52.8089346,43.3910497 L52.7356198,43.3735938 C52.700708,43.4434175 52.6692874,43.5167323 52.6343756,43.5865559 C52.5017107,43.8693416 52.3690458,44.1521273 52.2293985,44.434913 C52.0897513,44.7176986 51.8209303,44.763084 51.5311623,44.6758045 C51.3182002,44.6129632 51.1052382,44.5571043 50.8643467,44.494263 C50.75612,44.993502 50.4942814,44.9062224 50.1661104,44.7316634 C49.7297127,44.494263 49.3177534,44.281301 49.157159,43.7436591 C49.0740689,43.4901993 49.1211998,43.2123013 49.2828415,43.0000374 C49.5935567,42.5357103 49.9496572,42.0958215 50.2708458,41.6664062 L50.2708458,41.6664062 Z" id="Fill-91" fill="#000000"></path>
                <path d="M56.3421497,70.3220221 L56.4573587,70.3604251 C56.7401444,70.011307 57.040386,69.6621889 57.291751,69.2711765 C57.3615747,69.1664411 57.291751,68.9464967 57.2498569,68.8068494 C57.2289098,68.7579729 57.0229301,68.7754288 56.9007387,68.7824112 C56.6633384,68.7998671 56.5900236,68.932532 56.5516206,69.1734235 C56.5236912,69.5609446 56.4189557,69.9414834 56.3421497,70.3220221 M56.0419081,71.8302124 C55.9685933,72.3050131 55.884805,72.7553755 55.8289461,73.2266849 C55.8373249,73.4539608 55.6596238,73.6452776 55.4323479,73.6533073 C55.3820749,73.655402 55.3318019,73.6477214 55.2843218,73.631662 C54.9770979,73.5723119 55.0329568,73.324438 55.0748509,73.1010024 C55.2525521,72.1908515 55.3520507,71.2667358 55.3716013,70.339478 C55.4368864,69.8081202 55.565711,69.2865377 55.7556313,68.7859024 C55.7556313,68.7509905 55.8114902,68.7160787 55.8114902,68.6846581 C55.7800695,68.0527543 56.3526233,67.9340541 56.7157061,67.8502658 C57.1608317,67.8164013 57.6073538,67.8942547 58.0144256,68.0771926 C58.1261434,68.1121044 58.2308788,68.4263107 58.2134229,68.5799227 C58.1998073,69.0571671 58.1079892,69.5291748 57.9411108,69.9763952 C57.6775266,70.4257102 57.368557,70.8467467 57.0194389,71.2332204 C57.0857713,71.2545166 57.155595,71.2639428 57.2254186,71.2611499 C57.9830049,71.2227469 58.7440824,71.1948174 59.5016688,71.128485 C59.7844545,71.1075379 60.0009077,71.2332204 59.986943,71.4531648 C59.9729783,71.6731093 59.7530338,71.8337036 59.5714924,71.9209831 C59.3724951,71.9681141 59.1661663,71.9764929 58.9640269,71.9454214 C58.7559525,71.9119061 58.5436886,71.9119061 58.3356142,71.9454214 C57.560572,72.2177335 56.8274239,71.9524038 56.0419081,71.8302124" id="Fill-93" fill="#000000"></path>
                <path d="M45.6660825,47.9820579 L46.5598249,46.7042855 C46.6820162,46.5332176 46.8216635,46.3830968 47.0520814,46.5227441 C47.2824994,46.6623913 47.352323,46.7880739 47.1114315,46.98358 C46.87054,47.1790862 46.695981,47.3152422 46.832137,47.6364309 C46.8384211,47.7013669 46.8122373,47.7652555 46.7623134,47.8074988 C45.9802888,48.2962642 45.8406415,49.1062182 45.6835384,49.9022076 C45.6573545,50.0439495 45.6224427,50.1839459 45.5788029,50.3211493 C45.501997,50.5376026 45.3064908,50.5969526 45.1877906,50.4293759 C44.9786689,50.1825494 44.8344831,49.8871955 44.7688489,49.5705453 C44.6990253,48.8094678 44.7479018,48.0414079 44.6990253,47.2768392 C44.6319946,47.0362969 44.5234188,46.8093701 44.3778366,46.6065324 C44.0287185,46.8160033 43.923983,46.6693737 43.9170007,46.3621498 C43.8925624,45.576634 43.8646329,44.7911182 43.8576506,44.0021112 C43.8768521,43.7846106 43.9176989,43.5692047 43.9798419,43.3597339 L44.3918013,43.6355372 C44.5307503,43.3195853 44.8994191,43.1760977 45.215371,43.3150467 C45.2481881,43.3293606 45.2799578,43.3468165 45.309982,43.3667162 L44.6117457,44.8749065 L44.6885517,44.9168007 C44.8142342,44.7387505 44.9294432,44.5676826 45.0655993,44.3896323 C45.2017554,44.2115821 45.2785614,44.1173202 45.4147174,44.0824084 C45.5788029,44.0701892 45.7435867,44.0904381 45.8999916,44.1417585 C45.8615886,44.3267911 45.8825357,44.557209 45.7743091,44.6794004 C45.2220042,45.1814322 44.9786689,45.9393677 45.1354229,46.6693737 C45.484541,45.8873491 45.8162033,45.1367451 46.8810136,45.192604 C46.2840216,46.0374699 45.6591001,46.8578975 45.6660825,47.9820579" id="Fill-95" fill="#000000"></path>
                <path d="M53.5212403,70.458248 L53.3955578,69.2991758 L53.3047871,69.2991758 L53.0045455,70.4512656 L53.5212403,70.458248 Z M53.5666257,71.093643 C53.3592495,71.0957377 53.1529207,71.1226198 52.9521778,71.1739402 C52.8163708,71.2318938 52.7102389,71.3429133 52.6589186,71.4811641 C52.4983242,72.0537179 52.3482034,72.6332539 52.2399768,73.2267548 C52.1911003,73.4851022 52.0654178,73.6317318 51.838491,73.6107847 C51.6115642,73.5898376 51.5522141,73.4152785 51.5906171,73.1708959 C51.7128084,72.3888713 51.6988437,71.5719348 51.9397352,70.8283132 C52.2630186,69.9181623 52.6442556,69.0293075 53.0813515,68.1680331 C53.1417489,68.0653924 53.2237917,67.9770655 53.322243,67.9096857 C53.4577008,67.7728314 53.6790417,67.771784 53.815896,67.9072418 C53.8790864,67.9700831 53.9160929,68.0545697 53.919235,68.1435948 C53.996041,68.782481 54.0518999,69.4248583 54.1252147,70.0672357 C54.1342918,70.1768588 54.1828192,70.2798486 54.2613708,70.3570037 C54.4080004,70.4617392 54.6454007,70.4931598 54.5476476,70.7445249 C54.4729364,70.8960421 54.3500468,71.0189317 54.1985295,71.093643 L54.1985295,73.2477018 C54.1985295,73.5235052 54.1356883,73.7993085 53.8494114,73.809782 C53.5631345,73.8202556 53.5002933,73.5619082 53.5247315,73.2651578 C53.5561522,72.7763924 53.5247315,72.2841358 53.5247315,71.7918793 C53.5268262,71.5586683 53.540791,71.3254574 53.5666257,71.093643 L53.5666257,71.093643 Z" id="Fill-97" fill="#000000"></path>
                <path d="M60.4616738,69.2049488 C60.0881174,69.1037046 59.6726668,69.0129339 59.2746722,68.8732866 C59.1594632,68.8348836 59.0931308,68.6533422 59.00236,68.5241685 C59.1210602,68.4333978 59.2292868,68.2867682 59.3514782,68.2623299 C60.4616738,68.0668237 61.5718695,67.8783 62.6890475,67.7177056 C62.8803642,67.7313212 63.0674915,67.7812451 63.2406541,67.8643352 C63.1666411,68.0846288 63.0643495,68.2947979 62.9369213,68.4892567 C62.8070494,68.6243654 62.631443,68.7064082 62.4446648,68.7196746 C61.98732,68.7476041 61.8686199,69.0687928 61.8022874,69.4179109 C61.6277284,70.3326004 61.3344691,71.2263428 61.4147663,72.1759441 C61.4399028,72.3843676 61.2911785,72.5739388 61.082755,72.5994244 C60.9846528,72.6112944 60.8858523,72.5847614 60.8073008,72.5250622 C60.6302979,72.4646648 60.4588809,72.3899535 60.2940971,72.3016266 C60.1795864,72.1940982 60.116396,72.0429301 60.119538,71.8861761 C60.2137999,70.9959248 60.3394825,70.1091648 60.4616738,69.2049488" id="Fill-99" fill="#000000"></path>
                <path d="M65.8973732,55.491519 C65.6076052,55.9034784 65.2829253,56.3747878 64.9372984,56.8356238 C64.8744571,56.9229033 64.7383011,56.9543239 64.6335656,57.0101828 C64.6091273,56.9054474 64.5777067,56.7972208 64.5602508,56.685503 C64.5602508,56.6540823 64.5881803,56.6156793 64.6056362,56.5807675 C64.85351,56.0605815 65.0909104,55.5334131 65.3562401,55.030683 C65.4711,54.8742781 65.6048122,54.732187 65.7542348,54.6082501 C65.7123406,54.4022704 65.6250611,54.0775905 65.5866581,53.7459283 C65.5793266,53.611867 65.636582,53.4823441 65.7402701,53.3968102 C65.8743314,53.3646913 66.0157243,53.3985558 66.1208088,53.4875809 C66.3707774,53.7026377 66.6039883,53.9358486 66.8190451,54.1858172 C67.0969431,54.466159 67.0969431,54.9179179 66.8190451,55.1982597 C66.7911156,55.2401539 66.7876245,55.2960128 66.759695,55.337907 C66.6654331,55.491519 66.5816448,55.7498664 66.469927,55.7603399 C66.3582092,55.7708135 66.1382647,55.6172015 65.8973732,55.491519" id="Fill-101" fill="#000000"></path>
                <path d="M64.2740089,69.3725255 C64.1308704,69.7949585 63.9528202,70.3011798 63.7887347,70.8143834 C63.7077393,71.0475943 63.6504839,71.2888349 63.6176668,71.5335668 C63.5967197,71.7919142 63.5478431,72.0118586 63.2685486,72.078191 C63.1882515,72.0991381 63.0311483,72.078191 63.0032189,72.0153498 C62.8880099,71.7779494 62.6541007,71.3869371 62.7378891,71.2961664 C63.1079543,70.8911894 62.9717982,70.402424 63.0870072,69.9625352 C63.210595,69.533469 63.3694438,69.1155746 63.5618079,68.7126923 C63.621158,68.5870098 63.8166641,68.5241685 63.9458378,68.4333978 C64.0432418,68.5608259 64.1273792,68.6976802 64.1972029,68.841866 C64.2404935,69.0157268 64.2663283,69.1934279 64.2740089,69.3725255" id="Fill-103" fill="#000000"></path>
                <path d="M64.3822704,20.6879328 L64.8081945,20.2899382 L64.9164211,20.3353235 C64.9164211,20.8171065 64.5323912,21.1906629 64.4241646,21.6410253 C64.3159379,22.0913877 64.2077113,22.5766619 64.0750464,23.0724096 C63.5862811,22.7232915 63.6805429,22.0250553 64.3229203,20.8171065 C63.816699,20.9637361 63.9074697,20.6495298 64.0017316,20.4051471 C64.2880085,19.6545432 64.5917413,18.9109216 64.9059476,18.1742823 C64.9373682,18.0974763 65.0979625,18.0765292 65.1992068,18.0311439 C65.2550657,18.1638088 65.3807482,18.3139296 65.3493276,18.4256474 C65.2662375,18.660953 65.1608038,18.8875306 65.0351213,19.1029365 C64.8081945,19.5637725 64.5847589,20.0211172 64.3648145,20.4819531 C64.3613233,20.5510785 64.3672583,20.620553 64.3822704,20.6879328" id="Fill-105" fill="#000000"></path>
                <path d="M53.4723289,31.7794157 C53.5529752,31.7183201 53.6423494,31.6701418 53.7376587,31.6362773 C53.8794006,31.5898446 54.0323144,31.5898446 54.1740563,31.6362773 C54.2578447,31.6816627 54.3241771,31.9504836 54.2753006,31.9853954 C54.1478725,32.0751188 54.0005446,32.1327233 53.8458853,32.1529721 C53.6622492,32.1749666 53.4817551,32.2182572 53.3082434,32.2821458 C52.8976805,32.5076762 52.5094611,32.7719586 52.1491712,33.0711528 C51.9732157,33.2910972 51.8349649,33.5389711 51.740703,33.8043009 C51.7309277,33.8297865 51.7155665,33.8521301 51.6953176,33.8706333 C51.5521792,33.9963158 51.4648997,34.3035398 51.2065522,34.115016 C50.9482048,33.9264922 51.1367286,33.7274949 51.2484464,33.5250064 C51.3018615,33.3871047 51.341661,33.2446645 51.3671466,33.0990823 C51.4125319,32.9559438 51.4299879,32.7499641 51.5312321,32.6801405 C52.0653828,32.3519695 52.6204807,32.0552191 53.1720873,31.7549775 C53.2558757,31.7225095 53.3442025,31.7026097 53.4339259,31.6956274 L53.4723289,31.7794157 Z" id="Fill-107" fill="#000000"></path>
                <path d="M53.4059965,44.9760111 C53.3850494,44.6792607 53.3431552,44.2777749 53.3291905,43.8693067 C53.3291905,43.7575889 53.3850494,43.5760474 53.454873,43.5551004 C53.5829993,43.5358989 53.7125222,43.5788404 53.8039911,43.6703093 C53.8839392,43.7586362 53.9296736,43.8724487 53.9331648,43.991498 L53.9331648,46.4353249 C53.9331648,46.5470427 53.8039911,46.6552693 53.7341675,46.7669871 C53.6598053,46.660157 53.6022008,46.5421551 53.5630996,46.417869 C53.5246966,46.1246098 53.5177143,45.8243682 53.4967672,45.492706 C53.2956751,45.746864 53.0778254,45.9874064 52.8439163,46.2118893 C52.7004287,46.3176721 52.5206329,46.361661 52.3446773,46.3340807 C52.2273737,46.3243053 52.1404432,46.2213155 52.1498694,46.1043609 C52.1551062,46.0429161 52.1865268,45.9867081 52.2364507,45.9500507 C52.4494128,45.7301063 52.6553925,45.4996883 52.8823193,45.2971998 C53.0481504,45.1767541 53.2234077,45.0692257 53.4059965,44.9760111" id="Fill-109" fill="#000000"></path>
                <path d="M44.8979528,24.8599643 C44.8386027,25.2090824 44.7757614,25.6384977 44.6919731,26.0504571 C44.6588069,26.174394 44.5924744,26.2864609 44.4999581,26.3751369 C44.4252468,26.4205223 44.334127,26.4295994 44.2520842,26.3995752 C44.2101901,26.3995752 44.1787694,26.2634191 44.189243,26.1970867 C44.2747769,25.4635895 44.218918,24.7206661 44.0251575,24.008116 C43.9923403,23.7504669 44.0066542,23.4889774 44.0670516,23.236565 C44.0670516,23.1667414 44.2381195,23.0515324 44.2730313,23.0689883 C44.4161698,23.1423031 44.6221495,23.2400562 44.6465877,23.3657387 C44.7583055,23.833557 44.8141644,24.31534 44.8979528,24.8599643" id="Fill-111" fill="#000000"></path>
                <path d="M44.444169,20.0735897 L44.444169,21.4700622 L44.308013,21.5189387 C44.2151475,21.3908123 44.1474186,21.2462774 44.1090156,21.0930146 C44.0810862,20.4122342 44.0706126,19.7279627 44.0880685,19.0471824 C44.0880685,18.9075351 44.2381893,18.771379 44.3184865,18.6317318 C44.4515005,18.7071413 44.5768339,18.7961664 44.6920429,18.8970616 C44.8770755,19.1065324 45.041161,19.3125121 44.7967783,19.6302096 C44.7409194,19.7070156 44.9538815,20.003766 45.0655993,20.1818163 C45.1773171,20.3598665 45.3169643,20.5309344 45.4950146,20.7648435 C44.8735843,20.8625966 44.8072519,20.3389194 44.444169,20.0735897" id="Fill-113" fill="#000000"></path>
                <path d="M25.8221034,68.3669257 C25.8814534,69.047706 25.9547683,69.7249952 25.9966624,70.4057756 C25.9966624,70.5279669 25.8884358,70.6606318 25.8290857,70.7863143 C25.7487886,70.6711053 25.6126325,70.5628787 25.5986678,70.4371962 C25.4450558,69.2432122 25.3078524,68.0467844 25.1867084,66.8482618 C25.1867084,66.7155969 25.2844615,66.5724585 25.3368292,66.4328113 C25.4380734,66.5305643 25.6056501,66.6143527 25.6300884,66.7295617 C25.7452974,67.2672036 25.8221034,67.8118279 25.9128741,68.3564521 L25.8221034,68.3669257 Z" id="Fill-115" fill="#000000"></path>
                <path d="M68.0096426,53.120972 C67.939819,53.218725 67.863013,53.4212136 67.7617688,53.4351783 C67.5847659,53.449143 67.4084612,53.3981718 67.266021,53.2920398 C67.0736569,53.120972 66.9025891,52.9275605 66.7563086,52.7159949 C66.6585555,52.5938036 66.5957142,52.447174 66.5049435,52.3214915 C66.4141728,52.1958089 66.3652963,52.0840911 66.2605608,52.0352146 C66.0479479,51.9598051 65.9369283,51.726245 66.0123378,51.5136321 C66.0207167,51.4898921 66.0311902,51.4668503 66.0441076,51.445205 C66.1628077,51.1449634 66.3722786,51.2741371 66.5642936,51.3858549 C66.6609993,51.4249561 66.7514209,51.4776729 66.8331146,51.542958 C67.1996886,51.9688821 67.5592803,52.4052798 67.9118896,52.8416775 C67.9562276,52.9303535 67.9890447,53.0242662 68.0096426,53.120972" id="Fill-117" fill="#000000"></path>
                <path d="M46.929925,27.6669089 C47.334902,27.8065562 47.4605846,28.0160271 47.3698139,28.3826011 C47.3181444,28.5648408 47.3471212,28.760696 47.450111,28.920243 C47.7576841,29.1737028 47.8662598,29.5971831 47.718932,29.9675974 C47.710204,30.0597646 47.6937955,30.1505353 47.6700554,30.2399095 C47.5998827,30.3708288 47.5230767,30.4975587 47.4396375,30.6204483 C47.325825,30.4759134 47.2350543,30.3142717 47.1708165,30.1421565 C47.1502185,29.9096438 47.1502185,29.6760838 47.1708165,29.4439202 C47.1708165,29.3845701 47.1708165,29.2903082 47.1324135,29.2728523 C46.640157,29.0005402 46.7448924,28.5746161 46.8391543,28.1591655 C46.8635926,28.0055535 46.891522,27.8624151 46.929925,27.6669089" id="Fill-119" fill="#000000"></path>
                <path d="M57.0821405,45.0878686 C56.4886397,43.8694463 56.9285285,43.4330487 57.728009,43.0664746 C57.804815,43.573045 57.7761874,44.090089 57.6442207,44.5851385 C57.5674147,44.7841358 57.2951026,44.9063272 57.0821405,45.0878686" id="Fill-121" fill="#000000"></path>
                <path d="M68.1003435,78.17718 C67.9956081,78.5472452 67.8140667,78.658963 67.5208074,78.6624542 C67.0355332,78.6624542 66.550259,78.7252954 66.0649848,78.7113307 C65.9288288,78.7113307 65.7996551,78.5297893 65.6669902,78.4320362 C65.8066374,78.3377743 65.9393023,78.1806712 66.0859319,78.1632153 C66.5921532,78.1038652 67.1018657,78.0864093 67.6115782,78.0759357 C67.7777584,78.0912969 67.9418439,78.1251614 68.1003435,78.17718" id="Fill-123" fill="#000000"></path>
                <path d="M25.6197545,63.2244506 C25.5115279,62.4249701 25.3998101,61.6219984 25.302057,60.8190267 C25.302057,60.7212736 25.3683894,60.6165382 25.4067924,60.5152939 C25.494072,60.5467145 25.6372104,60.5571881 25.6616487,60.6165382 C25.7653368,60.8378791 25.8358586,61.0731847 25.8711196,61.3147744 C25.9339608,61.9431871 25.9793462,62.5715997 25.9933109,63.2035035 C25.9933109,63.3396596 25.8431901,63.482798 25.7594018,63.6224452 L25.5080367,63.290783 L25.6197545,63.2244506 Z" id="Fill-125" fill="#000000"></path>
                <path d="M26.7228281,82.8589239 L26.7228281,83.8853312 C26.7228281,83.9726107 26.6355486,84.0529079 26.5866721,84.1366962 C26.4959014,84.0773462 26.3562541,84.035452 26.3178511,83.9481725 C26.2773534,83.8113182 26.258501,83.6685288 26.2619922,83.5257395 C26.1851862,82.8449592 26.5028837,82.129267 26.122345,81.4764161 C26.1013979,81.4380131 26.1642391,81.2913835 26.1991509,81.2878923 C26.3038864,81.2878923 26.4714631,81.2878923 26.5098661,81.34026 C26.6247259,81.511677 26.7008337,81.7057867 26.7333017,81.9093226 C26.7507576,82.2256236 26.7507576,82.5426229 26.7333017,82.8589239 L26.7228281,82.8589239 Z" id="Fill-127" fill="#000000"></path>
                <path d="M44.6117457,79.1302725 C44.5070103,79.1861314 44.4022749,79.2873756 44.2975394,79.2908668 C43.6411973,79.3187963 42.9883464,79.3153051 42.3320044,79.3362522 C42.094604,79.3362522 41.920045,79.2664285 41.9375009,79.025537 C41.9375009,78.9522222 42.1783924,78.8439956 42.3110573,78.8370132 C42.8801198,78.8021014 43.4491824,78.7881367 44.0217361,78.7986103 C44.2235264,78.8272379 44.4214764,78.8789074 44.6117457,78.9522222 L44.6117457,79.1302725 Z" id="Fill-129" fill="#000000"></path>
                <path d="M26.1398358,74.0471125 C26.1922035,74.4381248 26.2655183,74.825646 26.2899566,75.2201494 C26.2899566,75.345832 26.1852211,75.481988 26.125871,75.6146529 C26.0525562,75.5238822 25.9303649,75.4400939 25.9198914,75.3423408 C25.8430854,74.7593135 25.7872265,74.1693039 25.7313676,73.5967502 C25.7041364,73.3499236 25.6922663,73.1017006 25.6964558,72.8531285 C25.6964558,72.7693402 25.7872265,72.689043 25.836103,72.6052547 C25.9094178,72.6715871 26.0316092,72.727446 26.0455739,72.8007608 C26.1153975,73.2162114 26.1572917,73.6351531 26.2096594,74.0540949 L26.1398358,74.0471125 Z" id="Fill-131" fill="#000000"></path>
                <path d="M29.5018084,79.6085992 C30.1127652,79.5492491 30.7272131,79.4829167 31.341661,79.4375313 C31.5057465,79.4375313 31.7710763,79.3677077 31.7431468,79.6539846 C31.7431468,79.7412641 31.4917818,79.8494907 31.3451521,79.8669466 C30.8249661,79.9332791 30.2977978,79.9716821 29.7776118,80.0065939 C29.5290396,80.0257954 29.2790711,80.0257954 29.030499,80.0065939 C28.9571842,80.0065939 28.8943429,79.8809114 28.8280104,79.8110877 C28.9083076,79.7447553 28.9781312,79.6365287 29.068902,79.6120904 C29.2127386,79.5963801 29.3579718,79.5963801 29.5018084,79.6120904 L29.5018084,79.6085992 Z" id="Fill-133" fill="#000000"></path>
                <path d="M49.54475,78.4180715 L50.759681,78.4180715 C50.8242679,78.4037576 50.8906003,78.4037576 50.9551872,78.4180715 C51.0843609,78.4878951 51.2030611,78.5751747 51.3252524,78.6519806 C51.1925875,78.7392602 51.0703962,78.8754162 50.9272577,78.8998545 C50.5292631,78.966187 50.1207949,78.9836429 49.7158178,79.0220459 C49.5852477,79.0241406 49.4546775,79.0335668 49.3248055,79.0499753 C49.1188258,79.0848871 48.909355,79.0709224 48.9442668,78.8160662 C48.9442668,78.6903836 49.1432641,78.5681923 49.275929,78.466948 C49.3387703,78.4215627 49.4539792,78.466948 49.54475,78.466948 L49.54475,78.4180715 Z" id="Fill-135" fill="#000000"></path>
                <path d="M57.0263863,78.4879649 C56.9359648,78.7267617 56.6926294,78.8716458 56.4398679,78.8370831 C55.9196819,78.7951889 55.3925135,78.8370831 54.8653451,78.8370831 C54.7326802,78.8370831 54.6069977,78.6869623 54.477824,78.6066651 C54.5965242,78.5298591 54.708242,78.3902119 54.8269421,78.3832295 C55.479793,78.3622824 56.1361351,78.3832295 56.7924772,78.3832295 C56.8692832,78.3553001 56.942598,78.4390884 57.0263863,78.4879649" id="Fill-137" fill="#000000"></path>
                <path d="M25.1448142,56.7273971 C25.1291039,56.4390256 25.1291039,56.1499558 25.1448142,55.8615842 C25.1448142,55.7498664 25.2809703,55.6521133 25.3577763,55.5473779 C25.4066528,55.6416398 25.4939323,55.7289193 25.5009147,55.8266724 C25.5497912,56.4795233 25.5777207,57.1358653 25.6161237,57.7922074 C25.6430058,57.9315056 25.6580178,58.0728984 25.661509,58.2146404 C25.629041,58.3312458 25.5784189,58.4419163 25.5113882,58.5428114 C25.4275999,58.4625142 25.2809703,58.3891994 25.2704967,58.2984287 C25.2006731,57.7782427 25.1657613,57.2510743 25.1203759,56.7308883 L25.1448142,56.7273971 Z" id="Fill-139" fill="#000000"></path>
                <path d="M36.2782611,79.6330026 L35.3286598,79.6330026 C35.2274155,79.6330026 35.1331537,79.5177936 35.0354006,79.4549523 C35.1261713,79.3816375 35.2134508,79.2489726 35.3112039,79.2419903 C35.7825134,79.1966049 36.2538228,79.1826402 36.7286235,79.1651843 C36.9506626,79.149474 37.1734,79.149474 37.3954391,79.1651843 C37.5179796,79.1941611 37.6359815,79.2409429 37.7445572,79.3048315 C37.6363306,79.3956023 37.5385776,79.5596878 37.4233686,79.5701613 C37.046321,79.6050731 36.6622911,79.5701613 36.2817523,79.5701613 L36.2782611,79.6330026 Z" id="Fill-141" fill="#000000"></path>
                <path d="M62.3644374,78.2854415 C62.4761552,78.6869274 62.4377522,78.7742069 61.990881,78.8126099 C61.5614657,78.8527585 61.1299557,78.863232 60.699144,78.8440305 C60.5560055,78.8440305 60.4268318,78.6624891 60.2906758,78.564736 C60.4163583,78.4739653 60.5385496,78.3063886 60.6712145,78.2994062 C61.2158388,78.2679856 61.7639543,78.2854415 62.3644374,78.2854415" id="Fill-143" fill="#000000"></path>
                <path d="M65.0491209,25.3067657 C64.9688238,25.7780751 64.9129649,26.1586139 64.8361589,26.5321703 C64.8361589,26.5880292 64.6720733,26.6718175 64.6301792,26.6508704 C64.5306805,26.6040886 64.4521289,26.5220459 64.4102347,26.4204525 C64.4077909,26.2940717 64.4304836,26.1683892 64.4765672,26.0503873 L64.0750813,25.7920398 L64.5463908,24.3082878 C64.9792973,24.8075267 64.6057409,25.2090126 64.6441439,25.6070072 L65.0491209,25.3067657 Z" id="Fill-145" fill="#000000"></path>
                <path d="M59.2467427,33.0676616 C59.00236,33.479621 58.8731863,33.4900946 58.5485065,33.2038177 C58.4472622,33.1095558 58.2587384,33.1165382 58.1190912,33.0571881 C57.9494198,32.9908556 57.7870798,32.9077655 57.633817,32.8093142 C57.595414,32.7813848 57.6023963,32.6207904 57.633817,32.5614403 C57.9811895,32.2671338 58.488109,32.2584058 58.8452569,32.5404933 C58.9849041,32.7045788 59.1036043,32.8791378 59.2467427,33.0676616" id="Fill-147" fill="#000000"></path>
                <path d="M77.2576771,78.3134059 C76.9399796,78.2505646 76.6222821,78.1912145 76.3080758,78.1178997 C76.2424416,78.0857809 76.1949615,78.0253834 76.1789021,77.9538142 C76.1789021,77.9154112 76.2452345,77.8386052 76.2976023,77.8176581 C76.8638719,77.6455429 77.4647042,77.6204064 78.0431929,77.7443433 C78.1199989,77.7443433 78.238699,77.9573054 78.2212431,78.0480761 C78.1671298,78.1618886 78.0623944,78.2435823 77.9384575,78.2680205 C77.7143236,78.2837308 77.4891424,78.2837308 77.2646595,78.2680205 L77.2576771,78.3134059 Z" id="Fill-149" fill="#000000"></path>
                <path d="M72.3806016,78.6275773 C72.1082895,78.6275773 71.8324861,78.6066302 71.560174,78.5752096 C71.4680068,78.5465819 71.3817746,78.5015456 71.3053178,78.4425447 C71.3646678,78.3482828 71.4030708,78.198162 71.4868592,78.1702325 C71.7130877,78.0969177 71.9476951,78.0525797 72.1850954,78.0375676 C72.4462358,78.0113838 72.7094709,78.0113838 72.9706112,78.0375676 C73.0788379,78.0375676 73.1800821,78.1562678 73.2848176,78.2191091 C73.1940468,78.3413004 73.1277144,78.5368066 73.0125054,78.5682272 C72.8086204,78.6038372 72.6001969,78.6097723 72.3945663,78.5856831 L72.3806016,78.6275773 Z" id="Fill-151" fill="#000000"></path>
                <path d="M67.2764597,42.9755992 C67.0984094,42.9965463 67.0460417,43.0174934 67.0250946,43.0000374 C66.550294,42.6509193 66.0370903,42.3611513 65.7543046,41.8200182 C65.6495692,41.6175297 65.6181486,41.3801293 65.8730048,41.2858674 C66.127861,41.1916055 66.1522993,41.4429706 66.2640171,41.6035649 C66.4699968,41.9107889 66.7527825,42.1621539 66.9832004,42.451922 C67.09422,42.6188005 67.1919731,42.7937086 67.2764597,42.9755992" id="Fill-153" fill="#000000"></path>
                <path d="M24.0974598,35.9724292 C24.2196512,36.2726708 24.3188007,36.5823386 24.3942102,36.8975922 C24.4326132,37.2233194 24.4395956,37.5514905 24.4151573,37.8786142 C24.4074767,37.9833496 24.369772,38.0838956 24.3069307,38.1683822 C24.2556103,38.2340164 24.1774079,38.2738159 24.0939686,38.2766088 C24.0485833,38.2766088 23.9752685,38.1753646 23.9682861,38.1125233 C23.8810066,37.529496 23.793727,36.9464688 23.7378681,36.3669327 C23.7378681,36.2517237 23.8530771,36.12255 23.9194096,36.0003586 L24.0974598,35.9724292 Z" id="Fill-155" fill="#000000"></path>
                <path d="M58.1993883,40.8808904 C57.9120641,40.521997 57.9651301,39.999018 58.3180885,39.7043623 C58.5659624,39.4879091 58.827801,39.2155969 59.2223045,39.3552442 C59.3057437,39.3779369 59.3755673,39.4351922 59.4143194,39.5123474 C59.4317753,39.582171 59.38639,39.7288006 59.3375134,39.7462565 C58.7544862,39.9068508 58.4856652,40.3991074 58.1993883,40.8808904" id="Fill-157" fill="#000000"></path>
                <path d="M48.2878898,50.9040369 C48.542746,50.3943245 48.8220405,50.673619 49.1955969,50.8795987 C49.3429248,50.661749 49.5049156,50.4540237 49.6808711,50.2581684 C49.7911924,50.1705398 49.9367747,50.1419121 50.0718834,50.1813624 C50.2778631,50.2826067 50.2080395,50.4606569 50.0893393,50.6107777 C49.7356827,51.0003935 49.2151475,51.1941541 48.6928668,51.1309637 C48.5507757,51.0688207 48.4153179,50.9927129 48.2878898,50.9040369" id="Fill-159" fill="#000000"></path>
                <path d="M24.7469592,48.2123711 C24.6771356,48.1111268 24.5654178,48.0203561 24.5479618,47.9086383 C24.4537,47.3221199 24.376894,46.7321102 24.3175439,46.1421006 C24.3175439,46.0618034 24.4187881,45.9675415 24.474647,45.880262 C24.5619266,45.9431033 24.7085562,45.9919798 24.7260121,46.072277 C24.8876538,46.757945 24.9312936,47.4666548 24.8551858,48.1669857 L24.7469592,48.2123711 Z" id="Fill-161" fill="#000000"></path>
                <path d="M66.9273415,39.0166345 C66.8051502,38.3498189 66.6759765,37.6864945 66.5782234,37.0196788 C66.5729866,36.9303046 66.612437,36.8440724 66.6829588,36.7892609 C66.766049,36.7721541 66.8522811,36.7969415 66.9133768,36.8555933 C67.0027511,36.946364 67.0655923,37.0598274 67.0949182,37.1837644 C67.1787066,37.7004592 67.2555126,38.2311187 67.2939156,38.73734 C67.2939156,38.8420755 67.147286,38.9572844 67.0669888,39.0690022 L66.9273415,39.0166345 Z" id="Fill-163" fill="#000000"></path>
                <path d="M25.0331662,51.2601374 C25.0610957,51.6092556 25.106481,51.9967767 25.1134634,52.3633507 C25.1145107,52.6761606 25.094611,52.9889704 25.0541133,53.2989873 C25.0541133,53.3862668 24.9563602,53.466564 24.9074837,53.5503524 C24.8341689,53.4910023 24.6945216,53.4316522 24.6945216,53.3723021 L24.6945216,51.5254672 C24.6945216,51.4277141 24.816713,51.3334522 24.8830454,51.2356992 L25.0331662,51.2601374 Z" id="Fill-165" fill="#000000"></path>
                <path d="M55.3645142,31.8563265 C55.4517938,31.9156765 55.5495468,31.9505884 55.5879498,32.020412 C55.6036602,32.0919812 55.5827131,32.1663434 55.5320909,32.2194093 C55.1410786,32.502195 54.7535575,32.7849807 54.3415981,33.0328546 C54.2647921,33.0782399 54.0413565,32.9909604 53.99248,32.9001897 C53.9415087,32.7783474 53.9558226,32.6387002 54.030883,32.5301244 C54.4498247,32.2857418 54.9036783,32.0797621 55.3645142,31.8563265" id="Fill-167" fill="#000000"></path>
                <path d="M24.313948,43.6947825 C24.198739,43.5865559 24.1324065,43.5516441 24.1324065,43.5167323 C24.0800388,42.8918108 24.0346535,42.2668894 24.006724,41.6384767 C24.006724,41.5721443 24.1324065,41.4953383 24.198739,41.4255147 C24.2511067,41.5023207 24.3418774,41.5756355 24.3488598,41.6559327 C24.3977363,42.1900834 24.4396305,42.7242341 24.4605776,43.2583849 C24.4336955,43.4106004 24.3841207,43.55723 24.313948,43.6947825" id="Fill-169" fill="#000000"></path>
                <path d="M59.9136282,49.4308632 L59.3445656,49.6228782 C59.3061626,49.4937044 59.2188831,49.3540572 59.2433214,49.2388482 C59.2677596,49.1236392 59.4562834,49.1480775 59.5924395,49.0957098 C59.5924395,48.7675387 59.6168778,48.7465917 59.9729783,48.9246419 C60.2103786,49.0363597 60.4652348,49.1061833 60.7026351,49.2213923 C60.8073706,49.2702688 60.8806854,49.388969 60.9714561,49.4727574 C60.8492648,49.5286163 60.7200911,49.6368429 60.6048821,49.6228782 C60.3702747,49.5746998 60.1391585,49.5108112 59.9136282,49.4308632" id="Fill-171" fill="#000000"></path>
                <path d="M47.0449943,25.6069723 C47.1204039,25.8220291 47.1717242,26.0444173 47.1986063,26.2702968 C47.1986063,26.6194149 47.0938709,26.968533 47.366183,27.2897217 C47.4010948,27.352563 47.4010948,27.429369 47.366183,27.4922102 C47.2925191,27.533057 47.2048904,27.5407376 47.1252915,27.5131573 C47.0097334,27.4286707 46.9074418,27.3274265 46.8215587,27.2129157 C46.5565781,26.6829544 46.6452541,26.0444173 47.0449943,25.6069723" id="Fill-173" fill="#000000"></path>
                <path d="M45.3413328,23.1317597 C44.9677764,22.6848885 44.8979528,21.4978869 45.1632825,21.0929099 C45.2065732,21.0349562 45.2763968,21.0031865 45.3483152,21.0091215 C45.4432753,21.0447315 45.5218269,21.1145552 45.5682596,21.2046277 C45.5878102,21.3201858 45.5878102,21.4381877 45.5682596,21.5537458 C45.5438213,21.9587228 45.5263654,22.3636998 45.4914536,22.7651857 C45.4568909,22.8929629 45.4066179,23.0162016 45.3413328,23.1317597" id="Fill-175" fill="#000000"></path>
                <path d="M56.2896424,59.2061708 C56.3451521,59.0431326 56.430337,58.8916153 56.5410074,58.7592996 C56.5933751,58.7139142 56.841249,58.7942114 56.8901255,58.8814909 C56.9781033,59.0277714 56.9973048,59.2051234 56.9424933,59.3667651 C56.8831432,59.4645182 56.6387605,59.4470623 56.4642014,59.4435711 C56.3175718,59.5273594 56.3385189,59.9078982 55.992892,59.691445 C55.7554916,59.5448153 55.5809326,59.1154 55.7275622,58.9932087 C56.0592244,58.6859847 56.1220657,59.1782413 56.2896424,59.2061708" id="Fill-177" fill="#000000"></path>
                <path d="M65.9183552,33.4936556 C65.4648508,33.4199916 65.1118924,33.0586544 65.0490511,32.6034043 C65.0490511,32.5510366 65.1084012,32.4602659 65.1398218,32.4567747 C65.2271013,32.4567747 65.3597662,32.4567747 65.3911869,32.519616 C65.574823,32.7783125 65.8872837,32.912723 66.2011409,32.8687341 C66.2919116,32.8687341 66.4210853,33.0188549 66.452506,33.1200992 C66.4839266,33.2213434 66.3687176,33.3330612 66.2849293,33.3819378 C66.1690221,33.4374475 66.0454342,33.4751523 65.9183552,33.4936556" id="Fill-179" fill="#000000"></path>
                <path d="M62.7099596,34.8341994 C62.6296625,34.7818316 62.4935064,34.7469198 62.4795417,34.6805874 C62.3552556,34.2319706 62.2585499,33.7760223 62.1897736,33.3155355 C62.1628915,33.1675094 62.2609937,33.0257675 62.4090198,32.9988854 C62.4690681,32.9880627 62.5305129,32.9974889 62.5842771,33.0257675 C62.6575919,33.0536969 62.6715566,33.2841149 62.6890126,33.4272533 C62.7134508,33.6297418 62.6890126,33.8322303 62.7239244,34.0347188 C62.7588362,34.2372074 62.7867656,34.519993 62.8181863,34.7643757 L62.7099596,34.8341994 Z" id="Fill-181" fill="#000000"></path>
                <path d="M58.7440475,33.6122859 L59.0373068,33.8671421 C58.8662389,34.2162603 58.7370652,34.5339578 58.5625061,34.8202346 C58.479416,34.9267157 58.3477985,34.9832728 58.213388,34.9703554 C58.083516,34.8994844 57.9972839,34.7685651 57.98297,34.6212373 C58.0147398,34.4452818 58.0957352,34.2815454 58.2168792,34.1499278 C58.3827103,33.961404 58.5586658,33.7819573 58.7440475,33.6122859" id="Fill-183" fill="#000000"></path>
                <path d="M63.7852784,66.202498 C64.1588348,66.202498 64.3613233,66.4468807 64.3683057,66.9216814 C64.3683057,67.0473639 64.1972378,67.2114494 64.0645729,67.2882554 C63.9947493,67.3266584 63.8376461,67.2044671 63.7154548,67.1520993 C63.8620844,66.8274195 63.0905333,66.6772987 63.5548604,66.3002511 C63.624684,66.2534693 63.7028865,66.2199539 63.7852784,66.202498" id="Fill-185" fill="#000000"></path>
                <path d="M45.7777305,23.3586516 C45.7986775,23.0095335 45.8126423,22.6604153 45.8510453,22.3112972 C45.8817677,22.2184318 45.9292477,22.1321996 45.9906925,22.056441 C46.0849544,22.1122999 46.2176193,22.1437205 46.2664958,22.2275089 C46.3220056,22.3423687 46.3415562,22.4711933 46.3223547,22.5975741 C46.2926797,22.9236504 46.243454,23.2479811 46.1757251,23.5681225 C46.1271977,23.6847279 46.0573741,23.7912089 45.9697454,23.8823288 C45.897478,23.7779425 45.8307964,23.6697158 45.7707481,23.5576489 C45.758529,23.4944585 45.758529,23.4291734 45.7707481,23.3656339 L45.7777305,23.3586516 Z" id="Fill-187" fill="#000000"></path>
                <path d="M61.8337779,49.4518452 C62.0118281,49.1865154 62.8811323,48.8653267 63.1639179,48.9700622 C63.3594241,49.0398858 63.3943359,49.1655683 63.2546887,49.3191803 C62.8622799,49.672837 62.2848385,49.7266011 61.8337779,49.4518452" id="Fill-189" fill="#000000"></path>
                <path d="M57.2986287,32.4393188 C57.2462609,32.7081398 57.2497521,33.0083814 57.1659638,33.0363108 C56.8723554,33.1214956 56.5675753,33.1616442 56.2617478,33.155011 C56.2058889,33.155011 56.0976623,32.9699784 56.1011535,32.8722253 C56.1193076,32.7598093 56.1908768,32.6634527 56.2931685,32.6138779 C56.5899189,32.5370719 56.8971428,32.5021601 57.2986287,32.4393188" id="Fill-191" fill="#000000"></path>
                <path d="M24.2686324,32.7221045 C24.2784077,32.8914268 24.2665377,33.0617964 24.2337206,33.2283258 C24.2023,33.32957 24.0696351,33.3993937 23.9823556,33.483182 C23.9125319,33.3749554 23.8008141,33.2737111 23.7833582,33.1619933 C23.7460026,32.853722 23.7299432,32.5437051 23.7344817,32.2333391 C23.7585709,32.117781 23.8008141,32.0071106 23.8601642,31.9051681 C23.9509349,31.9575358 24.0905822,31.9854653 24.1220028,32.0622712 C24.2019509,32.2727895 24.267236,32.4885445 24.317509,32.7081398 L24.2686324,32.7221045 Z" id="Fill-193" fill="#000000"></path>
                <path d="M46.6085967,23.9033108 C46.683308,24.0495913 46.7360248,24.2059962 46.7656998,24.3676379 C46.777919,24.6685777 46.7639543,24.9698667 46.7238057,25.2683627 C46.7238057,25.3696069 46.5876496,25.4533953 46.517826,25.5476572 C46.44102,25.4603776 46.3048639,25.3730981 46.3013727,25.2823274 C46.3013727,24.8389474 46.3293022,24.3920762 46.3502493,23.945205 L46.6085967,23.9033108 Z" id="Fill-195" fill="#000000"></path>
                <path d="M47.2650784,32.3800037 C46.9927663,31.9544287 46.9927663,31.4091061 47.2650784,30.9835311 C47.4396375,30.8019897 47.5932495,30.8334103 47.6910025,31.0638283 C47.7887556,31.2942463 47.5094611,32.1530769 47.2650784,32.3800037" id="Fill-197" fill="#000000"></path>
                <path d="M52.6868131,34.6352718 C52.6763396,34.4579198 52.6927481,34.2802187 52.7356896,34.1081035 C52.8617213,33.8340457 53.0188244,33.5750001 53.2035079,33.3365524 C53.3054504,33.2646341 53.4367188,33.2489238 53.5526261,33.2946582 C53.6224497,33.3260789 53.706238,33.5250762 53.6713262,33.5739527 C53.41647,33.9510003 53.1371755,34.3071008 52.8648634,34.6701837 L52.6868131,34.6352718 Z" id="Fill-199" fill="#000000"></path>
                <path d="M19.4472762,79.8704378 C19.5617869,79.829591 19.6783924,79.7946792 19.7963943,79.7657024 C20.1961346,79.696577 20.599366,79.6501443 21.004343,79.6260551 C21.1300256,79.6260551 21.3534612,79.7866495 21.3534612,79.8878937 C21.3778994,80.1811529 21.1474815,80.0380145 21.004343,80.0380145 C20.7564692,80.0380145 20.5085953,80.0868911 20.2607214,80.0973646 C20.0128475,80.1078381 19.7195883,80.2055912 19.4472762,79.8704378" id="Fill-201" fill="#000000"></path>
                <path d="M65.4331858,31.877099 C65.244662,31.7933106 64.9339469,31.7514165 64.8885615,31.6222428 C64.7789384,31.3062909 64.7464704,30.9686936 64.7942996,30.6377296 C64.8257202,30.4177852 65.0596294,30.5120471 65.1434177,30.6726414 C65.2935385,31.0217596 65.4122387,31.395316 65.5414124,31.7583988 L65.4331858,31.877099 Z" id="Fill-203" fill="#000000"></path>
                <path d="M64.9059476,22.3776296 C64.8465975,22.6464506 64.797721,22.9187627 64.7278973,23.1840925 C64.6531861,23.4609432 64.56451,23.7332553 64.4625676,24.0010289 C64.4346381,24.0778349 64.336885,24.1302026 64.2705526,24.1930439 C64.221676,24.1267115 64.1274142,24.0568878 64.1309053,23.9940466 C64.165468,23.3897231 64.378081,22.8091397 64.7418621,22.3252619 L64.9059476,22.3776296 Z" id="Fill-205" fill="#000000"></path>
                <path d="M66.6759067,41.3382352 C66.6759067,40.8669257 66.9656747,40.7901197 67.1960927,40.8110668 C67.3357399,40.8110668 67.5801226,41.0833789 67.5452108,41.1846232 C67.465961,41.4021238 67.3476099,41.6032158 67.1960927,41.778124 L66.6759067,41.3382352 Z" id="Fill-207" fill="#000000"></path>
                <path d="M82.3059252,77.4929434 L82.3513106,77.9886911 C82.1812901,78.0215082 82.0077784,78.0358221 81.8346158,78.0305853 C81.5413565,77.9921823 81.2515885,77.9153763 80.9583293,77.852535 L80.9583293,77.6325906 L82.3059252,77.4929434 Z" id="Fill-209" fill="#000000"></path>
                <path d="M26.859054,79.3781463 C26.4017093,78.8684339 26.3214121,78.0026209 26.6949685,77.810606 C26.9149129,78.1178299 27.0405955,79.1582019 26.859054,79.3781463" id="Fill-211" fill="#000000"></path>
                <path d="M63.6700345,29.7091103 C63.5687902,29.6218308 63.4081959,29.548516 63.3872488,29.4437806 C63.3184725,29.0737153 63.2741345,28.6991116 63.2545839,28.3231114 C63.2545839,28.2358318 63.352337,28.1415699 63.4081959,28.0507992 C63.4710372,28.1345876 63.5652991,28.2113936 63.5862461,28.3056555 C63.6630521,28.623353 63.718911,28.9445416 63.7677876,29.2692215 C63.7782611,29.4018864 63.7782611,29.5349004 63.7677876,29.6672162 L63.6700345,29.7091103 Z" id="Fill-213" fill="#000000"></path>
                <path d="M46.4935273,31.2697382 C46.3853007,31.3116324 46.2631094,31.4058943 46.1723387,31.3849472 C46.081568,31.3640001 45.8441676,31.2522823 45.8232205,31.1440557 C45.7561899,30.8888503 45.7254675,30.6256152 45.7324498,30.3620311 C45.7568881,30.2660236 45.8295047,30.1892176 45.9244648,30.1595407 C46.0222179,30.1591934 46.1133377,30.2091173 46.1653563,30.2922074 C46.2596182,30.5680107 46.3154771,30.8542876 46.3853007,31.1335821 L46.4935273,31.2697382 Z" id="Fill-215" fill="#000000"></path>
                <path d="M53.1860869,41.2859024 C52.9766161,41.0519932 52.7880923,40.9367842 52.725251,40.7517516 C52.6624098,40.566719 52.6798657,40.3188451 52.994072,40.2978981 C53.2419458,40.2978981 53.591064,40.5911573 53.552661,40.8460135 C53.5317139,40.971696 53.3676284,41.0764315 53.1860869,41.2859024" id="Fill-217" fill="#000000"></path>
                <path d="M62.0396877,58.151834 C62.1336005,58.3480384 62.2083118,58.5522725 62.2631234,58.7627907 C62.2676619,58.899645 62.2051697,59.0298661 62.0955466,59.1119089 C61.9174964,59.1747501 61.6940608,59.1119089 61.7045343,58.864035 C61.7349076,58.6189541 61.7830859,58.376317 61.8476728,58.1378693 L62.0396877,58.151834 Z" id="Fill-219" fill="#000000"></path>
                <path d="M23.9404614,79.6715103 C24.1925247,79.5255789 24.453665,79.3960561 24.722486,79.2839892 C24.7818361,79.2595509 24.9459216,79.4026893 24.9878158,79.5039336 C25.02971,79.6051779 24.9354481,79.7797369 24.8935539,79.7832281 C24.5898211,79.8111576 24.2825972,79.7832281 23.9753732,79.7832281 L23.9404614,79.6715103 Z" id="Fill-221" fill="#000000"></path>
                <path d="M59.0372369,62.6240372 L58.6601894,62.1527278 C58.8323046,62.0169208 59.0183846,61.8999662 59.2152872,61.8036096 C59.2606725,61.7861537 59.4980729,62.0445011 59.4771258,62.0898865 C59.3496977,62.2829488 59.2023698,62.4620464 59.0372369,62.6240372" id="Fill-223" fill="#000000"></path>
                <path d="M59.7808236,34.7922703 C59.7846639,34.9769538 59.7647642,35.160939 59.7214736,35.3403857 C59.7040177,35.3892623 59.4561438,35.403227 59.3479172,35.3578416 C59.2396905,35.3124563 59.1559022,35.1064766 59.1838316,35.0680736 C59.3095142,34.9280772 59.4488123,34.8006491 59.5992822,34.6875348 L59.7808236,34.7922703 Z" id="Fill-225" fill="#000000"></path>
                <path d="M64.4206036,29.9954919 L64.5462861,29.1785555 L64.7592481,29.1785555 C64.8381488,29.3981508 64.8873745,29.6268232 64.9058778,29.8593359 C64.9058778,29.9535978 64.6754598,30.0373861 64.5567596,30.1281568 L64.4206036,29.9954919 Z" id="Fill-227" fill="#000000"></path>
                <path d="M63.9005223,31.0708107 C64.3753229,30.9556017 64.703494,31.1860197 64.6720733,31.5072083 C64.6406527,31.828397 64.5010055,31.8039587 64.3439023,31.6538379 C64.1798168,31.4722965 64.0314416,31.2771395 63.9005223,31.0708107" id="Fill-229" fill="#000000"></path>
                <path d="M46.6505258,32.229813 C46.5272871,32.3540991 46.3831013,32.4556925 46.2246017,32.5300546 C46.1652516,32.5475105 45.9697454,32.3345485 45.9592719,32.2158483 C45.9487983,32.0971481 46.1093927,31.940045 46.2211105,31.9190979 C46.3328283,31.8981508 46.4899314,32.0063774 46.6295787,32.0587452 L46.6505258,32.229813 Z" id="Fill-231" fill="#000000"></path>
                <path d="M63.5687902,49.4308632 C63.922796,49.2723636 64.3396431,49.3812884 64.5707593,49.6927018 C64.623127,49.7450695 64.5707593,49.8847167 64.5707593,50.0418199 L63.5687902,49.4308632 Z" id="Fill-233" fill="#000000"></path>
                <path d="M57.5011521,59.6215864 C57.3405578,59.3702214 57.2009105,59.2375565 57.1869458,59.094418 C57.1869458,59.0211032 57.3964167,58.8465442 57.4976609,58.8570177 C57.6313732,58.9086872 57.7315701,59.0218015 57.7664819,59.1607505 C57.7944113,59.2619947 57.6582552,59.3841861 57.5011521,59.6215864" id="Fill-235" fill="#000000"></path>
                <path d="M65.7437962,36.8066819 L66.0126171,36.558808 C66.1103702,36.6775082 66.2954028,36.8031907 66.2814381,36.9079261 C66.2674734,37.0126616 66.0964055,37.1732559 65.9951612,37.3024296 L65.7437962,36.8066819 Z" id="Fill-237" fill="#000000"></path>
                <path d="M44.7269896,27.5866118 C44.6250471,27.4420769 44.5405605,27.2863702 44.4756246,27.1222847 C44.4756246,27.0699169 44.5943247,26.975655 44.6641484,26.898849 C44.7828485,27.019993 44.8914243,27.1509123 44.9888282,27.2898614 C45.0062841,27.3177908 44.8561633,27.4399821 44.7269896,27.5866118" id="Fill-239" fill="#000000"></path>
                <path d="M23.9508651,29.6114271 L24.2336508,28.6897552 C24.4989806,28.8817702 24.411701,29.3705356 24.0940035,29.6533213 L23.9508651,29.6114271 Z" id="Fill-241" fill="#000000"></path>
                <path d="M50.0090771,39.6659593 C50.3581952,39.3168412 50.5152984,39.3168412 50.759681,39.6659593 C50.5187895,39.833536 50.2639333,40.0430069 50.0090771,39.6659593" id="Fill-243" fill="#000000"></path>
                <path d="M65.1504001,26.9161653 L64.762879,27.8029254 C64.5638816,27.3630365 64.686073,27.0732685 65.1504001,26.9161653" id="Fill-245" fill="#000000"></path>
            </g>
        </g>
    </g>
</svg>