<?xml version="1.0" encoding="UTF-8"?>
<svg width="100px" height="100px" viewBox="0 0 100 100" version="1.1" xmlns="http://www.w3.org/2000/svg" xmlns:xlink="http://www.w3.org/1999/xlink">
    <title>rara</title>
    <defs>
        <polygon id="path-1" points="0 0.0718597225 15.493861 0.0718597225 15.493861 16.423958 0 16.423958"></polygon>
        <polygon id="path-3" points="0.027454 0.05724 16.987454 0.05724 16.987454 16.43 0.027454 16.43"></polygon>
        <polygon id="path-5" points="0.082574 0.01378 17.00929 0.01378 17.00929 16.4299489 0.082574 16.4299489"></polygon>
    </defs>
    <g id="Logos" stroke="none" stroke-width="1" fill="none" fill-rule="evenodd">
        <g transform="translate(-400.000000, -400.000000)" id="rara">
            <g transform="translate(400.000000, 400.000000)">
                <rect id="Area" fill="#FCE059" x="0" y="0" width="100" height="100"></rect>
                <g id="Group-12" transform="translate(15.000000, 42.000000)">
                    <g id="Group-3" transform="translate(0.000000, 0.516114)">
                        <mask id="mask-2" fill="white">
                            <use xlink:href="#path-1"></use>
                        </mask>
                        <g id="Clip-2"></g>
                        <path d="M8.769751,3.025558 C9.296571,4.064888 9.809611,5.077718 10.346501,6.136658 C10.580761,5.790568 10.789581,5.511258 10.959711,5.210748 C11.007941,5.125948 10.985151,4.949988 10.925261,4.863598 C10.616801,4.410978 10.251631,3.994398 9.971791,3.525878 C9.693011,3.060538 9.322541,2.915848 8.769751,3.025558 L8.769751,3.025558 Z M3.455441,7.492398 L7.041951,7.492398 C7.035061,7.430918 7.040891,7.391168 7.025521,7.362548 C6.326981,5.986668 5.627381,4.611318 4.921951,3.238618 C4.882201,3.161238 4.791041,3.059478 4.720551,3.056828 C4.302381,3.039868 3.883151,3.048348 3.455441,3.048348 L3.455441,7.492398 Z M3.599601,10.551558 L3.599601,16.394808 L-0.000159,16.394808 L-0.000159,0.078758 L0.369251,0.078758 C3.978551,0.078758 7.588381,0.082998 11.197681,0.0718597225 C11.496071,0.070808 11.677331,0.171508 11.850111,0.400468 C12.857641,1.735538 13.872591,3.065308 14.898141,4.386068 C15.050781,4.582698 15.070391,4.718908 14.949551,4.944158 C14.093601,6.536278 13.259911,8.139528 12.406081,9.732708 C12.287361,9.954778 12.280471,10.125438 12.397601,10.351218 C13.373331,12.231128 14.336341,14.117398 15.302001,16.002608 C15.361891,16.120268 15.411711,16.242698 15.493861,16.423958 C15.300411,16.423958 15.167381,16.423958 15.033821,16.423958 C13.984951,16.421308 12.935551,16.408588 11.886681,16.422898 C11.611611,16.426608 11.471161,16.343398 11.350321,16.090058 C10.528821,14.368618 9.680291,12.660958 8.864091,10.937398 C8.718341,10.629468 8.548741,10.537248 8.217491,10.542548 C6.831541,10.562688 5.445061,10.551558 4.058581,10.551558 L3.599601,10.551558 Z" id="Fill-1" fill="#000000" mask="url(#mask-2)"></path>
                    </g>
                    <path d="M39.473817,5.985661 C39.498197,5.992551 39.522577,5.999441 39.546957,6.006331 C39.987387,5.212921 40.428347,4.419511 40.888387,3.591121 L39.473817,3.591121 L39.473817,5.985661 Z M42.446057,7.983231 C43.534677,7.983231 44.566057,7.988531 45.596907,7.973161 C45.684357,7.972101 45.799897,7.848081 45.850247,7.753211 C46.227077,7.050961 46.597547,6.345001 46.949467,5.630031 C46.998757,5.530391 46.979147,5.340121 46.912897,5.250021 C46.534477,4.738571 46.135387,4.243551 45.737887,3.746941 C45.473417,3.416751 44.743607,3.482471 44.554397,3.851351 C43.935887,5.058691 43.318437,6.267621 42.700457,7.476551 C42.623077,7.628131 42.547287,7.781301 42.446057,7.983231 L42.446057,7.983231 Z M51.504287,16.940231 C51.323027,16.940231 51.190527,16.940761 51.058027,16.940231 C50.071697,16.939171 49.084837,16.928041 48.097977,16.9435173 C47.846227,16.947121 47.719557,16.853841 47.606667,16.643431 C46.657967,14.874821 45.696017,13.113101 44.750497,11.342371 C44.623827,11.106521 44.487617,10.999991 44.206187,11.002641 C42.744977,11.018011 41.283767,11.009531 39.822027,11.010591 C39.700127,11.010591 39.577697,11.021191 39.417107,11.028611 L39.417107,16.910551 L36.003907,16.910551 L36.003907,0.595031 L36.397697,0.595031 C40.032967,0.595031 43.667707,0.597681 47.302447,0.589728059 C47.563207,0.589201 47.734397,0.660221 47.898167,0.873281 C48.902517,2.180791 49.918527,3.478231 50.940367,4.770901 C51.090887,4.961701 51.116857,5.099501 50.993897,5.327931 C50.120457,6.952381 49.271397,8.590081 48.401667,10.216651 C48.276587,10.450381 48.269167,10.628461 48.395307,10.869081 C49.374747,12.746871 50.338287,14.633141 51.306067,16.517291 C51.367017,16.636011 51.419487,16.759501 51.504287,16.940231 L51.504287,16.940231 Z" id="Fill-4" fill="#000000"></path>
                    <g id="Group-8" transform="translate(16.960000, 0.516114)">
                        <mask id="mask-4" fill="white">
                            <use xlink:href="#path-3"></use>
                        </mask>
                        <g id="Clip-7"></g>
                        <path d="M8.569994,0.08003 C11.368924,5.5014 14.167854,10.92277 16.987454,16.38389 C16.838524,16.39714 16.744184,16.41251 16.650374,16.41304 C15.538964,16.41675 14.427554,16.40668 13.316674,16.42841 C13.019874,16.43371 12.879954,16.32718 12.750104,16.07119 C11.395424,13.4037 10.027494,10.74257 8.662214,8.08038 C8.595434,7.94947 8.521764,7.82174 8.424774,7.64472 C8.292274,7.89647 8.182564,8.10158 8.074974,8.30775 C6.722944,10.90422 5.367734,13.4991 4.024184,16.10087 C3.898044,16.34573 3.754414,16.43424 3.478814,16.4301446 C2.467574,16.41304 1.456334,16.42417 0.444564,16.42311 C0.324784,16.42258 0.205534,16.41251 0.027454,16.40403 C2.843344,10.9233 5.634854,5.49027 8.426364,0.05724 C8.474064,0.06466 8.522294,0.07208 8.569994,0.08003" id="Fill-6" fill="#000000" mask="url(#mask-4)"></path>
                    </g>
                    <g id="Group-11" transform="translate(53.000000, 0.516114)">
                        <mask id="mask-6" fill="white">
                            <use xlink:href="#path-5"></use>
                        </mask>
                        <g id="Clip-10"></g>
                        <path d="M8.548264,7.6214 C8.460284,7.77351 8.389794,7.88587 8.328844,8.00353 C6.933354,10.67844 5.535214,13.35229 4.151384,16.03356 C4.007754,16.31181 3.853524,16.43212 3.528104,16.42417 C2.541774,16.40138 1.554914,16.41675 0.568054,16.41675 C0.433434,16.41728 0.298814,16.41675 0.082574,16.41675 C2.906944,10.93443 5.698984,5.51677 8.534484,0.01378 C11.378464,5.52101 14.177394,10.94026 17.009714,16.42364 L15.143054,16.42364 C14.568534,16.42364 13.993484,16.41092 13.420024,16.42947 C13.169864,16.43742 13.047964,16.34679 12.935604,16.12684 C11.551244,13.41907 10.155224,10.7166 8.761854,8.0136 C8.700904,7.89541 8.634654,7.77987 8.548264,7.6214" id="Fill-9" fill="#000000" mask="url(#mask-6)"></path>
                    </g>
                </g>
            </g>
        </g>
    </g>
</svg>