<svg width="490" height="490" viewBox="0 0 490 490" fill="none" xmlns="http://www.w3.org/2000/svg">
<path d="M484 455.1L364.8 335.9C393.9 300.4 411.3 255.1 411.3 205.6C411.3 92.1 319.2 0 205.7 0C92.1 0 0 92.1 0 205.7C0 319.3 92.1 411.4 205.7 411.4C255.1 411.4 300.5 394 336 364.9L455.1 484C463.1 492 476 492 484 484C492 476 492 463.1 484 455.1ZM40.8 205.7C40.8 114.7 114.6 40.9 205.6 40.9C296.6 40.9 370.4 114.7 370.4 205.7C370.4 296.7 296.6 370.5 205.6 370.5C114.6 370.5 40.8 296.7 40.8 205.7V205.7Z" fill="black"/>
<path d="M168.4 186.45C170.4 199.35 180.4 215.85 196.8 221.65C203.5 224.05 210.9 224.05 217.6 221.65C233.7 215.85 244 199.45 246 186.55C248.2 186.35 251 183.35 254.1 172.45C258.3 157.55 253.8 155.35 250.1 155.75C250.8 153.65 251.4 151.65 251.7 149.65C258.1 111.15 239.1 109.75 239.1 109.75C239.1 109.75 236 103.75 227.7 99.1502C222.2 95.8502 214.4 93.3502 204.2 94.1502C200.9 94.3502 197.8 94.9502 194.9 95.9502C191.2 97.2502 187.7 99.0502 184.6 101.25C180.8 103.65 177.2 106.65 174 109.95C169 115.05 164.5 121.75 162.6 130.05C161 136.25 161.3 142.65 162.7 149.65C163.1 151.65 163.6 153.75 164.3 155.75C160.5 155.35 156 157.55 160.3 172.45C163.4 183.25 166.3 186.35 168.4 186.45Z" fill="black"/>
<path d="M276.1 238.85C253.5 230.25 240 221.35 240 221.35L222.6 276.35H223.225L212.4 261.75C230.3 236.75 211 235.55 207.7 235.55C207.7 235.55 207.7 235.55 207.6 235.55C207.6 235.55 207.6 235.55 207.5 235.55C207.5 235.55 207.5 235.55 207.4 235.55C207.3 235.55 207.4 235.55 207.3 235.55C204 235.55 184.7 236.75 202.6 261.75L228.725 287.725L240 221.35H175C175 221.35 161.5 230.15 138.9 238.85C126.7 243.25 120.9 250.45 118 261.05C121.2 265.45 124.8 269.65 128.8 273.55C172.2 316.95 242.5 316.95 285.9 273.55C289.9 269.55 293.5 265.35 296.7 261.05C294.1 250.45 288.2 243.25 276.1 238.85Z" fill="black"/>
</svg>
