<?xml version="1.0" encoding="utf-8"?>
<!-- Generator: Adobe Illustrator 23.0.1, SVG Export Plug-In . SVG Version: 6.00 Build 0)  -->
<svg version="1.1" id="Layer_1" xmlns="http://www.w3.org/2000/svg" xmlns:xlink="http://www.w3.org/1999/xlink" x="0px" y="0px"
	 viewBox="0 0 50.6 50.6" style="enable-background:new 0 0 50.6 50.6;" xml:space="preserve">
<style type="text/css">
	.st0{fill:none;stroke:#4D4D4D;stroke-width:1.5;stroke-linecap:round;stroke-linejoin:round;stroke-miterlimit:10;}
</style>
<g id="Outline_Icons_1_">
	<g>
		<path class="st0" d="M15.4,28.1c0-3-2.4-5.4-5.4-5.4s-5.4,2.4-5.4,5.4V46h10.7V28.1z"/>
		<path class="st0" d="M45.7,28.1c0-3-2.4-5.4-5.4-5.4S35,25.1,35,28.1V46h10.7V28.1z"/>
		<path class="st0" d="M15.4,29.9h8.9v0.9c0,5.5-3.8,10.1-8.9,11.3"/>
		<path class="st0" d="M35,29.9h-8.9v0.9c0,5.5,3.8,10.1,8.9,11.3"/>
		<line class="st0" x1="7.4" y1="28.1" x2="12.7" y2="28.1"/>
		<line class="st0" x1="37.7" y1="28.1" x2="43.1" y2="28.1"/>
		<path class="st0" d="M38.6,17.4c0,1-0.8,1.8-1.8,1.8H13.6c-1,0-1.8-0.8-1.8-1.8V6.7c0-1,0.8-1.8,1.8-1.8h23.2c1,0,1.8,0.8,1.8,1.8
			V17.4z"/>
		<circle class="st0" cx="25.2" cy="12" r="3.6"/>
		<line class="st0" x1="32.3" y1="8.5" x2="35.9" y2="8.5"/>
		<line class="st0" x1="14.5" y1="15.6" x2="18.1" y2="15.6"/>
	</g>
</g>
</svg>
