<?xml version="1.0" encoding="utf-8"?>
<!-- Generator: Adobe Illustrator 23.0.1, SVG Export Plug-In . SVG Version: 6.00 Build 0)  -->
<svg version="1.1" id="Layer_1" xmlns="http://www.w3.org/2000/svg" xmlns:xlink="http://www.w3.org/1999/xlink" x="0px" y="0px"
	 viewBox="0 0 50.6 50.6" style="enable-background:new 0 0 50.6 50.6;" xml:space="preserve">
<style type="text/css">
	.st0{fill:none;stroke:#4D4D4D;stroke-width:1.5;stroke-linecap:round;stroke-linejoin:round;stroke-miterlimit:10;}
</style>
<circle class="st0" cx="25.3" cy="11" r="4.3"/>
<circle class="st0" cx="37.4" cy="12.8" r="2.6"/>
<circle class="st0" cx="13.2" cy="12.8" r="2.6"/>
<path class="st0" d="M34,36.5c6.7,0.6,11.2,1.7,11.2,3.1c0,1.9-8.9,3.5-19.9,3.5c-11,0-19.9-1.5-19.9-3.5c0-1.4,4.6-2.5,11.2-3.1"/>
<path class="st0" d="M29.6,34.4H21V23.1c0-2.4,1.9-4.3,4.3-4.3s4.3,1.9,4.3,4.3V34.4z"/>
<path class="st0" d="M40,30.9h-5.2v-9.5c0-1.4,1.2-2.6,2.6-2.6S40,20,40,21.4V30.9z"/>
<path class="st0" d="M15.8,30.9h-5.2v-9.5c0-1.4,1.2-2.6,2.6-2.6s2.6,1.2,2.6,2.6V30.9z"/>
</svg>
