<?xml version="1.0" encoding="UTF-8"?>
<svg width="100px" height="100px" viewBox="0 0 100 100" version="1.1" xmlns="http://www.w3.org/2000/svg" xmlns:xlink="http://www.w3.org/1999/xlink">
    <title>troop</title>
    <defs>
        <polygon id="path-1" points="8.55521819e-05 0.100984039 63.3206167 0.100984039 63.3206167 63.36 8.55521819e-05 63.36"></polygon>
    </defs>
    <g id="Logos" stroke="none" stroke-width="1" fill="none" fill-rule="evenodd">
        <g transform="translate(-100.000000, -400.000000)" id="troop">
            <g transform="translate(100.000000, 400.000000)">
                <rect id="Area" fill="#FCE059" x="0" y="0" width="100" height="100"></rect>
                <g id="Group-14" transform="translate(18.000000, 19.000000)">
                    <g id="Group-3" transform="translate(0.000000, 0.119020)">
                        <mask id="mask-2" fill="white">
                            <use xlink:href="#path-1"></use>
                        </mask>
                        <g id="Clip-2"></g>
                        <path d="M8.048744,28.495346 C9.613824,27.081406 10.963304,25.862606 12.461284,24.509166 C11.579964,24.129006 10.902144,23.836626 10.112784,23.496066 C9.396904,25.230106 8.751424,26.792986 8.048744,28.495346 L8.048744,28.495346 Z M54.776084,28.490286 C54.925684,28.408006 55.075284,28.325506 55.224664,28.243226 C54.573244,26.702566 53.921604,25.162126 53.210344,23.480666 C52.416804,23.844766 51.770664,24.141326 50.929384,24.527426 C52.338044,25.978546 53.557064,27.234306 54.776084,28.490286 L54.776084,28.490286 Z M24.420924,12.444146 C25.824964,11.012166 27.120764,9.690846 28.416784,8.369526 C28.383784,8.301766 28.350784,8.234226 28.317784,8.166686 C26.720364,8.839666 25.122944,9.512646 23.424324,10.228306 C23.803824,11.072666 24.089164,11.706926 24.420924,12.444146 L24.420924,12.444146 Z M39.927404,10.186066 C38.186104,9.481846 36.641264,8.856826 35.095984,8.232026 C35.038564,8.331026 34.980704,8.429806 34.923064,8.528806 C36.205884,9.805906 37.488924,11.083006 38.907264,12.494746 C39.255744,11.706486 39.531844,11.080806 39.927404,10.186066 L39.927404,10.186066 Z M28.287204,55.282766 C27.142324,54.042186 25.809564,52.597886 24.400684,51.071086 C24.083664,51.842186 23.802284,52.525946 23.476904,53.317286 C25.286624,54.056706 26.920124,54.724186 28.287204,55.282766 L28.287204,55.282766 Z M12.404964,38.977246 C10.894884,37.475526 9.524064,36.112406 7.807844,34.405646 C8.657264,36.472766 9.342344,38.140146 10.090124,39.959986 C10.909844,39.611946 11.601524,39.318246 12.404964,38.977246 L12.404964,38.977246 Z M55.341044,34.912306 C53.900924,36.278286 52.518884,37.589266 51.063804,38.969546 C51.744704,39.274026 52.421424,39.576526 53.255004,39.949206 C54.001024,38.148286 54.667624,36.538546 55.341044,34.912306 L55.341044,34.912306 Z M38.916284,50.938206 C37.367924,52.453786 35.993804,53.798866 34.619684,55.143946 C34.667864,55.231066 34.716264,55.318186 34.764444,55.405306 C36.450084,54.702846 38.135504,54.000166 39.912224,53.259646 C39.536904,52.385146 39.263004,51.746706 38.916284,50.938206 L38.916284,50.938206 Z M54.449384,40.413406 C56.675564,41.327286 58.810664,42.203766 61.459904,43.291226 C60.012964,39.797846 58.783604,36.829826 57.371864,33.421806 C56.334124,35.904506 55.472384,37.965686 54.449384,40.413406 L54.449384,40.413406 Z M9.399104,21.827586 C10.362484,19.486786 11.226424,17.386666 12.290784,14.799686 C8.824024,16.234746 5.836424,17.471146 2.401564,18.892786 C4.976224,19.972546 7.081624,20.855626 9.399104,21.827586 L9.399104,21.827586 Z M57.378024,30.064386 C58.815724,26.567706 60.045524,23.577246 61.477504,20.094426 C58.832224,21.198826 56.694484,22.091146 54.446744,23.029666 C55.429264,25.387626 56.313444,27.509526 57.378024,30.064386 L57.378024,30.064386 Z M19.999584,1.944866 C21.121364,4.623146 22.024904,6.780686 22.961664,9.016986 C25.251864,8.051406 27.351764,7.166126 29.924224,6.081966 C26.482984,4.647566 23.510124,3.408306 19.999584,1.944866 L19.999584,1.944866 Z M60.982284,18.900486 C57.494404,17.465206 54.478204,16.224406 51.016944,14.800346 C52.114304,17.408226 52.997604,19.508566 53.958564,21.792386 C56.230284,20.856946 58.341184,19.987946 60.982284,18.900486 L60.982284,18.900486 Z M44.513304,2.485846 C43.463684,5.037406 42.570924,7.206386 41.618764,9.520126 C43.927004,10.466566 46.032404,11.329846 48.618284,12.390466 C47.174644,8.906986 45.922404,5.885726 44.513304,2.485846 L44.513304,2.485846 Z M40.432524,54.474706 C38.068844,55.454586 35.903164,56.352846 33.366564,57.404666 C36.807364,58.819926 39.835004,60.065566 43.337184,61.506346 C42.262484,58.904626 41.391944,56.796806 40.432524,54.474706 L40.432524,54.474706 Z M22.947584,54.507926 C22.015004,56.790206 21.147984,58.911886 20.089124,61.503266 C23.627604,60.031246 26.600684,58.794186 29.963384,57.395206 C27.419744,56.348226 25.262424,55.460526 22.947584,54.507926 L22.947584,54.507926 Z M21.742864,9.493946 C20.760564,7.124326 19.882984,5.006606 18.821484,2.445146 C17.374764,5.955246 16.147384,8.933386 14.726844,12.379246 C17.304144,11.319286 19.400304,10.457326 21.742864,9.493946 L21.742864,9.493946 Z M8.917964,23.000406 C6.571004,22.037466 4.469784,21.175286 1.851564,20.100806 C3.312144,23.606726 4.555144,26.590586 5.989104,30.032266 C7.072384,27.431646 7.953264,25.315906 8.917964,23.000406 L8.917964,23.000406 Z M48.645564,51.073286 C45.983124,52.179006 43.875304,53.054386 41.623384,53.989606 C42.606344,56.333266 43.499764,58.463526 44.544984,60.955906 C45.957604,57.550746 47.197964,54.561826 48.645564,51.073286 L48.645564,51.073286 Z M8.904324,40.452126 C7.907944,38.065126 7.026844,35.954006 5.975464,33.435006 C4.541504,36.897366 3.293884,39.908946 1.854644,43.383626 C4.484744,42.289786 6.593444,41.412866 8.904324,40.452126 L8.904324,40.452126 Z M2.317744,44.584826 C5.738084,45.989086 8.793004,47.243306 11.848144,48.497306 C11.931524,48.371906 12.015124,48.246286 12.098724,48.120886 C11.212124,46.022086 10.325524,43.923286 9.374904,41.673786 C7.033884,42.639586 4.865124,43.534106 2.317744,44.584826 L2.317744,44.584826 Z M43.349064,1.957626 C39.825104,3.412486 36.837504,4.646026 33.349184,6.086366 C35.975544,7.172506 38.128024,8.062626 40.414264,9.007966 C41.363564,6.727446 42.245324,4.609066 43.349064,1.957626 L43.349064,1.957626 Z M14.705064,51.080986 C16.163224,54.584046 17.419424,57.601786 18.854704,61.049846 C19.924124,58.458906 20.815784,56.298286 21.768604,53.990266 C19.480604,53.048006 17.354744,52.172406 14.705064,51.080986 L14.705064,51.080986 Z M61.033764,44.546986 C58.475604,43.497586 56.271204,42.593166 53.957684,41.643866 C52.986164,43.982466 52.109244,46.093366 51.035424,48.678586 C54.549044,47.226806 57.599124,45.966206 61.033764,44.546986 L61.033764,44.546986 Z M61.568584,40.138846 L61.878124,40.014546 L61.878124,23.292786 C60.518304,25.802766 59.431504,28.353886 58.403884,30.928766 C58.240424,31.338186 58.190264,31.913926 58.346684,32.310806 C59.381344,34.935626 60.486624,37.532726 61.568584,40.138846 L61.568584,40.138846 Z M46.672824,59.227586 C50.953144,54.947706 54.924804,50.976046 59.158044,46.743026 C56.187824,47.956986 53.509544,49.042906 50.842264,50.156326 C50.587284,50.262586 50.306124,50.497986 50.201844,50.743286 C49.053444,53.451266 47.937384,56.172666 46.672824,59.227586 L46.672824,59.227586 Z M4.466924,46.855666 C8.486544,50.926106 12.418164,54.907446 16.673184,59.216366 C15.413464,56.170906 14.322484,53.496806 13.186844,50.841626 C13.063864,50.553646 12.721324,50.288546 12.417944,50.160066 C9.804564,49.051266 7.176884,47.976346 4.466924,46.855666 L4.466924,46.855666 Z M23.239304,61.578066 C23.261084,61.688946 23.283304,61.799826 23.305304,61.910706 L40.064244,61.910706 C37.472644,60.494786 34.810424,59.386206 32.131264,58.319206 C31.838004,58.202386 31.411204,58.232086 31.110024,58.352646 C28.478164,59.407326 25.860824,60.498086 23.239304,61.578066 L23.239304,61.578066 Z M1.743544,23.264846 C1.640804,23.285086 1.538284,23.305326 1.435544,23.325566 L1.435544,40.118606 C2.870604,37.523926 3.986444,34.858846 5.044424,32.171106 C5.178844,31.829446 5.110864,31.327406 4.965444,30.969466 C3.916264,28.391066 2.822864,25.830926 1.743544,23.264846 L1.743544,23.264846 Z M59.168164,16.797946 C54.862544,12.436006 50.921244,8.443446 46.980164,4.451106 C47.894484,7.245326 49.015384,9.966726 50.156744,12.679326 C50.241664,12.880846 50.444064,13.091826 50.643604,13.177626 C53.352464,14.342966 56.070564,15.486966 59.168164,16.797946 L59.168164,16.797946 Z M16.607184,4.484326 C12.523104,8.585786 8.571024,12.554806 4.547004,16.596206 C7.170064,15.512926 9.747584,14.459346 12.312564,13.375626 C12.621444,13.245166 12.991264,13.008886 13.114024,12.726406 C14.292344,10.021506 15.423364,7.296146 16.607184,4.484326 L16.607184,4.484326 Z M40.334844,1.807146 C40.324724,1.700886 40.314824,1.594626 40.304924,1.488366 L23.010504,1.488366 C25.702644,2.923426 28.467384,4.088106 31.255664,5.192726 C31.582804,5.322086 32.074064,5.204826 32.432444,5.060726 C35.074644,3.996366 37.702324,2.896146 40.334844,1.807146 L40.334844,1.807146 Z M10.656184,22.154946 C13.370764,23.686806 13.366804,23.682846 15.296864,21.737606 C17.479484,19.538266 19.674864,17.351466 21.855724,15.150366 C23.681284,13.307866 23.678864,13.241866 22.023804,10.753886 C19.588844,11.775126 17.115164,12.769526 14.688564,13.867106 C14.217764,14.080066 13.798444,14.638866 13.579984,15.136726 C12.576564,17.420986 11.653004,19.740006 10.656184,22.154946 L10.656184,22.154946 Z M41.272264,10.748166 C39.763284,13.482326 39.776264,13.469126 41.710284,15.374546 C43.870464,17.503266 46.001604,19.661466 48.150124,21.802066 C50.115604,23.760066 50.242984,23.766666 52.654184,22.077726 C51.670564,19.693146 50.712904,17.270066 49.654924,14.891426 C49.440864,14.409846 48.912864,13.949166 48.418304,13.730706 C46.084544,12.699786 43.711844,11.756206 41.272264,10.748166 L41.272264,10.748166 Z M10.629564,41.256446 C11.665324,43.761806 12.644324,46.178946 13.675244,48.573866 C13.847504,48.974486 14.176844,49.436926 14.551944,49.600386 C17.044544,50.686966 19.569044,51.700066 22.046904,52.721746 C23.786004,50.164246 23.761144,49.980766 21.895544,48.139146 C19.778704,46.049146 17.692004,43.929006 15.587044,41.827126 C13.540164,39.783326 13.537524,39.785966 10.629564,41.256446 L10.629564,41.256446 Z M52.672664,41.343566 C50.062584,39.628886 50.020124,39.642086 48.118884,41.555646 C45.936484,43.751906 43.734284,45.928586 41.541764,48.114726 C39.620724,50.030706 39.618304,50.077346 41.333204,52.703486 C43.815024,51.672786 46.332044,50.641206 48.831904,49.570686 C49.123404,49.445726 49.423704,49.147846 49.548004,48.856786 C50.615884,46.352306 51.644164,43.831326 52.672664,41.343566 L52.672664,41.343566 Z M8.532964,31.525846 C16.250344,39.294486 24.039664,47.135506 31.842844,54.990606 C39.559344,47.249466 47.333484,39.450686 54.977824,31.782146 C47.201044,23.955426 39.404904,16.109566 31.559484,8.213766 C23.862124,16.006606 16.124724,23.840146 8.532964,31.525846 L8.532964,31.525846 Z M31.610304,63.340926 C27.793524,63.340926 23.974984,63.407806 20.161724,63.291426 C19.264344,63.263926 18.168964,62.841086 17.532944,62.221786 C12.023264,56.856646 6.577164,51.425726 1.176604,45.950586 C0.580624,45.346466 0.067144,44.347226 0.058784,43.525746 C-0.021076,35.773826 -0.022616,28.020366 0.073744,20.268666 C0.085404,19.336526 0.587664,18.193406 1.244144,17.520426 C6.570344,12.059146 11.959464,6.658146 17.412824,1.324246 C18.086904,0.664906 19.246304,0.177826 20.187464,0.166606 C27.878004,0.075306 35.570524,0.084986 43.261504,0.160446 C44.101244,0.168586 45.144044,0.573166 45.739364,1.155286 C51.365204,6.655726 56.932744,12.216226 62.454744,17.820946 C62.962724,18.337066 63.272264,19.278226 63.277764,20.024686 C63.336064,27.896946 63.334084,35.770086 63.276664,43.642566 C63.272044,44.319506 62.920264,45.159026 62.444624,45.642146 C57.008424,51.165906 51.548244,56.667226 46.000944,62.078786 C45.293204,62.769146 44.065164,63.222126 43.059324,63.257766 C39.247164,63.393506 35.427304,63.312546 31.610304,63.312546 L31.610304,63.340926 Z" id="Fill-1" fill="#000000" mask="url(#mask-2)"></path>
                    </g>
                    <path d="M24.952444,26.870382 C24.769404,26.949142 24.586364,27.028122 24.403324,27.107102 C24.403324,28.086762 24.328964,29.075442 24.448204,30.040362 C24.484284,30.332742 25.055624,30.558902 25.381664,30.815202 C25.523124,29.924422 25.774804,29.031442 25.757864,28.143522 C25.749724,27.714082 25.236904,27.294542 24.952444,26.870382 M24.396724,32.886502 C24.396724,34.285922 24.462504,35.690402 24.359104,37.082122 C24.325004,37.539502 23.852004,37.964322 23.579644,38.403882 C23.258224,37.950242 22.669724,37.503422 22.658064,37.041862 C22.577764,33.888382 22.592284,30.731602 22.636724,27.576582 C22.649484,26.662262 22.185284,25.444782 23.798324,25.243922 C25.730804,25.003682 27.147164,25.716482 27.495864,27.211822 C27.562524,27.498702 27.580344,27.802742 27.580564,28.098862 C27.582544,31.042462 27.614444,33.986942 27.534804,36.928562 C27.521384,37.431042 27.021764,37.920542 26.746764,38.415762 C26.430624,37.897002 25.931004,37.408382 25.839484,36.852662 C25.686584,35.924922 25.862804,34.946802 25.763804,34.004322 C25.715404,33.543202 25.360104,33.113982 25.143404,32.670462 C24.894364,32.742402 24.645544,32.814562 24.396724,32.886502" id="Fill-4" fill="#000000"></path>
                    <path d="M31.81046,31.817918 L31.83026,31.817918 C31.83026,30.574918 31.8846,29.327738 31.79616,28.091118 C31.77042,27.734278 31.33438,27.406918 31.08666,27.065918 C30.85412,27.361598 30.42578,27.653318 30.42006,27.953178 C30.37012,30.556218 30.37342,33.161018 30.43172,35.764058 C30.4381,36.050718 30.88888,36.327698 31.13352,36.609078 C31.35902,36.314058 31.76228,36.028938 31.77944,35.722258 C31.85248,34.424258 31.81046,33.119878 31.81046,31.817918 L31.81046,31.817918 Z M28.64356,31.820338 C28.64356,30.450618 28.5857,29.077818 28.6594,27.712058 C28.7397,26.226618 29.86038,25.140258 31.1817,25.259058 C32.62072,25.388198 33.50028,26.240258 33.53262,27.698418 C33.59466,30.496378 33.62722,33.298958 33.53526,36.095158 C33.4884,37.517238 32.60796,38.420118 31.11086,38.405158 C29.64896,38.390418 28.75312,37.582358 28.66974,36.107698 C28.58922,34.682758 28.65236,33.249898 28.65236,31.820338 L28.64356,31.820338 Z" id="Fill-6" fill="#000000"></path>
                    <path d="M37.799014,31.877736 L37.814414,31.877736 C37.814414,30.749356 37.888554,29.613496 37.779654,28.495676 C37.732794,28.015416 37.305994,27.571896 37.051894,27.111656 C36.831674,27.597196 36.435894,28.077676 36.420934,28.569156 C36.353394,30.824376 36.359774,33.083336 36.421594,35.338996 C36.433254,35.766016 36.816274,36.183136 37.027914,36.604656 C37.285094,36.216796 37.729274,35.844556 37.763594,35.437776 C37.863474,34.258576 37.799014,33.065296 37.799014,31.877736 L37.799014,31.877736 Z M39.609834,31.946596 C39.609834,33.195536 39.655154,34.446236 39.599054,35.692536 C39.519194,37.461556 38.504554,38.467836 36.966534,38.402716 C35.514094,38.341556 34.691294,37.388296 34.670174,35.608496 C34.639814,33.052096 34.673254,30.494816 34.669294,27.937976 C34.667094,26.383236 35.438194,25.443176 36.959934,25.272896 C38.359134,25.116036 39.460454,26.212516 39.559454,27.845356 C39.641954,29.207816 39.576394,30.579296 39.576394,31.946596 L39.609834,31.946596 Z" id="Fill-8" fill="#000000"></path>
                    <path d="M43.100926,26.90743 C42.909966,27.01281 42.719226,27.11819 42.528046,27.22357 L42.528046,30.99547 C44.252626,30.63005 43.664786,29.39717 43.693826,28.57503 C43.713186,28.02679 43.313226,27.46381 43.100926,26.90743 M42.303866,33.01023 C42.303866,34.35905 42.370086,35.77827 42.263606,37.18429 C42.231706,37.60933 41.721746,37.99807 41.430686,38.40353 C41.171746,38.01831 40.694786,37.63705 40.687966,37.24721 C40.624386,33.67507 40.611406,30.10117 40.677846,26.52947 C40.685766,26.10069 41.217066,25.36039 41.573466,25.31683 C42.927346,25.15095 44.378686,25.06119 45.200606,26.54113 C46.597826,29.05727 45.279366,32.19535 42.303866,33.01023" id="Fill-10" fill="#000000"></path>
                    <path d="M20.371956,25.218776 C20.587996,25.294236 21.163516,25.495316 21.739036,25.696396 C21.462936,26.169616 21.120616,26.617976 20.931416,27.123756 C20.771036,27.551656 20.738256,28.045776 20.734736,28.510856 C20.713836,31.366896 20.750356,34.223816 20.678636,37.078316 C20.667196,37.527336 20.203216,37.965136 19.948456,38.408216 C19.619776,37.968876 19.022476,37.538996 19.006416,37.088436 C18.915116,34.533136 18.995636,31.972116 18.946356,29.414616 C18.927436,28.439136 19.433216,27.218356 18.014656,26.697616 C18.186696,26.234956 18.235756,25.615436 18.567076,25.355836 C18.872436,25.116256 19.480736,25.262776 20.371956,25.218776" id="Fill-12" fill="#000000"></path>
                </g>
            </g>
        </g>
    </g>
</svg>