<?xml version="1.0" encoding="UTF-8"?>
<svg width="100px" height="100px" viewBox="0 0 100 100" version="1.1" xmlns="http://www.w3.org/2000/svg" xmlns:xlink="http://www.w3.org/1999/xlink">
    <!-- Generator: Sketch 59 (86127) - https://sketch.com -->
    <title>yndu</title>
    <desc>Created with Sketch.</desc>
    <defs>
        <polygon id="path-1" points="0.00440185768 0.0122552773 19.5661197 0.0122552773 19.5661197 20.7936 0.00440185768 20.7936"></polygon>
        <polygon id="path-3" points="0.00391121619 0.005994405 9.35906518 0.005994405 9.35906518 13.2619982 0.00391121619 13.2619982"></polygon>
    </defs>
    <g id="Logos" stroke="none" stroke-width="1" fill="none" fill-rule="evenodd">
        <g transform="translate(0.000000, -200.000000)" id="yndu">
            <g transform="translate(0.000000, 200.000000)">
                <rect id="Area" fill="#FCE059" x="0" y="0" width="100" height="100"></rect>
                <g id="logo" transform="translate(6.000000, 33.000000)">
                    <path d="M1.6245e-06,8.65595981 C0.364230769,8.41974126 0.461717014,8.49636893 0.996096289,8.62840829 C1.62635355,8.78416535 2.24286755,8.98831626 2.87089925,9.15520115 C4.07428011,9.47495148 5.25490173,9.87206051 6.46513799,10.1676708 C6.8050971,10.250699 7.6475628,10.2810771 7.83728816,10.5595976 C8.08954052,10.9299349 7.86758508,12.2109831 7.87172756,12.6489158 C7.88667296,14.2253956 7.90977335,15.8294756 8.18584088,17.3852593 C8.6835227,20.1899261 10.2230938,22.6042417 12.2798733,24.5398497 C13.3045267,25.5041204 14.4763435,26.299963 15.7306687,26.9349475 C16.3507728,27.2488659 16.9937987,27.5198325 17.653037,27.7402447 C18.2124173,27.9272733 18.9184738,27.969949 19.4407018,28.2250117 C19.4906227,28.3040924 19.911953,28.4551384 19.9122779,28.5240984 C19.849491,28.6948496 18.2985158,28.8269052 18.1196421,28.8485598 C17.5765068,28.9142871 17.0252327,28.949425 16.4779874,28.9430407 C15.0713816,28.926617 13.6483521,28.7192496 12.298019,28.3249185 C9.71309831,27.570062 7.20345699,26.0918645 5.33256908,24.1458272 C3.43859702,22.1757961 2.56539578,19.2184426 1.79244243,16.663364 C1.38740585,15.3245161 1.04143608,13.9691632 0.706919044,12.6112762 C0.544599004,11.9523627 0.380768179,11.2933843 0.243156784,10.6287689 C0.148107289,10.1697501 0.216303799,9.23584133 1.6245e-06,8.84310221 L1.6245e-06,8.65595981 Z" id="Fill-1" fill="#000000"></path>
                    <g id="Group-5" transform="translate(20.419965, 8.278939)">
                        <mask id="mask-2" fill="white">
                            <use xlink:href="#path-1"></use>
                        </mask>
                        <g id="Clip-4"></g>
                        <path d="M13.7334661,1.28248914 C14.8351208,1.00617794 15.9327467,0.715376191 17.0333942,0.435523577 C17.5195746,0.311899126 19.1271473,-0.277794374 19.5661197,0.189882931 C19.5661197,1.28775252 19.1181476,2.40297177 18.8181674,3.44521848 C18.4885238,4.59049098 18.1619181,5.73467507 17.7995084,6.87026555 C17.0646983,9.17276687 16.271325,11.4837968 15.2420418,13.673168 C14.2718417,15.7368515 12.9973402,17.4216692 11.080414,18.6911997 C10.0845955,19.3506817 9.00475783,19.8986743 7.86083366,20.2472108 C7.32893987,20.4092872 6.7848136,20.5460863 6.23594378,20.6353688 C5.99810074,20.6740482 4.78263359,20.6288871 4.62591808,20.7755469 C3.32248426,20.7755469 1.83468593,20.9057669 0.581059283,20.4667457 C0.589133048,20.4695724 -0.180360112,20.2605479 0.0461439225,20.07105 C0.153783293,19.9809877 0.372376013,20.1441363 0.468465188,20.1280862 C1.03057468,20.0342713 1.58563384,19.9263071 2.1410179,19.7881596 C4.78619125,19.1302371 7.2052342,17.978093 9.04655621,15.9179183 C10.762678,13.9978405 11.7199634,11.6875578 11.8717404,9.12287847 C11.9539726,7.73355734 11.9441444,6.31725326 11.8801553,4.92744477 C11.8637479,4.57096449 11.4463488,1.82872727 11.5867381,1.7428562 C12.3218081,1.63926183 13.0360033,1.54411487 13.7334661,1.28248914" id="Fill-3" fill="#000000" mask="url(#mask-2)"></path>
                    </g>
                    <g id="Group-8" transform="translate(15.140340, 0.010234)">
                        <mask id="mask-4" fill="white">
                            <use xlink:href="#path-3"></use>
                        </mask>
                        <g id="Clip-7"></g>
                        <path d="M0.012914775,7.6851911 C0.476612055,7.27536224 0.761062005,6.38414529 1.07090289,5.8350318 C1.45790753,5.1491679 1.84366129,4.46228057 2.24436047,3.78427925 C2.97545045,2.54723874 3.6833913,1.08730059 4.6343736,0.005984658 L4.6967544,0.005984658 C5.72403946,1.22424594 6.41992653,2.95030968 7.2015872,4.33818501 C7.60587651,5.05603532 8.00798899,5.77541265 8.3898927,6.5054792 C8.57622285,6.86169956 8.9503452,8.15400555 9.35052453,8.2488926 C9.51009916,8.55085466 7.38393732,10.5696695 7.11916007,10.8639965 C6.6874167,11.3439387 5.30452859,13.3907762 4.68468436,13.2556016 C4.3470158,13.181963 3.80511509,12.2533501 3.59678921,12.0090253 C3.13177608,11.4636481 2.66601569,10.9189208 2.20135995,10.3732675 C1.93130307,10.0561326 -0.14932404,8.02307085 0.012914775,7.6851911" id="Fill-6" fill="#555555" mask="url(#mask-4)"></path>
                    </g>
                    <path d="M32.006695,10.0217923 C31.9846343,10.2740609 32.1970052,10.8031281 32.2196182,11.1031895 C32.2499964,11.5063091 32.2949463,11.9083404 32.3253082,12.3115575 C32.4111955,13.4522814 32.4069016,14.5913159 32.4069016,15.7350938 C32.4066794,17.9288674 32.1982723,20.0245211 31.1172813,21.9821573 C30.0669445,23.8843006 28.5493529,25.4878933 26.6682631,26.5864127 C25.824644,27.0790585 24.9210484,27.4522549 23.9908922,27.7478489 C22.8952806,28.0960443 21.6185698,28.5838166 20.4908094,28.3679693 C20.3846809,28.2685499 20.4121999,28.1560371 20.4583519,28.041721 C23.5759299,26.6376819 25.9910253,23.1331968 26.7813608,19.908613 C27.2124544,18.1497181 27.3318389,16.3731487 26.8872132,14.6066674 C26.6480868,13.6566598 26.3055772,12.7383787 25.940146,11.8307705 C25.6794624,11.183326 24.8840098,10.0466959 24.8863166,9.35475635 C25.1237697,8.69806847 26.0091872,8.03873266 26.4814456,7.51060771 C27.0376419,6.88865164 27.5934971,6.2664194 28.1498396,5.64459329 C28.7019909,5.02747823 29.2489438,4.4053922 29.807853,3.79436902 C30.1202606,3.45283414 30.6674247,2.54090482 31.0695534,2.38441673 C31.3598678,2.91600187 31.2946279,4.03023017 31.3843003,4.64120462 C31.4907213,5.36621897 31.5910667,6.09243545 31.6878219,6.81881438 C31.8297057,7.88399903 31.8946695,8.95392722 32.006695,10.0217923" id="Fill-9" fill="#222222"></path>
                    <path d="M31.0695616,2.38441348 C31.0386636,2.85704551 30.1255159,3.56446653 29.8273389,3.89360647 C29.3361064,4.43584833 28.8467257,4.97979591 28.3583685,5.52463696 C27.4031463,6.5903577 26.4538697,7.66142304 25.5011167,8.72936934 C25.129821,9.14554999 25.0743281,9.40639596 24.8363551,9.84681415 C24.5144279,10.442567 23.6817417,11.0817103 23.2259395,11.5955722 C22.7462409,12.1363845 22.2667697,12.6772617 21.7840658,13.2153936 C21.3650098,13.6825836 20.4991025,14.3112163 20.61298,15.0246805 C20.4309385,16.0270295 20.6630471,17.2421392 20.6807379,18.2610419 C20.6986399,19.292047 20.6600255,20.3079931 20.6639243,21.3412076 C20.6683754,22.5230151 20.6695451,23.704254 20.653625,24.8859803 C20.6475331,25.3389071 20.9125865,27.9147468 20.5213094,28.0552011 C20.439857,28.1402274 20.4954961,28.3520622 20.4627625,28.4629993 C20.2788853,28.5154382 20.0943096,28.5182973 19.9052503,28.5190283 C19.6386211,28.4173509 19.4879325,28.5860552 19.4077797,28.2723155 C19.0735713,27.9733101 19.1844109,27.0237411 19.1688644,26.6398555 C19.396928,25.9472337 19.1983816,24.7330174 19.1983979,23.9966803 C19.1984141,22.9605579 19.1984141,21.9244356 19.1984303,20.888297 C19.1984303,19.8521909 19.1984466,18.8160523 19.1984953,17.7799299 C19.1985278,17.2273238 19.198739,16.6747339 19.1985928,16.1221439 C19.1985278,15.8684945 19.3079704,15.2402354 19.175931,14.9996957 C19.2740021,13.8520027 17.5677085,12.4893883 16.8989506,11.7029516 C16.0343592,10.6861933 15.1808307,9.68220357 14.4207921,8.60623224 C13.6466854,7.51034454 12.5661329,6.51686532 11.6479168,5.54068702 C11.0972113,4.95520098 10.5279865,4.38756819 9.95661736,3.82237215 C9.59724547,3.46688281 9.06905554,3.11550346 8.82614405,2.66784 C8.80814459,2.6506203 8.81503247,2.62147677 8.79592835,2.60477691 C8.65947035,1.99341258 9.59875625,2.04359338 9.92534573,2.23778611 C10.429753,2.53773379 10.8914196,3.1563109 11.2996402,3.5712082 C12.4173937,4.70730228 13.4730588,5.90153721 14.5573638,7.06903287 C15.4627139,8.04383034 16.3156901,9.06287919 17.1794043,10.0756087 C17.670117,10.6509904 18.161512,11.2258035 18.6530045,11.8005353 C18.8526393,12.0339922 19.5009772,13.0843452 19.7933385,13.1731566 C20.4140924,13.3617448 21.928825,11.1301042 22.3542328,10.6565462 C23.2423632,9.66789172 24.1249703,8.6742663 25.0119148,7.68507576 C26.1150965,6.45474444 27.2181807,5.22434814 28.3213137,3.99395184 C28.619312,3.66156289 30.7652927,0.646653344 31.0695616,2.38441348" id="Fill-11" fill="#FCE059"></path>
                    <path d="M19.3746366,27.9295801 C19.4205775,28.0382592 19.4316241,28.1525103 19.4077764,28.2723171 C14.5602684,27.3141708 9.83316835,23.6102296 8.42323231,18.7448196 C7.71015804,16.2841082 7.82738196,13.6542864 7.76732419,11.1211061 C7.73551648,9.77957772 7.9913265,8.40627416 8.16245133,7.07761185 C8.26823877,6.25624841 8.38019931,5.43574595 8.50692655,4.61735534 C8.59893823,4.02316197 8.59326873,3.21960305 8.82617329,2.66792285 C10.0049267,3.48127751 11.0310259,4.76453504 12.0006087,5.81089173 C12.8913058,6.77210838 13.9157805,7.73025473 14.6632942,8.80668092 C14.7105509,9.17887011 14.2427599,9.7911929 14.0897157,10.1166777 C13.9040191,10.5115937 13.725779,10.9096449 13.5626955,11.3144703 C13.2028687,12.2076529 12.9017026,13.1366232 12.7773309,14.0948183 C12.5459047,15.8778208 12.8835407,17.8060698 13.3664559,19.524937 C13.8424831,21.219323 14.6049259,22.8204139 15.6310576,24.2507699 C16.1264489,24.9413449 16.6761472,25.5942802 17.2838401,26.1888309 C17.9290753,26.8201279 18.7598283,27.2842638 19.3746366,27.9295801" id="Fill-13" fill="#222222"></path>
                    <path d="M8.79614567,2.60477691 C8.85373681,2.63249458 8.89723822,2.66348376 8.89579174,2.70477691 C8.83005748,2.67893971 8.79191339,2.64673981 8.79614567,2.60477691" id="Fill-15" fill="#BCBCBC"></path>
                    <path d="M20.5213062,28.0552011 C20.624998,27.8843037 20.5847592,27.7289203 20.6610457,27.5509563 C20.8566842,27.0946505 21.2252508,26.6794608 21.5040637,26.2647747 C22.1617913,25.2864845 22.7084193,24.311752 22.9442967,23.1442239 C23.4005212,20.8861201 22.9890679,18.4234919 21.6667899,16.5237203 C21.3208363,16.0266883 20.4191414,15.3295017 20.5257411,14.6711405 C20.6262489,14.0503216 21.5301207,13.3788345 21.9274084,12.9365482 C22.9645054,11.7819998 24.1552315,10.6396514 24.9539819,9.34731289 C24.9340655,9.63653887 25.3538688,10.2296926 25.467795,10.4926179 C25.6865664,10.9975937 25.8968904,11.5070694 26.1018698,12.0177635 C26.4807032,12.9615655 26.8189566,13.9268759 27.0431214,14.9201764 C27.4499286,16.7227541 27.236778,18.6155403 26.7404932,20.3801859 C26.2215467,22.2254717 25.3032169,23.8810646 23.9887689,25.2724813 C23.5172416,25.7715927 23.0298103,26.2502354 22.5161759,26.7052578 C22.0908169,27.0820769 21.1317933,28.0749713 20.5213062,28.0552011" id="Fill-17" fill="#303030"></path>
                    <path d="M19.3746366,27.9295801 C17.9760233,27.3699236 16.6450218,25.7310143 15.7686365,24.5664428 C14.6781746,23.1173725 13.8588905,21.4809812 13.3439078,19.7417752 C12.8743136,18.1558571 12.5352479,16.3502579 12.6341313,14.6846093 C12.7006383,13.5644028 13.0227117,12.4671343 13.433304,11.4289813 C13.7740104,10.5675414 14.4273843,9.68681877 14.6632942,8.80669716 C14.8548228,9.37428122 15.4002649,9.82100247 15.7848165,10.2750015 C16.4108013,11.0140678 17.0390605,11.7512171 17.6651753,12.4901534 C18.1486752,13.0607753 18.8855971,13.6750962 19.1570023,14.3818512 C19.4962629,15.2653518 18.5426327,16.062169 18.1553356,16.7970116 C17.206985,18.5963078 17.0367537,20.7161991 17.5381556,22.6752324 C17.8165462,23.7629163 18.3424943,24.8109463 18.8368459,25.8140588 C18.9978501,26.1407782 19.2136162,26.4574907 19.2752497,26.8201441 C19.3403272,27.2030388 19.2120079,27.5598439 19.3746366,27.9295801" id="Fill-19" fill="#303030"></path>
                    <path d="M20.5253122,14.9571955 C21.1884006,15.9631346 22.0560298,16.7668235 22.5414629,17.9055168 C22.9664971,18.9025537 23.1592603,20.0519037 23.1955841,21.1352502 C23.2815201,23.697639 22.0932958,25.6983408 20.6135875,27.6859652 C20.2728324,26.9740769 20.5626919,25.597508 20.5793106,24.824506 C20.6079343,23.4931307 20.6055625,22.1547377 20.5821697,20.8232812 C20.5479577,18.8763342 20.5387956,16.9125899 20.5253122,14.9571955" id="Fill-21" fill="#505050"></path>
                    <path d="M19.2470256,26.6534282 C18.8881086,26.447799 18.6355638,25.5778792 18.470206,25.2239819 C18.2372852,24.7255203 17.9942437,24.2259216 17.7948364,23.712742 C17.4431484,22.8076681 17.2246531,21.8385401 17.1858438,20.8659195 C17.1403578,19.7258454 17.3107354,18.5358829 17.7436971,17.4775699 C17.9497974,16.9737799 18.2218037,16.4947636 18.5132065,16.0362485 C18.683779,15.7678649 19.2144219,15.262158 19.2458073,14.9222801 C19.5222484,15.6309195 19.2710682,16.8692109 19.2714581,17.6223616 C19.2719617,18.6273747 19.2716043,19.6323879 19.2715718,20.6373848 C19.2715231,22.6429113 19.2561716,24.6507608 19.2470256,26.6534282" id="Fill-23" fill="#505050"></path>
                </g>
                <g id="texto" transform="translate(50.000000, 35.000000)">
                    <path d="M23.2031029,10.8613899 C23.2037698,9.096003 23.2090024,7.3306161 23.198845,5.5652805 C23.1970495,5.2552233 23.2453741,5.0831118 23.616427,5.0721849 C25.7140327,5.0104197 27.8012758,5.06331 29.8136209,5.7376998 C33.0537802,6.8235156 33.9722554,10.0632132 31.8103708,12.7264527 C30.8264368,13.9386204 29.5391146,14.7340269 28.1309809,15.3523458 C26.7132028,15.9748713 25.2299659,16.3758834 23.709793,16.6621887 C23.2835926,16.7424732 23.1908935,16.6243293 23.1948949,16.2183411 C23.2124395,14.4328446 23.2024873,12.6470916 23.2031029,10.8613899" id="Fill-1" fill="#060606"></path>
                    <path d="M12.7339989,6.66190521 L12.7339989,9.07690401 C12.7339989,11.2886522 12.7334346,13.5004004 12.7345119,15.7121486 C12.7347171,16.1480447 12.8470641,16.5631643 12.1067538,16.5607532 C11.3870661,16.5583934 11.5159317,16.1540981 11.5158291,15.7452884 C11.5153161,12.5596097 11.5112121,9.37387971 11.5223442,6.18820101 C11.5234215,5.88183741 11.3480781,5.39392311 11.6465415,5.30040321 C12.0978789,5.15891781 12.6337587,5.09597271 13.0943301,5.44866021 C14.6885289,6.66954891 16.2917052,7.87884381 17.8924704,9.09116541 C18.7590813,9.74744631 19.6277442,10.400957 20.608395,11.1409082 C20.608395,9.85856211 20.608395,8.71277661 20.608395,7.56699111 C20.6084463,6.95821401 20.6374821,6.34769271 20.599161,5.74137801 C20.5698174,5.27798511 20.7788649,5.20165071 21.17013,5.22442791 C21.523074,5.24499921 21.8223069,5.18256711 21.8171919,5.73552981 C21.7902444,8.61664041 21.8050188,11.4981101 21.8053266,14.3794259 C21.8053779,14.9678882 21.7829085,15.5574791 21.8124573,16.1444537 C21.8381586,16.6552991 21.4996299,16.5609584 21.2073225,16.5603428 C20.9183496,16.5596759 20.5880802,16.6641227 20.6010591,16.1499941 C20.6276325,15.0954713 20.602752,14.0398199 20.6130633,12.9847841 C20.6159874,12.6840635 20.5649439,12.4536239 20.2969014,12.2536052 C17.8425555,10.4217848 15.3987261,8.57585691 12.9507927,6.73552071 C12.920577,6.71279481 12.8760486,6.70910121 12.7339989,6.66190521" id="Fill-3" fill="#050505"></path>
                    <path d="M43.1729822,8.25383142 C43.1379443,10.0651831 43.1120378,11.5895113 42.7848464,13.0827004 C42.4344161,14.6822344 41.7514592,16.0351693 40.0062332,16.5247765 C37.1984816,17.3123854 35.0108444,16.0049536 34.398425,13.1622154 C34.128074,11.9073661 34.0559462,10.631689 34.0347593,9.35339562 C34.0159835,8.21781882 34.0216778,7.08178032 34.0192154,5.94594702 C34.0175738,5.18224392 34.0197284,5.20625232 34.7839958,5.20517357 C35.1819299,5.20461072 35.2408223,5.36902722 35.2416431,5.71504572 C35.2462088,7.64089902 35.1726446,9.56900952 35.3660456,11.4909127 C35.4494594,12.3199207 35.5738106,13.1398999 35.9012072,13.9148377 C36.2612306,14.7671359 36.8895017,15.2588977 37.8113114,15.4195693 C39.8720837,15.7787206 41.1075416,14.9916247 41.5697033,12.9594265 C41.8862243,11.5677088 41.9301884,10.1465449 41.9502467,8.72630442 C41.9647646,7.69204512 41.9761019,6.65727282 41.9593781,5.62321872 C41.9500928,5.04845352 42.3553628,5.24760012 42.6364868,5.21943642 C42.9276143,5.19019542 43.1944256,5.16746952 43.1814467,5.62306482 C43.153796,6.59586672 43.1729822,7.56995112 43.1729822,8.25383142" id="Fill-5" fill="#050505"></path>
                    <path d="M4.45288104,13.562853 C4.84270974,12.1679547 4.14990324,10.8315384 3.00837564,9.57207213 C2.00310084,8.46286353 1.14346674,7.22135223 0.22524804,6.03385983 C0.09422784,5.86436463 -0.20197836,5.63674653 0.21334644,5.49125973 C0.52309584,5.38270893 0.74183904,4.72206753 1.20179484,5.30719533 C2.38020714,6.80633523 3.58257654,8.28669933 4.75303734,9.79194393 C5.01179454,10.1246757 5.13594054,10.1342175 5.39869914,9.79430373 C6.55248744,8.30178153 7.75018854,6.84311733 8.89689744,5.34531123 C9.37306404,4.72345263 9.61648254,5.35757193 9.92771964,5.48987463 C10.393934,5.68799523 9.99687204,5.91309963 9.86892984,6.07941423 C8.59479174,7.73522433 7.31634444,9.38790513 6.02050644,11.0266836 C5.76498114,11.349771 5.65981614,11.6726019 5.66597214,12.081309 C5.68592784,13.4000268 5.64894054,14.7198732 5.68444014,16.0379241 C5.69782944,16.5357906 5.45323104,16.5504624 5.09156604,16.5366114 C4.74554754,16.5234273 4.40363304,16.5975558 4.44144114,16.0336149 C4.48889364,15.326547 4.45288104,14.6138874 4.45288104,13.562853" id="Fill-7" fill="#050505"></path>
                    <path d="M40.6635914,2.96101548 C40.6862147,3.16093158 40.5938747,3.27522798 40.500047,3.37849488 C40.0113632,3.91642668 39.5110343,4.44379068 39.0271727,4.98592908 C38.7831899,5.25930678 38.577323,5.25761388 38.3235932,4.99413708 C37.8043859,4.45502538 37.2736874,3.92643018 36.7350374,3.40676118 C36.4804868,3.16118808 36.4856681,2.92808088 36.6791204,2.65808898 C37.256348,1.85247378 37.8250085,1.04065128 38.4062375,0.23790888 C38.5350005,0.06005178 38.6823854,-0.16377012 38.901539,0.17870868 C39.4357772,1.01330838 39.9817118,1.84046958 40.5193358,2.67291468 C40.5843842,2.77361658 40.627784,2.88832338 40.6635914,2.96101548" id="Fill-9" fill="#3D3D3D"></path>
                    <path d="M37.802616,23.4025624 C37.8020517,22.8756601 37.8199554,22.3478857 37.7963574,21.8220607 C37.7777355,21.4066846 37.9338414,21.2299048 38.3555274,21.2361121 C39.3281754,21.2503222 40.3010799,21.2415499 41.2738818,21.2427298 C41.4791331,21.2429863 41.6934645,21.2220046 41.6914777,21.5337547 C41.6894118,21.8565856 41.4570741,21.8075428 41.2631601,21.8085688 C40.4525175,21.812878 39.6409515,21.8342188 38.8314888,21.8035414 C38.2236864,21.780559 38.4049293,22.2019372 38.3929251,22.505428 C38.380767,22.8115351 38.2835535,23.1840757 38.8326174,23.1479605 C39.3371529,23.1147694 39.8455872,23.1350842 40.3521234,23.1432409 C40.5381885,23.1462676 40.7902254,23.0691637 40.8029991,23.3922511 C40.8176196,23.7634066 40.5334176,23.6753245 40.3303209,23.6793772 C39.823836,23.6895346 39.3161712,23.7024622 38.8106097,23.6784538 C38.2505163,23.6518291 38.3871282,24.049558 38.3951823,24.3418141 C38.4029799,24.6224251 38.223789,25.0311322 38.7959892,25.0162552 C39.6061188,24.9952222 40.4172231,25.008868 41.2278657,25.0135363 C41.4394269,25.0147675 41.699364,24.9502321 41.6897196,25.3158472 C41.6809986,25.6487842 41.4387087,25.5748096 41.2532079,25.5760408 C40.2804573,25.5824533 39.3075528,25.5732193 38.3349048,25.5838384 C37.9524633,25.5879424 37.7813265,25.4436868 37.7975886,25.0438033 C37.8199041,24.4975609 37.8031803,23.9497282 37.802616,23.4025624" id="Fill-11" fill="#272727"></path>
                    <path d="M12.6105557,21.2477623 C13.9252721,21.2648452 14.9712791,22.2527293 14.9480402,23.4553039 C14.9253656,24.6295096 13.871048,25.5766102 12.5843414,25.5786652 C11.2912223,25.5806629 10.1980193,24.5790817 10.2040986,23.3979505 C10.2102287,22.2170245 11.3138456,21.2308846 12.6105557,21.2477623" id="Fill-13" fill="#282828"></path>
                    <path d="M35.0031083,23.1650998 C35.6051651,23.1619705 35.7064826,23.2893484 35.5684856,23.87581 C35.3089589,24.9791704 34.0724237,25.7469775 32.8809812,25.5445477 C31.6145381,25.3293442 30.753878,24.319555 30.8814098,23.1984961 C31.0128404,22.0432714 32.16668,21.1605523 33.4248125,21.2527897 C34.424906,21.3260461 35.1156092,21.7653793 35.4449039,22.5444724 C35.1262796,22.6566655 34.898918,22.5759193 34.6450856,22.3310644 C34.0894553,21.7951846 33.3955715,21.6865825 32.6676245,21.9036841 C31.8002441,22.1624413 31.2975554,22.9956046 31.5076802,23.7720814 C31.747046,24.6564934 32.7949511,25.2245896 33.7466174,24.9488008 C34.3800185,24.7652494 34.8768077,24.4049182 34.9956185,23.6905657 C34.8976868,23.4677185 34.6109711,23.7011335 34.503908,23.4800818 C34.5582347,23.2051651 34.8663938,23.3160244 35.0031083,23.1650998" id="Fill-15" fill="#272727"></path>
                    <path d="M24.5262581,21.45366 C24.7624946,21.0350007 24.9539462,21.3273081 25.121492,21.5069607 C25.8952499,22.3367382 26.6586452,23.1762114 27.4265549,24.011478 C27.5476229,24.1432164 27.6726923,24.2711586 27.9212921,24.5327373 C27.9212921,23.589792 27.9212408,22.7963349 27.9213434,22.0028265 C27.9213434,21.8609307 27.926063,21.7189836 27.9214973,21.577293 C27.9145718,21.3630642 27.9781325,21.2295303 28.2281174,21.2389695 C28.4402429,21.2470749 28.5071381,21.3554718 28.5062744,21.5479494 C28.5004178,22.7637081 28.4978528,23.9795181 28.4924663,25.1953281 C28.4917481,25.3465605 28.4410124,25.4810691 28.2879845,25.5364731 C28.0677023,25.6161933 27.9514565,25.4444409 27.8322866,25.3150623 C27.0363671,24.4507599 26.2453724,23.5818918 25.4525309,22.7148192 C25.3591649,22.6127322 25.2640547,22.5122868 25.0184816,22.429899 L25.0184816,25.3525626 C24.5802257,25.4685006 24.5746853,25.2000477 24.5835602,24.8848092 C24.6113135,23.8983615 24.5685806,22.911093 24.6066965,21.9249531 C24.6132629,21.7554066 24.5273354,21.6144855 24.5262581,21.45366" id="Fill-17" fill="#2A2A2A"></path>
                    <path d="M20.8741136,21.3308735 C21.1992017,21.1734338 21.4040939,21.1742033 21.3906533,21.6361598 C21.3677222,22.4255129 21.3734678,23.215892 21.3795725,24.0058094 C21.3842921,24.6257186 21.0801857,25.0477124 20.5477943,25.307906 C19.8118445,25.6676216 19.059017,25.6738289 18.3240932,25.3053923 C17.7966779,25.0409408 17.4864668,24.617921 17.4891857,24.0009359 C17.4925202,23.231282 17.4916994,22.4615768 17.4879032,21.6919229 C17.4867233,21.4551734 17.4823115,21.242894 17.8197629,21.2468954 C18.1584455,21.2508968 18.0798539,21.4855943 18.0804182,21.6737627 C18.082778,22.4231531 18.0696452,23.1726974 18.0802643,23.9219339 C18.0901652,24.6227432 18.6069614,25.0186253 19.4671085,25.0081088 C20.2980659,24.9978488 20.7622796,24.611252 20.7935726,23.9226521 C20.8327658,23.0586062 20.6914856,22.1889686 20.8750883,21.3296423 C21.0324254,22.0407116 20.8720616,22.7612201 20.9220791,23.1704402 C20.882219,22.7613227 21.0290396,22.0415837 20.8741136,21.3308735" id="Fill-19" fill="#272727"></path>
                    <path d="M7.83276615,25.472897 C6.84262485,25.700669 5.84088975,25.5529763 4.84464375,25.5525146 C4.58937495,25.552412 4.56316065,25.3074032 4.56331455,25.0933283 C4.56393015,23.9407199 4.56449445,22.7881115 4.5616107,21.6355031 C4.56105735,21.4130663 4.58121825,21.2312078 4.87891215,21.2435198 C5.19302205,21.2564474 5.15398275,21.4766783 5.15444445,21.6754145 C5.15639385,22.6055348 5.17481055,23.5362707 5.14731375,24.4656215 C5.13495045,24.8822801 5.25340215,25.0176608 5.68545075,25.0239194 C6.40011105,25.0342307 7.12508265,24.8856659 7.83127845,25.1106164 C7.25676975,25.245125 6.67374525,25.1262116 6.18834465,25.1701757 C6.64276005,25.1863865 7.19295255,25.1423711 7.74288855,25.2887813 C7.24927995,25.4524283 6.73510005,25.3886624 6.33383145,25.4140046 C6.76747035,25.4515562 7.30242675,25.3443392 7.83276615,25.472897" id="Fill-21" fill="#2D2D2D"></path>
                    <path d="M35.0031083,23.1650998 C34.80863,23.3375191 34.6336457,23.5102462 34.9956185,23.6905657 C34.4301386,23.6865643 33.8646587,23.6817934 33.2991275,23.6790232 C33.1279394,23.6782024 32.9785025,23.6699431 32.9662931,23.4355534 C32.9525447,23.1738721 33.101366,23.1364231 33.3083615,23.1404245 C33.8732258,23.1512488 34.4381414,23.1572509 35.0031083,23.1650998" id="Fill-23" fill="#232323"></path>
                    <path d="M24.5262581,21.45366 C24.7027301,21.6269001 24.6967793,21.8357424 24.6899051,22.0685931 C24.6636908,22.956237 24.6634856,23.8446504 24.6556367,24.732756 C24.6532256,25.0097247 24.6974975,25.2631467 25.0184816,25.3525626 C25.0288955,25.6696479 24.7927103,25.5690999 24.6362453,25.5619692 C24.478703,25.5547872 24.4690073,25.411455 24.4722392,25.2901305 C24.5066102,24.011478 24.4069343,22.7309787 24.5262581,21.45366" id="Fill-25" fill="#161616"></path>
                    <path d="M7.83276615,25.472897 L5.71664115,25.472897 C5.71484565,25.4410397 5.71305015,25.4092337 5.71130595,25.3774277 L7.43411385,25.3774277 C7.43431905,25.3350026 7.43457555,25.2926288 7.43478075,25.2503063 L5.57577135,25.2503063 C5.57592525,25.2037772 5.57607915,25.1572481 5.57623305,25.1106164 L7.83127845,25.1106164 C7.83179145,25.2314279 7.83230445,25.3521368 7.83276615,25.472897" id="Fill-27" fill="#131313"></path>
                    <path d="M24.4284444,10.7479707 C24.4283931,9.40863033 24.4323945,8.06918733 24.4251099,6.72984693 C24.4236222,6.45713613 24.438807,6.25480893 24.7991382,6.26424813 C26.42463,6.30672453 28.0474029,6.37090083 29.5953291,6.94263933 C31.7385405,7.73430093 32.3681967,9.65830743 31.1269932,11.590881 C30.433212,12.6710538 29.4063399,13.3486755 28.296054,13.9233894 C27.2098791,14.4856374 26.0580915,14.8646931 24.878448,15.1771101 C24.5104218,15.2745801 24.4188513,15.1915767 24.4227501,14.826885 C24.4371141,13.4673837 24.4284444,12.1076259 24.4284444,10.7479707" id="Fill-29" fill="#FDE255"></path>
                    <path d="M41.2926679,21.4798931 L38.5976224,21.4798931 C38.5969555,21.4487931 38.5962886,21.4177931 38.595673,21.3867931 L41.2742512,21.3867931 C41.2804072,21.4177931 41.2865119,21.4487931 41.2926679,21.4798931" id="Fill-31" fill="#121212"></path>
                    <path d="M12.5827511,25.0062888 C11.5964573,25.0073649 10.7794022,24.2735184 10.7887901,23.3950572 C10.7979728,22.5399375 11.5954313,21.8249694 12.5527406,21.8137347 C13.5460112,21.8020896 14.3616812,22.511466 14.3716334,23.3956728 C14.3815343,24.2776224 13.5734567,25.0052103 12.5827511,25.0062888" id="Fill-33" fill="#FDE255"></path>
                    <path d="M20.8741136,21.3308734 C20.911973,21.4440926 20.9812793,21.5569012 20.9826644,21.6705821 C20.9921549,22.4717341 20.9876918,23.2730914 20.8750883,24.0763469 L20.8750883,21.3296422 L20.8741136,21.3308734 Z" id="Fill-35" fill="#151515"></path>
                </g>
            </g>
        </g>
    </g>
</svg>